%TF.GenerationSoftware,KiCad,Pcbnew,8.0.8+1*%
%TF.CreationDate,2025-05-19T02:25:48+00:00*%
%TF.ProjectId,mearchlar_wireless,6d656172-6368-46c6-9172-5f776972656c,0.2*%
%TF.SameCoordinates,Original*%
%TF.FileFunction,Drillmap*%
%TF.FilePolarity,Positive*%
%FSLAX45Y45*%
G04 Gerber Fmt 4.5, Leading zero omitted, Abs format (unit mm)*
G04 Created by KiCad (PCBNEW 8.0.8+1) date 2025-05-19 02:25:48*
%MOMM*%
%LPD*%
G01*
G04 APERTURE LIST*
%ADD10C,0.150000*%
%ADD11C,0.200000*%
%ADD12C,0.100000*%
%ADD13C,0.190000*%
%ADD14C,0.220000*%
%ADD15C,0.300000*%
%ADD16C,0.410000*%
%ADD17C,0.430000*%
G04 APERTURE END LIST*
D10*
X9100007Y-9126587D02*
X9154488Y-5825011D01*
X9183010Y-5780681D02*
X12001128Y-4440685D01*
X12028897Y-4404213D02*
X12090392Y-4055454D01*
X12143067Y-4014254D02*
X14616690Y-4184528D01*
X14668420Y-4147587D02*
X14697001Y-4040921D01*
X14758238Y-4005566D02*
X16308936Y-4421074D01*
X16344291Y-4482312D02*
X16313519Y-4597154D01*
X16330607Y-4649160D02*
X18762011Y-6591581D01*
X18724064Y-6763405D02*
X18776118Y-6651776D01*
X20080569Y-13476294D02*
X20299724Y-13732601D01*
X20290401Y-13806052D02*
X18238488Y-15242817D01*
X18168852Y-15230539D02*
X17272259Y-13950072D01*
X17262597Y-13939756D02*
X17106773Y-13814703D01*
X17090630Y-13806050D02*
X9134848Y-11276082D01*
X9100000Y-11228433D02*
X9100000Y-9127412D01*
X18748249Y-6829851D02*
X22371577Y-8519437D01*
X22395761Y-8585883D02*
X20137837Y-13428016D01*
X20121201Y-13447843D02*
X20080569Y-13476294D01*
X9154488Y-5825011D02*
G75*
G02*
X9183012Y-5780685I49992J-829D01*
G01*
X12028897Y-4404213D02*
G75*
G02*
X12001127Y-4440684I-49237J8683D01*
G01*
X12090392Y-4055454D02*
G75*
G02*
X12143066Y-4014260I49238J-8686D01*
G01*
X14668420Y-4147587D02*
G75*
G02*
X14616690Y-4184535I-48300J12937D01*
G01*
X14697001Y-4040921D02*
G75*
G02*
X14758240Y-4005561I48299J-12939D01*
G01*
X16308936Y-4421074D02*
G75*
G02*
X16344287Y-4482311I-12946J-48296D01*
G01*
X16330607Y-4649160D02*
G75*
G02*
X16313525Y-4597156I31213J39060D01*
G01*
X18762010Y-6591581D02*
G75*
G02*
X18776122Y-6651778I-31210J-39069D01*
G01*
X18748249Y-6829851D02*
G75*
G02*
X18724069Y-6763407I21131J45312D01*
G01*
X22371577Y-8519437D02*
G75*
G02*
X22395760Y-8585883I-21127J-45313D01*
G01*
X20137837Y-13428016D02*
G75*
G02*
X20121202Y-13447845I-45317J21126D01*
G01*
X20299724Y-13732601D02*
G75*
G02*
X20290397Y-13806047I-38004J-32489D01*
G01*
X18238488Y-15242817D02*
G75*
G02*
X18168853Y-15230538I-28678J40957D01*
G01*
X17262597Y-13939756D02*
G75*
G02*
X17272259Y-13950073I-31297J-38994D01*
G01*
X17090630Y-13806050D02*
G75*
G02*
X17106773Y-13814703I-15150J-47650D01*
G01*
X9134848Y-11276082D02*
G75*
G02*
X9099997Y-11228433I15153J47652D01*
G01*
X9100000Y-9127412D02*
G75*
G02*
X9100007Y-9126587I50050J2D01*
G01*
D11*
D12*
X9763855Y-11431094D02*
X9838855Y-11506094D01*
X9838855Y-11431094D02*
X9763855Y-11506094D01*
X9835030Y-11165465D02*
X9910030Y-11240465D01*
X9910030Y-11165465D02*
X9835030Y-11240465D01*
X13226401Y-12246794D02*
G75*
G02*
X13136401Y-12246794I-45000J0D01*
G01*
X13136401Y-12246794D02*
G75*
G02*
X13226401Y-12246794I45000J0D01*
G01*
X13508309Y-12349400D02*
G75*
G02*
X13418309Y-12349400I-45000J0D01*
G01*
X13418309Y-12349400D02*
G75*
G02*
X13508309Y-12349400I45000J0D01*
G01*
D13*
X9492000Y-6505000D02*
X9492000Y-6695000D01*
X9397000Y-6600000D02*
X9587000Y-6600000D01*
X9492000Y-6505000D02*
X9492000Y-6695000D01*
X9397000Y-6600000D02*
X9587000Y-6600000D01*
X9492000Y-8205000D02*
X9492000Y-8395000D01*
X9397000Y-8300000D02*
X9587000Y-8300000D01*
X9492000Y-8205000D02*
X9492000Y-8395000D01*
X9397000Y-8300000D02*
X9587000Y-8300000D01*
X10508000Y-6505000D02*
X10508000Y-6695000D01*
X10413000Y-6600000D02*
X10603000Y-6600000D01*
X10508000Y-6505000D02*
X10508000Y-6695000D01*
X10413000Y-6600000D02*
X10603000Y-6600000D01*
X10508000Y-8205000D02*
X10508000Y-8395000D01*
X10413000Y-8300000D02*
X10603000Y-8300000D01*
X10508000Y-8205000D02*
X10508000Y-8395000D01*
X10413000Y-8300000D02*
X10603000Y-8300000D01*
X11699718Y-8116787D02*
X11699718Y-8306787D01*
X11604718Y-8211787D02*
X11794718Y-8211787D01*
X11699718Y-8116787D02*
X11699718Y-8306787D01*
X11604718Y-8211787D02*
X11794718Y-8211787D01*
X11994920Y-6442613D02*
X11994920Y-6632613D01*
X11899920Y-6537613D02*
X12089920Y-6537613D01*
X11994920Y-6442613D02*
X11994920Y-6632613D01*
X11899920Y-6537613D02*
X12089920Y-6537613D01*
X12290121Y-4768440D02*
X12290121Y-4958440D01*
X12195121Y-4863440D02*
X12385121Y-4863440D01*
X12290121Y-4768440D02*
X12290121Y-4958440D01*
X12195121Y-4863440D02*
X12385121Y-4863440D01*
X12700282Y-8293213D02*
X12700282Y-8483213D01*
X12605282Y-8388213D02*
X12795282Y-8388213D01*
X12700282Y-8293213D02*
X12700282Y-8483213D01*
X12605282Y-8388213D02*
X12795282Y-8388213D01*
X12995484Y-6619040D02*
X12995484Y-6809040D01*
X12900484Y-6714040D02*
X13090484Y-6714040D01*
X12995484Y-6619040D02*
X12995484Y-6809040D01*
X12900484Y-6714040D02*
X13090484Y-6714040D01*
X13290686Y-4944867D02*
X13290686Y-5134867D01*
X13195686Y-5039867D02*
X13385686Y-5039867D01*
X13290686Y-4944867D02*
X13290686Y-5134867D01*
X13195686Y-5039867D02*
X13385686Y-5039867D01*
X13949687Y-8037003D02*
X13949687Y-8227003D01*
X13854687Y-8132003D02*
X14044687Y-8132003D01*
X13949687Y-8037003D02*
X13949687Y-8227003D01*
X13854687Y-8132003D02*
X14044687Y-8132003D01*
X14389680Y-6394929D02*
X14389680Y-6584929D01*
X14294680Y-6489929D02*
X14484680Y-6489929D01*
X14389680Y-6394929D02*
X14389680Y-6584929D01*
X14294680Y-6489929D02*
X14484680Y-6489929D01*
X14829672Y-4752855D02*
X14829672Y-4942855D01*
X14734672Y-4847855D02*
X14924672Y-4847855D01*
X14829672Y-4752855D02*
X14829672Y-4942855D01*
X14734672Y-4847855D02*
X14924672Y-4847855D01*
X14931068Y-8299963D02*
X14931068Y-8489963D01*
X14836068Y-8394963D02*
X15026068Y-8394963D01*
X14931068Y-8299963D02*
X14931068Y-8489963D01*
X14836068Y-8394963D02*
X15026068Y-8394963D01*
X15371060Y-6657889D02*
X15371060Y-6847889D01*
X15276060Y-6752889D02*
X15466060Y-6752889D01*
X15371060Y-6657889D02*
X15371060Y-6847889D01*
X15276060Y-6752889D02*
X15466060Y-6752889D01*
X15775016Y-9754750D02*
X15775016Y-9944750D01*
X15680016Y-9849750D02*
X15870016Y-9849750D01*
X15775016Y-9754750D02*
X15775016Y-9944750D01*
X15680016Y-9849750D02*
X15870016Y-9849750D01*
X15811053Y-5015815D02*
X15811053Y-5205815D01*
X15716053Y-5110815D02*
X15906053Y-5110815D01*
X15811053Y-5015815D02*
X15811053Y-5205815D01*
X15716053Y-5110815D02*
X15906053Y-5110815D01*
X16493467Y-8214027D02*
X16493467Y-8404027D01*
X16398467Y-8309027D02*
X16588467Y-8309027D01*
X16493467Y-8214027D02*
X16493467Y-8404027D01*
X16398467Y-8309027D02*
X16588467Y-8309027D01*
X16695001Y-12931919D02*
X16695001Y-13121919D01*
X16600001Y-13026919D02*
X16790002Y-13026919D01*
X16695001Y-12931919D02*
X16695001Y-13121919D01*
X16600001Y-13026919D02*
X16790002Y-13026919D01*
X16695824Y-10184130D02*
X16695824Y-10374130D01*
X16600824Y-10279130D02*
X16790825Y-10279130D01*
X16695824Y-10184130D02*
X16695824Y-10374130D01*
X16600824Y-10279130D02*
X16790825Y-10279130D01*
X17211918Y-6673303D02*
X17211918Y-6863303D01*
X17116918Y-6768303D02*
X17306918Y-6768303D01*
X17211918Y-6673303D02*
X17211918Y-6863303D01*
X17116918Y-6768303D02*
X17306918Y-6768303D01*
X17348074Y-12153618D02*
X17348074Y-12343618D01*
X17253074Y-12248618D02*
X17443074Y-12248618D01*
X17348074Y-12153618D02*
X17348074Y-12343618D01*
X17253074Y-12248618D02*
X17443074Y-12248618D01*
X17414276Y-8643407D02*
X17414276Y-8833407D01*
X17319276Y-8738407D02*
X17509276Y-8738407D01*
X17414276Y-8643407D02*
X17414276Y-8833407D01*
X17319276Y-8738407D02*
X17509276Y-8738407D01*
X18132727Y-7102684D02*
X18132727Y-7292684D01*
X18037727Y-7197684D02*
X18227727Y-7197684D01*
X18132727Y-7102684D02*
X18132727Y-7292684D01*
X18037727Y-7197684D02*
X18227727Y-7197684D01*
X18385969Y-14051206D02*
X18385969Y-14241206D01*
X18290969Y-14146206D02*
X18480969Y-14146206D01*
X18385969Y-14051206D02*
X18385969Y-14241206D01*
X18290969Y-14146206D02*
X18480969Y-14146206D01*
X19218228Y-13468452D02*
X19218228Y-13658452D01*
X19123228Y-13563452D02*
X19313228Y-13563452D01*
X19218228Y-13468452D02*
X19218228Y-13658452D01*
X19123228Y-13563452D02*
X19313228Y-13563452D01*
D14*
X17301300Y-10884452D02*
X17301300Y-10728887D01*
X17145735Y-10728887D01*
X17145735Y-10884452D01*
X17301300Y-10884452D01*
X18191242Y-12206304D02*
X18191242Y-12050739D01*
X18035677Y-12050739D01*
X18035677Y-12206304D01*
X18191242Y-12206304D01*
D15*
X9619000Y-7004000D02*
X9769000Y-6854000D01*
X9619000Y-6704000D01*
X9469000Y-6854000D01*
X9619000Y-7004000D01*
X9619000Y-8704000D02*
X9769000Y-8554000D01*
X9619000Y-8404000D01*
X9469000Y-8554000D01*
X9619000Y-8704000D01*
X9746000Y-7258000D02*
X9896000Y-7108000D01*
X9746000Y-6958000D01*
X9596000Y-7108000D01*
X9746000Y-7258000D01*
X9746000Y-8958000D02*
X9896000Y-8808000D01*
X9746000Y-8658000D01*
X9596000Y-8808000D01*
X9746000Y-8958000D01*
X10254000Y-7258000D02*
X10404000Y-7108000D01*
X10254000Y-6958000D01*
X10104000Y-7108000D01*
X10254000Y-7258000D01*
X10254000Y-8958000D02*
X10404000Y-8808000D01*
X10254000Y-8658000D01*
X10104000Y-8808000D01*
X10254000Y-8958000D01*
X10381000Y-7004000D02*
X10531000Y-6854000D01*
X10381000Y-6704000D01*
X10231000Y-6854000D01*
X10381000Y-7004000D01*
X10381000Y-8704000D02*
X10531000Y-8554000D01*
X10381000Y-8404000D01*
X10231000Y-8554000D01*
X10381000Y-8704000D01*
X11780682Y-8633981D02*
X11930682Y-8483981D01*
X11780682Y-8333981D01*
X11630682Y-8483981D01*
X11780682Y-8633981D01*
X11861646Y-8906176D02*
X12011646Y-8756176D01*
X11861646Y-8606176D01*
X11711646Y-8756176D01*
X11861646Y-8906176D01*
X12075883Y-6959808D02*
X12225883Y-6809808D01*
X12075883Y-6659808D01*
X11925883Y-6809808D01*
X12075883Y-6959808D01*
X12156847Y-7232002D02*
X12306847Y-7082002D01*
X12156847Y-6932002D01*
X12006847Y-7082002D01*
X12156847Y-7232002D01*
X12361928Y-8994389D02*
X12511928Y-8844389D01*
X12361928Y-8694389D01*
X12211928Y-8844389D01*
X12361928Y-8994389D01*
X12371085Y-5285635D02*
X12521085Y-5135635D01*
X12371085Y-4985635D01*
X12221085Y-5135635D01*
X12371085Y-5285635D01*
X12452049Y-5557829D02*
X12602049Y-5407829D01*
X12452049Y-5257829D01*
X12302049Y-5407829D01*
X12452049Y-5557829D01*
X12531105Y-8766301D02*
X12681105Y-8616301D01*
X12531105Y-8466301D01*
X12381105Y-8616301D01*
X12531105Y-8766301D01*
X12657130Y-7320216D02*
X12807130Y-7170216D01*
X12657130Y-7020216D01*
X12507130Y-7170216D01*
X12657130Y-7320216D01*
X12826307Y-7092128D02*
X12976307Y-6942128D01*
X12826307Y-6792128D01*
X12676307Y-6942128D01*
X12826307Y-7092128D01*
X12952332Y-5646043D02*
X13102332Y-5496043D01*
X12952332Y-5346043D01*
X12802332Y-5496043D01*
X12952332Y-5646043D01*
X13121509Y-5417955D02*
X13271509Y-5267955D01*
X13121509Y-5117955D01*
X12971509Y-5267955D01*
X13121509Y-5417955D01*
X14006620Y-8560218D02*
X14156620Y-8410218D01*
X14006620Y-8260218D01*
X13856620Y-8410218D01*
X14006620Y-8560218D01*
X14063552Y-8838433D02*
X14213552Y-8688433D01*
X14063552Y-8538433D01*
X13913552Y-8688433D01*
X14063552Y-8838433D01*
X14446612Y-6918144D02*
X14596612Y-6768144D01*
X14446612Y-6618144D01*
X14296612Y-6768144D01*
X14446612Y-6918144D01*
X14503545Y-7196359D02*
X14653545Y-7046359D01*
X14503545Y-6896359D01*
X14353545Y-7046359D01*
X14503545Y-7196359D01*
X14554243Y-8969913D02*
X14704243Y-8819913D01*
X14554243Y-8669913D01*
X14404243Y-8819913D01*
X14554243Y-8969913D01*
X14742655Y-8757438D02*
X14892655Y-8607438D01*
X14742655Y-8457438D01*
X14592655Y-8607438D01*
X14742655Y-8757438D01*
X14886604Y-5276070D02*
X15036604Y-5126070D01*
X14886604Y-4976070D01*
X14736604Y-5126070D01*
X14886604Y-5276070D01*
X14943537Y-5554285D02*
X15093537Y-5404285D01*
X14943537Y-5254285D01*
X14793537Y-5404285D01*
X14943537Y-5554285D01*
X14994235Y-7327839D02*
X15144235Y-7177839D01*
X14994235Y-7027839D01*
X14844235Y-7177839D01*
X14994235Y-7327839D01*
X15182648Y-7115364D02*
X15332648Y-6965364D01*
X15182648Y-6815364D01*
X15032648Y-6965364D01*
X15182648Y-7115364D01*
X15434227Y-5685765D02*
X15584227Y-5535765D01*
X15434227Y-5385765D01*
X15284227Y-5535765D01*
X15434227Y-5685765D01*
X15622640Y-5473290D02*
X15772640Y-5323290D01*
X15622640Y-5173290D01*
X15472640Y-5323290D01*
X15622640Y-5473290D01*
X15782772Y-10283625D02*
X15932772Y-10133625D01*
X15782772Y-9983625D01*
X15632772Y-10133625D01*
X15782772Y-10283625D01*
X15790528Y-10567499D02*
X15940528Y-10417499D01*
X15790528Y-10267499D01*
X15640528Y-10417499D01*
X15790528Y-10567499D01*
X16250932Y-10782189D02*
X16400932Y-10632189D01*
X16250932Y-10482189D01*
X16100932Y-10632189D01*
X16250932Y-10782189D01*
X16473378Y-10605660D02*
X16623378Y-10455660D01*
X16473378Y-10305660D01*
X16323378Y-10455660D01*
X16473378Y-10605660D01*
X16501223Y-8742901D02*
X16651223Y-8592901D01*
X16501223Y-8442901D01*
X16351223Y-8592901D01*
X16501223Y-8742901D01*
X16508979Y-9026776D02*
X16658979Y-8876776D01*
X16508979Y-8726776D01*
X16358979Y-8876776D01*
X16508979Y-9026776D01*
X16969383Y-9241466D02*
X17119383Y-9091466D01*
X16969383Y-8941466D01*
X16819383Y-9091466D01*
X16969383Y-9241466D01*
X16971211Y-13242899D02*
X17121211Y-13092899D01*
X16971211Y-12942899D01*
X16821211Y-13092899D01*
X16971211Y-13242899D01*
X17191829Y-9064937D02*
X17341829Y-8914937D01*
X17191829Y-8764937D01*
X17041829Y-8914937D01*
X17191829Y-9064937D01*
X17219674Y-7202178D02*
X17369674Y-7052178D01*
X17219674Y-6902178D01*
X17069674Y-7052178D01*
X17219674Y-7202178D01*
X17227430Y-7486053D02*
X17377430Y-7336053D01*
X17227430Y-7186053D01*
X17077430Y-7336053D01*
X17227430Y-7486053D01*
X17247420Y-13308880D02*
X17397420Y-13158880D01*
X17247420Y-13008880D01*
X17097420Y-13158880D01*
X17247420Y-13308880D01*
X17461015Y-12659174D02*
X17611015Y-12509174D01*
X17461015Y-12359174D01*
X17311015Y-12509174D01*
X17461015Y-12659174D01*
X17573956Y-12919729D02*
X17723956Y-12769729D01*
X17573956Y-12619729D01*
X17423956Y-12769729D01*
X17573956Y-12919729D01*
X17687834Y-7700743D02*
X17837834Y-7550743D01*
X17687834Y-7400743D01*
X17537834Y-7550743D01*
X17687834Y-7700743D01*
X17910280Y-7524213D02*
X18060280Y-7374213D01*
X17910280Y-7224213D01*
X17760280Y-7374213D01*
X17910280Y-7524213D01*
X18635690Y-14431426D02*
X18785690Y-14281426D01*
X18635690Y-14131426D01*
X18485690Y-14281426D01*
X18635690Y-14431426D01*
X18885411Y-14566647D02*
X19035411Y-14416647D01*
X18885411Y-14266647D01*
X18735411Y-14416647D01*
X18885411Y-14566647D01*
X19259884Y-13994361D02*
X19409884Y-13844361D01*
X19259884Y-13694361D01*
X19109884Y-13844361D01*
X19259884Y-13994361D01*
X19301540Y-14275270D02*
X19451540Y-14125270D01*
X19301540Y-13975270D01*
X19151540Y-14125270D01*
X19301540Y-14275270D01*
D16*
X9795000Y-6395000D02*
X10205000Y-6805000D01*
X10205000Y-6395000D02*
X9795000Y-6805000D01*
X10205000Y-6600000D02*
G75*
G02*
X9795000Y-6600000I-205000J0D01*
G01*
X9795000Y-6600000D02*
G75*
G02*
X10205000Y-6600000I205000J0D01*
G01*
X9795000Y-6395000D02*
X10205000Y-6805000D01*
X10205000Y-6395000D02*
X9795000Y-6805000D01*
X10205000Y-6600000D02*
G75*
G02*
X9795000Y-6600000I-205000J0D01*
G01*
X9795000Y-6600000D02*
G75*
G02*
X10205000Y-6600000I205000J0D01*
G01*
X9795000Y-8095000D02*
X10205000Y-8505000D01*
X10205000Y-8095000D02*
X9795000Y-8505000D01*
X10205000Y-8300000D02*
G75*
G02*
X9795000Y-8300000I-205000J0D01*
G01*
X9795000Y-8300000D02*
G75*
G02*
X10205000Y-8300000I205000J0D01*
G01*
X9795000Y-8095000D02*
X10205000Y-8505000D01*
X10205000Y-8095000D02*
X9795000Y-8505000D01*
X10205000Y-8300000D02*
G75*
G02*
X9795000Y-8300000I-205000J0D01*
G01*
X9795000Y-8300000D02*
G75*
G02*
X10205000Y-8300000I205000J0D01*
G01*
X11995000Y-8095000D02*
X12405000Y-8505000D01*
X12405000Y-8095000D02*
X11995000Y-8505000D01*
X12405000Y-8300000D02*
G75*
G02*
X11995000Y-8300000I-205000J0D01*
G01*
X11995000Y-8300000D02*
G75*
G02*
X12405000Y-8300000I205000J0D01*
G01*
X11995000Y-8095000D02*
X12405000Y-8505000D01*
X12405000Y-8095000D02*
X11995000Y-8505000D01*
X12405000Y-8300000D02*
G75*
G02*
X11995000Y-8300000I-205000J0D01*
G01*
X11995000Y-8300000D02*
G75*
G02*
X12405000Y-8300000I205000J0D01*
G01*
X12290202Y-6420827D02*
X12700202Y-6830827D01*
X12700202Y-6420827D02*
X12290202Y-6830827D01*
X12700202Y-6625827D02*
G75*
G02*
X12290202Y-6625827I-205000J0D01*
G01*
X12290202Y-6625827D02*
G75*
G02*
X12700202Y-6625827I205000J0D01*
G01*
X12290202Y-6420827D02*
X12700202Y-6830827D01*
X12700202Y-6420827D02*
X12290202Y-6830827D01*
X12700202Y-6625827D02*
G75*
G02*
X12290202Y-6625827I-205000J0D01*
G01*
X12290202Y-6625827D02*
G75*
G02*
X12700202Y-6625827I205000J0D01*
G01*
X12585404Y-4746654D02*
X12995404Y-5156654D01*
X12995404Y-4746654D02*
X12585404Y-5156654D01*
X12995404Y-4951654D02*
G75*
G02*
X12585404Y-4951654I-205000J0D01*
G01*
X12585404Y-4951654D02*
G75*
G02*
X12995404Y-4951654I205000J0D01*
G01*
X12585404Y-4746654D02*
X12995404Y-5156654D01*
X12995404Y-4746654D02*
X12585404Y-5156654D01*
X12995404Y-4951654D02*
G75*
G02*
X12585404Y-4951654I-205000J0D01*
G01*
X12585404Y-4951654D02*
G75*
G02*
X12995404Y-4951654I205000J0D01*
G01*
X14235377Y-8058483D02*
X14645377Y-8468483D01*
X14645377Y-8058483D02*
X14235377Y-8468483D01*
X14645377Y-8263483D02*
G75*
G02*
X14235377Y-8263483I-205000J0D01*
G01*
X14235377Y-8263483D02*
G75*
G02*
X14645377Y-8263483I205000J0D01*
G01*
X14235377Y-8058483D02*
X14645377Y-8468483D01*
X14645377Y-8058483D02*
X14235377Y-8468483D01*
X14645377Y-8263483D02*
G75*
G02*
X14235377Y-8263483I-205000J0D01*
G01*
X14235377Y-8263483D02*
G75*
G02*
X14645377Y-8263483I205000J0D01*
G01*
X14675370Y-6416409D02*
X15085370Y-6826409D01*
X15085370Y-6416409D02*
X14675370Y-6826409D01*
X15085370Y-6621409D02*
G75*
G02*
X14675370Y-6621409I-205000J0D01*
G01*
X14675370Y-6621409D02*
G75*
G02*
X15085370Y-6621409I205000J0D01*
G01*
X14675370Y-6416409D02*
X15085370Y-6826409D01*
X15085370Y-6416409D02*
X14675370Y-6826409D01*
X15085370Y-6621409D02*
G75*
G02*
X14675370Y-6621409I-205000J0D01*
G01*
X14675370Y-6621409D02*
G75*
G02*
X15085370Y-6621409I205000J0D01*
G01*
X15115362Y-4774335D02*
X15525362Y-5184335D01*
X15525362Y-4774335D02*
X15115362Y-5184335D01*
X15525362Y-4979335D02*
G75*
G02*
X15115362Y-4979335I-205000J0D01*
G01*
X15115362Y-4979335D02*
G75*
G02*
X15525362Y-4979335I205000J0D01*
G01*
X15115362Y-4774335D02*
X15525362Y-5184335D01*
X15525362Y-4774335D02*
X15115362Y-5184335D01*
X15525362Y-4979335D02*
G75*
G02*
X15115362Y-4979335I-205000J0D01*
G01*
X15115362Y-4979335D02*
G75*
G02*
X15525362Y-4979335I205000J0D01*
G01*
X16030420Y-9859440D02*
X16440420Y-10269440D01*
X16440420Y-9859440D02*
X16030420Y-10269440D01*
X16440420Y-10064440D02*
G75*
G02*
X16030420Y-10064440I-205000J0D01*
G01*
X16030420Y-10064440D02*
G75*
G02*
X16440420Y-10064440I205000J0D01*
G01*
X16030420Y-9859440D02*
X16440420Y-10269440D01*
X16440420Y-9859440D02*
X16030420Y-10269440D01*
X16440420Y-10064440D02*
G75*
G02*
X16030420Y-10064440I-205000J0D01*
G01*
X16030420Y-10064440D02*
G75*
G02*
X16440420Y-10064440I205000J0D01*
G01*
X16748871Y-8318717D02*
X17158871Y-8728717D01*
X17158871Y-8318717D02*
X16748871Y-8728717D01*
X17158871Y-8523717D02*
G75*
G02*
X16748871Y-8523717I-205000J0D01*
G01*
X16748871Y-8523717D02*
G75*
G02*
X17158871Y-8523717I205000J0D01*
G01*
X16748871Y-8318717D02*
X17158871Y-8728717D01*
X17158871Y-8318717D02*
X16748871Y-8728717D01*
X17158871Y-8523717D02*
G75*
G02*
X16748871Y-8523717I-205000J0D01*
G01*
X16748871Y-8523717D02*
G75*
G02*
X17158871Y-8523717I205000J0D01*
G01*
X16816538Y-12432768D02*
X17226538Y-12842768D01*
X17226538Y-12432768D02*
X16816538Y-12842768D01*
X17226538Y-12637768D02*
G75*
G02*
X16816538Y-12637768I-205000J0D01*
G01*
X16816538Y-12637768D02*
G75*
G02*
X17226538Y-12637768I205000J0D01*
G01*
X16816538Y-12432768D02*
X17226538Y-12842768D01*
X17226538Y-12432768D02*
X16816538Y-12842768D01*
X17226538Y-12637768D02*
G75*
G02*
X16816538Y-12637768I-205000J0D01*
G01*
X16816538Y-12637768D02*
G75*
G02*
X17226538Y-12637768I205000J0D01*
G01*
X17467322Y-6777993D02*
X17877322Y-7187993D01*
X17877322Y-6777993D02*
X17467322Y-7187993D01*
X17877322Y-6982993D02*
G75*
G02*
X17467322Y-6982993I-205000J0D01*
G01*
X17467322Y-6982993D02*
G75*
G02*
X17877322Y-6982993I205000J0D01*
G01*
X17467322Y-6777993D02*
X17877322Y-7187993D01*
X17877322Y-6777993D02*
X17467322Y-7187993D01*
X17877322Y-6982993D02*
G75*
G02*
X17467322Y-6982993I-205000J0D01*
G01*
X17467322Y-6982993D02*
G75*
G02*
X17877322Y-6982993I205000J0D01*
G01*
X18597098Y-13649829D02*
X19007098Y-14059829D01*
X19007098Y-13649829D02*
X18597098Y-14059829D01*
X19007098Y-13854829D02*
G75*
G02*
X18597098Y-13854829I-205000J0D01*
G01*
X18597098Y-13854829D02*
G75*
G02*
X19007098Y-13854829I205000J0D01*
G01*
X18597098Y-13649829D02*
X19007098Y-14059829D01*
X19007098Y-13649829D02*
X18597098Y-14059829D01*
X19007098Y-13854829D02*
G75*
G02*
X18597098Y-13854829I-205000J0D01*
G01*
X18597098Y-13854829D02*
G75*
G02*
X19007098Y-13854829I205000J0D01*
G01*
D17*
X11246274Y-7091630D02*
X11676274Y-7521630D01*
X11676274Y-7091630D02*
X11246274Y-7521630D01*
X11461274Y-7091630D02*
X11461274Y-7521630D01*
X11246274Y-7306630D02*
X11676274Y-7306630D01*
X11541476Y-5417457D02*
X11971476Y-5847457D01*
X11971476Y-5417457D02*
X11541476Y-5847457D01*
X11756476Y-5417457D02*
X11756476Y-5847457D01*
X11541476Y-5632457D02*
X11971476Y-5632457D01*
X16327656Y-7053418D02*
X16757656Y-7483418D01*
X16757656Y-7053418D02*
X16327656Y-7483418D01*
X16542656Y-7053418D02*
X16542656Y-7483418D01*
X16327656Y-7268418D02*
X16757656Y-7268418D01*
X17127875Y-13882123D02*
X17557875Y-14312123D01*
X17557875Y-13882123D02*
X17127875Y-14312123D01*
X17342875Y-13882123D02*
X17342875Y-14312123D01*
X17127875Y-14097123D02*
X17557875Y-14097123D01*
X17948650Y-12728031D02*
X18378650Y-13158031D01*
X18378650Y-12728031D02*
X17948650Y-13158031D01*
X18163650Y-12728031D02*
X18163650Y-13158031D01*
X17948650Y-12943031D02*
X18378650Y-12943031D01*
D11*
X9353277Y-15570843D02*
X9353277Y-15370843D01*
X9353277Y-15370843D02*
X9400896Y-15370843D01*
X9400896Y-15370843D02*
X9429467Y-15380367D01*
X9429467Y-15380367D02*
X9448515Y-15399414D01*
X9448515Y-15399414D02*
X9458039Y-15418462D01*
X9458039Y-15418462D02*
X9467563Y-15456557D01*
X9467563Y-15456557D02*
X9467563Y-15485129D01*
X9467563Y-15485129D02*
X9458039Y-15523224D01*
X9458039Y-15523224D02*
X9448515Y-15542272D01*
X9448515Y-15542272D02*
X9429467Y-15561319D01*
X9429467Y-15561319D02*
X9400896Y-15570843D01*
X9400896Y-15570843D02*
X9353277Y-15570843D01*
X9553277Y-15570843D02*
X9553277Y-15437510D01*
X9553277Y-15475605D02*
X9562801Y-15456557D01*
X9562801Y-15456557D02*
X9572324Y-15447033D01*
X9572324Y-15447033D02*
X9591372Y-15437510D01*
X9591372Y-15437510D02*
X9610420Y-15437510D01*
X9677086Y-15570843D02*
X9677086Y-15437510D01*
X9677086Y-15370843D02*
X9667563Y-15380367D01*
X9667563Y-15380367D02*
X9677086Y-15389891D01*
X9677086Y-15389891D02*
X9686610Y-15380367D01*
X9686610Y-15380367D02*
X9677086Y-15370843D01*
X9677086Y-15370843D02*
X9677086Y-15389891D01*
X9800896Y-15570843D02*
X9781848Y-15561319D01*
X9781848Y-15561319D02*
X9772324Y-15542272D01*
X9772324Y-15542272D02*
X9772324Y-15370843D01*
X9905658Y-15570843D02*
X9886610Y-15561319D01*
X9886610Y-15561319D02*
X9877086Y-15542272D01*
X9877086Y-15542272D02*
X9877086Y-15370843D01*
X10134229Y-15570843D02*
X10134229Y-15370843D01*
X10134229Y-15370843D02*
X10200896Y-15513700D01*
X10200896Y-15513700D02*
X10267563Y-15370843D01*
X10267563Y-15370843D02*
X10267563Y-15570843D01*
X10448515Y-15570843D02*
X10448515Y-15466081D01*
X10448515Y-15466081D02*
X10438991Y-15447033D01*
X10438991Y-15447033D02*
X10419944Y-15437510D01*
X10419944Y-15437510D02*
X10381848Y-15437510D01*
X10381848Y-15437510D02*
X10362801Y-15447033D01*
X10448515Y-15561319D02*
X10429467Y-15570843D01*
X10429467Y-15570843D02*
X10381848Y-15570843D01*
X10381848Y-15570843D02*
X10362801Y-15561319D01*
X10362801Y-15561319D02*
X10353277Y-15542272D01*
X10353277Y-15542272D02*
X10353277Y-15523224D01*
X10353277Y-15523224D02*
X10362801Y-15504176D01*
X10362801Y-15504176D02*
X10381848Y-15494653D01*
X10381848Y-15494653D02*
X10429467Y-15494653D01*
X10429467Y-15494653D02*
X10448515Y-15485129D01*
X10543753Y-15437510D02*
X10543753Y-15637510D01*
X10543753Y-15447033D02*
X10562801Y-15437510D01*
X10562801Y-15437510D02*
X10600896Y-15437510D01*
X10600896Y-15437510D02*
X10619944Y-15447033D01*
X10619944Y-15447033D02*
X10629467Y-15456557D01*
X10629467Y-15456557D02*
X10638991Y-15475605D01*
X10638991Y-15475605D02*
X10638991Y-15532748D01*
X10638991Y-15532748D02*
X10629467Y-15551795D01*
X10629467Y-15551795D02*
X10619944Y-15561319D01*
X10619944Y-15561319D02*
X10600896Y-15570843D01*
X10600896Y-15570843D02*
X10562801Y-15570843D01*
X10562801Y-15570843D02*
X10543753Y-15561319D01*
X10724705Y-15551795D02*
X10734229Y-15561319D01*
X10734229Y-15561319D02*
X10724705Y-15570843D01*
X10724705Y-15570843D02*
X10715182Y-15561319D01*
X10715182Y-15561319D02*
X10724705Y-15551795D01*
X10724705Y-15551795D02*
X10724705Y-15570843D01*
X10724705Y-15447033D02*
X10734229Y-15456557D01*
X10734229Y-15456557D02*
X10724705Y-15466081D01*
X10724705Y-15466081D02*
X10715182Y-15456557D01*
X10715182Y-15456557D02*
X10724705Y-15447033D01*
X10724705Y-15447033D02*
X10724705Y-15466081D01*
D12*
X9017500Y-15861859D02*
X9092500Y-15936859D01*
X9092500Y-15861859D02*
X9017500Y-15936859D01*
D11*
X9391372Y-15790843D02*
X9410420Y-15790843D01*
X9410420Y-15790843D02*
X9429467Y-15800367D01*
X9429467Y-15800367D02*
X9438991Y-15809891D01*
X9438991Y-15809891D02*
X9448515Y-15828938D01*
X9448515Y-15828938D02*
X9458039Y-15867033D01*
X9458039Y-15867033D02*
X9458039Y-15914653D01*
X9458039Y-15914653D02*
X9448515Y-15952748D01*
X9448515Y-15952748D02*
X9438991Y-15971795D01*
X9438991Y-15971795D02*
X9429467Y-15981319D01*
X9429467Y-15981319D02*
X9410420Y-15990843D01*
X9410420Y-15990843D02*
X9391372Y-15990843D01*
X9391372Y-15990843D02*
X9372324Y-15981319D01*
X9372324Y-15981319D02*
X9362801Y-15971795D01*
X9362801Y-15971795D02*
X9353277Y-15952748D01*
X9353277Y-15952748D02*
X9343753Y-15914653D01*
X9343753Y-15914653D02*
X9343753Y-15867033D01*
X9343753Y-15867033D02*
X9353277Y-15828938D01*
X9353277Y-15828938D02*
X9362801Y-15809891D01*
X9362801Y-15809891D02*
X9372324Y-15800367D01*
X9372324Y-15800367D02*
X9391372Y-15790843D01*
X9543753Y-15971795D02*
X9553277Y-15981319D01*
X9553277Y-15981319D02*
X9543753Y-15990843D01*
X9543753Y-15990843D02*
X9534229Y-15981319D01*
X9534229Y-15981319D02*
X9543753Y-15971795D01*
X9543753Y-15971795D02*
X9543753Y-15990843D01*
X9619944Y-15790843D02*
X9753277Y-15790843D01*
X9753277Y-15790843D02*
X9667563Y-15990843D01*
X9924705Y-15790843D02*
X9829467Y-15790843D01*
X9829467Y-15790843D02*
X9819944Y-15886081D01*
X9819944Y-15886081D02*
X9829467Y-15876557D01*
X9829467Y-15876557D02*
X9848515Y-15867033D01*
X9848515Y-15867033D02*
X9896134Y-15867033D01*
X9896134Y-15867033D02*
X9915182Y-15876557D01*
X9915182Y-15876557D02*
X9924705Y-15886081D01*
X9924705Y-15886081D02*
X9934229Y-15905129D01*
X9934229Y-15905129D02*
X9934229Y-15952748D01*
X9934229Y-15952748D02*
X9924705Y-15971795D01*
X9924705Y-15971795D02*
X9915182Y-15981319D01*
X9915182Y-15981319D02*
X9896134Y-15990843D01*
X9896134Y-15990843D02*
X9848515Y-15990843D01*
X9848515Y-15990843D02*
X9829467Y-15981319D01*
X9829467Y-15981319D02*
X9819944Y-15971795D01*
X10058039Y-15790843D02*
X10077086Y-15790843D01*
X10077086Y-15790843D02*
X10096134Y-15800367D01*
X10096134Y-15800367D02*
X10105658Y-15809891D01*
X10105658Y-15809891D02*
X10115182Y-15828938D01*
X10115182Y-15828938D02*
X10124705Y-15867033D01*
X10124705Y-15867033D02*
X10124705Y-15914653D01*
X10124705Y-15914653D02*
X10115182Y-15952748D01*
X10115182Y-15952748D02*
X10105658Y-15971795D01*
X10105658Y-15971795D02*
X10096134Y-15981319D01*
X10096134Y-15981319D02*
X10077086Y-15990843D01*
X10077086Y-15990843D02*
X10058039Y-15990843D01*
X10058039Y-15990843D02*
X10038991Y-15981319D01*
X10038991Y-15981319D02*
X10029467Y-15971795D01*
X10029467Y-15971795D02*
X10019944Y-15952748D01*
X10019944Y-15952748D02*
X10010420Y-15914653D01*
X10010420Y-15914653D02*
X10010420Y-15867033D01*
X10010420Y-15867033D02*
X10019944Y-15828938D01*
X10019944Y-15828938D02*
X10029467Y-15809891D01*
X10029467Y-15809891D02*
X10038991Y-15800367D01*
X10038991Y-15800367D02*
X10058039Y-15790843D01*
X10210420Y-15990843D02*
X10210420Y-15857510D01*
X10210420Y-15876557D02*
X10219944Y-15867033D01*
X10219944Y-15867033D02*
X10238991Y-15857510D01*
X10238991Y-15857510D02*
X10267563Y-15857510D01*
X10267563Y-15857510D02*
X10286610Y-15867033D01*
X10286610Y-15867033D02*
X10296134Y-15886081D01*
X10296134Y-15886081D02*
X10296134Y-15990843D01*
X10296134Y-15886081D02*
X10305658Y-15867033D01*
X10305658Y-15867033D02*
X10324705Y-15857510D01*
X10324705Y-15857510D02*
X10353277Y-15857510D01*
X10353277Y-15857510D02*
X10372325Y-15867033D01*
X10372325Y-15867033D02*
X10381848Y-15886081D01*
X10381848Y-15886081D02*
X10381848Y-15990843D01*
X10477086Y-15990843D02*
X10477086Y-15857510D01*
X10477086Y-15876557D02*
X10486610Y-15867033D01*
X10486610Y-15867033D02*
X10505658Y-15857510D01*
X10505658Y-15857510D02*
X10534229Y-15857510D01*
X10534229Y-15857510D02*
X10553277Y-15867033D01*
X10553277Y-15867033D02*
X10562801Y-15886081D01*
X10562801Y-15886081D02*
X10562801Y-15990843D01*
X10562801Y-15886081D02*
X10572325Y-15867033D01*
X10572325Y-15867033D02*
X10591372Y-15857510D01*
X10591372Y-15857510D02*
X10619944Y-15857510D01*
X10619944Y-15857510D02*
X10638991Y-15867033D01*
X10638991Y-15867033D02*
X10648515Y-15886081D01*
X10648515Y-15886081D02*
X10648515Y-15990843D01*
X11038991Y-15781319D02*
X10867563Y-16038462D01*
X11296134Y-15790843D02*
X11315182Y-15790843D01*
X11315182Y-15790843D02*
X11334229Y-15800367D01*
X11334229Y-15800367D02*
X11343753Y-15809891D01*
X11343753Y-15809891D02*
X11353277Y-15828938D01*
X11353277Y-15828938D02*
X11362801Y-15867033D01*
X11362801Y-15867033D02*
X11362801Y-15914653D01*
X11362801Y-15914653D02*
X11353277Y-15952748D01*
X11353277Y-15952748D02*
X11343753Y-15971795D01*
X11343753Y-15971795D02*
X11334229Y-15981319D01*
X11334229Y-15981319D02*
X11315182Y-15990843D01*
X11315182Y-15990843D02*
X11296134Y-15990843D01*
X11296134Y-15990843D02*
X11277086Y-15981319D01*
X11277086Y-15981319D02*
X11267563Y-15971795D01*
X11267563Y-15971795D02*
X11258039Y-15952748D01*
X11258039Y-15952748D02*
X11248515Y-15914653D01*
X11248515Y-15914653D02*
X11248515Y-15867033D01*
X11248515Y-15867033D02*
X11258039Y-15828938D01*
X11258039Y-15828938D02*
X11267563Y-15809891D01*
X11267563Y-15809891D02*
X11277086Y-15800367D01*
X11277086Y-15800367D02*
X11296134Y-15790843D01*
X11448515Y-15971795D02*
X11458039Y-15981319D01*
X11458039Y-15981319D02*
X11448515Y-15990843D01*
X11448515Y-15990843D02*
X11438991Y-15981319D01*
X11438991Y-15981319D02*
X11448515Y-15971795D01*
X11448515Y-15971795D02*
X11448515Y-15990843D01*
X11581848Y-15790843D02*
X11600896Y-15790843D01*
X11600896Y-15790843D02*
X11619944Y-15800367D01*
X11619944Y-15800367D02*
X11629467Y-15809891D01*
X11629467Y-15809891D02*
X11638991Y-15828938D01*
X11638991Y-15828938D02*
X11648515Y-15867033D01*
X11648515Y-15867033D02*
X11648515Y-15914653D01*
X11648515Y-15914653D02*
X11638991Y-15952748D01*
X11638991Y-15952748D02*
X11629467Y-15971795D01*
X11629467Y-15971795D02*
X11619944Y-15981319D01*
X11619944Y-15981319D02*
X11600896Y-15990843D01*
X11600896Y-15990843D02*
X11581848Y-15990843D01*
X11581848Y-15990843D02*
X11562801Y-15981319D01*
X11562801Y-15981319D02*
X11553277Y-15971795D01*
X11553277Y-15971795D02*
X11543753Y-15952748D01*
X11543753Y-15952748D02*
X11534229Y-15914653D01*
X11534229Y-15914653D02*
X11534229Y-15867033D01*
X11534229Y-15867033D02*
X11543753Y-15828938D01*
X11543753Y-15828938D02*
X11553277Y-15809891D01*
X11553277Y-15809891D02*
X11562801Y-15800367D01*
X11562801Y-15800367D02*
X11581848Y-15790843D01*
X11724706Y-15809891D02*
X11734229Y-15800367D01*
X11734229Y-15800367D02*
X11753277Y-15790843D01*
X11753277Y-15790843D02*
X11800896Y-15790843D01*
X11800896Y-15790843D02*
X11819944Y-15800367D01*
X11819944Y-15800367D02*
X11829467Y-15809891D01*
X11829467Y-15809891D02*
X11838991Y-15828938D01*
X11838991Y-15828938D02*
X11838991Y-15847986D01*
X11838991Y-15847986D02*
X11829467Y-15876557D01*
X11829467Y-15876557D02*
X11715182Y-15990843D01*
X11715182Y-15990843D02*
X11838991Y-15990843D01*
X11934229Y-15990843D02*
X11972325Y-15990843D01*
X11972325Y-15990843D02*
X11991372Y-15981319D01*
X11991372Y-15981319D02*
X12000896Y-15971795D01*
X12000896Y-15971795D02*
X12019944Y-15943224D01*
X12019944Y-15943224D02*
X12029467Y-15905129D01*
X12029467Y-15905129D02*
X12029467Y-15828938D01*
X12029467Y-15828938D02*
X12019944Y-15809891D01*
X12019944Y-15809891D02*
X12010420Y-15800367D01*
X12010420Y-15800367D02*
X11991372Y-15790843D01*
X11991372Y-15790843D02*
X11953277Y-15790843D01*
X11953277Y-15790843D02*
X11934229Y-15800367D01*
X11934229Y-15800367D02*
X11924706Y-15809891D01*
X11924706Y-15809891D02*
X11915182Y-15828938D01*
X11915182Y-15828938D02*
X11915182Y-15876557D01*
X11915182Y-15876557D02*
X11924706Y-15895605D01*
X11924706Y-15895605D02*
X11934229Y-15905129D01*
X11934229Y-15905129D02*
X11953277Y-15914653D01*
X11953277Y-15914653D02*
X11991372Y-15914653D01*
X11991372Y-15914653D02*
X12010420Y-15905129D01*
X12010420Y-15905129D02*
X12019944Y-15895605D01*
X12019944Y-15895605D02*
X12029467Y-15876557D01*
X12210420Y-15790843D02*
X12115182Y-15790843D01*
X12115182Y-15790843D02*
X12105658Y-15886081D01*
X12105658Y-15886081D02*
X12115182Y-15876557D01*
X12115182Y-15876557D02*
X12134229Y-15867033D01*
X12134229Y-15867033D02*
X12181848Y-15867033D01*
X12181848Y-15867033D02*
X12200896Y-15876557D01*
X12200896Y-15876557D02*
X12210420Y-15886081D01*
X12210420Y-15886081D02*
X12219944Y-15905129D01*
X12219944Y-15905129D02*
X12219944Y-15952748D01*
X12219944Y-15952748D02*
X12210420Y-15971795D01*
X12210420Y-15971795D02*
X12200896Y-15981319D01*
X12200896Y-15981319D02*
X12181848Y-15990843D01*
X12181848Y-15990843D02*
X12134229Y-15990843D01*
X12134229Y-15990843D02*
X12115182Y-15981319D01*
X12115182Y-15981319D02*
X12105658Y-15971795D01*
X12296134Y-15790843D02*
X12296134Y-15828938D01*
X12372325Y-15790843D02*
X12372325Y-15828938D01*
X12667563Y-16067033D02*
X12658039Y-16057510D01*
X12658039Y-16057510D02*
X12638991Y-16028938D01*
X12638991Y-16028938D02*
X12629468Y-16009891D01*
X12629468Y-16009891D02*
X12619944Y-15981319D01*
X12619944Y-15981319D02*
X12610420Y-15933700D01*
X12610420Y-15933700D02*
X12610420Y-15895605D01*
X12610420Y-15895605D02*
X12619944Y-15847986D01*
X12619944Y-15847986D02*
X12629468Y-15819414D01*
X12629468Y-15819414D02*
X12638991Y-15800367D01*
X12638991Y-15800367D02*
X12658039Y-15771795D01*
X12658039Y-15771795D02*
X12667563Y-15762272D01*
X12734229Y-15809891D02*
X12743753Y-15800367D01*
X12743753Y-15800367D02*
X12762801Y-15790843D01*
X12762801Y-15790843D02*
X12810420Y-15790843D01*
X12810420Y-15790843D02*
X12829468Y-15800367D01*
X12829468Y-15800367D02*
X12838991Y-15809891D01*
X12838991Y-15809891D02*
X12848515Y-15828938D01*
X12848515Y-15828938D02*
X12848515Y-15847986D01*
X12848515Y-15847986D02*
X12838991Y-15876557D01*
X12838991Y-15876557D02*
X12724706Y-15990843D01*
X12724706Y-15990843D02*
X12848515Y-15990843D01*
X13086610Y-15990843D02*
X13086610Y-15790843D01*
X13172325Y-15990843D02*
X13172325Y-15886081D01*
X13172325Y-15886081D02*
X13162801Y-15867033D01*
X13162801Y-15867033D02*
X13143753Y-15857510D01*
X13143753Y-15857510D02*
X13115182Y-15857510D01*
X13115182Y-15857510D02*
X13096134Y-15867033D01*
X13096134Y-15867033D02*
X13086610Y-15876557D01*
X13296134Y-15990843D02*
X13277087Y-15981319D01*
X13277087Y-15981319D02*
X13267563Y-15971795D01*
X13267563Y-15971795D02*
X13258039Y-15952748D01*
X13258039Y-15952748D02*
X13258039Y-15895605D01*
X13258039Y-15895605D02*
X13267563Y-15876557D01*
X13267563Y-15876557D02*
X13277087Y-15867033D01*
X13277087Y-15867033D02*
X13296134Y-15857510D01*
X13296134Y-15857510D02*
X13324706Y-15857510D01*
X13324706Y-15857510D02*
X13343753Y-15867033D01*
X13343753Y-15867033D02*
X13353277Y-15876557D01*
X13353277Y-15876557D02*
X13362801Y-15895605D01*
X13362801Y-15895605D02*
X13362801Y-15952748D01*
X13362801Y-15952748D02*
X13353277Y-15971795D01*
X13353277Y-15971795D02*
X13343753Y-15981319D01*
X13343753Y-15981319D02*
X13324706Y-15990843D01*
X13324706Y-15990843D02*
X13296134Y-15990843D01*
X13477087Y-15990843D02*
X13458039Y-15981319D01*
X13458039Y-15981319D02*
X13448515Y-15962272D01*
X13448515Y-15962272D02*
X13448515Y-15790843D01*
X13629468Y-15981319D02*
X13610420Y-15990843D01*
X13610420Y-15990843D02*
X13572325Y-15990843D01*
X13572325Y-15990843D02*
X13553277Y-15981319D01*
X13553277Y-15981319D02*
X13543753Y-15962272D01*
X13543753Y-15962272D02*
X13543753Y-15886081D01*
X13543753Y-15886081D02*
X13553277Y-15867033D01*
X13553277Y-15867033D02*
X13572325Y-15857510D01*
X13572325Y-15857510D02*
X13610420Y-15857510D01*
X13610420Y-15857510D02*
X13629468Y-15867033D01*
X13629468Y-15867033D02*
X13638991Y-15886081D01*
X13638991Y-15886081D02*
X13638991Y-15905129D01*
X13638991Y-15905129D02*
X13543753Y-15924176D01*
X13715182Y-15981319D02*
X13734230Y-15990843D01*
X13734230Y-15990843D02*
X13772325Y-15990843D01*
X13772325Y-15990843D02*
X13791372Y-15981319D01*
X13791372Y-15981319D02*
X13800896Y-15962272D01*
X13800896Y-15962272D02*
X13800896Y-15952748D01*
X13800896Y-15952748D02*
X13791372Y-15933700D01*
X13791372Y-15933700D02*
X13772325Y-15924176D01*
X13772325Y-15924176D02*
X13743753Y-15924176D01*
X13743753Y-15924176D02*
X13724706Y-15914653D01*
X13724706Y-15914653D02*
X13715182Y-15895605D01*
X13715182Y-15895605D02*
X13715182Y-15886081D01*
X13715182Y-15886081D02*
X13724706Y-15867033D01*
X13724706Y-15867033D02*
X13743753Y-15857510D01*
X13743753Y-15857510D02*
X13772325Y-15857510D01*
X13772325Y-15857510D02*
X13791372Y-15867033D01*
X13867563Y-16067033D02*
X13877087Y-16057510D01*
X13877087Y-16057510D02*
X13896134Y-16028938D01*
X13896134Y-16028938D02*
X13905658Y-16009891D01*
X13905658Y-16009891D02*
X13915182Y-15981319D01*
X13915182Y-15981319D02*
X13924706Y-15933700D01*
X13924706Y-15933700D02*
X13924706Y-15895605D01*
X13924706Y-15895605D02*
X13915182Y-15847986D01*
X13915182Y-15847986D02*
X13905658Y-15819414D01*
X13905658Y-15819414D02*
X13896134Y-15800367D01*
X13896134Y-15800367D02*
X13877087Y-15771795D01*
X13877087Y-15771795D02*
X13867563Y-15762272D01*
X14229468Y-16067033D02*
X14219944Y-16057510D01*
X14219944Y-16057510D02*
X14200896Y-16028938D01*
X14200896Y-16028938D02*
X14191372Y-16009891D01*
X14191372Y-16009891D02*
X14181849Y-15981319D01*
X14181849Y-15981319D02*
X14172325Y-15933700D01*
X14172325Y-15933700D02*
X14172325Y-15895605D01*
X14172325Y-15895605D02*
X14181849Y-15847986D01*
X14181849Y-15847986D02*
X14191372Y-15819414D01*
X14191372Y-15819414D02*
X14200896Y-15800367D01*
X14200896Y-15800367D02*
X14219944Y-15771795D01*
X14219944Y-15771795D02*
X14229468Y-15762272D01*
X14305658Y-15857510D02*
X14305658Y-15990843D01*
X14305658Y-15876557D02*
X14315182Y-15867033D01*
X14315182Y-15867033D02*
X14334230Y-15857510D01*
X14334230Y-15857510D02*
X14362801Y-15857510D01*
X14362801Y-15857510D02*
X14381849Y-15867033D01*
X14381849Y-15867033D02*
X14391372Y-15886081D01*
X14391372Y-15886081D02*
X14391372Y-15990843D01*
X14515182Y-15990843D02*
X14496134Y-15981319D01*
X14496134Y-15981319D02*
X14486611Y-15971795D01*
X14486611Y-15971795D02*
X14477087Y-15952748D01*
X14477087Y-15952748D02*
X14477087Y-15895605D01*
X14477087Y-15895605D02*
X14486611Y-15876557D01*
X14486611Y-15876557D02*
X14496134Y-15867033D01*
X14496134Y-15867033D02*
X14515182Y-15857510D01*
X14515182Y-15857510D02*
X14543753Y-15857510D01*
X14543753Y-15857510D02*
X14562801Y-15867033D01*
X14562801Y-15867033D02*
X14572325Y-15876557D01*
X14572325Y-15876557D02*
X14581849Y-15895605D01*
X14581849Y-15895605D02*
X14581849Y-15952748D01*
X14581849Y-15952748D02*
X14572325Y-15971795D01*
X14572325Y-15971795D02*
X14562801Y-15981319D01*
X14562801Y-15981319D02*
X14543753Y-15990843D01*
X14543753Y-15990843D02*
X14515182Y-15990843D01*
X14638992Y-15857510D02*
X14715182Y-15857510D01*
X14667563Y-15790843D02*
X14667563Y-15962272D01*
X14667563Y-15962272D02*
X14677087Y-15981319D01*
X14677087Y-15981319D02*
X14696134Y-15990843D01*
X14696134Y-15990843D02*
X14715182Y-15990843D01*
X14934230Y-15857510D02*
X14934230Y-16057510D01*
X14934230Y-15867033D02*
X14953277Y-15857510D01*
X14953277Y-15857510D02*
X14991373Y-15857510D01*
X14991373Y-15857510D02*
X15010420Y-15867033D01*
X15010420Y-15867033D02*
X15019944Y-15876557D01*
X15019944Y-15876557D02*
X15029468Y-15895605D01*
X15029468Y-15895605D02*
X15029468Y-15952748D01*
X15029468Y-15952748D02*
X15019944Y-15971795D01*
X15019944Y-15971795D02*
X15010420Y-15981319D01*
X15010420Y-15981319D02*
X14991373Y-15990843D01*
X14991373Y-15990843D02*
X14953277Y-15990843D01*
X14953277Y-15990843D02*
X14934230Y-15981319D01*
X15143753Y-15990843D02*
X15124706Y-15981319D01*
X15124706Y-15981319D02*
X15115182Y-15962272D01*
X15115182Y-15962272D02*
X15115182Y-15790843D01*
X15305658Y-15990843D02*
X15305658Y-15886081D01*
X15305658Y-15886081D02*
X15296134Y-15867033D01*
X15296134Y-15867033D02*
X15277087Y-15857510D01*
X15277087Y-15857510D02*
X15238992Y-15857510D01*
X15238992Y-15857510D02*
X15219944Y-15867033D01*
X15305658Y-15981319D02*
X15286611Y-15990843D01*
X15286611Y-15990843D02*
X15238992Y-15990843D01*
X15238992Y-15990843D02*
X15219944Y-15981319D01*
X15219944Y-15981319D02*
X15210420Y-15962272D01*
X15210420Y-15962272D02*
X15210420Y-15943224D01*
X15210420Y-15943224D02*
X15219944Y-15924176D01*
X15219944Y-15924176D02*
X15238992Y-15914653D01*
X15238992Y-15914653D02*
X15286611Y-15914653D01*
X15286611Y-15914653D02*
X15305658Y-15905129D01*
X15372325Y-15857510D02*
X15448515Y-15857510D01*
X15400896Y-15790843D02*
X15400896Y-15962272D01*
X15400896Y-15962272D02*
X15410420Y-15981319D01*
X15410420Y-15981319D02*
X15429468Y-15990843D01*
X15429468Y-15990843D02*
X15448515Y-15990843D01*
X15591373Y-15981319D02*
X15572325Y-15990843D01*
X15572325Y-15990843D02*
X15534230Y-15990843D01*
X15534230Y-15990843D02*
X15515182Y-15981319D01*
X15515182Y-15981319D02*
X15505658Y-15962272D01*
X15505658Y-15962272D02*
X15505658Y-15886081D01*
X15505658Y-15886081D02*
X15515182Y-15867033D01*
X15515182Y-15867033D02*
X15534230Y-15857510D01*
X15534230Y-15857510D02*
X15572325Y-15857510D01*
X15572325Y-15857510D02*
X15591373Y-15867033D01*
X15591373Y-15867033D02*
X15600896Y-15886081D01*
X15600896Y-15886081D02*
X15600896Y-15905129D01*
X15600896Y-15905129D02*
X15505658Y-15924176D01*
X15772325Y-15990843D02*
X15772325Y-15790843D01*
X15772325Y-15981319D02*
X15753277Y-15990843D01*
X15753277Y-15990843D02*
X15715182Y-15990843D01*
X15715182Y-15990843D02*
X15696134Y-15981319D01*
X15696134Y-15981319D02*
X15686611Y-15971795D01*
X15686611Y-15971795D02*
X15677087Y-15952748D01*
X15677087Y-15952748D02*
X15677087Y-15895605D01*
X15677087Y-15895605D02*
X15686611Y-15876557D01*
X15686611Y-15876557D02*
X15696134Y-15867033D01*
X15696134Y-15867033D02*
X15715182Y-15857510D01*
X15715182Y-15857510D02*
X15753277Y-15857510D01*
X15753277Y-15857510D02*
X15772325Y-15867033D01*
X15848515Y-16067033D02*
X15858039Y-16057510D01*
X15858039Y-16057510D02*
X15877087Y-16028938D01*
X15877087Y-16028938D02*
X15886611Y-16009891D01*
X15886611Y-16009891D02*
X15896134Y-15981319D01*
X15896134Y-15981319D02*
X15905658Y-15933700D01*
X15905658Y-15933700D02*
X15905658Y-15895605D01*
X15905658Y-15895605D02*
X15896134Y-15847986D01*
X15896134Y-15847986D02*
X15886611Y-15819414D01*
X15886611Y-15819414D02*
X15877087Y-15800367D01*
X15877087Y-15800367D02*
X15858039Y-15771795D01*
X15858039Y-15771795D02*
X15848515Y-15762272D01*
D12*
X9092500Y-16163359D02*
G75*
G02*
X9002500Y-16163359I-45000J0D01*
G01*
X9002500Y-16163359D02*
G75*
G02*
X9092500Y-16163359I45000J0D01*
G01*
D11*
X9391372Y-16054843D02*
X9410420Y-16054843D01*
X9410420Y-16054843D02*
X9429467Y-16064367D01*
X9429467Y-16064367D02*
X9438991Y-16073891D01*
X9438991Y-16073891D02*
X9448515Y-16092938D01*
X9448515Y-16092938D02*
X9458039Y-16131033D01*
X9458039Y-16131033D02*
X9458039Y-16178653D01*
X9458039Y-16178653D02*
X9448515Y-16216748D01*
X9448515Y-16216748D02*
X9438991Y-16235795D01*
X9438991Y-16235795D02*
X9429467Y-16245319D01*
X9429467Y-16245319D02*
X9410420Y-16254843D01*
X9410420Y-16254843D02*
X9391372Y-16254843D01*
X9391372Y-16254843D02*
X9372324Y-16245319D01*
X9372324Y-16245319D02*
X9362801Y-16235795D01*
X9362801Y-16235795D02*
X9353277Y-16216748D01*
X9353277Y-16216748D02*
X9343753Y-16178653D01*
X9343753Y-16178653D02*
X9343753Y-16131033D01*
X9343753Y-16131033D02*
X9353277Y-16092938D01*
X9353277Y-16092938D02*
X9362801Y-16073891D01*
X9362801Y-16073891D02*
X9372324Y-16064367D01*
X9372324Y-16064367D02*
X9391372Y-16054843D01*
X9543753Y-16235795D02*
X9553277Y-16245319D01*
X9553277Y-16245319D02*
X9543753Y-16254843D01*
X9543753Y-16254843D02*
X9534229Y-16245319D01*
X9534229Y-16245319D02*
X9543753Y-16235795D01*
X9543753Y-16235795D02*
X9543753Y-16254843D01*
X9648515Y-16254843D02*
X9686610Y-16254843D01*
X9686610Y-16254843D02*
X9705658Y-16245319D01*
X9705658Y-16245319D02*
X9715182Y-16235795D01*
X9715182Y-16235795D02*
X9734229Y-16207224D01*
X9734229Y-16207224D02*
X9743753Y-16169129D01*
X9743753Y-16169129D02*
X9743753Y-16092938D01*
X9743753Y-16092938D02*
X9734229Y-16073891D01*
X9734229Y-16073891D02*
X9724705Y-16064367D01*
X9724705Y-16064367D02*
X9705658Y-16054843D01*
X9705658Y-16054843D02*
X9667563Y-16054843D01*
X9667563Y-16054843D02*
X9648515Y-16064367D01*
X9648515Y-16064367D02*
X9638991Y-16073891D01*
X9638991Y-16073891D02*
X9629467Y-16092938D01*
X9629467Y-16092938D02*
X9629467Y-16140557D01*
X9629467Y-16140557D02*
X9638991Y-16159605D01*
X9638991Y-16159605D02*
X9648515Y-16169129D01*
X9648515Y-16169129D02*
X9667563Y-16178653D01*
X9667563Y-16178653D02*
X9705658Y-16178653D01*
X9705658Y-16178653D02*
X9724705Y-16169129D01*
X9724705Y-16169129D02*
X9734229Y-16159605D01*
X9734229Y-16159605D02*
X9743753Y-16140557D01*
X9867563Y-16054843D02*
X9886610Y-16054843D01*
X9886610Y-16054843D02*
X9905658Y-16064367D01*
X9905658Y-16064367D02*
X9915182Y-16073891D01*
X9915182Y-16073891D02*
X9924705Y-16092938D01*
X9924705Y-16092938D02*
X9934229Y-16131033D01*
X9934229Y-16131033D02*
X9934229Y-16178653D01*
X9934229Y-16178653D02*
X9924705Y-16216748D01*
X9924705Y-16216748D02*
X9915182Y-16235795D01*
X9915182Y-16235795D02*
X9905658Y-16245319D01*
X9905658Y-16245319D02*
X9886610Y-16254843D01*
X9886610Y-16254843D02*
X9867563Y-16254843D01*
X9867563Y-16254843D02*
X9848515Y-16245319D01*
X9848515Y-16245319D02*
X9838991Y-16235795D01*
X9838991Y-16235795D02*
X9829467Y-16216748D01*
X9829467Y-16216748D02*
X9819944Y-16178653D01*
X9819944Y-16178653D02*
X9819944Y-16131033D01*
X9819944Y-16131033D02*
X9829467Y-16092938D01*
X9829467Y-16092938D02*
X9838991Y-16073891D01*
X9838991Y-16073891D02*
X9848515Y-16064367D01*
X9848515Y-16064367D02*
X9867563Y-16054843D01*
X10058039Y-16054843D02*
X10077086Y-16054843D01*
X10077086Y-16054843D02*
X10096134Y-16064367D01*
X10096134Y-16064367D02*
X10105658Y-16073891D01*
X10105658Y-16073891D02*
X10115182Y-16092938D01*
X10115182Y-16092938D02*
X10124705Y-16131033D01*
X10124705Y-16131033D02*
X10124705Y-16178653D01*
X10124705Y-16178653D02*
X10115182Y-16216748D01*
X10115182Y-16216748D02*
X10105658Y-16235795D01*
X10105658Y-16235795D02*
X10096134Y-16245319D01*
X10096134Y-16245319D02*
X10077086Y-16254843D01*
X10077086Y-16254843D02*
X10058039Y-16254843D01*
X10058039Y-16254843D02*
X10038991Y-16245319D01*
X10038991Y-16245319D02*
X10029467Y-16235795D01*
X10029467Y-16235795D02*
X10019944Y-16216748D01*
X10019944Y-16216748D02*
X10010420Y-16178653D01*
X10010420Y-16178653D02*
X10010420Y-16131033D01*
X10010420Y-16131033D02*
X10019944Y-16092938D01*
X10019944Y-16092938D02*
X10029467Y-16073891D01*
X10029467Y-16073891D02*
X10038991Y-16064367D01*
X10038991Y-16064367D02*
X10058039Y-16054843D01*
X10210420Y-16254843D02*
X10210420Y-16121510D01*
X10210420Y-16140557D02*
X10219944Y-16131033D01*
X10219944Y-16131033D02*
X10238991Y-16121510D01*
X10238991Y-16121510D02*
X10267563Y-16121510D01*
X10267563Y-16121510D02*
X10286610Y-16131033D01*
X10286610Y-16131033D02*
X10296134Y-16150081D01*
X10296134Y-16150081D02*
X10296134Y-16254843D01*
X10296134Y-16150081D02*
X10305658Y-16131033D01*
X10305658Y-16131033D02*
X10324705Y-16121510D01*
X10324705Y-16121510D02*
X10353277Y-16121510D01*
X10353277Y-16121510D02*
X10372325Y-16131033D01*
X10372325Y-16131033D02*
X10381848Y-16150081D01*
X10381848Y-16150081D02*
X10381848Y-16254843D01*
X10477086Y-16254843D02*
X10477086Y-16121510D01*
X10477086Y-16140557D02*
X10486610Y-16131033D01*
X10486610Y-16131033D02*
X10505658Y-16121510D01*
X10505658Y-16121510D02*
X10534229Y-16121510D01*
X10534229Y-16121510D02*
X10553277Y-16131033D01*
X10553277Y-16131033D02*
X10562801Y-16150081D01*
X10562801Y-16150081D02*
X10562801Y-16254843D01*
X10562801Y-16150081D02*
X10572325Y-16131033D01*
X10572325Y-16131033D02*
X10591372Y-16121510D01*
X10591372Y-16121510D02*
X10619944Y-16121510D01*
X10619944Y-16121510D02*
X10638991Y-16131033D01*
X10638991Y-16131033D02*
X10648515Y-16150081D01*
X10648515Y-16150081D02*
X10648515Y-16254843D01*
X11038991Y-16045319D02*
X10867563Y-16302462D01*
X11296134Y-16054843D02*
X11315182Y-16054843D01*
X11315182Y-16054843D02*
X11334229Y-16064367D01*
X11334229Y-16064367D02*
X11343753Y-16073891D01*
X11343753Y-16073891D02*
X11353277Y-16092938D01*
X11353277Y-16092938D02*
X11362801Y-16131033D01*
X11362801Y-16131033D02*
X11362801Y-16178653D01*
X11362801Y-16178653D02*
X11353277Y-16216748D01*
X11353277Y-16216748D02*
X11343753Y-16235795D01*
X11343753Y-16235795D02*
X11334229Y-16245319D01*
X11334229Y-16245319D02*
X11315182Y-16254843D01*
X11315182Y-16254843D02*
X11296134Y-16254843D01*
X11296134Y-16254843D02*
X11277086Y-16245319D01*
X11277086Y-16245319D02*
X11267563Y-16235795D01*
X11267563Y-16235795D02*
X11258039Y-16216748D01*
X11258039Y-16216748D02*
X11248515Y-16178653D01*
X11248515Y-16178653D02*
X11248515Y-16131033D01*
X11248515Y-16131033D02*
X11258039Y-16092938D01*
X11258039Y-16092938D02*
X11267563Y-16073891D01*
X11267563Y-16073891D02*
X11277086Y-16064367D01*
X11277086Y-16064367D02*
X11296134Y-16054843D01*
X11448515Y-16235795D02*
X11458039Y-16245319D01*
X11458039Y-16245319D02*
X11448515Y-16254843D01*
X11448515Y-16254843D02*
X11438991Y-16245319D01*
X11438991Y-16245319D02*
X11448515Y-16235795D01*
X11448515Y-16235795D02*
X11448515Y-16254843D01*
X11581848Y-16054843D02*
X11600896Y-16054843D01*
X11600896Y-16054843D02*
X11619944Y-16064367D01*
X11619944Y-16064367D02*
X11629467Y-16073891D01*
X11629467Y-16073891D02*
X11638991Y-16092938D01*
X11638991Y-16092938D02*
X11648515Y-16131033D01*
X11648515Y-16131033D02*
X11648515Y-16178653D01*
X11648515Y-16178653D02*
X11638991Y-16216748D01*
X11638991Y-16216748D02*
X11629467Y-16235795D01*
X11629467Y-16235795D02*
X11619944Y-16245319D01*
X11619944Y-16245319D02*
X11600896Y-16254843D01*
X11600896Y-16254843D02*
X11581848Y-16254843D01*
X11581848Y-16254843D02*
X11562801Y-16245319D01*
X11562801Y-16245319D02*
X11553277Y-16235795D01*
X11553277Y-16235795D02*
X11543753Y-16216748D01*
X11543753Y-16216748D02*
X11534229Y-16178653D01*
X11534229Y-16178653D02*
X11534229Y-16131033D01*
X11534229Y-16131033D02*
X11543753Y-16092938D01*
X11543753Y-16092938D02*
X11553277Y-16073891D01*
X11553277Y-16073891D02*
X11562801Y-16064367D01*
X11562801Y-16064367D02*
X11581848Y-16054843D01*
X11715182Y-16054843D02*
X11838991Y-16054843D01*
X11838991Y-16054843D02*
X11772325Y-16131033D01*
X11772325Y-16131033D02*
X11800896Y-16131033D01*
X11800896Y-16131033D02*
X11819944Y-16140557D01*
X11819944Y-16140557D02*
X11829467Y-16150081D01*
X11829467Y-16150081D02*
X11838991Y-16169129D01*
X11838991Y-16169129D02*
X11838991Y-16216748D01*
X11838991Y-16216748D02*
X11829467Y-16235795D01*
X11829467Y-16235795D02*
X11819944Y-16245319D01*
X11819944Y-16245319D02*
X11800896Y-16254843D01*
X11800896Y-16254843D02*
X11743753Y-16254843D01*
X11743753Y-16254843D02*
X11724706Y-16245319D01*
X11724706Y-16245319D02*
X11715182Y-16235795D01*
X12019944Y-16054843D02*
X11924706Y-16054843D01*
X11924706Y-16054843D02*
X11915182Y-16150081D01*
X11915182Y-16150081D02*
X11924706Y-16140557D01*
X11924706Y-16140557D02*
X11943753Y-16131033D01*
X11943753Y-16131033D02*
X11991372Y-16131033D01*
X11991372Y-16131033D02*
X12010420Y-16140557D01*
X12010420Y-16140557D02*
X12019944Y-16150081D01*
X12019944Y-16150081D02*
X12029467Y-16169129D01*
X12029467Y-16169129D02*
X12029467Y-16216748D01*
X12029467Y-16216748D02*
X12019944Y-16235795D01*
X12019944Y-16235795D02*
X12010420Y-16245319D01*
X12010420Y-16245319D02*
X11991372Y-16254843D01*
X11991372Y-16254843D02*
X11943753Y-16254843D01*
X11943753Y-16254843D02*
X11924706Y-16245319D01*
X11924706Y-16245319D02*
X11915182Y-16235795D01*
X12200896Y-16121510D02*
X12200896Y-16254843D01*
X12153277Y-16045319D02*
X12105658Y-16188176D01*
X12105658Y-16188176D02*
X12229467Y-16188176D01*
X12296134Y-16054843D02*
X12296134Y-16092938D01*
X12372325Y-16054843D02*
X12372325Y-16092938D01*
X12667563Y-16331033D02*
X12658039Y-16321510D01*
X12658039Y-16321510D02*
X12638991Y-16292938D01*
X12638991Y-16292938D02*
X12629468Y-16273891D01*
X12629468Y-16273891D02*
X12619944Y-16245319D01*
X12619944Y-16245319D02*
X12610420Y-16197700D01*
X12610420Y-16197700D02*
X12610420Y-16159605D01*
X12610420Y-16159605D02*
X12619944Y-16111986D01*
X12619944Y-16111986D02*
X12629468Y-16083414D01*
X12629468Y-16083414D02*
X12638991Y-16064367D01*
X12638991Y-16064367D02*
X12658039Y-16035795D01*
X12658039Y-16035795D02*
X12667563Y-16026272D01*
X12734229Y-16073891D02*
X12743753Y-16064367D01*
X12743753Y-16064367D02*
X12762801Y-16054843D01*
X12762801Y-16054843D02*
X12810420Y-16054843D01*
X12810420Y-16054843D02*
X12829468Y-16064367D01*
X12829468Y-16064367D02*
X12838991Y-16073891D01*
X12838991Y-16073891D02*
X12848515Y-16092938D01*
X12848515Y-16092938D02*
X12848515Y-16111986D01*
X12848515Y-16111986D02*
X12838991Y-16140557D01*
X12838991Y-16140557D02*
X12724706Y-16254843D01*
X12724706Y-16254843D02*
X12848515Y-16254843D01*
X13086610Y-16254843D02*
X13086610Y-16054843D01*
X13172325Y-16254843D02*
X13172325Y-16150081D01*
X13172325Y-16150081D02*
X13162801Y-16131033D01*
X13162801Y-16131033D02*
X13143753Y-16121510D01*
X13143753Y-16121510D02*
X13115182Y-16121510D01*
X13115182Y-16121510D02*
X13096134Y-16131033D01*
X13096134Y-16131033D02*
X13086610Y-16140557D01*
X13296134Y-16254843D02*
X13277087Y-16245319D01*
X13277087Y-16245319D02*
X13267563Y-16235795D01*
X13267563Y-16235795D02*
X13258039Y-16216748D01*
X13258039Y-16216748D02*
X13258039Y-16159605D01*
X13258039Y-16159605D02*
X13267563Y-16140557D01*
X13267563Y-16140557D02*
X13277087Y-16131033D01*
X13277087Y-16131033D02*
X13296134Y-16121510D01*
X13296134Y-16121510D02*
X13324706Y-16121510D01*
X13324706Y-16121510D02*
X13343753Y-16131033D01*
X13343753Y-16131033D02*
X13353277Y-16140557D01*
X13353277Y-16140557D02*
X13362801Y-16159605D01*
X13362801Y-16159605D02*
X13362801Y-16216748D01*
X13362801Y-16216748D02*
X13353277Y-16235795D01*
X13353277Y-16235795D02*
X13343753Y-16245319D01*
X13343753Y-16245319D02*
X13324706Y-16254843D01*
X13324706Y-16254843D02*
X13296134Y-16254843D01*
X13477087Y-16254843D02*
X13458039Y-16245319D01*
X13458039Y-16245319D02*
X13448515Y-16226272D01*
X13448515Y-16226272D02*
X13448515Y-16054843D01*
X13629468Y-16245319D02*
X13610420Y-16254843D01*
X13610420Y-16254843D02*
X13572325Y-16254843D01*
X13572325Y-16254843D02*
X13553277Y-16245319D01*
X13553277Y-16245319D02*
X13543753Y-16226272D01*
X13543753Y-16226272D02*
X13543753Y-16150081D01*
X13543753Y-16150081D02*
X13553277Y-16131033D01*
X13553277Y-16131033D02*
X13572325Y-16121510D01*
X13572325Y-16121510D02*
X13610420Y-16121510D01*
X13610420Y-16121510D02*
X13629468Y-16131033D01*
X13629468Y-16131033D02*
X13638991Y-16150081D01*
X13638991Y-16150081D02*
X13638991Y-16169129D01*
X13638991Y-16169129D02*
X13543753Y-16188176D01*
X13715182Y-16245319D02*
X13734230Y-16254843D01*
X13734230Y-16254843D02*
X13772325Y-16254843D01*
X13772325Y-16254843D02*
X13791372Y-16245319D01*
X13791372Y-16245319D02*
X13800896Y-16226272D01*
X13800896Y-16226272D02*
X13800896Y-16216748D01*
X13800896Y-16216748D02*
X13791372Y-16197700D01*
X13791372Y-16197700D02*
X13772325Y-16188176D01*
X13772325Y-16188176D02*
X13743753Y-16188176D01*
X13743753Y-16188176D02*
X13724706Y-16178653D01*
X13724706Y-16178653D02*
X13715182Y-16159605D01*
X13715182Y-16159605D02*
X13715182Y-16150081D01*
X13715182Y-16150081D02*
X13724706Y-16131033D01*
X13724706Y-16131033D02*
X13743753Y-16121510D01*
X13743753Y-16121510D02*
X13772325Y-16121510D01*
X13772325Y-16121510D02*
X13791372Y-16131033D01*
X13867563Y-16331033D02*
X13877087Y-16321510D01*
X13877087Y-16321510D02*
X13896134Y-16292938D01*
X13896134Y-16292938D02*
X13905658Y-16273891D01*
X13905658Y-16273891D02*
X13915182Y-16245319D01*
X13915182Y-16245319D02*
X13924706Y-16197700D01*
X13924706Y-16197700D02*
X13924706Y-16159605D01*
X13924706Y-16159605D02*
X13915182Y-16111986D01*
X13915182Y-16111986D02*
X13905658Y-16083414D01*
X13905658Y-16083414D02*
X13896134Y-16064367D01*
X13896134Y-16064367D02*
X13877087Y-16035795D01*
X13877087Y-16035795D02*
X13867563Y-16026272D01*
X14229468Y-16331033D02*
X14219944Y-16321510D01*
X14219944Y-16321510D02*
X14200896Y-16292938D01*
X14200896Y-16292938D02*
X14191372Y-16273891D01*
X14191372Y-16273891D02*
X14181849Y-16245319D01*
X14181849Y-16245319D02*
X14172325Y-16197700D01*
X14172325Y-16197700D02*
X14172325Y-16159605D01*
X14172325Y-16159605D02*
X14181849Y-16111986D01*
X14181849Y-16111986D02*
X14191372Y-16083414D01*
X14191372Y-16083414D02*
X14200896Y-16064367D01*
X14200896Y-16064367D02*
X14219944Y-16035795D01*
X14219944Y-16035795D02*
X14229468Y-16026272D01*
X14305658Y-16121510D02*
X14305658Y-16254843D01*
X14305658Y-16140557D02*
X14315182Y-16131033D01*
X14315182Y-16131033D02*
X14334230Y-16121510D01*
X14334230Y-16121510D02*
X14362801Y-16121510D01*
X14362801Y-16121510D02*
X14381849Y-16131033D01*
X14381849Y-16131033D02*
X14391372Y-16150081D01*
X14391372Y-16150081D02*
X14391372Y-16254843D01*
X14515182Y-16254843D02*
X14496134Y-16245319D01*
X14496134Y-16245319D02*
X14486611Y-16235795D01*
X14486611Y-16235795D02*
X14477087Y-16216748D01*
X14477087Y-16216748D02*
X14477087Y-16159605D01*
X14477087Y-16159605D02*
X14486611Y-16140557D01*
X14486611Y-16140557D02*
X14496134Y-16131033D01*
X14496134Y-16131033D02*
X14515182Y-16121510D01*
X14515182Y-16121510D02*
X14543753Y-16121510D01*
X14543753Y-16121510D02*
X14562801Y-16131033D01*
X14562801Y-16131033D02*
X14572325Y-16140557D01*
X14572325Y-16140557D02*
X14581849Y-16159605D01*
X14581849Y-16159605D02*
X14581849Y-16216748D01*
X14581849Y-16216748D02*
X14572325Y-16235795D01*
X14572325Y-16235795D02*
X14562801Y-16245319D01*
X14562801Y-16245319D02*
X14543753Y-16254843D01*
X14543753Y-16254843D02*
X14515182Y-16254843D01*
X14638992Y-16121510D02*
X14715182Y-16121510D01*
X14667563Y-16054843D02*
X14667563Y-16226272D01*
X14667563Y-16226272D02*
X14677087Y-16245319D01*
X14677087Y-16245319D02*
X14696134Y-16254843D01*
X14696134Y-16254843D02*
X14715182Y-16254843D01*
X14934230Y-16121510D02*
X14934230Y-16321510D01*
X14934230Y-16131033D02*
X14953277Y-16121510D01*
X14953277Y-16121510D02*
X14991373Y-16121510D01*
X14991373Y-16121510D02*
X15010420Y-16131033D01*
X15010420Y-16131033D02*
X15019944Y-16140557D01*
X15019944Y-16140557D02*
X15029468Y-16159605D01*
X15029468Y-16159605D02*
X15029468Y-16216748D01*
X15029468Y-16216748D02*
X15019944Y-16235795D01*
X15019944Y-16235795D02*
X15010420Y-16245319D01*
X15010420Y-16245319D02*
X14991373Y-16254843D01*
X14991373Y-16254843D02*
X14953277Y-16254843D01*
X14953277Y-16254843D02*
X14934230Y-16245319D01*
X15143753Y-16254843D02*
X15124706Y-16245319D01*
X15124706Y-16245319D02*
X15115182Y-16226272D01*
X15115182Y-16226272D02*
X15115182Y-16054843D01*
X15305658Y-16254843D02*
X15305658Y-16150081D01*
X15305658Y-16150081D02*
X15296134Y-16131033D01*
X15296134Y-16131033D02*
X15277087Y-16121510D01*
X15277087Y-16121510D02*
X15238992Y-16121510D01*
X15238992Y-16121510D02*
X15219944Y-16131033D01*
X15305658Y-16245319D02*
X15286611Y-16254843D01*
X15286611Y-16254843D02*
X15238992Y-16254843D01*
X15238992Y-16254843D02*
X15219944Y-16245319D01*
X15219944Y-16245319D02*
X15210420Y-16226272D01*
X15210420Y-16226272D02*
X15210420Y-16207224D01*
X15210420Y-16207224D02*
X15219944Y-16188176D01*
X15219944Y-16188176D02*
X15238992Y-16178653D01*
X15238992Y-16178653D02*
X15286611Y-16178653D01*
X15286611Y-16178653D02*
X15305658Y-16169129D01*
X15372325Y-16121510D02*
X15448515Y-16121510D01*
X15400896Y-16054843D02*
X15400896Y-16226272D01*
X15400896Y-16226272D02*
X15410420Y-16245319D01*
X15410420Y-16245319D02*
X15429468Y-16254843D01*
X15429468Y-16254843D02*
X15448515Y-16254843D01*
X15591373Y-16245319D02*
X15572325Y-16254843D01*
X15572325Y-16254843D02*
X15534230Y-16254843D01*
X15534230Y-16254843D02*
X15515182Y-16245319D01*
X15515182Y-16245319D02*
X15505658Y-16226272D01*
X15505658Y-16226272D02*
X15505658Y-16150081D01*
X15505658Y-16150081D02*
X15515182Y-16131033D01*
X15515182Y-16131033D02*
X15534230Y-16121510D01*
X15534230Y-16121510D02*
X15572325Y-16121510D01*
X15572325Y-16121510D02*
X15591373Y-16131033D01*
X15591373Y-16131033D02*
X15600896Y-16150081D01*
X15600896Y-16150081D02*
X15600896Y-16169129D01*
X15600896Y-16169129D02*
X15505658Y-16188176D01*
X15772325Y-16254843D02*
X15772325Y-16054843D01*
X15772325Y-16245319D02*
X15753277Y-16254843D01*
X15753277Y-16254843D02*
X15715182Y-16254843D01*
X15715182Y-16254843D02*
X15696134Y-16245319D01*
X15696134Y-16245319D02*
X15686611Y-16235795D01*
X15686611Y-16235795D02*
X15677087Y-16216748D01*
X15677087Y-16216748D02*
X15677087Y-16159605D01*
X15677087Y-16159605D02*
X15686611Y-16140557D01*
X15686611Y-16140557D02*
X15696134Y-16131033D01*
X15696134Y-16131033D02*
X15715182Y-16121510D01*
X15715182Y-16121510D02*
X15753277Y-16121510D01*
X15753277Y-16121510D02*
X15772325Y-16131033D01*
X15848515Y-16331033D02*
X15858039Y-16321510D01*
X15858039Y-16321510D02*
X15877087Y-16292938D01*
X15877087Y-16292938D02*
X15886611Y-16273891D01*
X15886611Y-16273891D02*
X15896134Y-16245319D01*
X15896134Y-16245319D02*
X15905658Y-16197700D01*
X15905658Y-16197700D02*
X15905658Y-16159605D01*
X15905658Y-16159605D02*
X15896134Y-16111986D01*
X15896134Y-16111986D02*
X15886611Y-16083414D01*
X15886611Y-16083414D02*
X15877087Y-16064367D01*
X15877087Y-16064367D02*
X15858039Y-16035795D01*
X15858039Y-16035795D02*
X15848515Y-16026272D01*
D13*
X8997500Y-16332359D02*
X8997500Y-16522359D01*
X8902500Y-16427359D02*
X9092500Y-16427359D01*
D11*
X9458039Y-16518843D02*
X9343753Y-16518843D01*
X9400896Y-16518843D02*
X9400896Y-16318843D01*
X9400896Y-16318843D02*
X9381848Y-16347414D01*
X9381848Y-16347414D02*
X9362801Y-16366462D01*
X9362801Y-16366462D02*
X9343753Y-16375986D01*
X9543753Y-16499795D02*
X9553277Y-16509319D01*
X9553277Y-16509319D02*
X9543753Y-16518843D01*
X9543753Y-16518843D02*
X9534229Y-16509319D01*
X9534229Y-16509319D02*
X9543753Y-16499795D01*
X9543753Y-16499795D02*
X9543753Y-16518843D01*
X9648515Y-16518843D02*
X9686610Y-16518843D01*
X9686610Y-16518843D02*
X9705658Y-16509319D01*
X9705658Y-16509319D02*
X9715182Y-16499795D01*
X9715182Y-16499795D02*
X9734229Y-16471224D01*
X9734229Y-16471224D02*
X9743753Y-16433129D01*
X9743753Y-16433129D02*
X9743753Y-16356938D01*
X9743753Y-16356938D02*
X9734229Y-16337891D01*
X9734229Y-16337891D02*
X9724705Y-16328367D01*
X9724705Y-16328367D02*
X9705658Y-16318843D01*
X9705658Y-16318843D02*
X9667563Y-16318843D01*
X9667563Y-16318843D02*
X9648515Y-16328367D01*
X9648515Y-16328367D02*
X9638991Y-16337891D01*
X9638991Y-16337891D02*
X9629467Y-16356938D01*
X9629467Y-16356938D02*
X9629467Y-16404557D01*
X9629467Y-16404557D02*
X9638991Y-16423605D01*
X9638991Y-16423605D02*
X9648515Y-16433129D01*
X9648515Y-16433129D02*
X9667563Y-16442653D01*
X9667563Y-16442653D02*
X9705658Y-16442653D01*
X9705658Y-16442653D02*
X9724705Y-16433129D01*
X9724705Y-16433129D02*
X9734229Y-16423605D01*
X9734229Y-16423605D02*
X9743753Y-16404557D01*
X9867563Y-16318843D02*
X9886610Y-16318843D01*
X9886610Y-16318843D02*
X9905658Y-16328367D01*
X9905658Y-16328367D02*
X9915182Y-16337891D01*
X9915182Y-16337891D02*
X9924705Y-16356938D01*
X9924705Y-16356938D02*
X9934229Y-16395033D01*
X9934229Y-16395033D02*
X9934229Y-16442653D01*
X9934229Y-16442653D02*
X9924705Y-16480748D01*
X9924705Y-16480748D02*
X9915182Y-16499795D01*
X9915182Y-16499795D02*
X9905658Y-16509319D01*
X9905658Y-16509319D02*
X9886610Y-16518843D01*
X9886610Y-16518843D02*
X9867563Y-16518843D01*
X9867563Y-16518843D02*
X9848515Y-16509319D01*
X9848515Y-16509319D02*
X9838991Y-16499795D01*
X9838991Y-16499795D02*
X9829467Y-16480748D01*
X9829467Y-16480748D02*
X9819944Y-16442653D01*
X9819944Y-16442653D02*
X9819944Y-16395033D01*
X9819944Y-16395033D02*
X9829467Y-16356938D01*
X9829467Y-16356938D02*
X9838991Y-16337891D01*
X9838991Y-16337891D02*
X9848515Y-16328367D01*
X9848515Y-16328367D02*
X9867563Y-16318843D01*
X10058039Y-16318843D02*
X10077086Y-16318843D01*
X10077086Y-16318843D02*
X10096134Y-16328367D01*
X10096134Y-16328367D02*
X10105658Y-16337891D01*
X10105658Y-16337891D02*
X10115182Y-16356938D01*
X10115182Y-16356938D02*
X10124705Y-16395033D01*
X10124705Y-16395033D02*
X10124705Y-16442653D01*
X10124705Y-16442653D02*
X10115182Y-16480748D01*
X10115182Y-16480748D02*
X10105658Y-16499795D01*
X10105658Y-16499795D02*
X10096134Y-16509319D01*
X10096134Y-16509319D02*
X10077086Y-16518843D01*
X10077086Y-16518843D02*
X10058039Y-16518843D01*
X10058039Y-16518843D02*
X10038991Y-16509319D01*
X10038991Y-16509319D02*
X10029467Y-16499795D01*
X10029467Y-16499795D02*
X10019944Y-16480748D01*
X10019944Y-16480748D02*
X10010420Y-16442653D01*
X10010420Y-16442653D02*
X10010420Y-16395033D01*
X10010420Y-16395033D02*
X10019944Y-16356938D01*
X10019944Y-16356938D02*
X10029467Y-16337891D01*
X10029467Y-16337891D02*
X10038991Y-16328367D01*
X10038991Y-16328367D02*
X10058039Y-16318843D01*
X10210420Y-16518843D02*
X10210420Y-16385510D01*
X10210420Y-16404557D02*
X10219944Y-16395033D01*
X10219944Y-16395033D02*
X10238991Y-16385510D01*
X10238991Y-16385510D02*
X10267563Y-16385510D01*
X10267563Y-16385510D02*
X10286610Y-16395033D01*
X10286610Y-16395033D02*
X10296134Y-16414081D01*
X10296134Y-16414081D02*
X10296134Y-16518843D01*
X10296134Y-16414081D02*
X10305658Y-16395033D01*
X10305658Y-16395033D02*
X10324705Y-16385510D01*
X10324705Y-16385510D02*
X10353277Y-16385510D01*
X10353277Y-16385510D02*
X10372325Y-16395033D01*
X10372325Y-16395033D02*
X10381848Y-16414081D01*
X10381848Y-16414081D02*
X10381848Y-16518843D01*
X10477086Y-16518843D02*
X10477086Y-16385510D01*
X10477086Y-16404557D02*
X10486610Y-16395033D01*
X10486610Y-16395033D02*
X10505658Y-16385510D01*
X10505658Y-16385510D02*
X10534229Y-16385510D01*
X10534229Y-16385510D02*
X10553277Y-16395033D01*
X10553277Y-16395033D02*
X10562801Y-16414081D01*
X10562801Y-16414081D02*
X10562801Y-16518843D01*
X10562801Y-16414081D02*
X10572325Y-16395033D01*
X10572325Y-16395033D02*
X10591372Y-16385510D01*
X10591372Y-16385510D02*
X10619944Y-16385510D01*
X10619944Y-16385510D02*
X10638991Y-16395033D01*
X10638991Y-16395033D02*
X10648515Y-16414081D01*
X10648515Y-16414081D02*
X10648515Y-16518843D01*
X11038991Y-16309319D02*
X10867563Y-16566462D01*
X11296134Y-16318843D02*
X11315182Y-16318843D01*
X11315182Y-16318843D02*
X11334229Y-16328367D01*
X11334229Y-16328367D02*
X11343753Y-16337891D01*
X11343753Y-16337891D02*
X11353277Y-16356938D01*
X11353277Y-16356938D02*
X11362801Y-16395033D01*
X11362801Y-16395033D02*
X11362801Y-16442653D01*
X11362801Y-16442653D02*
X11353277Y-16480748D01*
X11353277Y-16480748D02*
X11343753Y-16499795D01*
X11343753Y-16499795D02*
X11334229Y-16509319D01*
X11334229Y-16509319D02*
X11315182Y-16518843D01*
X11315182Y-16518843D02*
X11296134Y-16518843D01*
X11296134Y-16518843D02*
X11277086Y-16509319D01*
X11277086Y-16509319D02*
X11267563Y-16499795D01*
X11267563Y-16499795D02*
X11258039Y-16480748D01*
X11258039Y-16480748D02*
X11248515Y-16442653D01*
X11248515Y-16442653D02*
X11248515Y-16395033D01*
X11248515Y-16395033D02*
X11258039Y-16356938D01*
X11258039Y-16356938D02*
X11267563Y-16337891D01*
X11267563Y-16337891D02*
X11277086Y-16328367D01*
X11277086Y-16328367D02*
X11296134Y-16318843D01*
X11448515Y-16499795D02*
X11458039Y-16509319D01*
X11458039Y-16509319D02*
X11448515Y-16518843D01*
X11448515Y-16518843D02*
X11438991Y-16509319D01*
X11438991Y-16509319D02*
X11448515Y-16499795D01*
X11448515Y-16499795D02*
X11448515Y-16518843D01*
X11581848Y-16318843D02*
X11600896Y-16318843D01*
X11600896Y-16318843D02*
X11619944Y-16328367D01*
X11619944Y-16328367D02*
X11629467Y-16337891D01*
X11629467Y-16337891D02*
X11638991Y-16356938D01*
X11638991Y-16356938D02*
X11648515Y-16395033D01*
X11648515Y-16395033D02*
X11648515Y-16442653D01*
X11648515Y-16442653D02*
X11638991Y-16480748D01*
X11638991Y-16480748D02*
X11629467Y-16499795D01*
X11629467Y-16499795D02*
X11619944Y-16509319D01*
X11619944Y-16509319D02*
X11600896Y-16518843D01*
X11600896Y-16518843D02*
X11581848Y-16518843D01*
X11581848Y-16518843D02*
X11562801Y-16509319D01*
X11562801Y-16509319D02*
X11553277Y-16499795D01*
X11553277Y-16499795D02*
X11543753Y-16480748D01*
X11543753Y-16480748D02*
X11534229Y-16442653D01*
X11534229Y-16442653D02*
X11534229Y-16395033D01*
X11534229Y-16395033D02*
X11543753Y-16356938D01*
X11543753Y-16356938D02*
X11553277Y-16337891D01*
X11553277Y-16337891D02*
X11562801Y-16328367D01*
X11562801Y-16328367D02*
X11581848Y-16318843D01*
X11715182Y-16318843D02*
X11848515Y-16318843D01*
X11848515Y-16318843D02*
X11762801Y-16518843D01*
X12010420Y-16385510D02*
X12010420Y-16518843D01*
X11962801Y-16309319D02*
X11915182Y-16452176D01*
X11915182Y-16452176D02*
X12038991Y-16452176D01*
X12143753Y-16404557D02*
X12124706Y-16395033D01*
X12124706Y-16395033D02*
X12115182Y-16385510D01*
X12115182Y-16385510D02*
X12105658Y-16366462D01*
X12105658Y-16366462D02*
X12105658Y-16356938D01*
X12105658Y-16356938D02*
X12115182Y-16337891D01*
X12115182Y-16337891D02*
X12124706Y-16328367D01*
X12124706Y-16328367D02*
X12143753Y-16318843D01*
X12143753Y-16318843D02*
X12181848Y-16318843D01*
X12181848Y-16318843D02*
X12200896Y-16328367D01*
X12200896Y-16328367D02*
X12210420Y-16337891D01*
X12210420Y-16337891D02*
X12219944Y-16356938D01*
X12219944Y-16356938D02*
X12219944Y-16366462D01*
X12219944Y-16366462D02*
X12210420Y-16385510D01*
X12210420Y-16385510D02*
X12200896Y-16395033D01*
X12200896Y-16395033D02*
X12181848Y-16404557D01*
X12181848Y-16404557D02*
X12143753Y-16404557D01*
X12143753Y-16404557D02*
X12124706Y-16414081D01*
X12124706Y-16414081D02*
X12115182Y-16423605D01*
X12115182Y-16423605D02*
X12105658Y-16442653D01*
X12105658Y-16442653D02*
X12105658Y-16480748D01*
X12105658Y-16480748D02*
X12115182Y-16499795D01*
X12115182Y-16499795D02*
X12124706Y-16509319D01*
X12124706Y-16509319D02*
X12143753Y-16518843D01*
X12143753Y-16518843D02*
X12181848Y-16518843D01*
X12181848Y-16518843D02*
X12200896Y-16509319D01*
X12200896Y-16509319D02*
X12210420Y-16499795D01*
X12210420Y-16499795D02*
X12219944Y-16480748D01*
X12219944Y-16480748D02*
X12219944Y-16442653D01*
X12219944Y-16442653D02*
X12210420Y-16423605D01*
X12210420Y-16423605D02*
X12200896Y-16414081D01*
X12200896Y-16414081D02*
X12181848Y-16404557D01*
X12296134Y-16318843D02*
X12296134Y-16356938D01*
X12372325Y-16318843D02*
X12372325Y-16356938D01*
X12667563Y-16595033D02*
X12658039Y-16585510D01*
X12658039Y-16585510D02*
X12638991Y-16556938D01*
X12638991Y-16556938D02*
X12629468Y-16537891D01*
X12629468Y-16537891D02*
X12619944Y-16509319D01*
X12619944Y-16509319D02*
X12610420Y-16461700D01*
X12610420Y-16461700D02*
X12610420Y-16423605D01*
X12610420Y-16423605D02*
X12619944Y-16375986D01*
X12619944Y-16375986D02*
X12629468Y-16347414D01*
X12629468Y-16347414D02*
X12638991Y-16328367D01*
X12638991Y-16328367D02*
X12658039Y-16299795D01*
X12658039Y-16299795D02*
X12667563Y-16290272D01*
X12838991Y-16318843D02*
X12743753Y-16318843D01*
X12743753Y-16318843D02*
X12734229Y-16414081D01*
X12734229Y-16414081D02*
X12743753Y-16404557D01*
X12743753Y-16404557D02*
X12762801Y-16395033D01*
X12762801Y-16395033D02*
X12810420Y-16395033D01*
X12810420Y-16395033D02*
X12829468Y-16404557D01*
X12829468Y-16404557D02*
X12838991Y-16414081D01*
X12838991Y-16414081D02*
X12848515Y-16433129D01*
X12848515Y-16433129D02*
X12848515Y-16480748D01*
X12848515Y-16480748D02*
X12838991Y-16499795D01*
X12838991Y-16499795D02*
X12829468Y-16509319D01*
X12829468Y-16509319D02*
X12810420Y-16518843D01*
X12810420Y-16518843D02*
X12762801Y-16518843D01*
X12762801Y-16518843D02*
X12743753Y-16509319D01*
X12743753Y-16509319D02*
X12734229Y-16499795D01*
X12924706Y-16337891D02*
X12934229Y-16328367D01*
X12934229Y-16328367D02*
X12953277Y-16318843D01*
X12953277Y-16318843D02*
X13000896Y-16318843D01*
X13000896Y-16318843D02*
X13019944Y-16328367D01*
X13019944Y-16328367D02*
X13029468Y-16337891D01*
X13029468Y-16337891D02*
X13038991Y-16356938D01*
X13038991Y-16356938D02*
X13038991Y-16375986D01*
X13038991Y-16375986D02*
X13029468Y-16404557D01*
X13029468Y-16404557D02*
X12915182Y-16518843D01*
X12915182Y-16518843D02*
X13038991Y-16518843D01*
X13277087Y-16518843D02*
X13277087Y-16318843D01*
X13362801Y-16518843D02*
X13362801Y-16414081D01*
X13362801Y-16414081D02*
X13353277Y-16395033D01*
X13353277Y-16395033D02*
X13334230Y-16385510D01*
X13334230Y-16385510D02*
X13305658Y-16385510D01*
X13305658Y-16385510D02*
X13286610Y-16395033D01*
X13286610Y-16395033D02*
X13277087Y-16404557D01*
X13486610Y-16518843D02*
X13467563Y-16509319D01*
X13467563Y-16509319D02*
X13458039Y-16499795D01*
X13458039Y-16499795D02*
X13448515Y-16480748D01*
X13448515Y-16480748D02*
X13448515Y-16423605D01*
X13448515Y-16423605D02*
X13458039Y-16404557D01*
X13458039Y-16404557D02*
X13467563Y-16395033D01*
X13467563Y-16395033D02*
X13486610Y-16385510D01*
X13486610Y-16385510D02*
X13515182Y-16385510D01*
X13515182Y-16385510D02*
X13534230Y-16395033D01*
X13534230Y-16395033D02*
X13543753Y-16404557D01*
X13543753Y-16404557D02*
X13553277Y-16423605D01*
X13553277Y-16423605D02*
X13553277Y-16480748D01*
X13553277Y-16480748D02*
X13543753Y-16499795D01*
X13543753Y-16499795D02*
X13534230Y-16509319D01*
X13534230Y-16509319D02*
X13515182Y-16518843D01*
X13515182Y-16518843D02*
X13486610Y-16518843D01*
X13667563Y-16518843D02*
X13648515Y-16509319D01*
X13648515Y-16509319D02*
X13638991Y-16490272D01*
X13638991Y-16490272D02*
X13638991Y-16318843D01*
X13819944Y-16509319D02*
X13800896Y-16518843D01*
X13800896Y-16518843D02*
X13762801Y-16518843D01*
X13762801Y-16518843D02*
X13743753Y-16509319D01*
X13743753Y-16509319D02*
X13734230Y-16490272D01*
X13734230Y-16490272D02*
X13734230Y-16414081D01*
X13734230Y-16414081D02*
X13743753Y-16395033D01*
X13743753Y-16395033D02*
X13762801Y-16385510D01*
X13762801Y-16385510D02*
X13800896Y-16385510D01*
X13800896Y-16385510D02*
X13819944Y-16395033D01*
X13819944Y-16395033D02*
X13829468Y-16414081D01*
X13829468Y-16414081D02*
X13829468Y-16433129D01*
X13829468Y-16433129D02*
X13734230Y-16452176D01*
X13905658Y-16509319D02*
X13924706Y-16518843D01*
X13924706Y-16518843D02*
X13962801Y-16518843D01*
X13962801Y-16518843D02*
X13981849Y-16509319D01*
X13981849Y-16509319D02*
X13991372Y-16490272D01*
X13991372Y-16490272D02*
X13991372Y-16480748D01*
X13991372Y-16480748D02*
X13981849Y-16461700D01*
X13981849Y-16461700D02*
X13962801Y-16452176D01*
X13962801Y-16452176D02*
X13934230Y-16452176D01*
X13934230Y-16452176D02*
X13915182Y-16442653D01*
X13915182Y-16442653D02*
X13905658Y-16423605D01*
X13905658Y-16423605D02*
X13905658Y-16414081D01*
X13905658Y-16414081D02*
X13915182Y-16395033D01*
X13915182Y-16395033D02*
X13934230Y-16385510D01*
X13934230Y-16385510D02*
X13962801Y-16385510D01*
X13962801Y-16385510D02*
X13981849Y-16395033D01*
X14058039Y-16595033D02*
X14067563Y-16585510D01*
X14067563Y-16585510D02*
X14086611Y-16556938D01*
X14086611Y-16556938D02*
X14096134Y-16537891D01*
X14096134Y-16537891D02*
X14105658Y-16509319D01*
X14105658Y-16509319D02*
X14115182Y-16461700D01*
X14115182Y-16461700D02*
X14115182Y-16423605D01*
X14115182Y-16423605D02*
X14105658Y-16375986D01*
X14105658Y-16375986D02*
X14096134Y-16347414D01*
X14096134Y-16347414D02*
X14086611Y-16328367D01*
X14086611Y-16328367D02*
X14067563Y-16299795D01*
X14067563Y-16299795D02*
X14058039Y-16290272D01*
X14419944Y-16595033D02*
X14410420Y-16585510D01*
X14410420Y-16585510D02*
X14391372Y-16556938D01*
X14391372Y-16556938D02*
X14381849Y-16537891D01*
X14381849Y-16537891D02*
X14372325Y-16509319D01*
X14372325Y-16509319D02*
X14362801Y-16461700D01*
X14362801Y-16461700D02*
X14362801Y-16423605D01*
X14362801Y-16423605D02*
X14372325Y-16375986D01*
X14372325Y-16375986D02*
X14381849Y-16347414D01*
X14381849Y-16347414D02*
X14391372Y-16328367D01*
X14391372Y-16328367D02*
X14410420Y-16299795D01*
X14410420Y-16299795D02*
X14419944Y-16290272D01*
X14496134Y-16385510D02*
X14496134Y-16518843D01*
X14496134Y-16404557D02*
X14505658Y-16395033D01*
X14505658Y-16395033D02*
X14524706Y-16385510D01*
X14524706Y-16385510D02*
X14553277Y-16385510D01*
X14553277Y-16385510D02*
X14572325Y-16395033D01*
X14572325Y-16395033D02*
X14581849Y-16414081D01*
X14581849Y-16414081D02*
X14581849Y-16518843D01*
X14705658Y-16518843D02*
X14686611Y-16509319D01*
X14686611Y-16509319D02*
X14677087Y-16499795D01*
X14677087Y-16499795D02*
X14667563Y-16480748D01*
X14667563Y-16480748D02*
X14667563Y-16423605D01*
X14667563Y-16423605D02*
X14677087Y-16404557D01*
X14677087Y-16404557D02*
X14686611Y-16395033D01*
X14686611Y-16395033D02*
X14705658Y-16385510D01*
X14705658Y-16385510D02*
X14734230Y-16385510D01*
X14734230Y-16385510D02*
X14753277Y-16395033D01*
X14753277Y-16395033D02*
X14762801Y-16404557D01*
X14762801Y-16404557D02*
X14772325Y-16423605D01*
X14772325Y-16423605D02*
X14772325Y-16480748D01*
X14772325Y-16480748D02*
X14762801Y-16499795D01*
X14762801Y-16499795D02*
X14753277Y-16509319D01*
X14753277Y-16509319D02*
X14734230Y-16518843D01*
X14734230Y-16518843D02*
X14705658Y-16518843D01*
X14829468Y-16385510D02*
X14905658Y-16385510D01*
X14858039Y-16318843D02*
X14858039Y-16490272D01*
X14858039Y-16490272D02*
X14867563Y-16509319D01*
X14867563Y-16509319D02*
X14886611Y-16518843D01*
X14886611Y-16518843D02*
X14905658Y-16518843D01*
X15124706Y-16385510D02*
X15124706Y-16585510D01*
X15124706Y-16395033D02*
X15143753Y-16385510D01*
X15143753Y-16385510D02*
X15181849Y-16385510D01*
X15181849Y-16385510D02*
X15200896Y-16395033D01*
X15200896Y-16395033D02*
X15210420Y-16404557D01*
X15210420Y-16404557D02*
X15219944Y-16423605D01*
X15219944Y-16423605D02*
X15219944Y-16480748D01*
X15219944Y-16480748D02*
X15210420Y-16499795D01*
X15210420Y-16499795D02*
X15200896Y-16509319D01*
X15200896Y-16509319D02*
X15181849Y-16518843D01*
X15181849Y-16518843D02*
X15143753Y-16518843D01*
X15143753Y-16518843D02*
X15124706Y-16509319D01*
X15334230Y-16518843D02*
X15315182Y-16509319D01*
X15315182Y-16509319D02*
X15305658Y-16490272D01*
X15305658Y-16490272D02*
X15305658Y-16318843D01*
X15496134Y-16518843D02*
X15496134Y-16414081D01*
X15496134Y-16414081D02*
X15486611Y-16395033D01*
X15486611Y-16395033D02*
X15467563Y-16385510D01*
X15467563Y-16385510D02*
X15429468Y-16385510D01*
X15429468Y-16385510D02*
X15410420Y-16395033D01*
X15496134Y-16509319D02*
X15477087Y-16518843D01*
X15477087Y-16518843D02*
X15429468Y-16518843D01*
X15429468Y-16518843D02*
X15410420Y-16509319D01*
X15410420Y-16509319D02*
X15400896Y-16490272D01*
X15400896Y-16490272D02*
X15400896Y-16471224D01*
X15400896Y-16471224D02*
X15410420Y-16452176D01*
X15410420Y-16452176D02*
X15429468Y-16442653D01*
X15429468Y-16442653D02*
X15477087Y-16442653D01*
X15477087Y-16442653D02*
X15496134Y-16433129D01*
X15562801Y-16385510D02*
X15638992Y-16385510D01*
X15591373Y-16318843D02*
X15591373Y-16490272D01*
X15591373Y-16490272D02*
X15600896Y-16509319D01*
X15600896Y-16509319D02*
X15619944Y-16518843D01*
X15619944Y-16518843D02*
X15638992Y-16518843D01*
X15781849Y-16509319D02*
X15762801Y-16518843D01*
X15762801Y-16518843D02*
X15724706Y-16518843D01*
X15724706Y-16518843D02*
X15705658Y-16509319D01*
X15705658Y-16509319D02*
X15696134Y-16490272D01*
X15696134Y-16490272D02*
X15696134Y-16414081D01*
X15696134Y-16414081D02*
X15705658Y-16395033D01*
X15705658Y-16395033D02*
X15724706Y-16385510D01*
X15724706Y-16385510D02*
X15762801Y-16385510D01*
X15762801Y-16385510D02*
X15781849Y-16395033D01*
X15781849Y-16395033D02*
X15791373Y-16414081D01*
X15791373Y-16414081D02*
X15791373Y-16433129D01*
X15791373Y-16433129D02*
X15696134Y-16452176D01*
X15962801Y-16518843D02*
X15962801Y-16318843D01*
X15962801Y-16509319D02*
X15943754Y-16518843D01*
X15943754Y-16518843D02*
X15905658Y-16518843D01*
X15905658Y-16518843D02*
X15886611Y-16509319D01*
X15886611Y-16509319D02*
X15877087Y-16499795D01*
X15877087Y-16499795D02*
X15867563Y-16480748D01*
X15867563Y-16480748D02*
X15867563Y-16423605D01*
X15867563Y-16423605D02*
X15877087Y-16404557D01*
X15877087Y-16404557D02*
X15886611Y-16395033D01*
X15886611Y-16395033D02*
X15905658Y-16385510D01*
X15905658Y-16385510D02*
X15943754Y-16385510D01*
X15943754Y-16385510D02*
X15962801Y-16395033D01*
X16038992Y-16595033D02*
X16048515Y-16585510D01*
X16048515Y-16585510D02*
X16067563Y-16556938D01*
X16067563Y-16556938D02*
X16077087Y-16537891D01*
X16077087Y-16537891D02*
X16086611Y-16509319D01*
X16086611Y-16509319D02*
X16096134Y-16461700D01*
X16096134Y-16461700D02*
X16096134Y-16423605D01*
X16096134Y-16423605D02*
X16086611Y-16375986D01*
X16086611Y-16375986D02*
X16077087Y-16347414D01*
X16077087Y-16347414D02*
X16067563Y-16328367D01*
X16067563Y-16328367D02*
X16048515Y-16299795D01*
X16048515Y-16299795D02*
X16038992Y-16290272D01*
X9063211Y-16808071D02*
X9063211Y-16666648D01*
X8921789Y-16666648D01*
X8921789Y-16808071D01*
X9063211Y-16808071D01*
X9343753Y-16647891D02*
X9353277Y-16638367D01*
X9353277Y-16638367D02*
X9372324Y-16628843D01*
X9372324Y-16628843D02*
X9419944Y-16628843D01*
X9419944Y-16628843D02*
X9438991Y-16638367D01*
X9438991Y-16638367D02*
X9448515Y-16647891D01*
X9448515Y-16647891D02*
X9458039Y-16666938D01*
X9458039Y-16666938D02*
X9458039Y-16685986D01*
X9458039Y-16685986D02*
X9448515Y-16714557D01*
X9448515Y-16714557D02*
X9334229Y-16828843D01*
X9334229Y-16828843D02*
X9458039Y-16828843D01*
X9543753Y-16809795D02*
X9553277Y-16819319D01*
X9553277Y-16819319D02*
X9543753Y-16828843D01*
X9543753Y-16828843D02*
X9534229Y-16819319D01*
X9534229Y-16819319D02*
X9543753Y-16809795D01*
X9543753Y-16809795D02*
X9543753Y-16828843D01*
X9629467Y-16647891D02*
X9638991Y-16638367D01*
X9638991Y-16638367D02*
X9658039Y-16628843D01*
X9658039Y-16628843D02*
X9705658Y-16628843D01*
X9705658Y-16628843D02*
X9724705Y-16638367D01*
X9724705Y-16638367D02*
X9734229Y-16647891D01*
X9734229Y-16647891D02*
X9743753Y-16666938D01*
X9743753Y-16666938D02*
X9743753Y-16685986D01*
X9743753Y-16685986D02*
X9734229Y-16714557D01*
X9734229Y-16714557D02*
X9619944Y-16828843D01*
X9619944Y-16828843D02*
X9743753Y-16828843D01*
X9867563Y-16628843D02*
X9886610Y-16628843D01*
X9886610Y-16628843D02*
X9905658Y-16638367D01*
X9905658Y-16638367D02*
X9915182Y-16647891D01*
X9915182Y-16647891D02*
X9924705Y-16666938D01*
X9924705Y-16666938D02*
X9934229Y-16705033D01*
X9934229Y-16705033D02*
X9934229Y-16752653D01*
X9934229Y-16752653D02*
X9924705Y-16790748D01*
X9924705Y-16790748D02*
X9915182Y-16809795D01*
X9915182Y-16809795D02*
X9905658Y-16819319D01*
X9905658Y-16819319D02*
X9886610Y-16828843D01*
X9886610Y-16828843D02*
X9867563Y-16828843D01*
X9867563Y-16828843D02*
X9848515Y-16819319D01*
X9848515Y-16819319D02*
X9838991Y-16809795D01*
X9838991Y-16809795D02*
X9829467Y-16790748D01*
X9829467Y-16790748D02*
X9819944Y-16752653D01*
X9819944Y-16752653D02*
X9819944Y-16705033D01*
X9819944Y-16705033D02*
X9829467Y-16666938D01*
X9829467Y-16666938D02*
X9838991Y-16647891D01*
X9838991Y-16647891D02*
X9848515Y-16638367D01*
X9848515Y-16638367D02*
X9867563Y-16628843D01*
X10058039Y-16628843D02*
X10077086Y-16628843D01*
X10077086Y-16628843D02*
X10096134Y-16638367D01*
X10096134Y-16638367D02*
X10105658Y-16647891D01*
X10105658Y-16647891D02*
X10115182Y-16666938D01*
X10115182Y-16666938D02*
X10124705Y-16705033D01*
X10124705Y-16705033D02*
X10124705Y-16752653D01*
X10124705Y-16752653D02*
X10115182Y-16790748D01*
X10115182Y-16790748D02*
X10105658Y-16809795D01*
X10105658Y-16809795D02*
X10096134Y-16819319D01*
X10096134Y-16819319D02*
X10077086Y-16828843D01*
X10077086Y-16828843D02*
X10058039Y-16828843D01*
X10058039Y-16828843D02*
X10038991Y-16819319D01*
X10038991Y-16819319D02*
X10029467Y-16809795D01*
X10029467Y-16809795D02*
X10019944Y-16790748D01*
X10019944Y-16790748D02*
X10010420Y-16752653D01*
X10010420Y-16752653D02*
X10010420Y-16705033D01*
X10010420Y-16705033D02*
X10019944Y-16666938D01*
X10019944Y-16666938D02*
X10029467Y-16647891D01*
X10029467Y-16647891D02*
X10038991Y-16638367D01*
X10038991Y-16638367D02*
X10058039Y-16628843D01*
X10210420Y-16828843D02*
X10210420Y-16695510D01*
X10210420Y-16714557D02*
X10219944Y-16705033D01*
X10219944Y-16705033D02*
X10238991Y-16695510D01*
X10238991Y-16695510D02*
X10267563Y-16695510D01*
X10267563Y-16695510D02*
X10286610Y-16705033D01*
X10286610Y-16705033D02*
X10296134Y-16724081D01*
X10296134Y-16724081D02*
X10296134Y-16828843D01*
X10296134Y-16724081D02*
X10305658Y-16705033D01*
X10305658Y-16705033D02*
X10324705Y-16695510D01*
X10324705Y-16695510D02*
X10353277Y-16695510D01*
X10353277Y-16695510D02*
X10372325Y-16705033D01*
X10372325Y-16705033D02*
X10381848Y-16724081D01*
X10381848Y-16724081D02*
X10381848Y-16828843D01*
X10477086Y-16828843D02*
X10477086Y-16695510D01*
X10477086Y-16714557D02*
X10486610Y-16705033D01*
X10486610Y-16705033D02*
X10505658Y-16695510D01*
X10505658Y-16695510D02*
X10534229Y-16695510D01*
X10534229Y-16695510D02*
X10553277Y-16705033D01*
X10553277Y-16705033D02*
X10562801Y-16724081D01*
X10562801Y-16724081D02*
X10562801Y-16828843D01*
X10562801Y-16724081D02*
X10572325Y-16705033D01*
X10572325Y-16705033D02*
X10591372Y-16695510D01*
X10591372Y-16695510D02*
X10619944Y-16695510D01*
X10619944Y-16695510D02*
X10638991Y-16705033D01*
X10638991Y-16705033D02*
X10648515Y-16724081D01*
X10648515Y-16724081D02*
X10648515Y-16828843D01*
X11038991Y-16619319D02*
X10867563Y-16876462D01*
X11296134Y-16628843D02*
X11315182Y-16628843D01*
X11315182Y-16628843D02*
X11334229Y-16638367D01*
X11334229Y-16638367D02*
X11343753Y-16647891D01*
X11343753Y-16647891D02*
X11353277Y-16666938D01*
X11353277Y-16666938D02*
X11362801Y-16705033D01*
X11362801Y-16705033D02*
X11362801Y-16752653D01*
X11362801Y-16752653D02*
X11353277Y-16790748D01*
X11353277Y-16790748D02*
X11343753Y-16809795D01*
X11343753Y-16809795D02*
X11334229Y-16819319D01*
X11334229Y-16819319D02*
X11315182Y-16828843D01*
X11315182Y-16828843D02*
X11296134Y-16828843D01*
X11296134Y-16828843D02*
X11277086Y-16819319D01*
X11277086Y-16819319D02*
X11267563Y-16809795D01*
X11267563Y-16809795D02*
X11258039Y-16790748D01*
X11258039Y-16790748D02*
X11248515Y-16752653D01*
X11248515Y-16752653D02*
X11248515Y-16705033D01*
X11248515Y-16705033D02*
X11258039Y-16666938D01*
X11258039Y-16666938D02*
X11267563Y-16647891D01*
X11267563Y-16647891D02*
X11277086Y-16638367D01*
X11277086Y-16638367D02*
X11296134Y-16628843D01*
X11448515Y-16809795D02*
X11458039Y-16819319D01*
X11458039Y-16819319D02*
X11448515Y-16828843D01*
X11448515Y-16828843D02*
X11438991Y-16819319D01*
X11438991Y-16819319D02*
X11448515Y-16809795D01*
X11448515Y-16809795D02*
X11448515Y-16828843D01*
X11581848Y-16628843D02*
X11600896Y-16628843D01*
X11600896Y-16628843D02*
X11619944Y-16638367D01*
X11619944Y-16638367D02*
X11629467Y-16647891D01*
X11629467Y-16647891D02*
X11638991Y-16666938D01*
X11638991Y-16666938D02*
X11648515Y-16705033D01*
X11648515Y-16705033D02*
X11648515Y-16752653D01*
X11648515Y-16752653D02*
X11638991Y-16790748D01*
X11638991Y-16790748D02*
X11629467Y-16809795D01*
X11629467Y-16809795D02*
X11619944Y-16819319D01*
X11619944Y-16819319D02*
X11600896Y-16828843D01*
X11600896Y-16828843D02*
X11581848Y-16828843D01*
X11581848Y-16828843D02*
X11562801Y-16819319D01*
X11562801Y-16819319D02*
X11553277Y-16809795D01*
X11553277Y-16809795D02*
X11543753Y-16790748D01*
X11543753Y-16790748D02*
X11534229Y-16752653D01*
X11534229Y-16752653D02*
X11534229Y-16705033D01*
X11534229Y-16705033D02*
X11543753Y-16666938D01*
X11543753Y-16666938D02*
X11553277Y-16647891D01*
X11553277Y-16647891D02*
X11562801Y-16638367D01*
X11562801Y-16638367D02*
X11581848Y-16628843D01*
X11762801Y-16714557D02*
X11743753Y-16705033D01*
X11743753Y-16705033D02*
X11734229Y-16695510D01*
X11734229Y-16695510D02*
X11724706Y-16676462D01*
X11724706Y-16676462D02*
X11724706Y-16666938D01*
X11724706Y-16666938D02*
X11734229Y-16647891D01*
X11734229Y-16647891D02*
X11743753Y-16638367D01*
X11743753Y-16638367D02*
X11762801Y-16628843D01*
X11762801Y-16628843D02*
X11800896Y-16628843D01*
X11800896Y-16628843D02*
X11819944Y-16638367D01*
X11819944Y-16638367D02*
X11829467Y-16647891D01*
X11829467Y-16647891D02*
X11838991Y-16666938D01*
X11838991Y-16666938D02*
X11838991Y-16676462D01*
X11838991Y-16676462D02*
X11829467Y-16695510D01*
X11829467Y-16695510D02*
X11819944Y-16705033D01*
X11819944Y-16705033D02*
X11800896Y-16714557D01*
X11800896Y-16714557D02*
X11762801Y-16714557D01*
X11762801Y-16714557D02*
X11743753Y-16724081D01*
X11743753Y-16724081D02*
X11734229Y-16733605D01*
X11734229Y-16733605D02*
X11724706Y-16752653D01*
X11724706Y-16752653D02*
X11724706Y-16790748D01*
X11724706Y-16790748D02*
X11734229Y-16809795D01*
X11734229Y-16809795D02*
X11743753Y-16819319D01*
X11743753Y-16819319D02*
X11762801Y-16828843D01*
X11762801Y-16828843D02*
X11800896Y-16828843D01*
X11800896Y-16828843D02*
X11819944Y-16819319D01*
X11819944Y-16819319D02*
X11829467Y-16809795D01*
X11829467Y-16809795D02*
X11838991Y-16790748D01*
X11838991Y-16790748D02*
X11838991Y-16752653D01*
X11838991Y-16752653D02*
X11829467Y-16733605D01*
X11829467Y-16733605D02*
X11819944Y-16724081D01*
X11819944Y-16724081D02*
X11800896Y-16714557D01*
X12010420Y-16628843D02*
X11972325Y-16628843D01*
X11972325Y-16628843D02*
X11953277Y-16638367D01*
X11953277Y-16638367D02*
X11943753Y-16647891D01*
X11943753Y-16647891D02*
X11924706Y-16676462D01*
X11924706Y-16676462D02*
X11915182Y-16714557D01*
X11915182Y-16714557D02*
X11915182Y-16790748D01*
X11915182Y-16790748D02*
X11924706Y-16809795D01*
X11924706Y-16809795D02*
X11934229Y-16819319D01*
X11934229Y-16819319D02*
X11953277Y-16828843D01*
X11953277Y-16828843D02*
X11991372Y-16828843D01*
X11991372Y-16828843D02*
X12010420Y-16819319D01*
X12010420Y-16819319D02*
X12019944Y-16809795D01*
X12019944Y-16809795D02*
X12029467Y-16790748D01*
X12029467Y-16790748D02*
X12029467Y-16743129D01*
X12029467Y-16743129D02*
X12019944Y-16724081D01*
X12019944Y-16724081D02*
X12010420Y-16714557D01*
X12010420Y-16714557D02*
X11991372Y-16705033D01*
X11991372Y-16705033D02*
X11953277Y-16705033D01*
X11953277Y-16705033D02*
X11934229Y-16714557D01*
X11934229Y-16714557D02*
X11924706Y-16724081D01*
X11924706Y-16724081D02*
X11915182Y-16743129D01*
X12200896Y-16628843D02*
X12162801Y-16628843D01*
X12162801Y-16628843D02*
X12143753Y-16638367D01*
X12143753Y-16638367D02*
X12134229Y-16647891D01*
X12134229Y-16647891D02*
X12115182Y-16676462D01*
X12115182Y-16676462D02*
X12105658Y-16714557D01*
X12105658Y-16714557D02*
X12105658Y-16790748D01*
X12105658Y-16790748D02*
X12115182Y-16809795D01*
X12115182Y-16809795D02*
X12124706Y-16819319D01*
X12124706Y-16819319D02*
X12143753Y-16828843D01*
X12143753Y-16828843D02*
X12181848Y-16828843D01*
X12181848Y-16828843D02*
X12200896Y-16819319D01*
X12200896Y-16819319D02*
X12210420Y-16809795D01*
X12210420Y-16809795D02*
X12219944Y-16790748D01*
X12219944Y-16790748D02*
X12219944Y-16743129D01*
X12219944Y-16743129D02*
X12210420Y-16724081D01*
X12210420Y-16724081D02*
X12200896Y-16714557D01*
X12200896Y-16714557D02*
X12181848Y-16705033D01*
X12181848Y-16705033D02*
X12143753Y-16705033D01*
X12143753Y-16705033D02*
X12124706Y-16714557D01*
X12124706Y-16714557D02*
X12115182Y-16724081D01*
X12115182Y-16724081D02*
X12105658Y-16743129D01*
X12296134Y-16628843D02*
X12296134Y-16666938D01*
X12372325Y-16628843D02*
X12372325Y-16666938D01*
X12667563Y-16905034D02*
X12658039Y-16895510D01*
X12658039Y-16895510D02*
X12638991Y-16866938D01*
X12638991Y-16866938D02*
X12629468Y-16847891D01*
X12629468Y-16847891D02*
X12619944Y-16819319D01*
X12619944Y-16819319D02*
X12610420Y-16771700D01*
X12610420Y-16771700D02*
X12610420Y-16733605D01*
X12610420Y-16733605D02*
X12619944Y-16685986D01*
X12619944Y-16685986D02*
X12629468Y-16657414D01*
X12629468Y-16657414D02*
X12638991Y-16638367D01*
X12638991Y-16638367D02*
X12658039Y-16609795D01*
X12658039Y-16609795D02*
X12667563Y-16600272D01*
X12734229Y-16647891D02*
X12743753Y-16638367D01*
X12743753Y-16638367D02*
X12762801Y-16628843D01*
X12762801Y-16628843D02*
X12810420Y-16628843D01*
X12810420Y-16628843D02*
X12829468Y-16638367D01*
X12829468Y-16638367D02*
X12838991Y-16647891D01*
X12838991Y-16647891D02*
X12848515Y-16666938D01*
X12848515Y-16666938D02*
X12848515Y-16685986D01*
X12848515Y-16685986D02*
X12838991Y-16714557D01*
X12838991Y-16714557D02*
X12724706Y-16828843D01*
X12724706Y-16828843D02*
X12848515Y-16828843D01*
X13086610Y-16828843D02*
X13086610Y-16628843D01*
X13172325Y-16828843D02*
X13172325Y-16724081D01*
X13172325Y-16724081D02*
X13162801Y-16705033D01*
X13162801Y-16705033D02*
X13143753Y-16695510D01*
X13143753Y-16695510D02*
X13115182Y-16695510D01*
X13115182Y-16695510D02*
X13096134Y-16705033D01*
X13096134Y-16705033D02*
X13086610Y-16714557D01*
X13296134Y-16828843D02*
X13277087Y-16819319D01*
X13277087Y-16819319D02*
X13267563Y-16809795D01*
X13267563Y-16809795D02*
X13258039Y-16790748D01*
X13258039Y-16790748D02*
X13258039Y-16733605D01*
X13258039Y-16733605D02*
X13267563Y-16714557D01*
X13267563Y-16714557D02*
X13277087Y-16705033D01*
X13277087Y-16705033D02*
X13296134Y-16695510D01*
X13296134Y-16695510D02*
X13324706Y-16695510D01*
X13324706Y-16695510D02*
X13343753Y-16705033D01*
X13343753Y-16705033D02*
X13353277Y-16714557D01*
X13353277Y-16714557D02*
X13362801Y-16733605D01*
X13362801Y-16733605D02*
X13362801Y-16790748D01*
X13362801Y-16790748D02*
X13353277Y-16809795D01*
X13353277Y-16809795D02*
X13343753Y-16819319D01*
X13343753Y-16819319D02*
X13324706Y-16828843D01*
X13324706Y-16828843D02*
X13296134Y-16828843D01*
X13477087Y-16828843D02*
X13458039Y-16819319D01*
X13458039Y-16819319D02*
X13448515Y-16800272D01*
X13448515Y-16800272D02*
X13448515Y-16628843D01*
X13629468Y-16819319D02*
X13610420Y-16828843D01*
X13610420Y-16828843D02*
X13572325Y-16828843D01*
X13572325Y-16828843D02*
X13553277Y-16819319D01*
X13553277Y-16819319D02*
X13543753Y-16800272D01*
X13543753Y-16800272D02*
X13543753Y-16724081D01*
X13543753Y-16724081D02*
X13553277Y-16705033D01*
X13553277Y-16705033D02*
X13572325Y-16695510D01*
X13572325Y-16695510D02*
X13610420Y-16695510D01*
X13610420Y-16695510D02*
X13629468Y-16705033D01*
X13629468Y-16705033D02*
X13638991Y-16724081D01*
X13638991Y-16724081D02*
X13638991Y-16743129D01*
X13638991Y-16743129D02*
X13543753Y-16762176D01*
X13715182Y-16819319D02*
X13734230Y-16828843D01*
X13734230Y-16828843D02*
X13772325Y-16828843D01*
X13772325Y-16828843D02*
X13791372Y-16819319D01*
X13791372Y-16819319D02*
X13800896Y-16800272D01*
X13800896Y-16800272D02*
X13800896Y-16790748D01*
X13800896Y-16790748D02*
X13791372Y-16771700D01*
X13791372Y-16771700D02*
X13772325Y-16762176D01*
X13772325Y-16762176D02*
X13743753Y-16762176D01*
X13743753Y-16762176D02*
X13724706Y-16752653D01*
X13724706Y-16752653D02*
X13715182Y-16733605D01*
X13715182Y-16733605D02*
X13715182Y-16724081D01*
X13715182Y-16724081D02*
X13724706Y-16705033D01*
X13724706Y-16705033D02*
X13743753Y-16695510D01*
X13743753Y-16695510D02*
X13772325Y-16695510D01*
X13772325Y-16695510D02*
X13791372Y-16705033D01*
X13867563Y-16905034D02*
X13877087Y-16895510D01*
X13877087Y-16895510D02*
X13896134Y-16866938D01*
X13896134Y-16866938D02*
X13905658Y-16847891D01*
X13905658Y-16847891D02*
X13915182Y-16819319D01*
X13915182Y-16819319D02*
X13924706Y-16771700D01*
X13924706Y-16771700D02*
X13924706Y-16733605D01*
X13924706Y-16733605D02*
X13915182Y-16685986D01*
X13915182Y-16685986D02*
X13905658Y-16657414D01*
X13905658Y-16657414D02*
X13896134Y-16638367D01*
X13896134Y-16638367D02*
X13877087Y-16609795D01*
X13877087Y-16609795D02*
X13867563Y-16600272D01*
X14229468Y-16905034D02*
X14219944Y-16895510D01*
X14219944Y-16895510D02*
X14200896Y-16866938D01*
X14200896Y-16866938D02*
X14191372Y-16847891D01*
X14191372Y-16847891D02*
X14181849Y-16819319D01*
X14181849Y-16819319D02*
X14172325Y-16771700D01*
X14172325Y-16771700D02*
X14172325Y-16733605D01*
X14172325Y-16733605D02*
X14181849Y-16685986D01*
X14181849Y-16685986D02*
X14191372Y-16657414D01*
X14191372Y-16657414D02*
X14200896Y-16638367D01*
X14200896Y-16638367D02*
X14219944Y-16609795D01*
X14219944Y-16609795D02*
X14229468Y-16600272D01*
X14305658Y-16695510D02*
X14305658Y-16828843D01*
X14305658Y-16714557D02*
X14315182Y-16705033D01*
X14315182Y-16705033D02*
X14334230Y-16695510D01*
X14334230Y-16695510D02*
X14362801Y-16695510D01*
X14362801Y-16695510D02*
X14381849Y-16705033D01*
X14381849Y-16705033D02*
X14391372Y-16724081D01*
X14391372Y-16724081D02*
X14391372Y-16828843D01*
X14515182Y-16828843D02*
X14496134Y-16819319D01*
X14496134Y-16819319D02*
X14486611Y-16809795D01*
X14486611Y-16809795D02*
X14477087Y-16790748D01*
X14477087Y-16790748D02*
X14477087Y-16733605D01*
X14477087Y-16733605D02*
X14486611Y-16714557D01*
X14486611Y-16714557D02*
X14496134Y-16705033D01*
X14496134Y-16705033D02*
X14515182Y-16695510D01*
X14515182Y-16695510D02*
X14543753Y-16695510D01*
X14543753Y-16695510D02*
X14562801Y-16705033D01*
X14562801Y-16705033D02*
X14572325Y-16714557D01*
X14572325Y-16714557D02*
X14581849Y-16733605D01*
X14581849Y-16733605D02*
X14581849Y-16790748D01*
X14581849Y-16790748D02*
X14572325Y-16809795D01*
X14572325Y-16809795D02*
X14562801Y-16819319D01*
X14562801Y-16819319D02*
X14543753Y-16828843D01*
X14543753Y-16828843D02*
X14515182Y-16828843D01*
X14638992Y-16695510D02*
X14715182Y-16695510D01*
X14667563Y-16628843D02*
X14667563Y-16800272D01*
X14667563Y-16800272D02*
X14677087Y-16819319D01*
X14677087Y-16819319D02*
X14696134Y-16828843D01*
X14696134Y-16828843D02*
X14715182Y-16828843D01*
X14934230Y-16695510D02*
X14934230Y-16895510D01*
X14934230Y-16705033D02*
X14953277Y-16695510D01*
X14953277Y-16695510D02*
X14991373Y-16695510D01*
X14991373Y-16695510D02*
X15010420Y-16705033D01*
X15010420Y-16705033D02*
X15019944Y-16714557D01*
X15019944Y-16714557D02*
X15029468Y-16733605D01*
X15029468Y-16733605D02*
X15029468Y-16790748D01*
X15029468Y-16790748D02*
X15019944Y-16809795D01*
X15019944Y-16809795D02*
X15010420Y-16819319D01*
X15010420Y-16819319D02*
X14991373Y-16828843D01*
X14991373Y-16828843D02*
X14953277Y-16828843D01*
X14953277Y-16828843D02*
X14934230Y-16819319D01*
X15143753Y-16828843D02*
X15124706Y-16819319D01*
X15124706Y-16819319D02*
X15115182Y-16800272D01*
X15115182Y-16800272D02*
X15115182Y-16628843D01*
X15305658Y-16828843D02*
X15305658Y-16724081D01*
X15305658Y-16724081D02*
X15296134Y-16705033D01*
X15296134Y-16705033D02*
X15277087Y-16695510D01*
X15277087Y-16695510D02*
X15238992Y-16695510D01*
X15238992Y-16695510D02*
X15219944Y-16705033D01*
X15305658Y-16819319D02*
X15286611Y-16828843D01*
X15286611Y-16828843D02*
X15238992Y-16828843D01*
X15238992Y-16828843D02*
X15219944Y-16819319D01*
X15219944Y-16819319D02*
X15210420Y-16800272D01*
X15210420Y-16800272D02*
X15210420Y-16781224D01*
X15210420Y-16781224D02*
X15219944Y-16762176D01*
X15219944Y-16762176D02*
X15238992Y-16752653D01*
X15238992Y-16752653D02*
X15286611Y-16752653D01*
X15286611Y-16752653D02*
X15305658Y-16743129D01*
X15372325Y-16695510D02*
X15448515Y-16695510D01*
X15400896Y-16628843D02*
X15400896Y-16800272D01*
X15400896Y-16800272D02*
X15410420Y-16819319D01*
X15410420Y-16819319D02*
X15429468Y-16828843D01*
X15429468Y-16828843D02*
X15448515Y-16828843D01*
X15591373Y-16819319D02*
X15572325Y-16828843D01*
X15572325Y-16828843D02*
X15534230Y-16828843D01*
X15534230Y-16828843D02*
X15515182Y-16819319D01*
X15515182Y-16819319D02*
X15505658Y-16800272D01*
X15505658Y-16800272D02*
X15505658Y-16724081D01*
X15505658Y-16724081D02*
X15515182Y-16705033D01*
X15515182Y-16705033D02*
X15534230Y-16695510D01*
X15534230Y-16695510D02*
X15572325Y-16695510D01*
X15572325Y-16695510D02*
X15591373Y-16705033D01*
X15591373Y-16705033D02*
X15600896Y-16724081D01*
X15600896Y-16724081D02*
X15600896Y-16743129D01*
X15600896Y-16743129D02*
X15505658Y-16762176D01*
X15772325Y-16828843D02*
X15772325Y-16628843D01*
X15772325Y-16819319D02*
X15753277Y-16828843D01*
X15753277Y-16828843D02*
X15715182Y-16828843D01*
X15715182Y-16828843D02*
X15696134Y-16819319D01*
X15696134Y-16819319D02*
X15686611Y-16809795D01*
X15686611Y-16809795D02*
X15677087Y-16790748D01*
X15677087Y-16790748D02*
X15677087Y-16733605D01*
X15677087Y-16733605D02*
X15686611Y-16714557D01*
X15686611Y-16714557D02*
X15696134Y-16705033D01*
X15696134Y-16705033D02*
X15715182Y-16695510D01*
X15715182Y-16695510D02*
X15753277Y-16695510D01*
X15753277Y-16695510D02*
X15772325Y-16705033D01*
X15848515Y-16905034D02*
X15858039Y-16895510D01*
X15858039Y-16895510D02*
X15877087Y-16866938D01*
X15877087Y-16866938D02*
X15886611Y-16847891D01*
X15886611Y-16847891D02*
X15896134Y-16819319D01*
X15896134Y-16819319D02*
X15905658Y-16771700D01*
X15905658Y-16771700D02*
X15905658Y-16733605D01*
X15905658Y-16733605D02*
X15896134Y-16685986D01*
X15896134Y-16685986D02*
X15886611Y-16657414D01*
X15886611Y-16657414D02*
X15877087Y-16638367D01*
X15877087Y-16638367D02*
X15858039Y-16609795D01*
X15858039Y-16609795D02*
X15848515Y-16600272D01*
X8992500Y-17157359D02*
X9092500Y-17057359D01*
X8992500Y-16957359D01*
X8892500Y-17057359D01*
X8992500Y-17157359D01*
X9334229Y-16948843D02*
X9458039Y-16948843D01*
X9458039Y-16948843D02*
X9391372Y-17025034D01*
X9391372Y-17025034D02*
X9419944Y-17025034D01*
X9419944Y-17025034D02*
X9438991Y-17034557D01*
X9438991Y-17034557D02*
X9448515Y-17044081D01*
X9448515Y-17044081D02*
X9458039Y-17063129D01*
X9458039Y-17063129D02*
X9458039Y-17110748D01*
X9458039Y-17110748D02*
X9448515Y-17129795D01*
X9448515Y-17129795D02*
X9438991Y-17139319D01*
X9438991Y-17139319D02*
X9419944Y-17148843D01*
X9419944Y-17148843D02*
X9362801Y-17148843D01*
X9362801Y-17148843D02*
X9343753Y-17139319D01*
X9343753Y-17139319D02*
X9334229Y-17129795D01*
X9543753Y-17129795D02*
X9553277Y-17139319D01*
X9553277Y-17139319D02*
X9543753Y-17148843D01*
X9543753Y-17148843D02*
X9534229Y-17139319D01*
X9534229Y-17139319D02*
X9543753Y-17129795D01*
X9543753Y-17129795D02*
X9543753Y-17148843D01*
X9677086Y-16948843D02*
X9696134Y-16948843D01*
X9696134Y-16948843D02*
X9715182Y-16958367D01*
X9715182Y-16958367D02*
X9724705Y-16967891D01*
X9724705Y-16967891D02*
X9734229Y-16986938D01*
X9734229Y-16986938D02*
X9743753Y-17025034D01*
X9743753Y-17025034D02*
X9743753Y-17072653D01*
X9743753Y-17072653D02*
X9734229Y-17110748D01*
X9734229Y-17110748D02*
X9724705Y-17129795D01*
X9724705Y-17129795D02*
X9715182Y-17139319D01*
X9715182Y-17139319D02*
X9696134Y-17148843D01*
X9696134Y-17148843D02*
X9677086Y-17148843D01*
X9677086Y-17148843D02*
X9658039Y-17139319D01*
X9658039Y-17139319D02*
X9648515Y-17129795D01*
X9648515Y-17129795D02*
X9638991Y-17110748D01*
X9638991Y-17110748D02*
X9629467Y-17072653D01*
X9629467Y-17072653D02*
X9629467Y-17025034D01*
X9629467Y-17025034D02*
X9638991Y-16986938D01*
X9638991Y-16986938D02*
X9648515Y-16967891D01*
X9648515Y-16967891D02*
X9658039Y-16958367D01*
X9658039Y-16958367D02*
X9677086Y-16948843D01*
X9867563Y-16948843D02*
X9886610Y-16948843D01*
X9886610Y-16948843D02*
X9905658Y-16958367D01*
X9905658Y-16958367D02*
X9915182Y-16967891D01*
X9915182Y-16967891D02*
X9924705Y-16986938D01*
X9924705Y-16986938D02*
X9934229Y-17025034D01*
X9934229Y-17025034D02*
X9934229Y-17072653D01*
X9934229Y-17072653D02*
X9924705Y-17110748D01*
X9924705Y-17110748D02*
X9915182Y-17129795D01*
X9915182Y-17129795D02*
X9905658Y-17139319D01*
X9905658Y-17139319D02*
X9886610Y-17148843D01*
X9886610Y-17148843D02*
X9867563Y-17148843D01*
X9867563Y-17148843D02*
X9848515Y-17139319D01*
X9848515Y-17139319D02*
X9838991Y-17129795D01*
X9838991Y-17129795D02*
X9829467Y-17110748D01*
X9829467Y-17110748D02*
X9819944Y-17072653D01*
X9819944Y-17072653D02*
X9819944Y-17025034D01*
X9819944Y-17025034D02*
X9829467Y-16986938D01*
X9829467Y-16986938D02*
X9838991Y-16967891D01*
X9838991Y-16967891D02*
X9848515Y-16958367D01*
X9848515Y-16958367D02*
X9867563Y-16948843D01*
X10058039Y-16948843D02*
X10077086Y-16948843D01*
X10077086Y-16948843D02*
X10096134Y-16958367D01*
X10096134Y-16958367D02*
X10105658Y-16967891D01*
X10105658Y-16967891D02*
X10115182Y-16986938D01*
X10115182Y-16986938D02*
X10124705Y-17025034D01*
X10124705Y-17025034D02*
X10124705Y-17072653D01*
X10124705Y-17072653D02*
X10115182Y-17110748D01*
X10115182Y-17110748D02*
X10105658Y-17129795D01*
X10105658Y-17129795D02*
X10096134Y-17139319D01*
X10096134Y-17139319D02*
X10077086Y-17148843D01*
X10077086Y-17148843D02*
X10058039Y-17148843D01*
X10058039Y-17148843D02*
X10038991Y-17139319D01*
X10038991Y-17139319D02*
X10029467Y-17129795D01*
X10029467Y-17129795D02*
X10019944Y-17110748D01*
X10019944Y-17110748D02*
X10010420Y-17072653D01*
X10010420Y-17072653D02*
X10010420Y-17025034D01*
X10010420Y-17025034D02*
X10019944Y-16986938D01*
X10019944Y-16986938D02*
X10029467Y-16967891D01*
X10029467Y-16967891D02*
X10038991Y-16958367D01*
X10038991Y-16958367D02*
X10058039Y-16948843D01*
X10210420Y-17148843D02*
X10210420Y-17015510D01*
X10210420Y-17034557D02*
X10219944Y-17025034D01*
X10219944Y-17025034D02*
X10238991Y-17015510D01*
X10238991Y-17015510D02*
X10267563Y-17015510D01*
X10267563Y-17015510D02*
X10286610Y-17025034D01*
X10286610Y-17025034D02*
X10296134Y-17044081D01*
X10296134Y-17044081D02*
X10296134Y-17148843D01*
X10296134Y-17044081D02*
X10305658Y-17025034D01*
X10305658Y-17025034D02*
X10324705Y-17015510D01*
X10324705Y-17015510D02*
X10353277Y-17015510D01*
X10353277Y-17015510D02*
X10372325Y-17025034D01*
X10372325Y-17025034D02*
X10381848Y-17044081D01*
X10381848Y-17044081D02*
X10381848Y-17148843D01*
X10477086Y-17148843D02*
X10477086Y-17015510D01*
X10477086Y-17034557D02*
X10486610Y-17025034D01*
X10486610Y-17025034D02*
X10505658Y-17015510D01*
X10505658Y-17015510D02*
X10534229Y-17015510D01*
X10534229Y-17015510D02*
X10553277Y-17025034D01*
X10553277Y-17025034D02*
X10562801Y-17044081D01*
X10562801Y-17044081D02*
X10562801Y-17148843D01*
X10562801Y-17044081D02*
X10572325Y-17025034D01*
X10572325Y-17025034D02*
X10591372Y-17015510D01*
X10591372Y-17015510D02*
X10619944Y-17015510D01*
X10619944Y-17015510D02*
X10638991Y-17025034D01*
X10638991Y-17025034D02*
X10648515Y-17044081D01*
X10648515Y-17044081D02*
X10648515Y-17148843D01*
X11038991Y-16939319D02*
X10867563Y-17196462D01*
X11296134Y-16948843D02*
X11315182Y-16948843D01*
X11315182Y-16948843D02*
X11334229Y-16958367D01*
X11334229Y-16958367D02*
X11343753Y-16967891D01*
X11343753Y-16967891D02*
X11353277Y-16986938D01*
X11353277Y-16986938D02*
X11362801Y-17025034D01*
X11362801Y-17025034D02*
X11362801Y-17072653D01*
X11362801Y-17072653D02*
X11353277Y-17110748D01*
X11353277Y-17110748D02*
X11343753Y-17129795D01*
X11343753Y-17129795D02*
X11334229Y-17139319D01*
X11334229Y-17139319D02*
X11315182Y-17148843D01*
X11315182Y-17148843D02*
X11296134Y-17148843D01*
X11296134Y-17148843D02*
X11277086Y-17139319D01*
X11277086Y-17139319D02*
X11267563Y-17129795D01*
X11267563Y-17129795D02*
X11258039Y-17110748D01*
X11258039Y-17110748D02*
X11248515Y-17072653D01*
X11248515Y-17072653D02*
X11248515Y-17025034D01*
X11248515Y-17025034D02*
X11258039Y-16986938D01*
X11258039Y-16986938D02*
X11267563Y-16967891D01*
X11267563Y-16967891D02*
X11277086Y-16958367D01*
X11277086Y-16958367D02*
X11296134Y-16948843D01*
X11448515Y-17129795D02*
X11458039Y-17139319D01*
X11458039Y-17139319D02*
X11448515Y-17148843D01*
X11448515Y-17148843D02*
X11438991Y-17139319D01*
X11438991Y-17139319D02*
X11448515Y-17129795D01*
X11448515Y-17129795D02*
X11448515Y-17148843D01*
X11648515Y-17148843D02*
X11534229Y-17148843D01*
X11591372Y-17148843D02*
X11591372Y-16948843D01*
X11591372Y-16948843D02*
X11572325Y-16977415D01*
X11572325Y-16977415D02*
X11553277Y-16996462D01*
X11553277Y-16996462D02*
X11534229Y-17005986D01*
X11838991Y-17148843D02*
X11724706Y-17148843D01*
X11781848Y-17148843D02*
X11781848Y-16948843D01*
X11781848Y-16948843D02*
X11762801Y-16977415D01*
X11762801Y-16977415D02*
X11743753Y-16996462D01*
X11743753Y-16996462D02*
X11724706Y-17005986D01*
X11953277Y-17034557D02*
X11934229Y-17025034D01*
X11934229Y-17025034D02*
X11924706Y-17015510D01*
X11924706Y-17015510D02*
X11915182Y-16996462D01*
X11915182Y-16996462D02*
X11915182Y-16986938D01*
X11915182Y-16986938D02*
X11924706Y-16967891D01*
X11924706Y-16967891D02*
X11934229Y-16958367D01*
X11934229Y-16958367D02*
X11953277Y-16948843D01*
X11953277Y-16948843D02*
X11991372Y-16948843D01*
X11991372Y-16948843D02*
X12010420Y-16958367D01*
X12010420Y-16958367D02*
X12019944Y-16967891D01*
X12019944Y-16967891D02*
X12029467Y-16986938D01*
X12029467Y-16986938D02*
X12029467Y-16996462D01*
X12029467Y-16996462D02*
X12019944Y-17015510D01*
X12019944Y-17015510D02*
X12010420Y-17025034D01*
X12010420Y-17025034D02*
X11991372Y-17034557D01*
X11991372Y-17034557D02*
X11953277Y-17034557D01*
X11953277Y-17034557D02*
X11934229Y-17044081D01*
X11934229Y-17044081D02*
X11924706Y-17053605D01*
X11924706Y-17053605D02*
X11915182Y-17072653D01*
X11915182Y-17072653D02*
X11915182Y-17110748D01*
X11915182Y-17110748D02*
X11924706Y-17129795D01*
X11924706Y-17129795D02*
X11934229Y-17139319D01*
X11934229Y-17139319D02*
X11953277Y-17148843D01*
X11953277Y-17148843D02*
X11991372Y-17148843D01*
X11991372Y-17148843D02*
X12010420Y-17139319D01*
X12010420Y-17139319D02*
X12019944Y-17129795D01*
X12019944Y-17129795D02*
X12029467Y-17110748D01*
X12029467Y-17110748D02*
X12029467Y-17072653D01*
X12029467Y-17072653D02*
X12019944Y-17053605D01*
X12019944Y-17053605D02*
X12010420Y-17044081D01*
X12010420Y-17044081D02*
X11991372Y-17034557D01*
X12219944Y-17148843D02*
X12105658Y-17148843D01*
X12162801Y-17148843D02*
X12162801Y-16948843D01*
X12162801Y-16948843D02*
X12143753Y-16977415D01*
X12143753Y-16977415D02*
X12124706Y-16996462D01*
X12124706Y-16996462D02*
X12105658Y-17005986D01*
X12296134Y-16948843D02*
X12296134Y-16986938D01*
X12372325Y-16948843D02*
X12372325Y-16986938D01*
X12667563Y-17225034D02*
X12658039Y-17215510D01*
X12658039Y-17215510D02*
X12638991Y-17186938D01*
X12638991Y-17186938D02*
X12629468Y-17167891D01*
X12629468Y-17167891D02*
X12619944Y-17139319D01*
X12619944Y-17139319D02*
X12610420Y-17091700D01*
X12610420Y-17091700D02*
X12610420Y-17053605D01*
X12610420Y-17053605D02*
X12619944Y-17005986D01*
X12619944Y-17005986D02*
X12629468Y-16977415D01*
X12629468Y-16977415D02*
X12638991Y-16958367D01*
X12638991Y-16958367D02*
X12658039Y-16929795D01*
X12658039Y-16929795D02*
X12667563Y-16920272D01*
X12838991Y-16948843D02*
X12743753Y-16948843D01*
X12743753Y-16948843D02*
X12734229Y-17044081D01*
X12734229Y-17044081D02*
X12743753Y-17034557D01*
X12743753Y-17034557D02*
X12762801Y-17025034D01*
X12762801Y-17025034D02*
X12810420Y-17025034D01*
X12810420Y-17025034D02*
X12829468Y-17034557D01*
X12829468Y-17034557D02*
X12838991Y-17044081D01*
X12838991Y-17044081D02*
X12848515Y-17063129D01*
X12848515Y-17063129D02*
X12848515Y-17110748D01*
X12848515Y-17110748D02*
X12838991Y-17129795D01*
X12838991Y-17129795D02*
X12829468Y-17139319D01*
X12829468Y-17139319D02*
X12810420Y-17148843D01*
X12810420Y-17148843D02*
X12762801Y-17148843D01*
X12762801Y-17148843D02*
X12743753Y-17139319D01*
X12743753Y-17139319D02*
X12734229Y-17129795D01*
X12924706Y-16967891D02*
X12934229Y-16958367D01*
X12934229Y-16958367D02*
X12953277Y-16948843D01*
X12953277Y-16948843D02*
X13000896Y-16948843D01*
X13000896Y-16948843D02*
X13019944Y-16958367D01*
X13019944Y-16958367D02*
X13029468Y-16967891D01*
X13029468Y-16967891D02*
X13038991Y-16986938D01*
X13038991Y-16986938D02*
X13038991Y-17005986D01*
X13038991Y-17005986D02*
X13029468Y-17034557D01*
X13029468Y-17034557D02*
X12915182Y-17148843D01*
X12915182Y-17148843D02*
X13038991Y-17148843D01*
X13277087Y-17148843D02*
X13277087Y-16948843D01*
X13362801Y-17148843D02*
X13362801Y-17044081D01*
X13362801Y-17044081D02*
X13353277Y-17025034D01*
X13353277Y-17025034D02*
X13334230Y-17015510D01*
X13334230Y-17015510D02*
X13305658Y-17015510D01*
X13305658Y-17015510D02*
X13286610Y-17025034D01*
X13286610Y-17025034D02*
X13277087Y-17034557D01*
X13486610Y-17148843D02*
X13467563Y-17139319D01*
X13467563Y-17139319D02*
X13458039Y-17129795D01*
X13458039Y-17129795D02*
X13448515Y-17110748D01*
X13448515Y-17110748D02*
X13448515Y-17053605D01*
X13448515Y-17053605D02*
X13458039Y-17034557D01*
X13458039Y-17034557D02*
X13467563Y-17025034D01*
X13467563Y-17025034D02*
X13486610Y-17015510D01*
X13486610Y-17015510D02*
X13515182Y-17015510D01*
X13515182Y-17015510D02*
X13534230Y-17025034D01*
X13534230Y-17025034D02*
X13543753Y-17034557D01*
X13543753Y-17034557D02*
X13553277Y-17053605D01*
X13553277Y-17053605D02*
X13553277Y-17110748D01*
X13553277Y-17110748D02*
X13543753Y-17129795D01*
X13543753Y-17129795D02*
X13534230Y-17139319D01*
X13534230Y-17139319D02*
X13515182Y-17148843D01*
X13515182Y-17148843D02*
X13486610Y-17148843D01*
X13667563Y-17148843D02*
X13648515Y-17139319D01*
X13648515Y-17139319D02*
X13638991Y-17120272D01*
X13638991Y-17120272D02*
X13638991Y-16948843D01*
X13819944Y-17139319D02*
X13800896Y-17148843D01*
X13800896Y-17148843D02*
X13762801Y-17148843D01*
X13762801Y-17148843D02*
X13743753Y-17139319D01*
X13743753Y-17139319D02*
X13734230Y-17120272D01*
X13734230Y-17120272D02*
X13734230Y-17044081D01*
X13734230Y-17044081D02*
X13743753Y-17025034D01*
X13743753Y-17025034D02*
X13762801Y-17015510D01*
X13762801Y-17015510D02*
X13800896Y-17015510D01*
X13800896Y-17015510D02*
X13819944Y-17025034D01*
X13819944Y-17025034D02*
X13829468Y-17044081D01*
X13829468Y-17044081D02*
X13829468Y-17063129D01*
X13829468Y-17063129D02*
X13734230Y-17082176D01*
X13905658Y-17139319D02*
X13924706Y-17148843D01*
X13924706Y-17148843D02*
X13962801Y-17148843D01*
X13962801Y-17148843D02*
X13981849Y-17139319D01*
X13981849Y-17139319D02*
X13991372Y-17120272D01*
X13991372Y-17120272D02*
X13991372Y-17110748D01*
X13991372Y-17110748D02*
X13981849Y-17091700D01*
X13981849Y-17091700D02*
X13962801Y-17082176D01*
X13962801Y-17082176D02*
X13934230Y-17082176D01*
X13934230Y-17082176D02*
X13915182Y-17072653D01*
X13915182Y-17072653D02*
X13905658Y-17053605D01*
X13905658Y-17053605D02*
X13905658Y-17044081D01*
X13905658Y-17044081D02*
X13915182Y-17025034D01*
X13915182Y-17025034D02*
X13934230Y-17015510D01*
X13934230Y-17015510D02*
X13962801Y-17015510D01*
X13962801Y-17015510D02*
X13981849Y-17025034D01*
X14058039Y-17225034D02*
X14067563Y-17215510D01*
X14067563Y-17215510D02*
X14086611Y-17186938D01*
X14086611Y-17186938D02*
X14096134Y-17167891D01*
X14096134Y-17167891D02*
X14105658Y-17139319D01*
X14105658Y-17139319D02*
X14115182Y-17091700D01*
X14115182Y-17091700D02*
X14115182Y-17053605D01*
X14115182Y-17053605D02*
X14105658Y-17005986D01*
X14105658Y-17005986D02*
X14096134Y-16977415D01*
X14096134Y-16977415D02*
X14086611Y-16958367D01*
X14086611Y-16958367D02*
X14067563Y-16929795D01*
X14067563Y-16929795D02*
X14058039Y-16920272D01*
X14419944Y-17225034D02*
X14410420Y-17215510D01*
X14410420Y-17215510D02*
X14391372Y-17186938D01*
X14391372Y-17186938D02*
X14381849Y-17167891D01*
X14381849Y-17167891D02*
X14372325Y-17139319D01*
X14372325Y-17139319D02*
X14362801Y-17091700D01*
X14362801Y-17091700D02*
X14362801Y-17053605D01*
X14362801Y-17053605D02*
X14372325Y-17005986D01*
X14372325Y-17005986D02*
X14381849Y-16977415D01*
X14381849Y-16977415D02*
X14391372Y-16958367D01*
X14391372Y-16958367D02*
X14410420Y-16929795D01*
X14410420Y-16929795D02*
X14419944Y-16920272D01*
X14496134Y-17015510D02*
X14496134Y-17148843D01*
X14496134Y-17034557D02*
X14505658Y-17025034D01*
X14505658Y-17025034D02*
X14524706Y-17015510D01*
X14524706Y-17015510D02*
X14553277Y-17015510D01*
X14553277Y-17015510D02*
X14572325Y-17025034D01*
X14572325Y-17025034D02*
X14581849Y-17044081D01*
X14581849Y-17044081D02*
X14581849Y-17148843D01*
X14705658Y-17148843D02*
X14686611Y-17139319D01*
X14686611Y-17139319D02*
X14677087Y-17129795D01*
X14677087Y-17129795D02*
X14667563Y-17110748D01*
X14667563Y-17110748D02*
X14667563Y-17053605D01*
X14667563Y-17053605D02*
X14677087Y-17034557D01*
X14677087Y-17034557D02*
X14686611Y-17025034D01*
X14686611Y-17025034D02*
X14705658Y-17015510D01*
X14705658Y-17015510D02*
X14734230Y-17015510D01*
X14734230Y-17015510D02*
X14753277Y-17025034D01*
X14753277Y-17025034D02*
X14762801Y-17034557D01*
X14762801Y-17034557D02*
X14772325Y-17053605D01*
X14772325Y-17053605D02*
X14772325Y-17110748D01*
X14772325Y-17110748D02*
X14762801Y-17129795D01*
X14762801Y-17129795D02*
X14753277Y-17139319D01*
X14753277Y-17139319D02*
X14734230Y-17148843D01*
X14734230Y-17148843D02*
X14705658Y-17148843D01*
X14829468Y-17015510D02*
X14905658Y-17015510D01*
X14858039Y-16948843D02*
X14858039Y-17120272D01*
X14858039Y-17120272D02*
X14867563Y-17139319D01*
X14867563Y-17139319D02*
X14886611Y-17148843D01*
X14886611Y-17148843D02*
X14905658Y-17148843D01*
X15124706Y-17015510D02*
X15124706Y-17215510D01*
X15124706Y-17025034D02*
X15143753Y-17015510D01*
X15143753Y-17015510D02*
X15181849Y-17015510D01*
X15181849Y-17015510D02*
X15200896Y-17025034D01*
X15200896Y-17025034D02*
X15210420Y-17034557D01*
X15210420Y-17034557D02*
X15219944Y-17053605D01*
X15219944Y-17053605D02*
X15219944Y-17110748D01*
X15219944Y-17110748D02*
X15210420Y-17129795D01*
X15210420Y-17129795D02*
X15200896Y-17139319D01*
X15200896Y-17139319D02*
X15181849Y-17148843D01*
X15181849Y-17148843D02*
X15143753Y-17148843D01*
X15143753Y-17148843D02*
X15124706Y-17139319D01*
X15334230Y-17148843D02*
X15315182Y-17139319D01*
X15315182Y-17139319D02*
X15305658Y-17120272D01*
X15305658Y-17120272D02*
X15305658Y-16948843D01*
X15496134Y-17148843D02*
X15496134Y-17044081D01*
X15496134Y-17044081D02*
X15486611Y-17025034D01*
X15486611Y-17025034D02*
X15467563Y-17015510D01*
X15467563Y-17015510D02*
X15429468Y-17015510D01*
X15429468Y-17015510D02*
X15410420Y-17025034D01*
X15496134Y-17139319D02*
X15477087Y-17148843D01*
X15477087Y-17148843D02*
X15429468Y-17148843D01*
X15429468Y-17148843D02*
X15410420Y-17139319D01*
X15410420Y-17139319D02*
X15400896Y-17120272D01*
X15400896Y-17120272D02*
X15400896Y-17101224D01*
X15400896Y-17101224D02*
X15410420Y-17082176D01*
X15410420Y-17082176D02*
X15429468Y-17072653D01*
X15429468Y-17072653D02*
X15477087Y-17072653D01*
X15477087Y-17072653D02*
X15496134Y-17063129D01*
X15562801Y-17015510D02*
X15638992Y-17015510D01*
X15591373Y-16948843D02*
X15591373Y-17120272D01*
X15591373Y-17120272D02*
X15600896Y-17139319D01*
X15600896Y-17139319D02*
X15619944Y-17148843D01*
X15619944Y-17148843D02*
X15638992Y-17148843D01*
X15781849Y-17139319D02*
X15762801Y-17148843D01*
X15762801Y-17148843D02*
X15724706Y-17148843D01*
X15724706Y-17148843D02*
X15705658Y-17139319D01*
X15705658Y-17139319D02*
X15696134Y-17120272D01*
X15696134Y-17120272D02*
X15696134Y-17044081D01*
X15696134Y-17044081D02*
X15705658Y-17025034D01*
X15705658Y-17025034D02*
X15724706Y-17015510D01*
X15724706Y-17015510D02*
X15762801Y-17015510D01*
X15762801Y-17015510D02*
X15781849Y-17025034D01*
X15781849Y-17025034D02*
X15791373Y-17044081D01*
X15791373Y-17044081D02*
X15791373Y-17063129D01*
X15791373Y-17063129D02*
X15696134Y-17082176D01*
X15962801Y-17148843D02*
X15962801Y-16948843D01*
X15962801Y-17139319D02*
X15943754Y-17148843D01*
X15943754Y-17148843D02*
X15905658Y-17148843D01*
X15905658Y-17148843D02*
X15886611Y-17139319D01*
X15886611Y-17139319D02*
X15877087Y-17129795D01*
X15877087Y-17129795D02*
X15867563Y-17110748D01*
X15867563Y-17110748D02*
X15867563Y-17053605D01*
X15867563Y-17053605D02*
X15877087Y-17034557D01*
X15877087Y-17034557D02*
X15886611Y-17025034D01*
X15886611Y-17025034D02*
X15905658Y-17015510D01*
X15905658Y-17015510D02*
X15943754Y-17015510D01*
X15943754Y-17015510D02*
X15962801Y-17025034D01*
X16038992Y-17225034D02*
X16048515Y-17215510D01*
X16048515Y-17215510D02*
X16067563Y-17186938D01*
X16067563Y-17186938D02*
X16077087Y-17167891D01*
X16077087Y-17167891D02*
X16086611Y-17139319D01*
X16086611Y-17139319D02*
X16096134Y-17091700D01*
X16096134Y-17091700D02*
X16096134Y-17053605D01*
X16096134Y-17053605D02*
X16086611Y-17005986D01*
X16086611Y-17005986D02*
X16077087Y-16977415D01*
X16077087Y-16977415D02*
X16067563Y-16958367D01*
X16067563Y-16958367D02*
X16048515Y-16929795D01*
X16048515Y-16929795D02*
X16038992Y-16920272D01*
X8892500Y-17277359D02*
X9092500Y-17477359D01*
X9092500Y-17277359D02*
X8892500Y-17477359D01*
X9092500Y-17377359D02*
G75*
G02*
X8892500Y-17377359I-100000J0D01*
G01*
X8892500Y-17377359D02*
G75*
G02*
X9092500Y-17377359I100000J0D01*
G01*
X9438991Y-17335510D02*
X9438991Y-17468843D01*
X9391372Y-17259319D02*
X9343753Y-17402176D01*
X9343753Y-17402176D02*
X9467563Y-17402176D01*
X9543753Y-17449795D02*
X9553277Y-17459319D01*
X9553277Y-17459319D02*
X9543753Y-17468843D01*
X9543753Y-17468843D02*
X9534229Y-17459319D01*
X9534229Y-17459319D02*
X9543753Y-17449795D01*
X9543753Y-17449795D02*
X9543753Y-17468843D01*
X9743753Y-17468843D02*
X9629467Y-17468843D01*
X9686610Y-17468843D02*
X9686610Y-17268843D01*
X9686610Y-17268843D02*
X9667563Y-17297415D01*
X9667563Y-17297415D02*
X9648515Y-17316462D01*
X9648515Y-17316462D02*
X9629467Y-17325986D01*
X9867563Y-17268843D02*
X9886610Y-17268843D01*
X9886610Y-17268843D02*
X9905658Y-17278367D01*
X9905658Y-17278367D02*
X9915182Y-17287891D01*
X9915182Y-17287891D02*
X9924705Y-17306938D01*
X9924705Y-17306938D02*
X9934229Y-17345034D01*
X9934229Y-17345034D02*
X9934229Y-17392653D01*
X9934229Y-17392653D02*
X9924705Y-17430748D01*
X9924705Y-17430748D02*
X9915182Y-17449795D01*
X9915182Y-17449795D02*
X9905658Y-17459319D01*
X9905658Y-17459319D02*
X9886610Y-17468843D01*
X9886610Y-17468843D02*
X9867563Y-17468843D01*
X9867563Y-17468843D02*
X9848515Y-17459319D01*
X9848515Y-17459319D02*
X9838991Y-17449795D01*
X9838991Y-17449795D02*
X9829467Y-17430748D01*
X9829467Y-17430748D02*
X9819944Y-17392653D01*
X9819944Y-17392653D02*
X9819944Y-17345034D01*
X9819944Y-17345034D02*
X9829467Y-17306938D01*
X9829467Y-17306938D02*
X9838991Y-17287891D01*
X9838991Y-17287891D02*
X9848515Y-17278367D01*
X9848515Y-17278367D02*
X9867563Y-17268843D01*
X10058039Y-17268843D02*
X10077086Y-17268843D01*
X10077086Y-17268843D02*
X10096134Y-17278367D01*
X10096134Y-17278367D02*
X10105658Y-17287891D01*
X10105658Y-17287891D02*
X10115182Y-17306938D01*
X10115182Y-17306938D02*
X10124705Y-17345034D01*
X10124705Y-17345034D02*
X10124705Y-17392653D01*
X10124705Y-17392653D02*
X10115182Y-17430748D01*
X10115182Y-17430748D02*
X10105658Y-17449795D01*
X10105658Y-17449795D02*
X10096134Y-17459319D01*
X10096134Y-17459319D02*
X10077086Y-17468843D01*
X10077086Y-17468843D02*
X10058039Y-17468843D01*
X10058039Y-17468843D02*
X10038991Y-17459319D01*
X10038991Y-17459319D02*
X10029467Y-17449795D01*
X10029467Y-17449795D02*
X10019944Y-17430748D01*
X10019944Y-17430748D02*
X10010420Y-17392653D01*
X10010420Y-17392653D02*
X10010420Y-17345034D01*
X10010420Y-17345034D02*
X10019944Y-17306938D01*
X10019944Y-17306938D02*
X10029467Y-17287891D01*
X10029467Y-17287891D02*
X10038991Y-17278367D01*
X10038991Y-17278367D02*
X10058039Y-17268843D01*
X10210420Y-17468843D02*
X10210420Y-17335510D01*
X10210420Y-17354557D02*
X10219944Y-17345034D01*
X10219944Y-17345034D02*
X10238991Y-17335510D01*
X10238991Y-17335510D02*
X10267563Y-17335510D01*
X10267563Y-17335510D02*
X10286610Y-17345034D01*
X10286610Y-17345034D02*
X10296134Y-17364081D01*
X10296134Y-17364081D02*
X10296134Y-17468843D01*
X10296134Y-17364081D02*
X10305658Y-17345034D01*
X10305658Y-17345034D02*
X10324705Y-17335510D01*
X10324705Y-17335510D02*
X10353277Y-17335510D01*
X10353277Y-17335510D02*
X10372325Y-17345034D01*
X10372325Y-17345034D02*
X10381848Y-17364081D01*
X10381848Y-17364081D02*
X10381848Y-17468843D01*
X10477086Y-17468843D02*
X10477086Y-17335510D01*
X10477086Y-17354557D02*
X10486610Y-17345034D01*
X10486610Y-17345034D02*
X10505658Y-17335510D01*
X10505658Y-17335510D02*
X10534229Y-17335510D01*
X10534229Y-17335510D02*
X10553277Y-17345034D01*
X10553277Y-17345034D02*
X10562801Y-17364081D01*
X10562801Y-17364081D02*
X10562801Y-17468843D01*
X10562801Y-17364081D02*
X10572325Y-17345034D01*
X10572325Y-17345034D02*
X10591372Y-17335510D01*
X10591372Y-17335510D02*
X10619944Y-17335510D01*
X10619944Y-17335510D02*
X10638991Y-17345034D01*
X10638991Y-17345034D02*
X10648515Y-17364081D01*
X10648515Y-17364081D02*
X10648515Y-17468843D01*
X11038991Y-17259319D02*
X10867563Y-17516462D01*
X11296134Y-17268843D02*
X11315182Y-17268843D01*
X11315182Y-17268843D02*
X11334229Y-17278367D01*
X11334229Y-17278367D02*
X11343753Y-17287891D01*
X11343753Y-17287891D02*
X11353277Y-17306938D01*
X11353277Y-17306938D02*
X11362801Y-17345034D01*
X11362801Y-17345034D02*
X11362801Y-17392653D01*
X11362801Y-17392653D02*
X11353277Y-17430748D01*
X11353277Y-17430748D02*
X11343753Y-17449795D01*
X11343753Y-17449795D02*
X11334229Y-17459319D01*
X11334229Y-17459319D02*
X11315182Y-17468843D01*
X11315182Y-17468843D02*
X11296134Y-17468843D01*
X11296134Y-17468843D02*
X11277086Y-17459319D01*
X11277086Y-17459319D02*
X11267563Y-17449795D01*
X11267563Y-17449795D02*
X11258039Y-17430748D01*
X11258039Y-17430748D02*
X11248515Y-17392653D01*
X11248515Y-17392653D02*
X11248515Y-17345034D01*
X11248515Y-17345034D02*
X11258039Y-17306938D01*
X11258039Y-17306938D02*
X11267563Y-17287891D01*
X11267563Y-17287891D02*
X11277086Y-17278367D01*
X11277086Y-17278367D02*
X11296134Y-17268843D01*
X11448515Y-17449795D02*
X11458039Y-17459319D01*
X11458039Y-17459319D02*
X11448515Y-17468843D01*
X11448515Y-17468843D02*
X11438991Y-17459319D01*
X11438991Y-17459319D02*
X11448515Y-17449795D01*
X11448515Y-17449795D02*
X11448515Y-17468843D01*
X11648515Y-17468843D02*
X11534229Y-17468843D01*
X11591372Y-17468843D02*
X11591372Y-17268843D01*
X11591372Y-17268843D02*
X11572325Y-17297415D01*
X11572325Y-17297415D02*
X11553277Y-17316462D01*
X11553277Y-17316462D02*
X11534229Y-17325986D01*
X11819944Y-17268843D02*
X11781848Y-17268843D01*
X11781848Y-17268843D02*
X11762801Y-17278367D01*
X11762801Y-17278367D02*
X11753277Y-17287891D01*
X11753277Y-17287891D02*
X11734229Y-17316462D01*
X11734229Y-17316462D02*
X11724706Y-17354557D01*
X11724706Y-17354557D02*
X11724706Y-17430748D01*
X11724706Y-17430748D02*
X11734229Y-17449795D01*
X11734229Y-17449795D02*
X11743753Y-17459319D01*
X11743753Y-17459319D02*
X11762801Y-17468843D01*
X11762801Y-17468843D02*
X11800896Y-17468843D01*
X11800896Y-17468843D02*
X11819944Y-17459319D01*
X11819944Y-17459319D02*
X11829467Y-17449795D01*
X11829467Y-17449795D02*
X11838991Y-17430748D01*
X11838991Y-17430748D02*
X11838991Y-17383129D01*
X11838991Y-17383129D02*
X11829467Y-17364081D01*
X11829467Y-17364081D02*
X11819944Y-17354557D01*
X11819944Y-17354557D02*
X11800896Y-17345034D01*
X11800896Y-17345034D02*
X11762801Y-17345034D01*
X11762801Y-17345034D02*
X11743753Y-17354557D01*
X11743753Y-17354557D02*
X11734229Y-17364081D01*
X11734229Y-17364081D02*
X11724706Y-17383129D01*
X12029467Y-17468843D02*
X11915182Y-17468843D01*
X11972325Y-17468843D02*
X11972325Y-17268843D01*
X11972325Y-17268843D02*
X11953277Y-17297415D01*
X11953277Y-17297415D02*
X11934229Y-17316462D01*
X11934229Y-17316462D02*
X11915182Y-17325986D01*
X12200896Y-17335510D02*
X12200896Y-17468843D01*
X12153277Y-17259319D02*
X12105658Y-17402176D01*
X12105658Y-17402176D02*
X12229467Y-17402176D01*
X12296134Y-17268843D02*
X12296134Y-17306938D01*
X12372325Y-17268843D02*
X12372325Y-17306938D01*
X12667563Y-17545034D02*
X12658039Y-17535510D01*
X12658039Y-17535510D02*
X12638991Y-17506938D01*
X12638991Y-17506938D02*
X12629468Y-17487891D01*
X12629468Y-17487891D02*
X12619944Y-17459319D01*
X12619944Y-17459319D02*
X12610420Y-17411700D01*
X12610420Y-17411700D02*
X12610420Y-17373605D01*
X12610420Y-17373605D02*
X12619944Y-17325986D01*
X12619944Y-17325986D02*
X12629468Y-17297415D01*
X12629468Y-17297415D02*
X12638991Y-17278367D01*
X12638991Y-17278367D02*
X12658039Y-17249795D01*
X12658039Y-17249795D02*
X12667563Y-17240272D01*
X12734229Y-17287891D02*
X12743753Y-17278367D01*
X12743753Y-17278367D02*
X12762801Y-17268843D01*
X12762801Y-17268843D02*
X12810420Y-17268843D01*
X12810420Y-17268843D02*
X12829468Y-17278367D01*
X12829468Y-17278367D02*
X12838991Y-17287891D01*
X12838991Y-17287891D02*
X12848515Y-17306938D01*
X12848515Y-17306938D02*
X12848515Y-17325986D01*
X12848515Y-17325986D02*
X12838991Y-17354557D01*
X12838991Y-17354557D02*
X12724706Y-17468843D01*
X12724706Y-17468843D02*
X12848515Y-17468843D01*
X13019944Y-17268843D02*
X12981848Y-17268843D01*
X12981848Y-17268843D02*
X12962801Y-17278367D01*
X12962801Y-17278367D02*
X12953277Y-17287891D01*
X12953277Y-17287891D02*
X12934229Y-17316462D01*
X12934229Y-17316462D02*
X12924706Y-17354557D01*
X12924706Y-17354557D02*
X12924706Y-17430748D01*
X12924706Y-17430748D02*
X12934229Y-17449795D01*
X12934229Y-17449795D02*
X12943753Y-17459319D01*
X12943753Y-17459319D02*
X12962801Y-17468843D01*
X12962801Y-17468843D02*
X13000896Y-17468843D01*
X13000896Y-17468843D02*
X13019944Y-17459319D01*
X13019944Y-17459319D02*
X13029468Y-17449795D01*
X13029468Y-17449795D02*
X13038991Y-17430748D01*
X13038991Y-17430748D02*
X13038991Y-17383129D01*
X13038991Y-17383129D02*
X13029468Y-17364081D01*
X13029468Y-17364081D02*
X13019944Y-17354557D01*
X13019944Y-17354557D02*
X13000896Y-17345034D01*
X13000896Y-17345034D02*
X12962801Y-17345034D01*
X12962801Y-17345034D02*
X12943753Y-17354557D01*
X12943753Y-17354557D02*
X12934229Y-17364081D01*
X12934229Y-17364081D02*
X12924706Y-17383129D01*
X13277087Y-17468843D02*
X13277087Y-17268843D01*
X13362801Y-17468843D02*
X13362801Y-17364081D01*
X13362801Y-17364081D02*
X13353277Y-17345034D01*
X13353277Y-17345034D02*
X13334230Y-17335510D01*
X13334230Y-17335510D02*
X13305658Y-17335510D01*
X13305658Y-17335510D02*
X13286610Y-17345034D01*
X13286610Y-17345034D02*
X13277087Y-17354557D01*
X13486610Y-17468843D02*
X13467563Y-17459319D01*
X13467563Y-17459319D02*
X13458039Y-17449795D01*
X13458039Y-17449795D02*
X13448515Y-17430748D01*
X13448515Y-17430748D02*
X13448515Y-17373605D01*
X13448515Y-17373605D02*
X13458039Y-17354557D01*
X13458039Y-17354557D02*
X13467563Y-17345034D01*
X13467563Y-17345034D02*
X13486610Y-17335510D01*
X13486610Y-17335510D02*
X13515182Y-17335510D01*
X13515182Y-17335510D02*
X13534230Y-17345034D01*
X13534230Y-17345034D02*
X13543753Y-17354557D01*
X13543753Y-17354557D02*
X13553277Y-17373605D01*
X13553277Y-17373605D02*
X13553277Y-17430748D01*
X13553277Y-17430748D02*
X13543753Y-17449795D01*
X13543753Y-17449795D02*
X13534230Y-17459319D01*
X13534230Y-17459319D02*
X13515182Y-17468843D01*
X13515182Y-17468843D02*
X13486610Y-17468843D01*
X13667563Y-17468843D02*
X13648515Y-17459319D01*
X13648515Y-17459319D02*
X13638991Y-17440272D01*
X13638991Y-17440272D02*
X13638991Y-17268843D01*
X13819944Y-17459319D02*
X13800896Y-17468843D01*
X13800896Y-17468843D02*
X13762801Y-17468843D01*
X13762801Y-17468843D02*
X13743753Y-17459319D01*
X13743753Y-17459319D02*
X13734230Y-17440272D01*
X13734230Y-17440272D02*
X13734230Y-17364081D01*
X13734230Y-17364081D02*
X13743753Y-17345034D01*
X13743753Y-17345034D02*
X13762801Y-17335510D01*
X13762801Y-17335510D02*
X13800896Y-17335510D01*
X13800896Y-17335510D02*
X13819944Y-17345034D01*
X13819944Y-17345034D02*
X13829468Y-17364081D01*
X13829468Y-17364081D02*
X13829468Y-17383129D01*
X13829468Y-17383129D02*
X13734230Y-17402176D01*
X13905658Y-17459319D02*
X13924706Y-17468843D01*
X13924706Y-17468843D02*
X13962801Y-17468843D01*
X13962801Y-17468843D02*
X13981849Y-17459319D01*
X13981849Y-17459319D02*
X13991372Y-17440272D01*
X13991372Y-17440272D02*
X13991372Y-17430748D01*
X13991372Y-17430748D02*
X13981849Y-17411700D01*
X13981849Y-17411700D02*
X13962801Y-17402176D01*
X13962801Y-17402176D02*
X13934230Y-17402176D01*
X13934230Y-17402176D02*
X13915182Y-17392653D01*
X13915182Y-17392653D02*
X13905658Y-17373605D01*
X13905658Y-17373605D02*
X13905658Y-17364081D01*
X13905658Y-17364081D02*
X13915182Y-17345034D01*
X13915182Y-17345034D02*
X13934230Y-17335510D01*
X13934230Y-17335510D02*
X13962801Y-17335510D01*
X13962801Y-17335510D02*
X13981849Y-17345034D01*
X14058039Y-17545034D02*
X14067563Y-17535510D01*
X14067563Y-17535510D02*
X14086611Y-17506938D01*
X14086611Y-17506938D02*
X14096134Y-17487891D01*
X14096134Y-17487891D02*
X14105658Y-17459319D01*
X14105658Y-17459319D02*
X14115182Y-17411700D01*
X14115182Y-17411700D02*
X14115182Y-17373605D01*
X14115182Y-17373605D02*
X14105658Y-17325986D01*
X14105658Y-17325986D02*
X14096134Y-17297415D01*
X14096134Y-17297415D02*
X14086611Y-17278367D01*
X14086611Y-17278367D02*
X14067563Y-17249795D01*
X14067563Y-17249795D02*
X14058039Y-17240272D01*
X14419944Y-17545034D02*
X14410420Y-17535510D01*
X14410420Y-17535510D02*
X14391372Y-17506938D01*
X14391372Y-17506938D02*
X14381849Y-17487891D01*
X14381849Y-17487891D02*
X14372325Y-17459319D01*
X14372325Y-17459319D02*
X14362801Y-17411700D01*
X14362801Y-17411700D02*
X14362801Y-17373605D01*
X14362801Y-17373605D02*
X14372325Y-17325986D01*
X14372325Y-17325986D02*
X14381849Y-17297415D01*
X14381849Y-17297415D02*
X14391372Y-17278367D01*
X14391372Y-17278367D02*
X14410420Y-17249795D01*
X14410420Y-17249795D02*
X14419944Y-17240272D01*
X14496134Y-17335510D02*
X14496134Y-17468843D01*
X14496134Y-17354557D02*
X14505658Y-17345034D01*
X14505658Y-17345034D02*
X14524706Y-17335510D01*
X14524706Y-17335510D02*
X14553277Y-17335510D01*
X14553277Y-17335510D02*
X14572325Y-17345034D01*
X14572325Y-17345034D02*
X14581849Y-17364081D01*
X14581849Y-17364081D02*
X14581849Y-17468843D01*
X14705658Y-17468843D02*
X14686611Y-17459319D01*
X14686611Y-17459319D02*
X14677087Y-17449795D01*
X14677087Y-17449795D02*
X14667563Y-17430748D01*
X14667563Y-17430748D02*
X14667563Y-17373605D01*
X14667563Y-17373605D02*
X14677087Y-17354557D01*
X14677087Y-17354557D02*
X14686611Y-17345034D01*
X14686611Y-17345034D02*
X14705658Y-17335510D01*
X14705658Y-17335510D02*
X14734230Y-17335510D01*
X14734230Y-17335510D02*
X14753277Y-17345034D01*
X14753277Y-17345034D02*
X14762801Y-17354557D01*
X14762801Y-17354557D02*
X14772325Y-17373605D01*
X14772325Y-17373605D02*
X14772325Y-17430748D01*
X14772325Y-17430748D02*
X14762801Y-17449795D01*
X14762801Y-17449795D02*
X14753277Y-17459319D01*
X14753277Y-17459319D02*
X14734230Y-17468843D01*
X14734230Y-17468843D02*
X14705658Y-17468843D01*
X14829468Y-17335510D02*
X14905658Y-17335510D01*
X14858039Y-17268843D02*
X14858039Y-17440272D01*
X14858039Y-17440272D02*
X14867563Y-17459319D01*
X14867563Y-17459319D02*
X14886611Y-17468843D01*
X14886611Y-17468843D02*
X14905658Y-17468843D01*
X15124706Y-17335510D02*
X15124706Y-17535510D01*
X15124706Y-17345034D02*
X15143753Y-17335510D01*
X15143753Y-17335510D02*
X15181849Y-17335510D01*
X15181849Y-17335510D02*
X15200896Y-17345034D01*
X15200896Y-17345034D02*
X15210420Y-17354557D01*
X15210420Y-17354557D02*
X15219944Y-17373605D01*
X15219944Y-17373605D02*
X15219944Y-17430748D01*
X15219944Y-17430748D02*
X15210420Y-17449795D01*
X15210420Y-17449795D02*
X15200896Y-17459319D01*
X15200896Y-17459319D02*
X15181849Y-17468843D01*
X15181849Y-17468843D02*
X15143753Y-17468843D01*
X15143753Y-17468843D02*
X15124706Y-17459319D01*
X15334230Y-17468843D02*
X15315182Y-17459319D01*
X15315182Y-17459319D02*
X15305658Y-17440272D01*
X15305658Y-17440272D02*
X15305658Y-17268843D01*
X15496134Y-17468843D02*
X15496134Y-17364081D01*
X15496134Y-17364081D02*
X15486611Y-17345034D01*
X15486611Y-17345034D02*
X15467563Y-17335510D01*
X15467563Y-17335510D02*
X15429468Y-17335510D01*
X15429468Y-17335510D02*
X15410420Y-17345034D01*
X15496134Y-17459319D02*
X15477087Y-17468843D01*
X15477087Y-17468843D02*
X15429468Y-17468843D01*
X15429468Y-17468843D02*
X15410420Y-17459319D01*
X15410420Y-17459319D02*
X15400896Y-17440272D01*
X15400896Y-17440272D02*
X15400896Y-17421224D01*
X15400896Y-17421224D02*
X15410420Y-17402176D01*
X15410420Y-17402176D02*
X15429468Y-17392653D01*
X15429468Y-17392653D02*
X15477087Y-17392653D01*
X15477087Y-17392653D02*
X15496134Y-17383129D01*
X15562801Y-17335510D02*
X15638992Y-17335510D01*
X15591373Y-17268843D02*
X15591373Y-17440272D01*
X15591373Y-17440272D02*
X15600896Y-17459319D01*
X15600896Y-17459319D02*
X15619944Y-17468843D01*
X15619944Y-17468843D02*
X15638992Y-17468843D01*
X15781849Y-17459319D02*
X15762801Y-17468843D01*
X15762801Y-17468843D02*
X15724706Y-17468843D01*
X15724706Y-17468843D02*
X15705658Y-17459319D01*
X15705658Y-17459319D02*
X15696134Y-17440272D01*
X15696134Y-17440272D02*
X15696134Y-17364081D01*
X15696134Y-17364081D02*
X15705658Y-17345034D01*
X15705658Y-17345034D02*
X15724706Y-17335510D01*
X15724706Y-17335510D02*
X15762801Y-17335510D01*
X15762801Y-17335510D02*
X15781849Y-17345034D01*
X15781849Y-17345034D02*
X15791373Y-17364081D01*
X15791373Y-17364081D02*
X15791373Y-17383129D01*
X15791373Y-17383129D02*
X15696134Y-17402176D01*
X15962801Y-17468843D02*
X15962801Y-17268843D01*
X15962801Y-17459319D02*
X15943754Y-17468843D01*
X15943754Y-17468843D02*
X15905658Y-17468843D01*
X15905658Y-17468843D02*
X15886611Y-17459319D01*
X15886611Y-17459319D02*
X15877087Y-17449795D01*
X15877087Y-17449795D02*
X15867563Y-17430748D01*
X15867563Y-17430748D02*
X15867563Y-17373605D01*
X15867563Y-17373605D02*
X15877087Y-17354557D01*
X15877087Y-17354557D02*
X15886611Y-17345034D01*
X15886611Y-17345034D02*
X15905658Y-17335510D01*
X15905658Y-17335510D02*
X15943754Y-17335510D01*
X15943754Y-17335510D02*
X15962801Y-17345034D01*
X16038992Y-17545034D02*
X16048515Y-17535510D01*
X16048515Y-17535510D02*
X16067563Y-17506938D01*
X16067563Y-17506938D02*
X16077087Y-17487891D01*
X16077087Y-17487891D02*
X16086611Y-17459319D01*
X16086611Y-17459319D02*
X16096134Y-17411700D01*
X16096134Y-17411700D02*
X16096134Y-17373605D01*
X16096134Y-17373605D02*
X16086611Y-17325986D01*
X16086611Y-17325986D02*
X16077087Y-17297415D01*
X16077087Y-17297415D02*
X16067563Y-17278367D01*
X16067563Y-17278367D02*
X16048515Y-17249795D01*
X16048515Y-17249795D02*
X16038992Y-17240272D01*
X8892500Y-17597359D02*
X9092500Y-17797359D01*
X9092500Y-17597359D02*
X8892500Y-17797359D01*
X8992500Y-17597359D02*
X8992500Y-17797359D01*
X8892500Y-17697359D02*
X9092500Y-17697359D01*
X9438991Y-17655510D02*
X9438991Y-17788843D01*
X9391372Y-17579319D02*
X9343753Y-17722176D01*
X9343753Y-17722176D02*
X9467563Y-17722176D01*
X9543753Y-17769795D02*
X9553277Y-17779319D01*
X9553277Y-17779319D02*
X9543753Y-17788843D01*
X9543753Y-17788843D02*
X9534229Y-17779319D01*
X9534229Y-17779319D02*
X9543753Y-17769795D01*
X9543753Y-17769795D02*
X9543753Y-17788843D01*
X9619944Y-17588843D02*
X9743753Y-17588843D01*
X9743753Y-17588843D02*
X9677086Y-17665034D01*
X9677086Y-17665034D02*
X9705658Y-17665034D01*
X9705658Y-17665034D02*
X9724705Y-17674557D01*
X9724705Y-17674557D02*
X9734229Y-17684081D01*
X9734229Y-17684081D02*
X9743753Y-17703129D01*
X9743753Y-17703129D02*
X9743753Y-17750748D01*
X9743753Y-17750748D02*
X9734229Y-17769795D01*
X9734229Y-17769795D02*
X9724705Y-17779319D01*
X9724705Y-17779319D02*
X9705658Y-17788843D01*
X9705658Y-17788843D02*
X9648515Y-17788843D01*
X9648515Y-17788843D02*
X9629467Y-17779319D01*
X9629467Y-17779319D02*
X9619944Y-17769795D01*
X9867563Y-17588843D02*
X9886610Y-17588843D01*
X9886610Y-17588843D02*
X9905658Y-17598367D01*
X9905658Y-17598367D02*
X9915182Y-17607891D01*
X9915182Y-17607891D02*
X9924705Y-17626938D01*
X9924705Y-17626938D02*
X9934229Y-17665034D01*
X9934229Y-17665034D02*
X9934229Y-17712653D01*
X9934229Y-17712653D02*
X9924705Y-17750748D01*
X9924705Y-17750748D02*
X9915182Y-17769795D01*
X9915182Y-17769795D02*
X9905658Y-17779319D01*
X9905658Y-17779319D02*
X9886610Y-17788843D01*
X9886610Y-17788843D02*
X9867563Y-17788843D01*
X9867563Y-17788843D02*
X9848515Y-17779319D01*
X9848515Y-17779319D02*
X9838991Y-17769795D01*
X9838991Y-17769795D02*
X9829467Y-17750748D01*
X9829467Y-17750748D02*
X9819944Y-17712653D01*
X9819944Y-17712653D02*
X9819944Y-17665034D01*
X9819944Y-17665034D02*
X9829467Y-17626938D01*
X9829467Y-17626938D02*
X9838991Y-17607891D01*
X9838991Y-17607891D02*
X9848515Y-17598367D01*
X9848515Y-17598367D02*
X9867563Y-17588843D01*
X10058039Y-17588843D02*
X10077086Y-17588843D01*
X10077086Y-17588843D02*
X10096134Y-17598367D01*
X10096134Y-17598367D02*
X10105658Y-17607891D01*
X10105658Y-17607891D02*
X10115182Y-17626938D01*
X10115182Y-17626938D02*
X10124705Y-17665034D01*
X10124705Y-17665034D02*
X10124705Y-17712653D01*
X10124705Y-17712653D02*
X10115182Y-17750748D01*
X10115182Y-17750748D02*
X10105658Y-17769795D01*
X10105658Y-17769795D02*
X10096134Y-17779319D01*
X10096134Y-17779319D02*
X10077086Y-17788843D01*
X10077086Y-17788843D02*
X10058039Y-17788843D01*
X10058039Y-17788843D02*
X10038991Y-17779319D01*
X10038991Y-17779319D02*
X10029467Y-17769795D01*
X10029467Y-17769795D02*
X10019944Y-17750748D01*
X10019944Y-17750748D02*
X10010420Y-17712653D01*
X10010420Y-17712653D02*
X10010420Y-17665034D01*
X10010420Y-17665034D02*
X10019944Y-17626938D01*
X10019944Y-17626938D02*
X10029467Y-17607891D01*
X10029467Y-17607891D02*
X10038991Y-17598367D01*
X10038991Y-17598367D02*
X10058039Y-17588843D01*
X10210420Y-17788843D02*
X10210420Y-17655510D01*
X10210420Y-17674557D02*
X10219944Y-17665034D01*
X10219944Y-17665034D02*
X10238991Y-17655510D01*
X10238991Y-17655510D02*
X10267563Y-17655510D01*
X10267563Y-17655510D02*
X10286610Y-17665034D01*
X10286610Y-17665034D02*
X10296134Y-17684081D01*
X10296134Y-17684081D02*
X10296134Y-17788843D01*
X10296134Y-17684081D02*
X10305658Y-17665034D01*
X10305658Y-17665034D02*
X10324705Y-17655510D01*
X10324705Y-17655510D02*
X10353277Y-17655510D01*
X10353277Y-17655510D02*
X10372325Y-17665034D01*
X10372325Y-17665034D02*
X10381848Y-17684081D01*
X10381848Y-17684081D02*
X10381848Y-17788843D01*
X10477086Y-17788843D02*
X10477086Y-17655510D01*
X10477086Y-17674557D02*
X10486610Y-17665034D01*
X10486610Y-17665034D02*
X10505658Y-17655510D01*
X10505658Y-17655510D02*
X10534229Y-17655510D01*
X10534229Y-17655510D02*
X10553277Y-17665034D01*
X10553277Y-17665034D02*
X10562801Y-17684081D01*
X10562801Y-17684081D02*
X10562801Y-17788843D01*
X10562801Y-17684081D02*
X10572325Y-17665034D01*
X10572325Y-17665034D02*
X10591372Y-17655510D01*
X10591372Y-17655510D02*
X10619944Y-17655510D01*
X10619944Y-17655510D02*
X10638991Y-17665034D01*
X10638991Y-17665034D02*
X10648515Y-17684081D01*
X10648515Y-17684081D02*
X10648515Y-17788843D01*
X11038991Y-17579319D02*
X10867563Y-17836462D01*
X11296134Y-17588843D02*
X11315182Y-17588843D01*
X11315182Y-17588843D02*
X11334229Y-17598367D01*
X11334229Y-17598367D02*
X11343753Y-17607891D01*
X11343753Y-17607891D02*
X11353277Y-17626938D01*
X11353277Y-17626938D02*
X11362801Y-17665034D01*
X11362801Y-17665034D02*
X11362801Y-17712653D01*
X11362801Y-17712653D02*
X11353277Y-17750748D01*
X11353277Y-17750748D02*
X11343753Y-17769795D01*
X11343753Y-17769795D02*
X11334229Y-17779319D01*
X11334229Y-17779319D02*
X11315182Y-17788843D01*
X11315182Y-17788843D02*
X11296134Y-17788843D01*
X11296134Y-17788843D02*
X11277086Y-17779319D01*
X11277086Y-17779319D02*
X11267563Y-17769795D01*
X11267563Y-17769795D02*
X11258039Y-17750748D01*
X11258039Y-17750748D02*
X11248515Y-17712653D01*
X11248515Y-17712653D02*
X11248515Y-17665034D01*
X11248515Y-17665034D02*
X11258039Y-17626938D01*
X11258039Y-17626938D02*
X11267563Y-17607891D01*
X11267563Y-17607891D02*
X11277086Y-17598367D01*
X11277086Y-17598367D02*
X11296134Y-17588843D01*
X11448515Y-17769795D02*
X11458039Y-17779319D01*
X11458039Y-17779319D02*
X11448515Y-17788843D01*
X11448515Y-17788843D02*
X11438991Y-17779319D01*
X11438991Y-17779319D02*
X11448515Y-17769795D01*
X11448515Y-17769795D02*
X11448515Y-17788843D01*
X11648515Y-17788843D02*
X11534229Y-17788843D01*
X11591372Y-17788843D02*
X11591372Y-17588843D01*
X11591372Y-17588843D02*
X11572325Y-17617415D01*
X11572325Y-17617415D02*
X11553277Y-17636462D01*
X11553277Y-17636462D02*
X11534229Y-17645986D01*
X11819944Y-17588843D02*
X11781848Y-17588843D01*
X11781848Y-17588843D02*
X11762801Y-17598367D01*
X11762801Y-17598367D02*
X11753277Y-17607891D01*
X11753277Y-17607891D02*
X11734229Y-17636462D01*
X11734229Y-17636462D02*
X11724706Y-17674557D01*
X11724706Y-17674557D02*
X11724706Y-17750748D01*
X11724706Y-17750748D02*
X11734229Y-17769795D01*
X11734229Y-17769795D02*
X11743753Y-17779319D01*
X11743753Y-17779319D02*
X11762801Y-17788843D01*
X11762801Y-17788843D02*
X11800896Y-17788843D01*
X11800896Y-17788843D02*
X11819944Y-17779319D01*
X11819944Y-17779319D02*
X11829467Y-17769795D01*
X11829467Y-17769795D02*
X11838991Y-17750748D01*
X11838991Y-17750748D02*
X11838991Y-17703129D01*
X11838991Y-17703129D02*
X11829467Y-17684081D01*
X11829467Y-17684081D02*
X11819944Y-17674557D01*
X11819944Y-17674557D02*
X11800896Y-17665034D01*
X11800896Y-17665034D02*
X11762801Y-17665034D01*
X11762801Y-17665034D02*
X11743753Y-17674557D01*
X11743753Y-17674557D02*
X11734229Y-17684081D01*
X11734229Y-17684081D02*
X11724706Y-17703129D01*
X11934229Y-17788843D02*
X11972325Y-17788843D01*
X11972325Y-17788843D02*
X11991372Y-17779319D01*
X11991372Y-17779319D02*
X12000896Y-17769795D01*
X12000896Y-17769795D02*
X12019944Y-17741224D01*
X12019944Y-17741224D02*
X12029467Y-17703129D01*
X12029467Y-17703129D02*
X12029467Y-17626938D01*
X12029467Y-17626938D02*
X12019944Y-17607891D01*
X12019944Y-17607891D02*
X12010420Y-17598367D01*
X12010420Y-17598367D02*
X11991372Y-17588843D01*
X11991372Y-17588843D02*
X11953277Y-17588843D01*
X11953277Y-17588843D02*
X11934229Y-17598367D01*
X11934229Y-17598367D02*
X11924706Y-17607891D01*
X11924706Y-17607891D02*
X11915182Y-17626938D01*
X11915182Y-17626938D02*
X11915182Y-17674557D01*
X11915182Y-17674557D02*
X11924706Y-17693605D01*
X11924706Y-17693605D02*
X11934229Y-17703129D01*
X11934229Y-17703129D02*
X11953277Y-17712653D01*
X11953277Y-17712653D02*
X11991372Y-17712653D01*
X11991372Y-17712653D02*
X12010420Y-17703129D01*
X12010420Y-17703129D02*
X12019944Y-17693605D01*
X12019944Y-17693605D02*
X12029467Y-17674557D01*
X12096134Y-17588843D02*
X12219944Y-17588843D01*
X12219944Y-17588843D02*
X12153277Y-17665034D01*
X12153277Y-17665034D02*
X12181848Y-17665034D01*
X12181848Y-17665034D02*
X12200896Y-17674557D01*
X12200896Y-17674557D02*
X12210420Y-17684081D01*
X12210420Y-17684081D02*
X12219944Y-17703129D01*
X12219944Y-17703129D02*
X12219944Y-17750748D01*
X12219944Y-17750748D02*
X12210420Y-17769795D01*
X12210420Y-17769795D02*
X12200896Y-17779319D01*
X12200896Y-17779319D02*
X12181848Y-17788843D01*
X12181848Y-17788843D02*
X12124706Y-17788843D01*
X12124706Y-17788843D02*
X12105658Y-17779319D01*
X12105658Y-17779319D02*
X12096134Y-17769795D01*
X12296134Y-17588843D02*
X12296134Y-17626938D01*
X12372325Y-17588843D02*
X12372325Y-17626938D01*
X12667563Y-17865034D02*
X12658039Y-17855510D01*
X12658039Y-17855510D02*
X12638991Y-17826938D01*
X12638991Y-17826938D02*
X12629468Y-17807891D01*
X12629468Y-17807891D02*
X12619944Y-17779319D01*
X12619944Y-17779319D02*
X12610420Y-17731700D01*
X12610420Y-17731700D02*
X12610420Y-17693605D01*
X12610420Y-17693605D02*
X12619944Y-17645986D01*
X12619944Y-17645986D02*
X12629468Y-17617415D01*
X12629468Y-17617415D02*
X12638991Y-17598367D01*
X12638991Y-17598367D02*
X12658039Y-17569795D01*
X12658039Y-17569795D02*
X12667563Y-17560272D01*
X12838991Y-17588843D02*
X12743753Y-17588843D01*
X12743753Y-17588843D02*
X12734229Y-17684081D01*
X12734229Y-17684081D02*
X12743753Y-17674557D01*
X12743753Y-17674557D02*
X12762801Y-17665034D01*
X12762801Y-17665034D02*
X12810420Y-17665034D01*
X12810420Y-17665034D02*
X12829468Y-17674557D01*
X12829468Y-17674557D02*
X12838991Y-17684081D01*
X12838991Y-17684081D02*
X12848515Y-17703129D01*
X12848515Y-17703129D02*
X12848515Y-17750748D01*
X12848515Y-17750748D02*
X12838991Y-17769795D01*
X12838991Y-17769795D02*
X12829468Y-17779319D01*
X12829468Y-17779319D02*
X12810420Y-17788843D01*
X12810420Y-17788843D02*
X12762801Y-17788843D01*
X12762801Y-17788843D02*
X12743753Y-17779319D01*
X12743753Y-17779319D02*
X12734229Y-17769795D01*
X13086610Y-17788843D02*
X13086610Y-17588843D01*
X13172325Y-17788843D02*
X13172325Y-17684081D01*
X13172325Y-17684081D02*
X13162801Y-17665034D01*
X13162801Y-17665034D02*
X13143753Y-17655510D01*
X13143753Y-17655510D02*
X13115182Y-17655510D01*
X13115182Y-17655510D02*
X13096134Y-17665034D01*
X13096134Y-17665034D02*
X13086610Y-17674557D01*
X13296134Y-17788843D02*
X13277087Y-17779319D01*
X13277087Y-17779319D02*
X13267563Y-17769795D01*
X13267563Y-17769795D02*
X13258039Y-17750748D01*
X13258039Y-17750748D02*
X13258039Y-17693605D01*
X13258039Y-17693605D02*
X13267563Y-17674557D01*
X13267563Y-17674557D02*
X13277087Y-17665034D01*
X13277087Y-17665034D02*
X13296134Y-17655510D01*
X13296134Y-17655510D02*
X13324706Y-17655510D01*
X13324706Y-17655510D02*
X13343753Y-17665034D01*
X13343753Y-17665034D02*
X13353277Y-17674557D01*
X13353277Y-17674557D02*
X13362801Y-17693605D01*
X13362801Y-17693605D02*
X13362801Y-17750748D01*
X13362801Y-17750748D02*
X13353277Y-17769795D01*
X13353277Y-17769795D02*
X13343753Y-17779319D01*
X13343753Y-17779319D02*
X13324706Y-17788843D01*
X13324706Y-17788843D02*
X13296134Y-17788843D01*
X13477087Y-17788843D02*
X13458039Y-17779319D01*
X13458039Y-17779319D02*
X13448515Y-17760272D01*
X13448515Y-17760272D02*
X13448515Y-17588843D01*
X13629468Y-17779319D02*
X13610420Y-17788843D01*
X13610420Y-17788843D02*
X13572325Y-17788843D01*
X13572325Y-17788843D02*
X13553277Y-17779319D01*
X13553277Y-17779319D02*
X13543753Y-17760272D01*
X13543753Y-17760272D02*
X13543753Y-17684081D01*
X13543753Y-17684081D02*
X13553277Y-17665034D01*
X13553277Y-17665034D02*
X13572325Y-17655510D01*
X13572325Y-17655510D02*
X13610420Y-17655510D01*
X13610420Y-17655510D02*
X13629468Y-17665034D01*
X13629468Y-17665034D02*
X13638991Y-17684081D01*
X13638991Y-17684081D02*
X13638991Y-17703129D01*
X13638991Y-17703129D02*
X13543753Y-17722176D01*
X13715182Y-17779319D02*
X13734230Y-17788843D01*
X13734230Y-17788843D02*
X13772325Y-17788843D01*
X13772325Y-17788843D02*
X13791372Y-17779319D01*
X13791372Y-17779319D02*
X13800896Y-17760272D01*
X13800896Y-17760272D02*
X13800896Y-17750748D01*
X13800896Y-17750748D02*
X13791372Y-17731700D01*
X13791372Y-17731700D02*
X13772325Y-17722176D01*
X13772325Y-17722176D02*
X13743753Y-17722176D01*
X13743753Y-17722176D02*
X13724706Y-17712653D01*
X13724706Y-17712653D02*
X13715182Y-17693605D01*
X13715182Y-17693605D02*
X13715182Y-17684081D01*
X13715182Y-17684081D02*
X13724706Y-17665034D01*
X13724706Y-17665034D02*
X13743753Y-17655510D01*
X13743753Y-17655510D02*
X13772325Y-17655510D01*
X13772325Y-17655510D02*
X13791372Y-17665034D01*
X13867563Y-17865034D02*
X13877087Y-17855510D01*
X13877087Y-17855510D02*
X13896134Y-17826938D01*
X13896134Y-17826938D02*
X13905658Y-17807891D01*
X13905658Y-17807891D02*
X13915182Y-17779319D01*
X13915182Y-17779319D02*
X13924706Y-17731700D01*
X13924706Y-17731700D02*
X13924706Y-17693605D01*
X13924706Y-17693605D02*
X13915182Y-17645986D01*
X13915182Y-17645986D02*
X13905658Y-17617415D01*
X13905658Y-17617415D02*
X13896134Y-17598367D01*
X13896134Y-17598367D02*
X13877087Y-17569795D01*
X13877087Y-17569795D02*
X13867563Y-17560272D01*
X14229468Y-17865034D02*
X14219944Y-17855510D01*
X14219944Y-17855510D02*
X14200896Y-17826938D01*
X14200896Y-17826938D02*
X14191372Y-17807891D01*
X14191372Y-17807891D02*
X14181849Y-17779319D01*
X14181849Y-17779319D02*
X14172325Y-17731700D01*
X14172325Y-17731700D02*
X14172325Y-17693605D01*
X14172325Y-17693605D02*
X14181849Y-17645986D01*
X14181849Y-17645986D02*
X14191372Y-17617415D01*
X14191372Y-17617415D02*
X14200896Y-17598367D01*
X14200896Y-17598367D02*
X14219944Y-17569795D01*
X14219944Y-17569795D02*
X14229468Y-17560272D01*
X14305658Y-17655510D02*
X14305658Y-17788843D01*
X14305658Y-17674557D02*
X14315182Y-17665034D01*
X14315182Y-17665034D02*
X14334230Y-17655510D01*
X14334230Y-17655510D02*
X14362801Y-17655510D01*
X14362801Y-17655510D02*
X14381849Y-17665034D01*
X14381849Y-17665034D02*
X14391372Y-17684081D01*
X14391372Y-17684081D02*
X14391372Y-17788843D01*
X14515182Y-17788843D02*
X14496134Y-17779319D01*
X14496134Y-17779319D02*
X14486611Y-17769795D01*
X14486611Y-17769795D02*
X14477087Y-17750748D01*
X14477087Y-17750748D02*
X14477087Y-17693605D01*
X14477087Y-17693605D02*
X14486611Y-17674557D01*
X14486611Y-17674557D02*
X14496134Y-17665034D01*
X14496134Y-17665034D02*
X14515182Y-17655510D01*
X14515182Y-17655510D02*
X14543753Y-17655510D01*
X14543753Y-17655510D02*
X14562801Y-17665034D01*
X14562801Y-17665034D02*
X14572325Y-17674557D01*
X14572325Y-17674557D02*
X14581849Y-17693605D01*
X14581849Y-17693605D02*
X14581849Y-17750748D01*
X14581849Y-17750748D02*
X14572325Y-17769795D01*
X14572325Y-17769795D02*
X14562801Y-17779319D01*
X14562801Y-17779319D02*
X14543753Y-17788843D01*
X14543753Y-17788843D02*
X14515182Y-17788843D01*
X14638992Y-17655510D02*
X14715182Y-17655510D01*
X14667563Y-17588843D02*
X14667563Y-17760272D01*
X14667563Y-17760272D02*
X14677087Y-17779319D01*
X14677087Y-17779319D02*
X14696134Y-17788843D01*
X14696134Y-17788843D02*
X14715182Y-17788843D01*
X14934230Y-17655510D02*
X14934230Y-17855510D01*
X14934230Y-17665034D02*
X14953277Y-17655510D01*
X14953277Y-17655510D02*
X14991373Y-17655510D01*
X14991373Y-17655510D02*
X15010420Y-17665034D01*
X15010420Y-17665034D02*
X15019944Y-17674557D01*
X15019944Y-17674557D02*
X15029468Y-17693605D01*
X15029468Y-17693605D02*
X15029468Y-17750748D01*
X15029468Y-17750748D02*
X15019944Y-17769795D01*
X15019944Y-17769795D02*
X15010420Y-17779319D01*
X15010420Y-17779319D02*
X14991373Y-17788843D01*
X14991373Y-17788843D02*
X14953277Y-17788843D01*
X14953277Y-17788843D02*
X14934230Y-17779319D01*
X15143753Y-17788843D02*
X15124706Y-17779319D01*
X15124706Y-17779319D02*
X15115182Y-17760272D01*
X15115182Y-17760272D02*
X15115182Y-17588843D01*
X15305658Y-17788843D02*
X15305658Y-17684081D01*
X15305658Y-17684081D02*
X15296134Y-17665034D01*
X15296134Y-17665034D02*
X15277087Y-17655510D01*
X15277087Y-17655510D02*
X15238992Y-17655510D01*
X15238992Y-17655510D02*
X15219944Y-17665034D01*
X15305658Y-17779319D02*
X15286611Y-17788843D01*
X15286611Y-17788843D02*
X15238992Y-17788843D01*
X15238992Y-17788843D02*
X15219944Y-17779319D01*
X15219944Y-17779319D02*
X15210420Y-17760272D01*
X15210420Y-17760272D02*
X15210420Y-17741224D01*
X15210420Y-17741224D02*
X15219944Y-17722176D01*
X15219944Y-17722176D02*
X15238992Y-17712653D01*
X15238992Y-17712653D02*
X15286611Y-17712653D01*
X15286611Y-17712653D02*
X15305658Y-17703129D01*
X15372325Y-17655510D02*
X15448515Y-17655510D01*
X15400896Y-17588843D02*
X15400896Y-17760272D01*
X15400896Y-17760272D02*
X15410420Y-17779319D01*
X15410420Y-17779319D02*
X15429468Y-17788843D01*
X15429468Y-17788843D02*
X15448515Y-17788843D01*
X15591373Y-17779319D02*
X15572325Y-17788843D01*
X15572325Y-17788843D02*
X15534230Y-17788843D01*
X15534230Y-17788843D02*
X15515182Y-17779319D01*
X15515182Y-17779319D02*
X15505658Y-17760272D01*
X15505658Y-17760272D02*
X15505658Y-17684081D01*
X15505658Y-17684081D02*
X15515182Y-17665034D01*
X15515182Y-17665034D02*
X15534230Y-17655510D01*
X15534230Y-17655510D02*
X15572325Y-17655510D01*
X15572325Y-17655510D02*
X15591373Y-17665034D01*
X15591373Y-17665034D02*
X15600896Y-17684081D01*
X15600896Y-17684081D02*
X15600896Y-17703129D01*
X15600896Y-17703129D02*
X15505658Y-17722176D01*
X15772325Y-17788843D02*
X15772325Y-17588843D01*
X15772325Y-17779319D02*
X15753277Y-17788843D01*
X15753277Y-17788843D02*
X15715182Y-17788843D01*
X15715182Y-17788843D02*
X15696134Y-17779319D01*
X15696134Y-17779319D02*
X15686611Y-17769795D01*
X15686611Y-17769795D02*
X15677087Y-17750748D01*
X15677087Y-17750748D02*
X15677087Y-17693605D01*
X15677087Y-17693605D02*
X15686611Y-17674557D01*
X15686611Y-17674557D02*
X15696134Y-17665034D01*
X15696134Y-17665034D02*
X15715182Y-17655510D01*
X15715182Y-17655510D02*
X15753277Y-17655510D01*
X15753277Y-17655510D02*
X15772325Y-17665034D01*
X15848515Y-17865034D02*
X15858039Y-17855510D01*
X15858039Y-17855510D02*
X15877087Y-17826938D01*
X15877087Y-17826938D02*
X15886611Y-17807891D01*
X15886611Y-17807891D02*
X15896134Y-17779319D01*
X15896134Y-17779319D02*
X15905658Y-17731700D01*
X15905658Y-17731700D02*
X15905658Y-17693605D01*
X15905658Y-17693605D02*
X15896134Y-17645986D01*
X15896134Y-17645986D02*
X15886611Y-17617415D01*
X15886611Y-17617415D02*
X15877087Y-17598367D01*
X15877087Y-17598367D02*
X15858039Y-17569795D01*
X15858039Y-17569795D02*
X15848515Y-17560272D01*
M02*
