G04 #@! TF.GenerationSoftware,KiCad,Pcbnew,8.0.8+1*
G04 #@! TF.CreationDate,2025-05-19T02:25:48+00:00*
G04 #@! TF.ProjectId,mearchlar_wireless,6d656172-6368-46c6-9172-5f776972656c,0.2*
G04 #@! TF.SameCoordinates,Original*
G04 #@! TF.FileFunction,Copper,L2,Bot*
G04 #@! TF.FilePolarity,Positive*
%FSLAX46Y46*%
G04 Gerber Fmt 4.6, Leading zero omitted, Abs format (unit mm)*
G04 Created by KiCad (PCBNEW 8.0.8+1) date 2025-05-19 02:25:48*
%MOMM*%
%LPD*%
G01*
G04 APERTURE LIST*
G04 #@! TA.AperFunction,SMDPad,CuDef*
%ADD10R,2.550000X2.500000*%
G04 #@! TD*
G04 #@! TA.AperFunction,SMDPad,CuDef*
%ADD11R,1.200000X0.900000*%
G04 #@! TD*
G04 #@! TA.AperFunction,ComponentPad*
%ADD12C,1.700000*%
G04 #@! TD*
G04 #@! TA.AperFunction,ComponentPad*
%ADD13C,0.800000*%
G04 #@! TD*
G04 #@! TA.AperFunction,SMDPad,CuDef*
%ADD14R,1.200000X0.600000*%
G04 #@! TD*
G04 #@! TA.AperFunction,SMDPad,CuDef*
%ADD15R,0.600000X1.200000*%
G04 #@! TD*
G04 #@! TA.AperFunction,ComponentPad*
%ADD16O,1.700000X1.700000*%
G04 #@! TD*
G04 #@! TA.AperFunction,Conductor*
%ADD17C,0.250000*%
G04 #@! TD*
G04 APERTURE END LIST*
D10*
X107085000Y-85540000D03*
X94158000Y-88080000D03*
X107085000Y-68540000D03*
X94158000Y-71080000D03*
G04 #@! TA.AperFunction,SMDPad,CuDef*
G36*
X130008987Y-85722101D02*
G01*
X129574867Y-88184120D01*
X127063607Y-87741317D01*
X127497727Y-85279298D01*
X130008987Y-85722101D01*
G37*
G04 #@! TD.AperFunction*
G04 #@! TA.AperFunction,SMDPad,CuDef*
G36*
X116837310Y-85978763D02*
G01*
X116403190Y-88440782D01*
X113891930Y-87997979D01*
X114326050Y-85535960D01*
X116837310Y-85978763D01*
G37*
G04 #@! TD.AperFunction*
G04 #@! TA.AperFunction,SMDPad,CuDef*
G36*
X132961006Y-68980369D02*
G01*
X132526886Y-71442388D01*
X130015626Y-70999585D01*
X130449746Y-68537566D01*
X132961006Y-68980369D01*
G37*
G04 #@! TD.AperFunction*
G04 #@! TA.AperFunction,SMDPad,CuDef*
G36*
X119789329Y-69237031D02*
G01*
X119355209Y-71699050D01*
X116843949Y-71256247D01*
X117278069Y-68794228D01*
X119789329Y-69237031D01*
G37*
G04 #@! TD.AperFunction*
G04 #@! TA.AperFunction,SMDPad,CuDef*
G36*
X135913025Y-52238637D02*
G01*
X135478905Y-54700656D01*
X132967645Y-54257853D01*
X133401765Y-51795834D01*
X135913025Y-52238637D01*
G37*
G04 #@! TD.AperFunction*
G04 #@! TA.AperFunction,SMDPad,CuDef*
G36*
X122741348Y-52495299D02*
G01*
X122307228Y-54957318D01*
X119795968Y-54514515D01*
X120230088Y-52052496D01*
X122741348Y-52495299D01*
G37*
G04 #@! TD.AperFunction*
G04 #@! TA.AperFunction,SMDPad,CuDef*
G36*
X152145038Y-86044599D02*
G01*
X151497991Y-88459414D01*
X149034880Y-87799425D01*
X149681927Y-85384610D01*
X152145038Y-86044599D01*
G37*
G04 #@! TD.AperFunction*
G04 #@! TA.AperFunction,SMDPad,CuDef*
G36*
X139001115Y-85152296D02*
G01*
X138354068Y-87567111D01*
X135890957Y-86907122D01*
X136538004Y-84492307D01*
X139001115Y-85152296D01*
G37*
G04 #@! TD.AperFunction*
G04 #@! TA.AperFunction,SMDPad,CuDef*
G36*
X156544962Y-69623860D02*
G01*
X155897915Y-72038675D01*
X153434804Y-71378686D01*
X154081851Y-68963871D01*
X156544962Y-69623860D01*
G37*
G04 #@! TD.AperFunction*
G04 #@! TA.AperFunction,SMDPad,CuDef*
G36*
X143401039Y-68731557D02*
G01*
X142753992Y-71146372D01*
X140290881Y-70486383D01*
X140937928Y-68071568D01*
X143401039Y-68731557D01*
G37*
G04 #@! TD.AperFunction*
G04 #@! TA.AperFunction,SMDPad,CuDef*
G36*
X160944886Y-53203121D02*
G01*
X160297839Y-55617936D01*
X157834728Y-54957947D01*
X158481775Y-52543132D01*
X160944886Y-53203121D01*
G37*
G04 #@! TD.AperFunction*
G04 #@! TA.AperFunction,SMDPad,CuDef*
G36*
X147800963Y-52310818D02*
G01*
X147153916Y-54725633D01*
X144690805Y-54065644D01*
X145337852Y-51650829D01*
X147800963Y-52310818D01*
G37*
G04 #@! TD.AperFunction*
G04 #@! TA.AperFunction,SMDPad,CuDef*
G36*
X169385756Y-105346626D02*
G01*
X168329211Y-107612395D01*
X166018126Y-106534718D01*
X167074671Y-104268949D01*
X169385756Y-105346626D01*
G37*
G04 #@! TD.AperFunction*
G04 #@! TA.AperFunction,SMDPad,CuDef*
G36*
X156596465Y-102185462D02*
G01*
X155539920Y-104451231D01*
X153228835Y-103373554D01*
X154285380Y-101107785D01*
X156596465Y-102185462D01*
G37*
G04 #@! TD.AperFunction*
G04 #@! TA.AperFunction,SMDPad,CuDef*
G36*
X176570266Y-89939394D02*
G01*
X175513721Y-92205163D01*
X173202636Y-91127486D01*
X174259181Y-88861717D01*
X176570266Y-89939394D01*
G37*
G04 #@! TD.AperFunction*
G04 #@! TA.AperFunction,SMDPad,CuDef*
G36*
X163780975Y-86778230D02*
G01*
X162724430Y-89043999D01*
X160413345Y-87966322D01*
X161469890Y-85700553D01*
X163780975Y-86778230D01*
G37*
G04 #@! TD.AperFunction*
G04 #@! TA.AperFunction,SMDPad,CuDef*
G36*
X183754777Y-74532161D02*
G01*
X182698232Y-76797930D01*
X180387147Y-75720253D01*
X181443692Y-73454484D01*
X183754777Y-74532161D01*
G37*
G04 #@! TD.AperFunction*
G04 #@! TA.AperFunction,SMDPad,CuDef*
G36*
X170965486Y-71370997D02*
G01*
X169908941Y-73636766D01*
X167597856Y-72559089D01*
X168654401Y-70293320D01*
X170965486Y-71370997D01*
G37*
G04 #@! TD.AperFunction*
G04 #@! TA.AperFunction,SMDPad,CuDef*
G36*
X176577278Y-120802750D02*
G01*
X178492389Y-122409719D01*
X176853280Y-124363132D01*
X174938169Y-122756163D01*
X176577278Y-120802750D01*
G37*
G04 #@! TD.AperFunction*
G04 #@! TA.AperFunction,SMDPad,CuDef*
G36*
X170213716Y-132338087D02*
G01*
X172128827Y-133945056D01*
X170489718Y-135898469D01*
X168574607Y-134291500D01*
X170213716Y-132338087D01*
G37*
G04 #@! TD.AperFunction*
G04 #@! TA.AperFunction,SMDPad,CuDef*
G36*
X195609007Y-134809896D02*
G01*
X197042948Y-136857776D01*
X194954111Y-138320396D01*
X193520170Y-136272516D01*
X195609007Y-134809896D01*
G37*
G04 #@! TD.AperFunction*
G04 #@! TA.AperFunction,SMDPad,CuDef*
G36*
X186476713Y-144305165D02*
G01*
X187910654Y-146353045D01*
X185821817Y-147815665D01*
X184387876Y-145767785D01*
X186476713Y-144305165D01*
G37*
G04 #@! TD.AperFunction*
D11*
X92250000Y-83150000D03*
X92250000Y-79850000D03*
X92250000Y-66150000D03*
X92250000Y-62850000D03*
G04 #@! TA.AperFunction,SMDPad,CuDef*
G36*
X113828950Y-81254596D02*
G01*
X115010719Y-81462973D01*
X114854436Y-82349300D01*
X113672667Y-82140923D01*
X113828950Y-81254596D01*
G37*
G04 #@! TD.AperFunction*
G04 #@! TA.AperFunction,SMDPad,CuDef*
G36*
X114401988Y-78004730D02*
G01*
X115583757Y-78213107D01*
X115427474Y-79099434D01*
X114245705Y-78891057D01*
X114401988Y-78004730D01*
G37*
G04 #@! TD.AperFunction*
G04 #@! TA.AperFunction,SMDPad,CuDef*
G36*
X116780969Y-64512864D02*
G01*
X117962738Y-64721241D01*
X117806455Y-65607568D01*
X116624686Y-65399191D01*
X116780969Y-64512864D01*
G37*
G04 #@! TD.AperFunction*
G04 #@! TA.AperFunction,SMDPad,CuDef*
G36*
X117354007Y-61262998D02*
G01*
X118535776Y-61471375D01*
X118379493Y-62357702D01*
X117197724Y-62149325D01*
X117354007Y-61262998D01*
G37*
G04 #@! TD.AperFunction*
G04 #@! TA.AperFunction,SMDPad,CuDef*
G36*
X119732988Y-47771132D02*
G01*
X120914757Y-47979509D01*
X120758474Y-48865836D01*
X119576705Y-48657459D01*
X119732988Y-47771132D01*
G37*
G04 #@! TD.AperFunction*
G04 #@! TA.AperFunction,SMDPad,CuDef*
G36*
X120306026Y-44521266D02*
G01*
X121487795Y-44729643D01*
X121331512Y-45615970D01*
X120149743Y-45407593D01*
X120306026Y-44521266D01*
G37*
G04 #@! TD.AperFunction*
G04 #@! TA.AperFunction,SMDPad,CuDef*
G36*
X136415941Y-80183911D02*
G01*
X137575052Y-80494494D01*
X137342115Y-81363827D01*
X136183004Y-81053244D01*
X136415941Y-80183911D01*
G37*
G04 #@! TD.AperFunction*
G04 #@! TA.AperFunction,SMDPad,CuDef*
G36*
X137270043Y-76996355D02*
G01*
X138429154Y-77306938D01*
X138196217Y-78176271D01*
X137037106Y-77865688D01*
X137270043Y-76996355D01*
G37*
G04 #@! TD.AperFunction*
G04 #@! TA.AperFunction,SMDPad,CuDef*
G36*
X140815865Y-63763172D02*
G01*
X141974976Y-64073755D01*
X141742039Y-64943088D01*
X140582928Y-64632505D01*
X140815865Y-63763172D01*
G37*
G04 #@! TD.AperFunction*
G04 #@! TA.AperFunction,SMDPad,CuDef*
G36*
X141669967Y-60575616D02*
G01*
X142829078Y-60886199D01*
X142596141Y-61755532D01*
X141437030Y-61444949D01*
X141669967Y-60575616D01*
G37*
G04 #@! TD.AperFunction*
G04 #@! TA.AperFunction,SMDPad,CuDef*
G36*
X145215788Y-47342433D02*
G01*
X146374899Y-47653016D01*
X146141962Y-48522349D01*
X144982851Y-48211766D01*
X145215788Y-47342433D01*
G37*
G04 #@! TD.AperFunction*
G04 #@! TA.AperFunction,SMDPad,CuDef*
G36*
X146069890Y-44154877D02*
G01*
X147229001Y-44465460D01*
X146996064Y-45334793D01*
X145836953Y-45024210D01*
X146069890Y-44154877D01*
G37*
G04 #@! TD.AperFunction*
G04 #@! TA.AperFunction,SMDPad,CuDef*
G36*
X154913317Y-96843646D02*
G01*
X156000886Y-97350787D01*
X155620529Y-98166464D01*
X154532960Y-97659323D01*
X154913317Y-96843646D01*
G37*
G04 #@! TD.AperFunction*
G04 #@! TA.AperFunction,SMDPad,CuDef*
G36*
X156307957Y-93852830D02*
G01*
X157395526Y-94359971D01*
X157015169Y-95175648D01*
X155927600Y-94668507D01*
X156307957Y-93852830D01*
G37*
G04 #@! TD.AperFunction*
G04 #@! TA.AperFunction,SMDPad,CuDef*
G36*
X162097827Y-81436414D02*
G01*
X163185396Y-81943555D01*
X162805039Y-82759232D01*
X161717470Y-82252091D01*
X162097827Y-81436414D01*
G37*
G04 #@! TD.AperFunction*
G04 #@! TA.AperFunction,SMDPad,CuDef*
G36*
X163492467Y-78445598D02*
G01*
X164580036Y-78952739D01*
X164199679Y-79768416D01*
X163112110Y-79261275D01*
X163492467Y-78445598D01*
G37*
G04 #@! TD.AperFunction*
G04 #@! TA.AperFunction,SMDPad,CuDef*
G36*
X169282338Y-66029181D02*
G01*
X170369907Y-66536322D01*
X169989550Y-67351999D01*
X168901981Y-66844858D01*
X169282338Y-66029181D01*
G37*
G04 #@! TD.AperFunction*
G04 #@! TA.AperFunction,SMDPad,CuDef*
G36*
X170676978Y-63038365D02*
G01*
X171764547Y-63545506D01*
X171384190Y-64361183D01*
X170296621Y-63854042D01*
X170676978Y-63038365D01*
G37*
G04 #@! TD.AperFunction*
G04 #@! TA.AperFunction,SMDPad,CuDef*
G36*
X164618285Y-132581320D02*
G01*
X165389631Y-131662067D01*
X166079071Y-132240576D01*
X165307725Y-133159829D01*
X164618285Y-132581320D01*
G37*
G04 #@! TD.AperFunction*
G04 #@! TA.AperFunction,SMDPad,CuDef*
G36*
X162090339Y-130460120D02*
G01*
X162861685Y-129540867D01*
X163551125Y-130119376D01*
X162779779Y-131038629D01*
X162090339Y-130460120D01*
G37*
G04 #@! TD.AperFunction*
G04 #@! TA.AperFunction,SMDPad,CuDef*
G36*
X181008990Y-143091906D02*
G01*
X181991973Y-142403615D01*
X182508192Y-143140852D01*
X181525209Y-143829143D01*
X181008990Y-143091906D01*
G37*
G04 #@! TD.AperFunction*
G04 #@! TA.AperFunction,SMDPad,CuDef*
G36*
X179116188Y-140388704D02*
G01*
X180099171Y-139700413D01*
X180615390Y-140437650D01*
X179632407Y-141125941D01*
X179116188Y-140388704D01*
G37*
G04 #@! TD.AperFunction*
D12*
X96300000Y-108620000D03*
X96300000Y-93380000D03*
D13*
X96300000Y-104400000D03*
X96300000Y-97600000D03*
D14*
X96300000Y-106480000D03*
X96300000Y-105580000D03*
X96300000Y-96420000D03*
X96300000Y-95520000D03*
D12*
X98840000Y-108620000D03*
X98840000Y-93380000D03*
D13*
X98840000Y-104400000D03*
X98840000Y-97600000D03*
D14*
X98840000Y-106480000D03*
X98840000Y-105580000D03*
X98840000Y-96420000D03*
X98840000Y-95520000D03*
D12*
X101380000Y-108620000D03*
X101380000Y-93380000D03*
D13*
X101380000Y-104400000D03*
X101380000Y-97600000D03*
D14*
X101380000Y-106480000D03*
X101380000Y-105580000D03*
X101380000Y-96420000D03*
X101380000Y-95520000D03*
D12*
X103920000Y-108620000D03*
X103920000Y-93380000D03*
D13*
X103920000Y-104400000D03*
X103920000Y-97600000D03*
D14*
X103920000Y-106480000D03*
X103920000Y-105580000D03*
X103920000Y-96420000D03*
X103920000Y-95520000D03*
D12*
X106460000Y-108620000D03*
X106460000Y-93380000D03*
D13*
X106460000Y-104400000D03*
X106460000Y-97600000D03*
D14*
X106460000Y-106480000D03*
X106460000Y-105580000D03*
X106460000Y-96420000D03*
X106460000Y-95520000D03*
D12*
X109000000Y-108620000D03*
X109000000Y-93380000D03*
D13*
X109000000Y-104400000D03*
X109000000Y-97600000D03*
D14*
X109000000Y-106480000D03*
X109000000Y-105580000D03*
X109000000Y-96420000D03*
X109000000Y-95520000D03*
D12*
X111540000Y-108620000D03*
X111540000Y-93380000D03*
D13*
X111540000Y-104400000D03*
X111540000Y-97600000D03*
D14*
X111540000Y-106480000D03*
X111540000Y-105580000D03*
X111540000Y-96420000D03*
X111540000Y-95520000D03*
D12*
X114080000Y-108620000D03*
X114080000Y-93380000D03*
D13*
X114080000Y-104400000D03*
X114080000Y-97600000D03*
D14*
X114080000Y-106480000D03*
X114080000Y-105580000D03*
X114080000Y-96420000D03*
X114080000Y-95520000D03*
D12*
X116620000Y-108620000D03*
X116620000Y-93380000D03*
D13*
X116620000Y-104400000D03*
X116620000Y-97600000D03*
D14*
X116620000Y-106480000D03*
X116620000Y-105580000D03*
X116620000Y-96420000D03*
X116620000Y-95520000D03*
D12*
X119160000Y-108620000D03*
X119160000Y-93380000D03*
D13*
X119160000Y-104400000D03*
X119160000Y-97600000D03*
D14*
X119160000Y-106480000D03*
X119160000Y-105580000D03*
X119160000Y-96420000D03*
X119160000Y-95520000D03*
D12*
X121700000Y-108620000D03*
X121700000Y-93380000D03*
D13*
X121700000Y-104400000D03*
X121700000Y-97600000D03*
D14*
X121700000Y-106480000D03*
X121700000Y-105580000D03*
X121700000Y-96420000D03*
X121700000Y-95520000D03*
D12*
X124240000Y-108620000D03*
X124240000Y-93380000D03*
D13*
X124240000Y-104400000D03*
X124240000Y-97600000D03*
D14*
X124240000Y-106480000D03*
X124240000Y-105580000D03*
X124240000Y-96420000D03*
X124240000Y-95520000D03*
D15*
X127450000Y-95920000D03*
X127450000Y-98460000D03*
X127450000Y-103540000D03*
X127450000Y-106080000D03*
X128350000Y-95920000D03*
X128350000Y-98460000D03*
X128350000Y-103540000D03*
X128350000Y-106080000D03*
D16*
X125700000Y-106080000D03*
X125700000Y-103540000D03*
X125700000Y-101000000D03*
X125700000Y-98460000D03*
D12*
X125700000Y-95920000D03*
G04 #@! TA.AperFunction,SMDPad,CuDef*
G36*
X137639722Y-122981417D02*
G01*
X137366106Y-123733171D01*
X136426414Y-123391151D01*
X136700030Y-122639397D01*
X137639722Y-122981417D01*
G37*
G04 #@! TD.AperFunction*
G04 #@! TA.AperFunction,SMDPad,CuDef*
G36*
X136883857Y-125058138D02*
G01*
X136610241Y-125809892D01*
X135670549Y-125467872D01*
X135944165Y-124716118D01*
X136883857Y-125058138D01*
G37*
G04 #@! TD.AperFunction*
G04 #@! TA.AperFunction,SMDPad,CuDef*
G36*
X130779966Y-120484670D02*
G01*
X130506350Y-121236424D01*
X129566658Y-120894404D01*
X129840274Y-120142650D01*
X130779966Y-120484670D01*
G37*
G04 #@! TD.AperFunction*
G04 #@! TA.AperFunction,SMDPad,CuDef*
G36*
X130024101Y-122561391D02*
G01*
X129750485Y-123313145D01*
X128810793Y-122971125D01*
X129084409Y-122219371D01*
X130024101Y-122561391D01*
G37*
G04 #@! TD.AperFunction*
G04 #@! TA.AperFunction,SMDPad,CuDef*
G36*
X136525219Y-121511594D02*
G01*
X136012188Y-122921133D01*
X135354403Y-122681718D01*
X135867434Y-121272179D01*
X136525219Y-121511594D01*
G37*
G04 #@! TD.AperFunction*
G04 #@! TA.AperFunction,SMDPad,CuDef*
G36*
X133706141Y-120485533D02*
G01*
X133193110Y-121895072D01*
X132535325Y-121655657D01*
X133048356Y-120246118D01*
X133706141Y-120485533D01*
G37*
G04 #@! TD.AperFunction*
G04 #@! TA.AperFunction,SMDPad,CuDef*
G36*
X132296603Y-119972503D02*
G01*
X131783572Y-121382042D01*
X131125787Y-121142627D01*
X131638818Y-119733088D01*
X132296603Y-119972503D01*
G37*
G04 #@! TD.AperFunction*
G04 #@! TA.AperFunction,SMDPad,CuDef*
G36*
X99806979Y-115140611D02*
G01*
X100065798Y-114174685D01*
X101562983Y-114575855D01*
X101304164Y-115541781D01*
X99806979Y-115140611D01*
G37*
G04 #@! TD.AperFunction*
G04 #@! TA.AperFunction,SMDPad,CuDef*
G36*
X100246971Y-113498537D02*
G01*
X100505790Y-112532611D01*
X102002975Y-112933781D01*
X101744156Y-113899707D01*
X100246971Y-113498537D01*
G37*
G04 #@! TD.AperFunction*
G04 #@! TA.AperFunction,SMDPad,CuDef*
G36*
X94735869Y-113781811D02*
G01*
X94994688Y-112815885D01*
X96491873Y-113217055D01*
X96233054Y-114182981D01*
X94735869Y-113781811D01*
G37*
G04 #@! TD.AperFunction*
G04 #@! TA.AperFunction,SMDPad,CuDef*
G36*
X95175861Y-112139737D02*
G01*
X95434680Y-111173811D01*
X96931865Y-111574981D01*
X96673046Y-112540907D01*
X95175861Y-112139737D01*
G37*
G04 #@! TD.AperFunction*
G04 #@! TA.AperFunction,ComponentPad*
G36*
G01*
X127904236Y-102928011D02*
X127362592Y-102832505D01*
G75*
G02*
X126875896Y-102137431I104189J590885D01*
G01*
X126875896Y-102137431D01*
G75*
G02*
X127570970Y-101650735I590885J-104189D01*
G01*
X128112614Y-101746241D01*
G75*
G02*
X128599310Y-102441315I-104189J-590885D01*
G01*
X128599310Y-102441315D01*
G75*
G02*
X127904236Y-102928011I-590885J104189D01*
G01*
G37*
G04 #@! TD.AperFunction*
G04 #@! TA.AperFunction,ComponentPad*
G36*
G01*
X128251532Y-100958395D02*
X127709888Y-100862889D01*
G75*
G02*
X127223192Y-100167815I104189J590885D01*
G01*
X127223192Y-100167815D01*
G75*
G02*
X127918266Y-99681119I590885J-104189D01*
G01*
X128459910Y-99776625D01*
G75*
G02*
X128946606Y-100471699I-104189J-590885D01*
G01*
X128946606Y-100471699D01*
G75*
G02*
X128251532Y-100958395I-590885J104189D01*
G01*
G37*
G04 #@! TD.AperFunction*
G04 #@! TA.AperFunction,SMDPad,CuDef*
G36*
X129209107Y-103158094D02*
G01*
X129012145Y-103123364D01*
X129220523Y-101941595D01*
X129417484Y-101976325D01*
X129904180Y-102671398D01*
X129209107Y-103158094D01*
G37*
G04 #@! TD.AperFunction*
G04 #@! TA.AperFunction,SMDPad,CuDef*
G36*
X129556403Y-101188479D02*
G01*
X129359441Y-101153749D01*
X129567819Y-99971980D01*
X129764780Y-100006710D01*
X130251476Y-100701783D01*
X129556403Y-101188479D01*
G37*
G04 #@! TD.AperFunction*
G04 #@! TA.AperFunction,SMDPad,CuDef*
G36*
X129769121Y-101225987D02*
G01*
X130464195Y-100739292D01*
X129977499Y-100044218D01*
X131208509Y-100261278D01*
X131000131Y-101443048D01*
X129769121Y-101225987D01*
G37*
G04 #@! TD.AperFunction*
G04 #@! TA.AperFunction,SMDPad,CuDef*
G36*
X129421824Y-103195602D02*
G01*
X130116898Y-102708907D01*
X129630202Y-102013833D01*
X130861212Y-102230893D01*
X130652834Y-103412663D01*
X129421824Y-103195602D01*
G37*
G04 #@! TD.AperFunction*
D17*
X96300000Y-108620000D02*
X96300000Y-106500000D01*
X96300000Y-93380000D02*
X96300000Y-95500000D01*
X96530000Y-103604695D02*
X96530000Y-97830000D01*
X96300000Y-105775000D02*
X96300000Y-105425305D01*
X97025000Y-104700305D02*
X97025000Y-104099695D01*
X96300000Y-105425305D02*
X97025000Y-104700305D01*
X97025000Y-104099695D02*
X96530000Y-103604695D01*
X96300000Y-96225000D02*
X96300000Y-96574695D01*
X96080000Y-98405305D02*
X96080000Y-104180000D01*
X96300000Y-96574695D02*
X95575000Y-97299695D01*
X95575000Y-97299695D02*
X95575000Y-97900305D01*
X95575000Y-97900305D02*
X96080000Y-98405305D01*
X98840000Y-108620000D02*
X98840000Y-106500000D01*
X98840000Y-93380000D02*
X98840000Y-95500000D01*
X99070000Y-103604695D02*
X99070000Y-97830000D01*
X98840000Y-105775000D02*
X98840000Y-105425305D01*
X99565000Y-104700305D02*
X99565000Y-104099695D01*
X98840000Y-105425305D02*
X99565000Y-104700305D01*
X99565000Y-104099695D02*
X99070000Y-103604695D01*
X98840000Y-96225000D02*
X98840000Y-96574695D01*
X98620000Y-98405305D02*
X98620000Y-104180000D01*
X98840000Y-96574695D02*
X98115000Y-97299695D01*
X98115000Y-97299695D02*
X98115000Y-97900305D01*
X98115000Y-97900305D02*
X98620000Y-98405305D01*
X101380000Y-108620000D02*
X101380000Y-106500000D01*
X101380000Y-93380000D02*
X101380000Y-95500000D01*
X101610000Y-103604695D02*
X101610000Y-97830000D01*
X101380000Y-105775000D02*
X101380000Y-105425305D01*
X102105000Y-104700305D02*
X102105000Y-104099695D01*
X101380000Y-105425305D02*
X102105000Y-104700305D01*
X102105000Y-104099695D02*
X101610000Y-103604695D01*
X101380000Y-96225000D02*
X101380000Y-96574695D01*
X101160000Y-98405305D02*
X101160000Y-104180000D01*
X101380000Y-96574695D02*
X100655000Y-97299695D01*
X100655000Y-97299695D02*
X100655000Y-97900305D01*
X100655000Y-97900305D02*
X101160000Y-98405305D01*
X103920000Y-108620000D02*
X103920000Y-106500000D01*
X103920000Y-93380000D02*
X103920000Y-95500000D01*
X104150000Y-103604695D02*
X104150000Y-97830000D01*
X103920000Y-105775000D02*
X103920000Y-105425305D01*
X104645000Y-104700305D02*
X104645000Y-104099695D01*
X103920000Y-105425305D02*
X104645000Y-104700305D01*
X104645000Y-104099695D02*
X104150000Y-103604695D01*
X103920000Y-96225000D02*
X103920000Y-96574695D01*
X103700000Y-98405305D02*
X103700000Y-104180000D01*
X103920000Y-96574695D02*
X103195000Y-97299695D01*
X103195000Y-97299695D02*
X103195000Y-97900305D01*
X103195000Y-97900305D02*
X103700000Y-98405305D01*
X106460000Y-108620000D02*
X106460000Y-106500000D01*
X106460000Y-93380000D02*
X106460000Y-95500000D01*
X106690000Y-103604695D02*
X106690000Y-97830000D01*
X106460000Y-105775000D02*
X106460000Y-105425305D01*
X107185000Y-104700305D02*
X107185000Y-104099695D01*
X106460000Y-105425305D02*
X107185000Y-104700305D01*
X107185000Y-104099695D02*
X106690000Y-103604695D01*
X106460000Y-96225000D02*
X106460000Y-96574695D01*
X106240000Y-98405305D02*
X106240000Y-104180000D01*
X106460000Y-96574695D02*
X105735000Y-97299695D01*
X105735000Y-97299695D02*
X105735000Y-97900305D01*
X105735000Y-97900305D02*
X106240000Y-98405305D01*
X109000000Y-108620000D02*
X109000000Y-106500000D01*
X109000000Y-93380000D02*
X109000000Y-95500000D01*
X109230000Y-103604695D02*
X109230000Y-97830000D01*
X109000000Y-105775000D02*
X109000000Y-105425305D01*
X109725000Y-104700305D02*
X109725000Y-104099695D01*
X109000000Y-105425305D02*
X109725000Y-104700305D01*
X109725000Y-104099695D02*
X109230000Y-103604695D01*
X109000000Y-96225000D02*
X109000000Y-96574695D01*
X108780000Y-98405305D02*
X108780000Y-104180000D01*
X109000000Y-96574695D02*
X108275000Y-97299695D01*
X108275000Y-97299695D02*
X108275000Y-97900305D01*
X108275000Y-97900305D02*
X108780000Y-98405305D01*
X111540000Y-108620000D02*
X111540000Y-106500000D01*
X111540000Y-93380000D02*
X111540000Y-95500000D01*
X111770000Y-103604695D02*
X111770000Y-97830000D01*
X111540000Y-105775000D02*
X111540000Y-105425305D01*
X112265000Y-104700305D02*
X112265000Y-104099695D01*
X111540000Y-105425305D02*
X112265000Y-104700305D01*
X112265000Y-104099695D02*
X111770000Y-103604695D01*
X111540000Y-96225000D02*
X111540000Y-96574695D01*
X111320000Y-98405305D02*
X111320000Y-104180000D01*
X111540000Y-96574695D02*
X110815000Y-97299695D01*
X110815000Y-97299695D02*
X110815000Y-97900305D01*
X110815000Y-97900305D02*
X111320000Y-98405305D01*
X114080000Y-108620000D02*
X114080000Y-106500000D01*
X114080000Y-93380000D02*
X114080000Y-95500000D01*
X114310000Y-103604695D02*
X114310000Y-97830000D01*
X114080000Y-105775000D02*
X114080000Y-105425305D01*
X114805000Y-104700305D02*
X114805000Y-104099695D01*
X114080000Y-105425305D02*
X114805000Y-104700305D01*
X114805000Y-104099695D02*
X114310000Y-103604695D01*
X114080000Y-96225000D02*
X114080000Y-96574695D01*
X113860000Y-98405305D02*
X113860000Y-104180000D01*
X114080000Y-96574695D02*
X113355000Y-97299695D01*
X113355000Y-97299695D02*
X113355000Y-97900305D01*
X113355000Y-97900305D02*
X113860000Y-98405305D01*
X116620000Y-108620000D02*
X116620000Y-106500000D01*
X116620000Y-93380000D02*
X116620000Y-95500000D01*
X116850000Y-103604695D02*
X116850000Y-97830000D01*
X116620000Y-105775000D02*
X116620000Y-105425305D01*
X117345000Y-104700305D02*
X117345000Y-104099695D01*
X116620000Y-105425305D02*
X117345000Y-104700305D01*
X117345000Y-104099695D02*
X116850000Y-103604695D01*
X116620000Y-96225000D02*
X116620000Y-96574695D01*
X116400000Y-98405305D02*
X116400000Y-104180000D01*
X116620000Y-96574695D02*
X115895000Y-97299695D01*
X115895000Y-97299695D02*
X115895000Y-97900305D01*
X115895000Y-97900305D02*
X116400000Y-98405305D01*
X119160000Y-108620000D02*
X119160000Y-106500000D01*
X119160000Y-93380000D02*
X119160000Y-95500000D01*
X119390000Y-103604695D02*
X119390000Y-97830000D01*
X119160000Y-105775000D02*
X119160000Y-105425305D01*
X119885000Y-104700305D02*
X119885000Y-104099695D01*
X119160000Y-105425305D02*
X119885000Y-104700305D01*
X119885000Y-104099695D02*
X119390000Y-103604695D01*
X119160000Y-96225000D02*
X119160000Y-96574695D01*
X118940000Y-98405305D02*
X118940000Y-104180000D01*
X119160000Y-96574695D02*
X118435000Y-97299695D01*
X118435000Y-97299695D02*
X118435000Y-97900305D01*
X118435000Y-97900305D02*
X118940000Y-98405305D01*
X121700000Y-108620000D02*
X121700000Y-106500000D01*
X121700000Y-93380000D02*
X121700000Y-95500000D01*
X121930000Y-103604695D02*
X121930000Y-97830000D01*
X121700000Y-105775000D02*
X121700000Y-105425305D01*
X122425000Y-104700305D02*
X122425000Y-104099695D01*
X121700000Y-105425305D02*
X122425000Y-104700305D01*
X122425000Y-104099695D02*
X121930000Y-103604695D01*
X121700000Y-96225000D02*
X121700000Y-96574695D01*
X121480000Y-98405305D02*
X121480000Y-104180000D01*
X121700000Y-96574695D02*
X120975000Y-97299695D01*
X120975000Y-97299695D02*
X120975000Y-97900305D01*
X120975000Y-97900305D02*
X121480000Y-98405305D01*
X124240000Y-108620000D02*
X124240000Y-106500000D01*
X124240000Y-93380000D02*
X124240000Y-95500000D01*
X124470000Y-103604695D02*
X124470000Y-97830000D01*
X124240000Y-105775000D02*
X124240000Y-105425305D01*
X124965000Y-104700305D02*
X124965000Y-104099695D01*
X124240000Y-105425305D02*
X124965000Y-104700305D01*
X124965000Y-104099695D02*
X124470000Y-103604695D01*
X124240000Y-96225000D02*
X124240000Y-96574695D01*
X124020000Y-98405305D02*
X124020000Y-104180000D01*
X124240000Y-96574695D02*
X123515000Y-97299695D01*
X123515000Y-97299695D02*
X123515000Y-97900305D01*
X123515000Y-97900305D02*
X124020000Y-98405305D01*
X125700000Y-106080000D02*
X127450000Y-106080000D01*
X125700000Y-103540000D02*
X127450000Y-103540000D01*
X125700000Y-98460000D02*
X127450000Y-98460000D01*
X125700000Y-95920000D02*
X127450000Y-95920000D01*
X129510257Y-102601940D02*
X127737603Y-102289373D01*
X129857553Y-100632324D02*
X128084899Y-100319758D01*
M02*
