G04 #@! TF.GenerationSoftware,KiCad,Pcbnew,8.0.8+1*
G04 #@! TF.CreationDate,2025-05-19T02:25:48+00:00*
G04 #@! TF.ProjectId,mearchlar_wireless,6d656172-6368-46c6-9172-5f776972656c,0.2*
G04 #@! TF.SameCoordinates,Original*
G04 #@! TF.FileFunction,Legend,Bot*
G04 #@! TF.FilePolarity,Positive*
%FSLAX46Y46*%
G04 Gerber Fmt 4.6, Leading zero omitted, Abs format (unit mm)*
G04 Created by KiCad (PCBNEW 8.0.8+1) date 2025-05-19 02:25:48*
%MOMM*%
%LPD*%
G01*
G04 APERTURE LIST*
%ADD10C,0.150000*%
%ADD11C,0.100000*%
%ADD12C,0.120000*%
%ADD13C,2.300000*%
%ADD14C,4.400000*%
%ADD15C,4.200000*%
%ADD16C,2.000000*%
%ADD17C,3.100000*%
%ADD18C,1.800000*%
%ADD19C,0.900000*%
%ADD20O,1.800000X1.800000*%
%ADD21C,1.000000*%
%ADD22C,0.850000*%
G04 APERTURE END LIST*
D10*
X128119554Y-74894324D02*
X127995520Y-75597759D01*
X127995520Y-75597759D02*
X128017608Y-75746714D01*
X128017608Y-75746714D02*
X128094862Y-75857043D01*
X128094862Y-75857043D02*
X128227279Y-75928746D01*
X128227279Y-75928746D02*
X128321071Y-75945284D01*
X127007993Y-75713753D02*
X127476949Y-75796443D01*
X127476949Y-75796443D02*
X127650598Y-74811635D01*
X126133515Y-75462851D02*
X126172141Y-75518016D01*
X126172141Y-75518016D02*
X126304559Y-75589718D01*
X126304559Y-75589718D02*
X126398350Y-75606256D01*
X126398350Y-75606256D02*
X126547306Y-75584168D01*
X126547306Y-75584168D02*
X126657635Y-75506914D01*
X126657635Y-75506914D02*
X126721069Y-75421392D01*
X126721069Y-75421392D02*
X126801040Y-75242079D01*
X126801040Y-75242079D02*
X126825847Y-75101392D01*
X126825847Y-75101392D02*
X126812027Y-74905540D01*
X126812027Y-74905540D02*
X126781670Y-74803480D01*
X126781670Y-74803480D02*
X126704416Y-74693151D01*
X126704416Y-74693151D02*
X126571998Y-74621449D01*
X126571998Y-74621449D02*
X126478207Y-74604911D01*
X126478207Y-74604911D02*
X126329251Y-74626999D01*
X126329251Y-74626999D02*
X126274087Y-74665626D01*
X125587191Y-74447800D02*
X125463156Y-75151235D01*
X125463156Y-75151235D02*
X125485245Y-75300190D01*
X125485245Y-75300190D02*
X125562498Y-75410519D01*
X125562498Y-75410519D02*
X125694916Y-75482222D01*
X125694916Y-75482222D02*
X125788707Y-75498760D01*
X124475630Y-75267229D02*
X124944586Y-75349919D01*
X124944586Y-75349919D02*
X125118234Y-74365111D01*
X123601151Y-75016327D02*
X123639778Y-75071492D01*
X123639778Y-75071492D02*
X123772196Y-75143195D01*
X123772196Y-75143195D02*
X123865987Y-75159732D01*
X123865987Y-75159732D02*
X124014943Y-75137644D01*
X124014943Y-75137644D02*
X124125272Y-75060390D01*
X124125272Y-75060390D02*
X124188706Y-74974868D01*
X124188706Y-74974868D02*
X124268677Y-74795555D01*
X124268677Y-74795555D02*
X124293484Y-74654868D01*
X124293484Y-74654868D02*
X124279664Y-74459016D01*
X124279664Y-74459016D02*
X124249306Y-74356956D01*
X124249306Y-74356956D02*
X124172053Y-74246627D01*
X124172053Y-74246627D02*
X124039635Y-74174925D01*
X124039635Y-74174925D02*
X123945844Y-74158387D01*
X123945844Y-74158387D02*
X123796888Y-74180475D01*
X123796888Y-74180475D02*
X123741724Y-74219102D01*
X123054827Y-74001277D02*
X122930793Y-74704711D01*
X122930793Y-74704711D02*
X122952882Y-74853666D01*
X122952882Y-74853666D02*
X123030135Y-74963996D01*
X123030135Y-74963996D02*
X123162553Y-75035698D01*
X123162553Y-75035698D02*
X123256344Y-75052236D01*
X121943267Y-74820705D02*
X122412223Y-74903395D01*
X122412223Y-74903395D02*
X122585871Y-73918587D01*
X121068788Y-74569803D02*
X121107415Y-74624968D01*
X121107415Y-74624968D02*
X121239833Y-74696671D01*
X121239833Y-74696671D02*
X121333624Y-74713208D01*
X121333624Y-74713208D02*
X121482580Y-74691120D01*
X121482580Y-74691120D02*
X121592909Y-74613866D01*
X121592909Y-74613866D02*
X121656342Y-74528344D01*
X121656342Y-74528344D02*
X121736314Y-74349031D01*
X121736314Y-74349031D02*
X121761121Y-74208344D01*
X121761121Y-74208344D02*
X121747301Y-74012493D01*
X121747301Y-74012493D02*
X121716943Y-73910432D01*
X121716943Y-73910432D02*
X121639690Y-73800103D01*
X121639690Y-73800103D02*
X121507272Y-73728401D01*
X121507272Y-73728401D02*
X121413481Y-73711863D01*
X121413481Y-73711863D02*
X121264525Y-73733952D01*
X121264525Y-73733952D02*
X121209360Y-73772578D01*
X120522464Y-73554753D02*
X120398430Y-74258187D01*
X120398430Y-74258187D02*
X120420519Y-74407142D01*
X120420519Y-74407142D02*
X120497772Y-74517472D01*
X120497772Y-74517472D02*
X120630190Y-74589174D01*
X120630190Y-74589174D02*
X120723981Y-74605712D01*
X119410904Y-74374181D02*
X119879860Y-74456871D01*
X119879860Y-74456871D02*
X120053508Y-73472063D01*
X118536425Y-74123280D02*
X118575052Y-74178444D01*
X118575052Y-74178444D02*
X118707469Y-74250147D01*
X118707469Y-74250147D02*
X118801261Y-74266685D01*
X118801261Y-74266685D02*
X118950216Y-74244596D01*
X118950216Y-74244596D02*
X119060546Y-74167342D01*
X119060546Y-74167342D02*
X119123979Y-74081820D01*
X119123979Y-74081820D02*
X119203951Y-73902507D01*
X119203951Y-73902507D02*
X119228757Y-73761820D01*
X119228757Y-73761820D02*
X119214938Y-73565969D01*
X119214938Y-73565969D02*
X119184580Y-73463908D01*
X119184580Y-73463908D02*
X119107327Y-73353579D01*
X119107327Y-73353579D02*
X118974909Y-73281877D01*
X118974909Y-73281877D02*
X118881118Y-73265339D01*
X118881118Y-73265339D02*
X118732162Y-73287428D01*
X118732162Y-73287428D02*
X118676997Y-73326054D01*
X96754819Y-101807142D02*
X96754819Y-101330952D01*
X96754819Y-101330952D02*
X95754819Y-101330952D01*
X96231009Y-102140476D02*
X96231009Y-102473809D01*
X96754819Y-102616666D02*
X96754819Y-102140476D01*
X96754819Y-102140476D02*
X95754819Y-102140476D01*
X95754819Y-102140476D02*
X95754819Y-102616666D01*
X96754819Y-103045238D02*
X95754819Y-103045238D01*
X95754819Y-103045238D02*
X95754819Y-103283333D01*
X95754819Y-103283333D02*
X95802438Y-103426190D01*
X95802438Y-103426190D02*
X95897676Y-103521428D01*
X95897676Y-103521428D02*
X95992914Y-103569047D01*
X95992914Y-103569047D02*
X96183390Y-103616666D01*
X96183390Y-103616666D02*
X96326247Y-103616666D01*
X96326247Y-103616666D02*
X96516723Y-103569047D01*
X96516723Y-103569047D02*
X96611961Y-103521428D01*
X96611961Y-103521428D02*
X96707200Y-103426190D01*
X96707200Y-103426190D02*
X96754819Y-103283333D01*
X96754819Y-103283333D02*
X96754819Y-103045238D01*
X96754819Y-98859523D02*
X96278628Y-98526190D01*
X96754819Y-98288095D02*
X95754819Y-98288095D01*
X95754819Y-98288095D02*
X95754819Y-98669047D01*
X95754819Y-98669047D02*
X95802438Y-98764285D01*
X95802438Y-98764285D02*
X95850057Y-98811904D01*
X95850057Y-98811904D02*
X95945295Y-98859523D01*
X95945295Y-98859523D02*
X96088152Y-98859523D01*
X96088152Y-98859523D02*
X96183390Y-98811904D01*
X96183390Y-98811904D02*
X96231009Y-98764285D01*
X96231009Y-98764285D02*
X96278628Y-98669047D01*
X96278628Y-98669047D02*
X96278628Y-98288095D01*
X96469104Y-99240476D02*
X96469104Y-99716666D01*
X96754819Y-99145238D02*
X95754819Y-99478571D01*
X95754819Y-99478571D02*
X96754819Y-99811904D01*
X95754819Y-100050000D02*
X96754819Y-100288095D01*
X96754819Y-100288095D02*
X96040533Y-100478571D01*
X96040533Y-100478571D02*
X96754819Y-100669047D01*
X96754819Y-100669047D02*
X95754819Y-100907143D01*
X99294819Y-101378571D02*
X98294819Y-101378571D01*
X98294819Y-101378571D02*
X98294819Y-101616666D01*
X98294819Y-101616666D02*
X98342438Y-101759523D01*
X98342438Y-101759523D02*
X98437676Y-101854761D01*
X98437676Y-101854761D02*
X98532914Y-101902380D01*
X98532914Y-101902380D02*
X98723390Y-101949999D01*
X98723390Y-101949999D02*
X98866247Y-101949999D01*
X98866247Y-101949999D02*
X99056723Y-101902380D01*
X99056723Y-101902380D02*
X99151961Y-101854761D01*
X99151961Y-101854761D02*
X99247200Y-101759523D01*
X99247200Y-101759523D02*
X99294819Y-101616666D01*
X99294819Y-101616666D02*
X99294819Y-101378571D01*
X99009104Y-102330952D02*
X99009104Y-102807142D01*
X99294819Y-102235714D02*
X98294819Y-102569047D01*
X98294819Y-102569047D02*
X99294819Y-102902380D01*
X98294819Y-103092857D02*
X98294819Y-103664285D01*
X99294819Y-103378571D02*
X98294819Y-103378571D01*
X98342438Y-98788095D02*
X98294819Y-98692857D01*
X98294819Y-98692857D02*
X98294819Y-98550000D01*
X98294819Y-98550000D02*
X98342438Y-98407143D01*
X98342438Y-98407143D02*
X98437676Y-98311905D01*
X98437676Y-98311905D02*
X98532914Y-98264286D01*
X98532914Y-98264286D02*
X98723390Y-98216667D01*
X98723390Y-98216667D02*
X98866247Y-98216667D01*
X98866247Y-98216667D02*
X99056723Y-98264286D01*
X99056723Y-98264286D02*
X99151961Y-98311905D01*
X99151961Y-98311905D02*
X99247200Y-98407143D01*
X99247200Y-98407143D02*
X99294819Y-98550000D01*
X99294819Y-98550000D02*
X99294819Y-98645238D01*
X99294819Y-98645238D02*
X99247200Y-98788095D01*
X99247200Y-98788095D02*
X99199580Y-98835714D01*
X99199580Y-98835714D02*
X98866247Y-98835714D01*
X98866247Y-98835714D02*
X98866247Y-98645238D01*
X99294819Y-99264286D02*
X98294819Y-99264286D01*
X98294819Y-99264286D02*
X99294819Y-99835714D01*
X99294819Y-99835714D02*
X98294819Y-99835714D01*
X99294819Y-100311905D02*
X98294819Y-100311905D01*
X98294819Y-100311905D02*
X98294819Y-100550000D01*
X98294819Y-100550000D02*
X98342438Y-100692857D01*
X98342438Y-100692857D02*
X98437676Y-100788095D01*
X98437676Y-100788095D02*
X98532914Y-100835714D01*
X98532914Y-100835714D02*
X98723390Y-100883333D01*
X98723390Y-100883333D02*
X98866247Y-100883333D01*
X98866247Y-100883333D02*
X99056723Y-100835714D01*
X99056723Y-100835714D02*
X99151961Y-100788095D01*
X99151961Y-100788095D02*
X99247200Y-100692857D01*
X99247200Y-100692857D02*
X99294819Y-100550000D01*
X99294819Y-100550000D02*
X99294819Y-100311905D01*
X100882438Y-101688095D02*
X100834819Y-101592857D01*
X100834819Y-101592857D02*
X100834819Y-101450000D01*
X100834819Y-101450000D02*
X100882438Y-101307143D01*
X100882438Y-101307143D02*
X100977676Y-101211905D01*
X100977676Y-101211905D02*
X101072914Y-101164286D01*
X101072914Y-101164286D02*
X101263390Y-101116667D01*
X101263390Y-101116667D02*
X101406247Y-101116667D01*
X101406247Y-101116667D02*
X101596723Y-101164286D01*
X101596723Y-101164286D02*
X101691961Y-101211905D01*
X101691961Y-101211905D02*
X101787200Y-101307143D01*
X101787200Y-101307143D02*
X101834819Y-101450000D01*
X101834819Y-101450000D02*
X101834819Y-101545238D01*
X101834819Y-101545238D02*
X101787200Y-101688095D01*
X101787200Y-101688095D02*
X101739580Y-101735714D01*
X101739580Y-101735714D02*
X101406247Y-101735714D01*
X101406247Y-101735714D02*
X101406247Y-101545238D01*
X101834819Y-102164286D02*
X100834819Y-102164286D01*
X100834819Y-102164286D02*
X101834819Y-102735714D01*
X101834819Y-102735714D02*
X100834819Y-102735714D01*
X101834819Y-103211905D02*
X100834819Y-103211905D01*
X100834819Y-103211905D02*
X100834819Y-103450000D01*
X100834819Y-103450000D02*
X100882438Y-103592857D01*
X100882438Y-103592857D02*
X100977676Y-103688095D01*
X100977676Y-103688095D02*
X101072914Y-103735714D01*
X101072914Y-103735714D02*
X101263390Y-103783333D01*
X101263390Y-103783333D02*
X101406247Y-103783333D01*
X101406247Y-103783333D02*
X101596723Y-103735714D01*
X101596723Y-103735714D02*
X101691961Y-103688095D01*
X101691961Y-103688095D02*
X101787200Y-103592857D01*
X101787200Y-103592857D02*
X101834819Y-103450000D01*
X101834819Y-103450000D02*
X101834819Y-103211905D01*
X101834819Y-99002380D02*
X101358628Y-98669047D01*
X101834819Y-98430952D02*
X100834819Y-98430952D01*
X100834819Y-98430952D02*
X100834819Y-98811904D01*
X100834819Y-98811904D02*
X100882438Y-98907142D01*
X100882438Y-98907142D02*
X100930057Y-98954761D01*
X100930057Y-98954761D02*
X101025295Y-99002380D01*
X101025295Y-99002380D02*
X101168152Y-99002380D01*
X101168152Y-99002380D02*
X101263390Y-98954761D01*
X101263390Y-98954761D02*
X101311009Y-98907142D01*
X101311009Y-98907142D02*
X101358628Y-98811904D01*
X101358628Y-98811904D02*
X101358628Y-98430952D01*
X101787200Y-99383333D02*
X101834819Y-99526190D01*
X101834819Y-99526190D02*
X101834819Y-99764285D01*
X101834819Y-99764285D02*
X101787200Y-99859523D01*
X101787200Y-99859523D02*
X101739580Y-99907142D01*
X101739580Y-99907142D02*
X101644342Y-99954761D01*
X101644342Y-99954761D02*
X101549104Y-99954761D01*
X101549104Y-99954761D02*
X101453866Y-99907142D01*
X101453866Y-99907142D02*
X101406247Y-99859523D01*
X101406247Y-99859523D02*
X101358628Y-99764285D01*
X101358628Y-99764285D02*
X101311009Y-99573809D01*
X101311009Y-99573809D02*
X101263390Y-99478571D01*
X101263390Y-99478571D02*
X101215771Y-99430952D01*
X101215771Y-99430952D02*
X101120533Y-99383333D01*
X101120533Y-99383333D02*
X101025295Y-99383333D01*
X101025295Y-99383333D02*
X100930057Y-99430952D01*
X100930057Y-99430952D02*
X100882438Y-99478571D01*
X100882438Y-99478571D02*
X100834819Y-99573809D01*
X100834819Y-99573809D02*
X100834819Y-99811904D01*
X100834819Y-99811904D02*
X100882438Y-99954761D01*
X100834819Y-100240476D02*
X100834819Y-100811904D01*
X101834819Y-100526190D02*
X100834819Y-100526190D01*
X103422438Y-101688095D02*
X103374819Y-101592857D01*
X103374819Y-101592857D02*
X103374819Y-101450000D01*
X103374819Y-101450000D02*
X103422438Y-101307143D01*
X103422438Y-101307143D02*
X103517676Y-101211905D01*
X103517676Y-101211905D02*
X103612914Y-101164286D01*
X103612914Y-101164286D02*
X103803390Y-101116667D01*
X103803390Y-101116667D02*
X103946247Y-101116667D01*
X103946247Y-101116667D02*
X104136723Y-101164286D01*
X104136723Y-101164286D02*
X104231961Y-101211905D01*
X104231961Y-101211905D02*
X104327200Y-101307143D01*
X104327200Y-101307143D02*
X104374819Y-101450000D01*
X104374819Y-101450000D02*
X104374819Y-101545238D01*
X104374819Y-101545238D02*
X104327200Y-101688095D01*
X104327200Y-101688095D02*
X104279580Y-101735714D01*
X104279580Y-101735714D02*
X103946247Y-101735714D01*
X103946247Y-101735714D02*
X103946247Y-101545238D01*
X104374819Y-102164286D02*
X103374819Y-102164286D01*
X103374819Y-102164286D02*
X104374819Y-102735714D01*
X104374819Y-102735714D02*
X103374819Y-102735714D01*
X104374819Y-103211905D02*
X103374819Y-103211905D01*
X103374819Y-103211905D02*
X103374819Y-103450000D01*
X103374819Y-103450000D02*
X103422438Y-103592857D01*
X103422438Y-103592857D02*
X103517676Y-103688095D01*
X103517676Y-103688095D02*
X103612914Y-103735714D01*
X103612914Y-103735714D02*
X103803390Y-103783333D01*
X103803390Y-103783333D02*
X103946247Y-103783333D01*
X103946247Y-103783333D02*
X104136723Y-103735714D01*
X104136723Y-103735714D02*
X104231961Y-103688095D01*
X104231961Y-103688095D02*
X104327200Y-103592857D01*
X104327200Y-103592857D02*
X104374819Y-103450000D01*
X104374819Y-103450000D02*
X104374819Y-103211905D01*
X103374819Y-98216667D02*
X104374819Y-98550000D01*
X104374819Y-98550000D02*
X103374819Y-98883333D01*
X104279580Y-99788095D02*
X104327200Y-99740476D01*
X104327200Y-99740476D02*
X104374819Y-99597619D01*
X104374819Y-99597619D02*
X104374819Y-99502381D01*
X104374819Y-99502381D02*
X104327200Y-99359524D01*
X104327200Y-99359524D02*
X104231961Y-99264286D01*
X104231961Y-99264286D02*
X104136723Y-99216667D01*
X104136723Y-99216667D02*
X103946247Y-99169048D01*
X103946247Y-99169048D02*
X103803390Y-99169048D01*
X103803390Y-99169048D02*
X103612914Y-99216667D01*
X103612914Y-99216667D02*
X103517676Y-99264286D01*
X103517676Y-99264286D02*
X103422438Y-99359524D01*
X103422438Y-99359524D02*
X103374819Y-99502381D01*
X103374819Y-99502381D02*
X103374819Y-99597619D01*
X103374819Y-99597619D02*
X103422438Y-99740476D01*
X103422438Y-99740476D02*
X103470057Y-99788095D01*
X104279580Y-100788095D02*
X104327200Y-100740476D01*
X104327200Y-100740476D02*
X104374819Y-100597619D01*
X104374819Y-100597619D02*
X104374819Y-100502381D01*
X104374819Y-100502381D02*
X104327200Y-100359524D01*
X104327200Y-100359524D02*
X104231961Y-100264286D01*
X104231961Y-100264286D02*
X104136723Y-100216667D01*
X104136723Y-100216667D02*
X103946247Y-100169048D01*
X103946247Y-100169048D02*
X103803390Y-100169048D01*
X103803390Y-100169048D02*
X103612914Y-100216667D01*
X103612914Y-100216667D02*
X103517676Y-100264286D01*
X103517676Y-100264286D02*
X103422438Y-100359524D01*
X103422438Y-100359524D02*
X103374819Y-100502381D01*
X103374819Y-100502381D02*
X103374819Y-100597619D01*
X103374819Y-100597619D02*
X103422438Y-100740476D01*
X103422438Y-100740476D02*
X103470057Y-100788095D01*
X106867200Y-101235714D02*
X106914819Y-101378571D01*
X106914819Y-101378571D02*
X106914819Y-101616666D01*
X106914819Y-101616666D02*
X106867200Y-101711904D01*
X106867200Y-101711904D02*
X106819580Y-101759523D01*
X106819580Y-101759523D02*
X106724342Y-101807142D01*
X106724342Y-101807142D02*
X106629104Y-101807142D01*
X106629104Y-101807142D02*
X106533866Y-101759523D01*
X106533866Y-101759523D02*
X106486247Y-101711904D01*
X106486247Y-101711904D02*
X106438628Y-101616666D01*
X106438628Y-101616666D02*
X106391009Y-101426190D01*
X106391009Y-101426190D02*
X106343390Y-101330952D01*
X106343390Y-101330952D02*
X106295771Y-101283333D01*
X106295771Y-101283333D02*
X106200533Y-101235714D01*
X106200533Y-101235714D02*
X106105295Y-101235714D01*
X106105295Y-101235714D02*
X106010057Y-101283333D01*
X106010057Y-101283333D02*
X105962438Y-101330952D01*
X105962438Y-101330952D02*
X105914819Y-101426190D01*
X105914819Y-101426190D02*
X105914819Y-101664285D01*
X105914819Y-101664285D02*
X105962438Y-101807142D01*
X106914819Y-102235714D02*
X105914819Y-102235714D01*
X105914819Y-102235714D02*
X105914819Y-102473809D01*
X105914819Y-102473809D02*
X105962438Y-102616666D01*
X105962438Y-102616666D02*
X106057676Y-102711904D01*
X106057676Y-102711904D02*
X106152914Y-102759523D01*
X106152914Y-102759523D02*
X106343390Y-102807142D01*
X106343390Y-102807142D02*
X106486247Y-102807142D01*
X106486247Y-102807142D02*
X106676723Y-102759523D01*
X106676723Y-102759523D02*
X106771961Y-102711904D01*
X106771961Y-102711904D02*
X106867200Y-102616666D01*
X106867200Y-102616666D02*
X106914819Y-102473809D01*
X106914819Y-102473809D02*
X106914819Y-102235714D01*
X106629104Y-103188095D02*
X106629104Y-103664285D01*
X106914819Y-103092857D02*
X105914819Y-103426190D01*
X105914819Y-103426190D02*
X106914819Y-103759523D01*
X106819580Y-98793333D02*
X106867200Y-98745714D01*
X106867200Y-98745714D02*
X106914819Y-98602857D01*
X106914819Y-98602857D02*
X106914819Y-98507619D01*
X106914819Y-98507619D02*
X106867200Y-98364762D01*
X106867200Y-98364762D02*
X106771961Y-98269524D01*
X106771961Y-98269524D02*
X106676723Y-98221905D01*
X106676723Y-98221905D02*
X106486247Y-98174286D01*
X106486247Y-98174286D02*
X106343390Y-98174286D01*
X106343390Y-98174286D02*
X106152914Y-98221905D01*
X106152914Y-98221905D02*
X106057676Y-98269524D01*
X106057676Y-98269524D02*
X105962438Y-98364762D01*
X105962438Y-98364762D02*
X105914819Y-98507619D01*
X105914819Y-98507619D02*
X105914819Y-98602857D01*
X105914819Y-98602857D02*
X105962438Y-98745714D01*
X105962438Y-98745714D02*
X106010057Y-98793333D01*
X105914819Y-99412381D02*
X105914819Y-99507619D01*
X105914819Y-99507619D02*
X105962438Y-99602857D01*
X105962438Y-99602857D02*
X106010057Y-99650476D01*
X106010057Y-99650476D02*
X106105295Y-99698095D01*
X106105295Y-99698095D02*
X106295771Y-99745714D01*
X106295771Y-99745714D02*
X106533866Y-99745714D01*
X106533866Y-99745714D02*
X106724342Y-99698095D01*
X106724342Y-99698095D02*
X106819580Y-99650476D01*
X106819580Y-99650476D02*
X106867200Y-99602857D01*
X106867200Y-99602857D02*
X106914819Y-99507619D01*
X106914819Y-99507619D02*
X106914819Y-99412381D01*
X106914819Y-99412381D02*
X106867200Y-99317143D01*
X106867200Y-99317143D02*
X106819580Y-99269524D01*
X106819580Y-99269524D02*
X106724342Y-99221905D01*
X106724342Y-99221905D02*
X106533866Y-99174286D01*
X106533866Y-99174286D02*
X106295771Y-99174286D01*
X106295771Y-99174286D02*
X106105295Y-99221905D01*
X106105295Y-99221905D02*
X106010057Y-99269524D01*
X106010057Y-99269524D02*
X105962438Y-99317143D01*
X105962438Y-99317143D02*
X105914819Y-99412381D01*
X109407200Y-101259524D02*
X109454819Y-101402381D01*
X109454819Y-101402381D02*
X109454819Y-101640476D01*
X109454819Y-101640476D02*
X109407200Y-101735714D01*
X109407200Y-101735714D02*
X109359580Y-101783333D01*
X109359580Y-101783333D02*
X109264342Y-101830952D01*
X109264342Y-101830952D02*
X109169104Y-101830952D01*
X109169104Y-101830952D02*
X109073866Y-101783333D01*
X109073866Y-101783333D02*
X109026247Y-101735714D01*
X109026247Y-101735714D02*
X108978628Y-101640476D01*
X108978628Y-101640476D02*
X108931009Y-101450000D01*
X108931009Y-101450000D02*
X108883390Y-101354762D01*
X108883390Y-101354762D02*
X108835771Y-101307143D01*
X108835771Y-101307143D02*
X108740533Y-101259524D01*
X108740533Y-101259524D02*
X108645295Y-101259524D01*
X108645295Y-101259524D02*
X108550057Y-101307143D01*
X108550057Y-101307143D02*
X108502438Y-101354762D01*
X108502438Y-101354762D02*
X108454819Y-101450000D01*
X108454819Y-101450000D02*
X108454819Y-101688095D01*
X108454819Y-101688095D02*
X108502438Y-101830952D01*
X109359580Y-102830952D02*
X109407200Y-102783333D01*
X109407200Y-102783333D02*
X109454819Y-102640476D01*
X109454819Y-102640476D02*
X109454819Y-102545238D01*
X109454819Y-102545238D02*
X109407200Y-102402381D01*
X109407200Y-102402381D02*
X109311961Y-102307143D01*
X109311961Y-102307143D02*
X109216723Y-102259524D01*
X109216723Y-102259524D02*
X109026247Y-102211905D01*
X109026247Y-102211905D02*
X108883390Y-102211905D01*
X108883390Y-102211905D02*
X108692914Y-102259524D01*
X108692914Y-102259524D02*
X108597676Y-102307143D01*
X108597676Y-102307143D02*
X108502438Y-102402381D01*
X108502438Y-102402381D02*
X108454819Y-102545238D01*
X108454819Y-102545238D02*
X108454819Y-102640476D01*
X108454819Y-102640476D02*
X108502438Y-102783333D01*
X108502438Y-102783333D02*
X108550057Y-102830952D01*
X109454819Y-103735714D02*
X109454819Y-103259524D01*
X109454819Y-103259524D02*
X108454819Y-103259524D01*
X109359580Y-98793333D02*
X109407200Y-98745714D01*
X109407200Y-98745714D02*
X109454819Y-98602857D01*
X109454819Y-98602857D02*
X109454819Y-98507619D01*
X109454819Y-98507619D02*
X109407200Y-98364762D01*
X109407200Y-98364762D02*
X109311961Y-98269524D01*
X109311961Y-98269524D02*
X109216723Y-98221905D01*
X109216723Y-98221905D02*
X109026247Y-98174286D01*
X109026247Y-98174286D02*
X108883390Y-98174286D01*
X108883390Y-98174286D02*
X108692914Y-98221905D01*
X108692914Y-98221905D02*
X108597676Y-98269524D01*
X108597676Y-98269524D02*
X108502438Y-98364762D01*
X108502438Y-98364762D02*
X108454819Y-98507619D01*
X108454819Y-98507619D02*
X108454819Y-98602857D01*
X108454819Y-98602857D02*
X108502438Y-98745714D01*
X108502438Y-98745714D02*
X108550057Y-98793333D01*
X109454819Y-99745714D02*
X109454819Y-99174286D01*
X109454819Y-99460000D02*
X108454819Y-99460000D01*
X108454819Y-99460000D02*
X108597676Y-99364762D01*
X108597676Y-99364762D02*
X108692914Y-99269524D01*
X108692914Y-99269524D02*
X108740533Y-99174286D01*
X111899580Y-102873333D02*
X111947200Y-102825714D01*
X111947200Y-102825714D02*
X111994819Y-102682857D01*
X111994819Y-102682857D02*
X111994819Y-102587619D01*
X111994819Y-102587619D02*
X111947200Y-102444762D01*
X111947200Y-102444762D02*
X111851961Y-102349524D01*
X111851961Y-102349524D02*
X111756723Y-102301905D01*
X111756723Y-102301905D02*
X111566247Y-102254286D01*
X111566247Y-102254286D02*
X111423390Y-102254286D01*
X111423390Y-102254286D02*
X111232914Y-102301905D01*
X111232914Y-102301905D02*
X111137676Y-102349524D01*
X111137676Y-102349524D02*
X111042438Y-102444762D01*
X111042438Y-102444762D02*
X110994819Y-102587619D01*
X110994819Y-102587619D02*
X110994819Y-102682857D01*
X110994819Y-102682857D02*
X111042438Y-102825714D01*
X111042438Y-102825714D02*
X111090057Y-102873333D01*
X111947200Y-103254286D02*
X111994819Y-103397143D01*
X111994819Y-103397143D02*
X111994819Y-103635238D01*
X111994819Y-103635238D02*
X111947200Y-103730476D01*
X111947200Y-103730476D02*
X111899580Y-103778095D01*
X111899580Y-103778095D02*
X111804342Y-103825714D01*
X111804342Y-103825714D02*
X111709104Y-103825714D01*
X111709104Y-103825714D02*
X111613866Y-103778095D01*
X111613866Y-103778095D02*
X111566247Y-103730476D01*
X111566247Y-103730476D02*
X111518628Y-103635238D01*
X111518628Y-103635238D02*
X111471009Y-103444762D01*
X111471009Y-103444762D02*
X111423390Y-103349524D01*
X111423390Y-103349524D02*
X111375771Y-103301905D01*
X111375771Y-103301905D02*
X111280533Y-103254286D01*
X111280533Y-103254286D02*
X111185295Y-103254286D01*
X111185295Y-103254286D02*
X111090057Y-103301905D01*
X111090057Y-103301905D02*
X111042438Y-103349524D01*
X111042438Y-103349524D02*
X110994819Y-103444762D01*
X110994819Y-103444762D02*
X110994819Y-103682857D01*
X110994819Y-103682857D02*
X111042438Y-103825714D01*
X111899580Y-98793333D02*
X111947200Y-98745714D01*
X111947200Y-98745714D02*
X111994819Y-98602857D01*
X111994819Y-98602857D02*
X111994819Y-98507619D01*
X111994819Y-98507619D02*
X111947200Y-98364762D01*
X111947200Y-98364762D02*
X111851961Y-98269524D01*
X111851961Y-98269524D02*
X111756723Y-98221905D01*
X111756723Y-98221905D02*
X111566247Y-98174286D01*
X111566247Y-98174286D02*
X111423390Y-98174286D01*
X111423390Y-98174286D02*
X111232914Y-98221905D01*
X111232914Y-98221905D02*
X111137676Y-98269524D01*
X111137676Y-98269524D02*
X111042438Y-98364762D01*
X111042438Y-98364762D02*
X110994819Y-98507619D01*
X110994819Y-98507619D02*
X110994819Y-98602857D01*
X110994819Y-98602857D02*
X111042438Y-98745714D01*
X111042438Y-98745714D02*
X111090057Y-98793333D01*
X111090057Y-99174286D02*
X111042438Y-99221905D01*
X111042438Y-99221905D02*
X110994819Y-99317143D01*
X110994819Y-99317143D02*
X110994819Y-99555238D01*
X110994819Y-99555238D02*
X111042438Y-99650476D01*
X111042438Y-99650476D02*
X111090057Y-99698095D01*
X111090057Y-99698095D02*
X111185295Y-99745714D01*
X111185295Y-99745714D02*
X111280533Y-99745714D01*
X111280533Y-99745714D02*
X111423390Y-99698095D01*
X111423390Y-99698095D02*
X111994819Y-99126667D01*
X111994819Y-99126667D02*
X111994819Y-99745714D01*
X114534819Y-102873333D02*
X114058628Y-102540000D01*
X114534819Y-102301905D02*
X113534819Y-102301905D01*
X113534819Y-102301905D02*
X113534819Y-102682857D01*
X113534819Y-102682857D02*
X113582438Y-102778095D01*
X113582438Y-102778095D02*
X113630057Y-102825714D01*
X113630057Y-102825714D02*
X113725295Y-102873333D01*
X113725295Y-102873333D02*
X113868152Y-102873333D01*
X113868152Y-102873333D02*
X113963390Y-102825714D01*
X113963390Y-102825714D02*
X114011009Y-102778095D01*
X114011009Y-102778095D02*
X114058628Y-102682857D01*
X114058628Y-102682857D02*
X114058628Y-102301905D01*
X113534819Y-103206667D02*
X113534819Y-103825714D01*
X113534819Y-103825714D02*
X113915771Y-103492381D01*
X113915771Y-103492381D02*
X113915771Y-103635238D01*
X113915771Y-103635238D02*
X113963390Y-103730476D01*
X113963390Y-103730476D02*
X114011009Y-103778095D01*
X114011009Y-103778095D02*
X114106247Y-103825714D01*
X114106247Y-103825714D02*
X114344342Y-103825714D01*
X114344342Y-103825714D02*
X114439580Y-103778095D01*
X114439580Y-103778095D02*
X114487200Y-103730476D01*
X114487200Y-103730476D02*
X114534819Y-103635238D01*
X114534819Y-103635238D02*
X114534819Y-103349524D01*
X114534819Y-103349524D02*
X114487200Y-103254286D01*
X114487200Y-103254286D02*
X114439580Y-103206667D01*
X114439580Y-98793333D02*
X114487200Y-98745714D01*
X114487200Y-98745714D02*
X114534819Y-98602857D01*
X114534819Y-98602857D02*
X114534819Y-98507619D01*
X114534819Y-98507619D02*
X114487200Y-98364762D01*
X114487200Y-98364762D02*
X114391961Y-98269524D01*
X114391961Y-98269524D02*
X114296723Y-98221905D01*
X114296723Y-98221905D02*
X114106247Y-98174286D01*
X114106247Y-98174286D02*
X113963390Y-98174286D01*
X113963390Y-98174286D02*
X113772914Y-98221905D01*
X113772914Y-98221905D02*
X113677676Y-98269524D01*
X113677676Y-98269524D02*
X113582438Y-98364762D01*
X113582438Y-98364762D02*
X113534819Y-98507619D01*
X113534819Y-98507619D02*
X113534819Y-98602857D01*
X113534819Y-98602857D02*
X113582438Y-98745714D01*
X113582438Y-98745714D02*
X113630057Y-98793333D01*
X113534819Y-99126667D02*
X113534819Y-99745714D01*
X113534819Y-99745714D02*
X113915771Y-99412381D01*
X113915771Y-99412381D02*
X113915771Y-99555238D01*
X113915771Y-99555238D02*
X113963390Y-99650476D01*
X113963390Y-99650476D02*
X114011009Y-99698095D01*
X114011009Y-99698095D02*
X114106247Y-99745714D01*
X114106247Y-99745714D02*
X114344342Y-99745714D01*
X114344342Y-99745714D02*
X114439580Y-99698095D01*
X114439580Y-99698095D02*
X114487200Y-99650476D01*
X114487200Y-99650476D02*
X114534819Y-99555238D01*
X114534819Y-99555238D02*
X114534819Y-99269524D01*
X114534819Y-99269524D02*
X114487200Y-99174286D01*
X114487200Y-99174286D02*
X114439580Y-99126667D01*
X117074819Y-102873333D02*
X116598628Y-102540000D01*
X117074819Y-102301905D02*
X116074819Y-102301905D01*
X116074819Y-102301905D02*
X116074819Y-102682857D01*
X116074819Y-102682857D02*
X116122438Y-102778095D01*
X116122438Y-102778095D02*
X116170057Y-102825714D01*
X116170057Y-102825714D02*
X116265295Y-102873333D01*
X116265295Y-102873333D02*
X116408152Y-102873333D01*
X116408152Y-102873333D02*
X116503390Y-102825714D01*
X116503390Y-102825714D02*
X116551009Y-102778095D01*
X116551009Y-102778095D02*
X116598628Y-102682857D01*
X116598628Y-102682857D02*
X116598628Y-102301905D01*
X116170057Y-103254286D02*
X116122438Y-103301905D01*
X116122438Y-103301905D02*
X116074819Y-103397143D01*
X116074819Y-103397143D02*
X116074819Y-103635238D01*
X116074819Y-103635238D02*
X116122438Y-103730476D01*
X116122438Y-103730476D02*
X116170057Y-103778095D01*
X116170057Y-103778095D02*
X116265295Y-103825714D01*
X116265295Y-103825714D02*
X116360533Y-103825714D01*
X116360533Y-103825714D02*
X116503390Y-103778095D01*
X116503390Y-103778095D02*
X117074819Y-103206667D01*
X117074819Y-103206667D02*
X117074819Y-103825714D01*
X117074819Y-98335714D02*
X116074819Y-98335714D01*
X116074819Y-98335714D02*
X116074819Y-98716666D01*
X116074819Y-98716666D02*
X116122438Y-98811904D01*
X116122438Y-98811904D02*
X116170057Y-98859523D01*
X116170057Y-98859523D02*
X116265295Y-98907142D01*
X116265295Y-98907142D02*
X116408152Y-98907142D01*
X116408152Y-98907142D02*
X116503390Y-98859523D01*
X116503390Y-98859523D02*
X116551009Y-98811904D01*
X116551009Y-98811904D02*
X116598628Y-98716666D01*
X116598628Y-98716666D02*
X116598628Y-98335714D01*
X117074819Y-99859523D02*
X117074819Y-99288095D01*
X117074819Y-99573809D02*
X116074819Y-99573809D01*
X116074819Y-99573809D02*
X116217676Y-99478571D01*
X116217676Y-99478571D02*
X116312914Y-99383333D01*
X116312914Y-99383333D02*
X116360533Y-99288095D01*
X116074819Y-100764285D02*
X116074819Y-100288095D01*
X116074819Y-100288095D02*
X116551009Y-100240476D01*
X116551009Y-100240476D02*
X116503390Y-100288095D01*
X116503390Y-100288095D02*
X116455771Y-100383333D01*
X116455771Y-100383333D02*
X116455771Y-100621428D01*
X116455771Y-100621428D02*
X116503390Y-100716666D01*
X116503390Y-100716666D02*
X116551009Y-100764285D01*
X116551009Y-100764285D02*
X116646247Y-100811904D01*
X116646247Y-100811904D02*
X116884342Y-100811904D01*
X116884342Y-100811904D02*
X116979580Y-100764285D01*
X116979580Y-100764285D02*
X117027200Y-100716666D01*
X117027200Y-100716666D02*
X117074819Y-100621428D01*
X117074819Y-100621428D02*
X117074819Y-100383333D01*
X117074819Y-100383333D02*
X117027200Y-100288095D01*
X117027200Y-100288095D02*
X116979580Y-100240476D01*
X119614819Y-102873333D02*
X119138628Y-102540000D01*
X119614819Y-102301905D02*
X118614819Y-102301905D01*
X118614819Y-102301905D02*
X118614819Y-102682857D01*
X118614819Y-102682857D02*
X118662438Y-102778095D01*
X118662438Y-102778095D02*
X118710057Y-102825714D01*
X118710057Y-102825714D02*
X118805295Y-102873333D01*
X118805295Y-102873333D02*
X118948152Y-102873333D01*
X118948152Y-102873333D02*
X119043390Y-102825714D01*
X119043390Y-102825714D02*
X119091009Y-102778095D01*
X119091009Y-102778095D02*
X119138628Y-102682857D01*
X119138628Y-102682857D02*
X119138628Y-102301905D01*
X119614819Y-103825714D02*
X119614819Y-103254286D01*
X119614819Y-103540000D02*
X118614819Y-103540000D01*
X118614819Y-103540000D02*
X118757676Y-103444762D01*
X118757676Y-103444762D02*
X118852914Y-103349524D01*
X118852914Y-103349524D02*
X118900533Y-103254286D01*
X119614819Y-98335714D02*
X118614819Y-98335714D01*
X118614819Y-98335714D02*
X118614819Y-98716666D01*
X118614819Y-98716666D02*
X118662438Y-98811904D01*
X118662438Y-98811904D02*
X118710057Y-98859523D01*
X118710057Y-98859523D02*
X118805295Y-98907142D01*
X118805295Y-98907142D02*
X118948152Y-98907142D01*
X118948152Y-98907142D02*
X119043390Y-98859523D01*
X119043390Y-98859523D02*
X119091009Y-98811904D01*
X119091009Y-98811904D02*
X119138628Y-98716666D01*
X119138628Y-98716666D02*
X119138628Y-98335714D01*
X119614819Y-99859523D02*
X119614819Y-99288095D01*
X119614819Y-99573809D02*
X118614819Y-99573809D01*
X118614819Y-99573809D02*
X118757676Y-99478571D01*
X118757676Y-99478571D02*
X118852914Y-99383333D01*
X118852914Y-99383333D02*
X118900533Y-99288095D01*
X118948152Y-100716666D02*
X119614819Y-100716666D01*
X118567200Y-100478571D02*
X119281485Y-100240476D01*
X119281485Y-100240476D02*
X119281485Y-100859523D01*
X122154819Y-102873333D02*
X121678628Y-102540000D01*
X122154819Y-102301905D02*
X121154819Y-102301905D01*
X121154819Y-102301905D02*
X121154819Y-102682857D01*
X121154819Y-102682857D02*
X121202438Y-102778095D01*
X121202438Y-102778095D02*
X121250057Y-102825714D01*
X121250057Y-102825714D02*
X121345295Y-102873333D01*
X121345295Y-102873333D02*
X121488152Y-102873333D01*
X121488152Y-102873333D02*
X121583390Y-102825714D01*
X121583390Y-102825714D02*
X121631009Y-102778095D01*
X121631009Y-102778095D02*
X121678628Y-102682857D01*
X121678628Y-102682857D02*
X121678628Y-102301905D01*
X121154819Y-103492381D02*
X121154819Y-103587619D01*
X121154819Y-103587619D02*
X121202438Y-103682857D01*
X121202438Y-103682857D02*
X121250057Y-103730476D01*
X121250057Y-103730476D02*
X121345295Y-103778095D01*
X121345295Y-103778095D02*
X121535771Y-103825714D01*
X121535771Y-103825714D02*
X121773866Y-103825714D01*
X121773866Y-103825714D02*
X121964342Y-103778095D01*
X121964342Y-103778095D02*
X122059580Y-103730476D01*
X122059580Y-103730476D02*
X122107200Y-103682857D01*
X122107200Y-103682857D02*
X122154819Y-103587619D01*
X122154819Y-103587619D02*
X122154819Y-103492381D01*
X122154819Y-103492381D02*
X122107200Y-103397143D01*
X122107200Y-103397143D02*
X122059580Y-103349524D01*
X122059580Y-103349524D02*
X121964342Y-103301905D01*
X121964342Y-103301905D02*
X121773866Y-103254286D01*
X121773866Y-103254286D02*
X121535771Y-103254286D01*
X121535771Y-103254286D02*
X121345295Y-103301905D01*
X121345295Y-103301905D02*
X121250057Y-103349524D01*
X121250057Y-103349524D02*
X121202438Y-103397143D01*
X121202438Y-103397143D02*
X121154819Y-103492381D01*
X122154819Y-98335714D02*
X121154819Y-98335714D01*
X121154819Y-98335714D02*
X121154819Y-98716666D01*
X121154819Y-98716666D02*
X121202438Y-98811904D01*
X121202438Y-98811904D02*
X121250057Y-98859523D01*
X121250057Y-98859523D02*
X121345295Y-98907142D01*
X121345295Y-98907142D02*
X121488152Y-98907142D01*
X121488152Y-98907142D02*
X121583390Y-98859523D01*
X121583390Y-98859523D02*
X121631009Y-98811904D01*
X121631009Y-98811904D02*
X121678628Y-98716666D01*
X121678628Y-98716666D02*
X121678628Y-98335714D01*
X122154819Y-99859523D02*
X122154819Y-99288095D01*
X122154819Y-99573809D02*
X121154819Y-99573809D01*
X121154819Y-99573809D02*
X121297676Y-99478571D01*
X121297676Y-99478571D02*
X121392914Y-99383333D01*
X121392914Y-99383333D02*
X121440533Y-99288095D01*
X121154819Y-100716666D02*
X121154819Y-100526190D01*
X121154819Y-100526190D02*
X121202438Y-100430952D01*
X121202438Y-100430952D02*
X121250057Y-100383333D01*
X121250057Y-100383333D02*
X121392914Y-100288095D01*
X121392914Y-100288095D02*
X121583390Y-100240476D01*
X121583390Y-100240476D02*
X121964342Y-100240476D01*
X121964342Y-100240476D02*
X122059580Y-100288095D01*
X122059580Y-100288095D02*
X122107200Y-100335714D01*
X122107200Y-100335714D02*
X122154819Y-100430952D01*
X122154819Y-100430952D02*
X122154819Y-100621428D01*
X122154819Y-100621428D02*
X122107200Y-100716666D01*
X122107200Y-100716666D02*
X122059580Y-100764285D01*
X122059580Y-100764285D02*
X121964342Y-100811904D01*
X121964342Y-100811904D02*
X121726247Y-100811904D01*
X121726247Y-100811904D02*
X121631009Y-100764285D01*
X121631009Y-100764285D02*
X121583390Y-100716666D01*
X121583390Y-100716666D02*
X121535771Y-100621428D01*
X121535771Y-100621428D02*
X121535771Y-100430952D01*
X121535771Y-100430952D02*
X121583390Y-100335714D01*
X121583390Y-100335714D02*
X121631009Y-100288095D01*
X121631009Y-100288095D02*
X121726247Y-100240476D01*
X124694819Y-102301905D02*
X123694819Y-102301905D01*
X123694819Y-102301905D02*
X123694819Y-102682857D01*
X123694819Y-102682857D02*
X123742438Y-102778095D01*
X123742438Y-102778095D02*
X123790057Y-102825714D01*
X123790057Y-102825714D02*
X123885295Y-102873333D01*
X123885295Y-102873333D02*
X124028152Y-102873333D01*
X124028152Y-102873333D02*
X124123390Y-102825714D01*
X124123390Y-102825714D02*
X124171009Y-102778095D01*
X124171009Y-102778095D02*
X124218628Y-102682857D01*
X124218628Y-102682857D02*
X124218628Y-102301905D01*
X124694819Y-103349524D02*
X124694819Y-103540000D01*
X124694819Y-103540000D02*
X124647200Y-103635238D01*
X124647200Y-103635238D02*
X124599580Y-103682857D01*
X124599580Y-103682857D02*
X124456723Y-103778095D01*
X124456723Y-103778095D02*
X124266247Y-103825714D01*
X124266247Y-103825714D02*
X123885295Y-103825714D01*
X123885295Y-103825714D02*
X123790057Y-103778095D01*
X123790057Y-103778095D02*
X123742438Y-103730476D01*
X123742438Y-103730476D02*
X123694819Y-103635238D01*
X123694819Y-103635238D02*
X123694819Y-103444762D01*
X123694819Y-103444762D02*
X123742438Y-103349524D01*
X123742438Y-103349524D02*
X123790057Y-103301905D01*
X123790057Y-103301905D02*
X123885295Y-103254286D01*
X123885295Y-103254286D02*
X124123390Y-103254286D01*
X124123390Y-103254286D02*
X124218628Y-103301905D01*
X124218628Y-103301905D02*
X124266247Y-103349524D01*
X124266247Y-103349524D02*
X124313866Y-103444762D01*
X124313866Y-103444762D02*
X124313866Y-103635238D01*
X124313866Y-103635238D02*
X124266247Y-103730476D01*
X124266247Y-103730476D02*
X124218628Y-103778095D01*
X124218628Y-103778095D02*
X124123390Y-103825714D01*
X124694819Y-98335714D02*
X123694819Y-98335714D01*
X123694819Y-98335714D02*
X123694819Y-98716666D01*
X123694819Y-98716666D02*
X123742438Y-98811904D01*
X123742438Y-98811904D02*
X123790057Y-98859523D01*
X123790057Y-98859523D02*
X123885295Y-98907142D01*
X123885295Y-98907142D02*
X124028152Y-98907142D01*
X124028152Y-98907142D02*
X124123390Y-98859523D01*
X124123390Y-98859523D02*
X124171009Y-98811904D01*
X124171009Y-98811904D02*
X124218628Y-98716666D01*
X124218628Y-98716666D02*
X124218628Y-98335714D01*
X124694819Y-99859523D02*
X124694819Y-99288095D01*
X124694819Y-99573809D02*
X123694819Y-99573809D01*
X123694819Y-99573809D02*
X123837676Y-99478571D01*
X123837676Y-99478571D02*
X123932914Y-99383333D01*
X123932914Y-99383333D02*
X123980533Y-99288095D01*
X123694819Y-100478571D02*
X123694819Y-100573809D01*
X123694819Y-100573809D02*
X123742438Y-100669047D01*
X123742438Y-100669047D02*
X123790057Y-100716666D01*
X123790057Y-100716666D02*
X123885295Y-100764285D01*
X123885295Y-100764285D02*
X124075771Y-100811904D01*
X124075771Y-100811904D02*
X124313866Y-100811904D01*
X124313866Y-100811904D02*
X124504342Y-100764285D01*
X124504342Y-100764285D02*
X124599580Y-100716666D01*
X124599580Y-100716666D02*
X124647200Y-100669047D01*
X124647200Y-100669047D02*
X124694819Y-100573809D01*
X124694819Y-100573809D02*
X124694819Y-100478571D01*
X124694819Y-100478571D02*
X124647200Y-100383333D01*
X124647200Y-100383333D02*
X124599580Y-100335714D01*
X124599580Y-100335714D02*
X124504342Y-100288095D01*
X124504342Y-100288095D02*
X124313866Y-100240476D01*
X124313866Y-100240476D02*
X124075771Y-100240476D01*
X124075771Y-100240476D02*
X123885295Y-100288095D01*
X123885295Y-100288095D02*
X123790057Y-100335714D01*
X123790057Y-100335714D02*
X123742438Y-100383333D01*
X123742438Y-100383333D02*
X123694819Y-100478571D01*
X137629985Y-123899400D02*
X137564838Y-124078389D01*
X137564838Y-124078389D02*
X137577012Y-124184170D01*
X137577012Y-124184170D02*
X137633933Y-124306238D01*
X137633933Y-124306238D02*
X137796636Y-124416132D01*
X137796636Y-124416132D02*
X138109866Y-124530139D01*
X138109866Y-124530139D02*
X138305142Y-124550538D01*
X138305142Y-124550538D02*
X138427210Y-124493617D01*
X138427210Y-124493617D02*
X138504531Y-124420409D01*
X138504531Y-124420409D02*
X138569677Y-124241420D01*
X138569677Y-124241420D02*
X138557503Y-124135639D01*
X138557503Y-124135639D02*
X138500582Y-124013571D01*
X138500582Y-124013571D02*
X138337880Y-123903677D01*
X138337880Y-123903677D02*
X138024649Y-123789671D01*
X138024649Y-123789671D02*
X137829373Y-123769271D01*
X137829373Y-123769271D02*
X137707305Y-123826192D01*
X137707305Y-123826192D02*
X137629985Y-123899400D01*
X138276517Y-125046871D02*
X137336825Y-124704851D01*
X137336825Y-124704851D02*
X138081077Y-125583838D01*
X138081077Y-125583838D02*
X137141385Y-125241818D01*
X128347065Y-120165968D02*
X128281919Y-120344957D01*
X128281919Y-120344957D02*
X128294093Y-120450738D01*
X128294093Y-120450738D02*
X128351014Y-120572806D01*
X128351014Y-120572806D02*
X128513716Y-120682700D01*
X128513716Y-120682700D02*
X128826947Y-120796706D01*
X128826947Y-120796706D02*
X129022223Y-120817106D01*
X129022223Y-120817106D02*
X129144291Y-120760185D01*
X129144291Y-120760185D02*
X129221611Y-120686977D01*
X129221611Y-120686977D02*
X129286758Y-120507988D01*
X129286758Y-120507988D02*
X129274584Y-120402207D01*
X129274584Y-120402207D02*
X129217663Y-120280139D01*
X129217663Y-120280139D02*
X129054960Y-120170245D01*
X129054960Y-120170245D02*
X128741730Y-120056238D01*
X128741730Y-120056238D02*
X128546454Y-120035839D01*
X128546454Y-120035839D02*
X128424386Y-120092760D01*
X128424386Y-120092760D02*
X128347065Y-120165968D01*
X128387371Y-121447516D02*
X128501378Y-121134285D01*
X128993598Y-121313439D02*
X128053905Y-120971418D01*
X128053905Y-120971418D02*
X127891038Y-121418891D01*
X128094211Y-122252967D02*
X128208218Y-121939736D01*
X128700438Y-122118890D02*
X127760745Y-121776869D01*
X127760745Y-121776869D02*
X127597878Y-122224342D01*
D11*
X92250000Y-81750000D02*
X92250000Y-82250000D01*
X91850000Y-81750000D02*
X92250000Y-81150000D01*
X92650000Y-81750000D02*
X91850000Y-81750000D01*
X92250000Y-81150000D02*
X92650000Y-81750000D01*
X92250000Y-81150000D02*
X91700000Y-81150000D01*
X92250000Y-81150000D02*
X92800000Y-81150000D01*
X92250000Y-80750000D02*
X92250000Y-81150000D01*
X92250000Y-64750000D02*
X92250000Y-65250000D01*
X91850000Y-64750000D02*
X92250000Y-64150000D01*
X92650000Y-64750000D02*
X91850000Y-64750000D01*
X92250000Y-64150000D02*
X92650000Y-64750000D01*
X92250000Y-64150000D02*
X91700000Y-64150000D01*
X92250000Y-64150000D02*
X92800000Y-64150000D01*
X92250000Y-63750000D02*
X92250000Y-64150000D01*
X114584800Y-80423217D02*
X114497976Y-80915621D01*
X114190877Y-80353758D02*
X114688989Y-79832332D01*
X114978723Y-80492676D02*
X114190877Y-80353758D01*
X114688989Y-79832332D02*
X114978723Y-80492676D01*
X114688989Y-79832332D02*
X114147345Y-79736826D01*
X114688989Y-79832332D02*
X115230633Y-79927839D01*
X114758448Y-79438409D02*
X114688989Y-79832332D01*
X117536819Y-63681485D02*
X117449995Y-64173889D01*
X117142896Y-63612026D02*
X117641008Y-63090600D01*
X117930742Y-63750944D02*
X117142896Y-63612026D01*
X117641008Y-63090600D02*
X117930742Y-63750944D01*
X117641008Y-63090600D02*
X117099364Y-62995094D01*
X117641008Y-63090600D02*
X118182652Y-63186107D01*
X117710467Y-62696677D02*
X117641008Y-63090600D01*
X120488838Y-46939753D02*
X120402014Y-47432157D01*
X120094915Y-46870294D02*
X120593027Y-46348868D01*
X120882761Y-47009212D02*
X120094915Y-46870294D01*
X120593027Y-46348868D02*
X120882761Y-47009212D01*
X120593027Y-46348868D02*
X120051383Y-46253362D01*
X120593027Y-46348868D02*
X121134671Y-46444375D01*
X120662486Y-45954945D02*
X120593027Y-46348868D01*
X137241374Y-79421572D02*
X137111965Y-79904535D01*
X136855004Y-79318045D02*
X137396666Y-78842017D01*
X137627745Y-79525100D02*
X136855004Y-79318045D01*
X137396666Y-78842017D02*
X137627745Y-79525100D01*
X137396666Y-78842017D02*
X136865406Y-78699666D01*
X137396666Y-78842017D02*
X137927925Y-78984367D01*
X137500193Y-78455647D02*
X137396666Y-78842017D01*
X141641298Y-63000833D02*
X141511889Y-63483796D01*
X141254928Y-62897306D02*
X141796590Y-62421278D01*
X142027669Y-63104361D02*
X141254928Y-62897306D01*
X141796590Y-62421278D02*
X142027669Y-63104361D01*
X141796590Y-62421278D02*
X141265330Y-62278927D01*
X141796590Y-62421278D02*
X142327849Y-62563628D01*
X141900117Y-62034908D02*
X141796590Y-62421278D01*
X146041221Y-46580094D02*
X145911812Y-47063057D01*
X145654851Y-46476567D02*
X146196513Y-46000539D01*
X146427592Y-46683622D02*
X145654851Y-46476567D01*
X146196513Y-46000539D02*
X146427592Y-46683622D01*
X146196513Y-46000539D02*
X145665253Y-45858188D01*
X146196513Y-46000539D02*
X146727772Y-46142889D01*
X146300040Y-45614169D02*
X146196513Y-46000539D01*
X155858588Y-96236224D02*
X155647279Y-96689378D01*
X155496065Y-96067177D02*
X156112159Y-95692439D01*
X156221112Y-96405271D02*
X155496065Y-96067177D01*
X156112159Y-95692439D02*
X156221112Y-96405271D01*
X156112159Y-95692439D02*
X155613690Y-95459999D01*
X156112159Y-95692439D02*
X156610629Y-95924879D01*
X156281207Y-95329916D02*
X156112159Y-95692439D01*
X163043098Y-80828992D02*
X162831789Y-81282146D01*
X162680575Y-80659945D02*
X163296669Y-80285207D01*
X163405622Y-80998039D02*
X162680575Y-80659945D01*
X163296669Y-80285207D02*
X163405622Y-80998039D01*
X163296669Y-80285207D02*
X162798200Y-80052767D01*
X163296669Y-80285207D02*
X163795139Y-80517647D01*
X163465717Y-79922684D02*
X163296669Y-80285207D01*
X170227609Y-65421759D02*
X170016300Y-65874913D01*
X169865086Y-65252712D02*
X170481180Y-64877974D01*
X170590133Y-65590806D02*
X169865086Y-65252712D01*
X170481180Y-64877974D02*
X170590133Y-65590806D01*
X170481180Y-64877974D02*
X169982711Y-64645534D01*
X170481180Y-64877974D02*
X170979650Y-65110414D01*
X170650228Y-64515451D02*
X170481180Y-64877974D01*
X164276216Y-131511045D02*
X164659238Y-131832439D01*
X164019101Y-131817463D02*
X163816589Y-131125372D01*
X164533331Y-131204627D02*
X164019101Y-131817463D01*
X163816589Y-131125372D02*
X164533331Y-131204627D01*
X163816589Y-131125372D02*
X163463056Y-131546697D01*
X163816589Y-131125372D02*
X164170123Y-130704048D01*
X163510172Y-130868257D02*
X163816589Y-131125372D01*
X180955584Y-141969566D02*
X181242372Y-142379142D01*
X180627923Y-142198997D02*
X180611438Y-141478075D01*
X181283245Y-141740135D02*
X180627923Y-142198997D01*
X180611438Y-141478075D02*
X181283245Y-141740135D01*
X180611438Y-141478075D02*
X180160905Y-141793542D01*
X180611438Y-141478075D02*
X181061972Y-141162608D01*
X180382008Y-141150414D02*
X180611438Y-141478075D01*
D12*
X94970000Y-107290000D02*
X94970000Y-109950000D01*
X94970000Y-107290000D02*
X125570000Y-107290000D01*
X125570000Y-107290000D02*
X125570000Y-109950000D01*
X94970000Y-109950000D02*
X125570000Y-109950000D01*
X94970000Y-92050000D02*
X94970000Y-94710000D01*
X94970000Y-92050000D02*
X125570000Y-92050000D01*
X125570000Y-92050000D02*
X125570000Y-94710000D01*
X94970000Y-94710000D02*
X125570000Y-94710000D01*
X97570000Y-109950000D02*
X97570000Y-107290000D01*
X124370000Y-94590000D02*
X127030000Y-94590000D01*
X124370000Y-94590000D02*
X124370000Y-107410000D01*
X127030000Y-94590000D02*
X127030000Y-107410000D01*
X124370000Y-107410000D02*
X127030000Y-107410000D01*
X132403907Y-121139587D02*
X132215969Y-121071183D01*
X129848220Y-122167480D02*
X130118416Y-121425123D01*
X136602295Y-123785062D02*
X136332099Y-124527419D01*
X135222985Y-122165647D02*
X133625507Y-121584213D01*
X135422843Y-125271296D02*
X130066595Y-123321782D01*
D11*
X100251119Y-115414909D02*
X100186414Y-115656391D01*
X101027576Y-112517132D02*
X101092281Y-112275651D01*
X99944933Y-115591686D02*
X100186414Y-115656391D01*
X100850800Y-112210946D02*
X101092281Y-112275651D01*
X95888044Y-114504646D02*
X95646563Y-114439941D01*
X96793911Y-111123906D02*
X96552430Y-111059201D01*
X95711268Y-114198460D02*
X95646563Y-114439941D01*
X96487725Y-111300683D02*
X96552430Y-111059201D01*
X135459301Y-101112350D02*
X135285652Y-102097158D01*
X134938356Y-104066773D02*
X135112004Y-103081965D01*
X134532776Y-103487545D02*
X135517584Y-103661193D01*
D12*
X126115716Y-103079743D02*
X125942068Y-104064550D01*
X125942068Y-104064550D02*
X126926876Y-104238199D01*
X126845039Y-98943550D02*
X127004795Y-98037527D01*
X127004795Y-98037527D02*
X127989603Y-98211175D01*
X133803021Y-104516456D02*
X133643265Y-105422479D01*
X133643265Y-105422479D02*
X132658457Y-105248831D01*
X134546235Y-100301479D02*
X134705992Y-99395456D01*
X134705992Y-99395456D02*
X133721184Y-99221808D01*
%LPC*%
D13*
X172235175Y-108066691D03*
X181134590Y-121285220D03*
D14*
X117564759Y-56324569D03*
X114612740Y-73066301D03*
X165426557Y-72684179D03*
X173428752Y-140971233D03*
X181636504Y-129430307D03*
D15*
X100000000Y-83000000D03*
D16*
X94920000Y-83000000D03*
X105080000Y-83000000D03*
D17*
X97460000Y-88080000D03*
X103810000Y-85540000D03*
G36*
G01*
X108410000Y-84290000D02*
X108410000Y-86790000D01*
G75*
G02*
X108360000Y-86840000I-50000J0D01*
G01*
X105810000Y-86840000D01*
G75*
G02*
X105760000Y-86790000I0J50000D01*
G01*
X105760000Y-84290000D01*
G75*
G02*
X105810000Y-84240000I50000J0D01*
G01*
X108360000Y-84240000D01*
G75*
G02*
X108410000Y-84290000I0J-50000D01*
G01*
G37*
G36*
G01*
X95483000Y-86830000D02*
X95483000Y-89330000D01*
G75*
G02*
X95433000Y-89380000I-50000J0D01*
G01*
X92883000Y-89380000D01*
G75*
G02*
X92833000Y-89330000I0J50000D01*
G01*
X92833000Y-86830000D01*
G75*
G02*
X92883000Y-86780000I50000J0D01*
G01*
X95433000Y-86780000D01*
G75*
G02*
X95483000Y-86830000I0J-50000D01*
G01*
G37*
D15*
X100000000Y-66000000D03*
D16*
X94920000Y-66000000D03*
X105080000Y-66000000D03*
D17*
X97460000Y-71080000D03*
X103810000Y-68540000D03*
G36*
G01*
X108410000Y-67290000D02*
X108410000Y-69790000D01*
G75*
G02*
X108360000Y-69840000I-50000J0D01*
G01*
X105810000Y-69840000D01*
G75*
G02*
X105760000Y-69790000I0J50000D01*
G01*
X105760000Y-67290000D01*
G75*
G02*
X105810000Y-67240000I50000J0D01*
G01*
X108360000Y-67240000D01*
G75*
G02*
X108410000Y-67290000I0J-50000D01*
G01*
G37*
G36*
G01*
X95483000Y-69830000D02*
X95483000Y-72330000D01*
G75*
G02*
X95433000Y-72380000I-50000J0D01*
G01*
X92883000Y-72380000D01*
G75*
G02*
X92833000Y-72330000I0J50000D01*
G01*
X92833000Y-69830000D01*
G75*
G02*
X92883000Y-69780000I50000J0D01*
G01*
X95433000Y-69780000D01*
G75*
G02*
X95483000Y-69830000I0J-50000D01*
G01*
G37*
D15*
X122000000Y-83000000D03*
D16*
X116997177Y-82117867D03*
X127002823Y-83882133D03*
D17*
X118616456Y-87561757D03*
X125311051Y-86163011D03*
G36*
G01*
X130058227Y-85730783D02*
X129624107Y-88192802D01*
G75*
G02*
X129566185Y-88233360I-49240J8682D01*
G01*
X127054925Y-87790557D01*
G75*
G02*
X127014367Y-87732635I8682J49240D01*
G01*
X127448487Y-85270616D01*
G75*
G02*
X127506409Y-85230058I49240J-8682D01*
G01*
X130017669Y-85672861D01*
G75*
G02*
X130058227Y-85730783I-8682J-49240D01*
G01*
G37*
G36*
G01*
X116886550Y-85987445D02*
X116452430Y-88449464D01*
G75*
G02*
X116394508Y-88490022I-49240J8682D01*
G01*
X113883248Y-88047219D01*
G75*
G02*
X113842690Y-87989297I8682J49240D01*
G01*
X114276810Y-85527278D01*
G75*
G02*
X114334732Y-85486720I49240J-8682D01*
G01*
X116845992Y-85929523D01*
G75*
G02*
X116886550Y-85987445I-8682J-49240D01*
G01*
G37*
D15*
X124952019Y-66258268D03*
D16*
X119949196Y-65376135D03*
X129954842Y-67140401D03*
D17*
X121568475Y-70820025D03*
X128263070Y-69421279D03*
G36*
G01*
X133010246Y-68989051D02*
X132576126Y-71451070D01*
G75*
G02*
X132518204Y-71491628I-49240J8682D01*
G01*
X130006944Y-71048825D01*
G75*
G02*
X129966386Y-70990903I8682J49240D01*
G01*
X130400506Y-68528884D01*
G75*
G02*
X130458428Y-68488326I49240J-8682D01*
G01*
X132969688Y-68931129D01*
G75*
G02*
X133010246Y-68989051I-8682J-49240D01*
G01*
G37*
G36*
G01*
X119838569Y-69245713D02*
X119404449Y-71707732D01*
G75*
G02*
X119346527Y-71748290I-49240J8682D01*
G01*
X116835267Y-71305487D01*
G75*
G02*
X116794709Y-71247565I8682J49240D01*
G01*
X117228829Y-68785546D01*
G75*
G02*
X117286751Y-68744988I49240J-8682D01*
G01*
X119798011Y-69187791D01*
G75*
G02*
X119838569Y-69245713I-8682J-49240D01*
G01*
G37*
D15*
X127904038Y-49516536D03*
D16*
X122901215Y-48634403D03*
X132906861Y-50398669D03*
D17*
X124520494Y-54078293D03*
X131215089Y-52679547D03*
G36*
G01*
X135962265Y-52247319D02*
X135528145Y-54709338D01*
G75*
G02*
X135470223Y-54749896I-49240J8682D01*
G01*
X132958963Y-54307093D01*
G75*
G02*
X132918405Y-54249171I8682J49240D01*
G01*
X133352525Y-51787152D01*
G75*
G02*
X133410447Y-51746594I49240J-8682D01*
G01*
X135921707Y-52189397D01*
G75*
G02*
X135962265Y-52247319I-8682J-49240D01*
G01*
G37*
G36*
G01*
X122790588Y-52503981D02*
X122356468Y-54966000D01*
G75*
G02*
X122298546Y-55006558I-49240J8682D01*
G01*
X119787286Y-54563755D01*
G75*
G02*
X119746728Y-54505833I8682J49240D01*
G01*
X120180848Y-52043814D01*
G75*
G02*
X120238770Y-52003256I49240J-8682D01*
G01*
X122750030Y-52446059D01*
G75*
G02*
X122790588Y-52503981I-8682J-49240D01*
G01*
G37*
D15*
X144403775Y-82634827D03*
D16*
X139496872Y-81320026D03*
X149310678Y-83949628D03*
D17*
X140635523Y-86884330D03*
X147426552Y-86074379D03*
G36*
G01*
X152193334Y-86057540D02*
X151546287Y-88472355D01*
G75*
G02*
X151485050Y-88507710I-48296J12941D01*
G01*
X149021939Y-87847721D01*
G75*
G02*
X148986584Y-87786484I12941J48296D01*
G01*
X149633631Y-85371669D01*
G75*
G02*
X149694868Y-85336314I48296J-12941D01*
G01*
X152157979Y-85996303D01*
G75*
G02*
X152193334Y-86057540I-12941J-48296D01*
G01*
G37*
G36*
G01*
X139049411Y-85165237D02*
X138402364Y-87580052D01*
G75*
G02*
X138341127Y-87615407I-48296J12941D01*
G01*
X135878016Y-86955418D01*
G75*
G02*
X135842661Y-86894181I12941J48296D01*
G01*
X136489708Y-84479366D01*
G75*
G02*
X136550945Y-84444011I48296J-12941D01*
G01*
X139014056Y-85104000D01*
G75*
G02*
X139049411Y-85165237I-12941J-48296D01*
G01*
G37*
D15*
X148803699Y-66214088D03*
D16*
X143896796Y-64899287D03*
X153710602Y-67528889D03*
D17*
X145035447Y-70463591D03*
X151826476Y-69653640D03*
G36*
G01*
X156593258Y-69636801D02*
X155946211Y-72051616D01*
G75*
G02*
X155884974Y-72086971I-48296J12941D01*
G01*
X153421863Y-71426982D01*
G75*
G02*
X153386508Y-71365745I12941J48296D01*
G01*
X154033555Y-68950930D01*
G75*
G02*
X154094792Y-68915575I48296J-12941D01*
G01*
X156557903Y-69575564D01*
G75*
G02*
X156593258Y-69636801I-12941J-48296D01*
G01*
G37*
G36*
G01*
X143449335Y-68744498D02*
X142802288Y-71159313D01*
G75*
G02*
X142741051Y-71194668I-48296J12941D01*
G01*
X140277940Y-70534679D01*
G75*
G02*
X140242585Y-70473442I12941J48296D01*
G01*
X140889632Y-68058627D01*
G75*
G02*
X140950869Y-68023272I48296J-12941D01*
G01*
X143413980Y-68683261D01*
G75*
G02*
X143449335Y-68744498I-12941J-48296D01*
G01*
G37*
D15*
X153203623Y-49793349D03*
D16*
X148296720Y-48478548D03*
X158110526Y-51108150D03*
D17*
X149435371Y-54042852D03*
X156226400Y-53232901D03*
G36*
G01*
X160993182Y-53216062D02*
X160346135Y-55630877D01*
G75*
G02*
X160284898Y-55666232I-48296J12941D01*
G01*
X157821787Y-55006243D01*
G75*
G02*
X157786432Y-54945006I12941J48296D01*
G01*
X158433479Y-52530191D01*
G75*
G02*
X158494716Y-52494836I48296J-12941D01*
G01*
X160957827Y-53154825D01*
G75*
G02*
X160993182Y-53216062I-12941J-48296D01*
G01*
G37*
G36*
G01*
X147849259Y-52323759D02*
X147202212Y-54738574D01*
G75*
G02*
X147140975Y-54773929I-48296J12941D01*
G01*
X144677864Y-54113940D01*
G75*
G02*
X144642509Y-54052703I12941J48296D01*
G01*
X145289556Y-51637888D01*
G75*
G02*
X145350793Y-51602533I48296J-12941D01*
G01*
X147813904Y-52262522D01*
G75*
G02*
X147849259Y-52323759I-12941J-48296D01*
G01*
G37*
D15*
X162354201Y-100644400D03*
D16*
X157750157Y-98497499D03*
X166958245Y-102791301D03*
D17*
X157905278Y-104174993D03*
X164733783Y-104556597D03*
G36*
G01*
X169431071Y-105367757D02*
X168374526Y-107633526D01*
G75*
G02*
X168308080Y-107657710I-45315J21131D01*
G01*
X165996995Y-106580033D01*
G75*
G02*
X165972811Y-106513587I21131J45315D01*
G01*
X167029356Y-104247818D01*
G75*
G02*
X167095802Y-104223634I45315J-21131D01*
G01*
X169406887Y-105301311D01*
G75*
G02*
X169431071Y-105367757I-21131J-45315D01*
G01*
G37*
G36*
G01*
X156641780Y-102206593D02*
X155585235Y-104472362D01*
G75*
G02*
X155518789Y-104496546I-45315J21131D01*
G01*
X153207704Y-103418869D01*
G75*
G02*
X153183520Y-103352423I21131J45315D01*
G01*
X154240065Y-101086654D01*
G75*
G02*
X154306511Y-101062470I45315J-21131D01*
G01*
X156617596Y-102140147D01*
G75*
G02*
X156641780Y-102206593I-21131J-45315D01*
G01*
G37*
D15*
X169538711Y-85237168D03*
D16*
X164934667Y-83090267D03*
X174142755Y-87384069D03*
D17*
X165089788Y-88767761D03*
X171918293Y-89149365D03*
G36*
G01*
X176615581Y-89960525D02*
X175559036Y-92226294D01*
G75*
G02*
X175492590Y-92250478I-45315J21131D01*
G01*
X173181505Y-91172801D01*
G75*
G02*
X173157321Y-91106355I21131J45315D01*
G01*
X174213866Y-88840586D01*
G75*
G02*
X174280312Y-88816402I45315J-21131D01*
G01*
X176591397Y-89894079D01*
G75*
G02*
X176615581Y-89960525I-21131J-45315D01*
G01*
G37*
G36*
G01*
X163826290Y-86799361D02*
X162769745Y-89065130D01*
G75*
G02*
X162703299Y-89089314I-45315J21131D01*
G01*
X160392214Y-88011637D01*
G75*
G02*
X160368030Y-87945191I21131J45315D01*
G01*
X161424575Y-85679422D01*
G75*
G02*
X161491021Y-85655238I45315J-21131D01*
G01*
X163802106Y-86732915D01*
G75*
G02*
X163826290Y-86799361I-21131J-45315D01*
G01*
G37*
D15*
X176723222Y-69829935D03*
D16*
X172119178Y-67683034D03*
X181327266Y-71976836D03*
D17*
X172274299Y-73360528D03*
X179102804Y-73742132D03*
G36*
G01*
X183800092Y-74553292D02*
X182743547Y-76819061D01*
G75*
G02*
X182677101Y-76843245I-45315J21131D01*
G01*
X180366016Y-75765568D01*
G75*
G02*
X180341832Y-75699122I21131J45315D01*
G01*
X181398377Y-73433353D01*
G75*
G02*
X181464823Y-73409169I45315J-21131D01*
G01*
X183775908Y-74486846D01*
G75*
G02*
X183800092Y-74553292I-21131J-45315D01*
G01*
G37*
G36*
G01*
X171010801Y-71392128D02*
X169954256Y-73657897D01*
G75*
G02*
X169887810Y-73682081I-45315J21131D01*
G01*
X167576725Y-72604404D01*
G75*
G02*
X167552541Y-72537958I21131J45315D01*
G01*
X168609086Y-70272189D01*
G75*
G02*
X168675532Y-70248005I45315J-21131D01*
G01*
X170986617Y-71325682D01*
G75*
G02*
X171010801Y-71392128I-21131J-45315D01*
G01*
G37*
D15*
X170215376Y-126377685D03*
D16*
X166950015Y-130269191D03*
X173480737Y-122486179D03*
D17*
X172474201Y-131588799D03*
X174610150Y-125091736D03*
G36*
G01*
X176609417Y-120764448D02*
X178524528Y-122371417D01*
G75*
G02*
X178530691Y-122441858I-32139J-38302D01*
G01*
X176891582Y-124395271D01*
G75*
G02*
X176821141Y-124401434I-38302J32139D01*
G01*
X174906030Y-122794465D01*
G75*
G02*
X174899867Y-122724024I32139J38302D01*
G01*
X176538976Y-120770611D01*
G75*
G02*
X176609417Y-120764448I38302J-32139D01*
G01*
G37*
G36*
G01*
X170245855Y-132299785D02*
X172160966Y-133906754D01*
G75*
G02*
X172167129Y-133977195I-32139J-38302D01*
G01*
X170528020Y-135930608D01*
G75*
G02*
X170457579Y-135936771I-38302J32139D01*
G01*
X168542468Y-134329802D01*
G75*
G02*
X168536305Y-134259361I32139J38302D01*
G01*
X170175414Y-132305948D01*
G75*
G02*
X170245855Y-132299785I38302J-32139D01*
G01*
G37*
D15*
X188020983Y-138548289D03*
D16*
X183859691Y-141462057D03*
X192182275Y-135634521D03*
D17*
X188854105Y-144166466D03*
X192598836Y-138443609D03*
G36*
G01*
X195649965Y-134781217D02*
X197083906Y-136829097D01*
G75*
G02*
X197071627Y-136898734I-40958J-28679D01*
G01*
X194982790Y-138361354D01*
G75*
G02*
X194913153Y-138349075I-28679J40958D01*
G01*
X193479212Y-136301195D01*
G75*
G02*
X193491491Y-136231558I40958J28679D01*
G01*
X195580328Y-134768938D01*
G75*
G02*
X195649965Y-134781217I28679J-40958D01*
G01*
G37*
G36*
G01*
X186517671Y-144276486D02*
X187951612Y-146324366D01*
G75*
G02*
X187939333Y-146394003I-40958J-28679D01*
G01*
X185850496Y-147856623D01*
G75*
G02*
X185780859Y-147844344I-28679J40958D01*
G01*
X184346918Y-145796464D01*
G75*
G02*
X184359197Y-145726827I40958J28679D01*
G01*
X186448034Y-144264207D01*
G75*
G02*
X186517671Y-144276486I28679J-40958D01*
G01*
G37*
G36*
G01*
X91650000Y-82650000D02*
X92850000Y-82650000D01*
G75*
G02*
X92900000Y-82700000I0J-50000D01*
G01*
X92900000Y-83600000D01*
G75*
G02*
X92850000Y-83650000I-50000J0D01*
G01*
X91650000Y-83650000D01*
G75*
G02*
X91600000Y-83600000I0J50000D01*
G01*
X91600000Y-82700000D01*
G75*
G02*
X91650000Y-82650000I50000J0D01*
G01*
G37*
G36*
G01*
X91650000Y-79350000D02*
X92850000Y-79350000D01*
G75*
G02*
X92900000Y-79400000I0J-50000D01*
G01*
X92900000Y-80300000D01*
G75*
G02*
X92850000Y-80350000I-50000J0D01*
G01*
X91650000Y-80350000D01*
G75*
G02*
X91600000Y-80300000I0J50000D01*
G01*
X91600000Y-79400000D01*
G75*
G02*
X91650000Y-79350000I50000J0D01*
G01*
G37*
G36*
G01*
X91650000Y-65650000D02*
X92850000Y-65650000D01*
G75*
G02*
X92900000Y-65700000I0J-50000D01*
G01*
X92900000Y-66600000D01*
G75*
G02*
X92850000Y-66650000I-50000J0D01*
G01*
X91650000Y-66650000D01*
G75*
G02*
X91600000Y-66600000I0J50000D01*
G01*
X91600000Y-65700000D01*
G75*
G02*
X91650000Y-65650000I50000J0D01*
G01*
G37*
G36*
G01*
X91650000Y-62350000D02*
X92850000Y-62350000D01*
G75*
G02*
X92900000Y-62400000I0J-50000D01*
G01*
X92900000Y-63300000D01*
G75*
G02*
X92850000Y-63350000I-50000J0D01*
G01*
X91650000Y-63350000D01*
G75*
G02*
X91600000Y-63300000I0J50000D01*
G01*
X91600000Y-62400000D01*
G75*
G02*
X91650000Y-62350000I50000J0D01*
G01*
G37*
G36*
G01*
X113837632Y-81205356D02*
X115019401Y-81413733D01*
G75*
G02*
X115059959Y-81471655I-8682J-49240D01*
G01*
X114903676Y-82357982D01*
G75*
G02*
X114845754Y-82398540I-49240J8682D01*
G01*
X113663985Y-82190163D01*
G75*
G02*
X113623427Y-82132241I8682J49240D01*
G01*
X113779710Y-81245914D01*
G75*
G02*
X113837632Y-81205356I49240J-8682D01*
G01*
G37*
G36*
G01*
X114410670Y-77955490D02*
X115592439Y-78163867D01*
G75*
G02*
X115632997Y-78221789I-8682J-49240D01*
G01*
X115476714Y-79108116D01*
G75*
G02*
X115418792Y-79148674I-49240J8682D01*
G01*
X114237023Y-78940297D01*
G75*
G02*
X114196465Y-78882375I8682J49240D01*
G01*
X114352748Y-77996048D01*
G75*
G02*
X114410670Y-77955490I49240J-8682D01*
G01*
G37*
G36*
G01*
X116789651Y-64463624D02*
X117971420Y-64672001D01*
G75*
G02*
X118011978Y-64729923I-8682J-49240D01*
G01*
X117855695Y-65616250D01*
G75*
G02*
X117797773Y-65656808I-49240J8682D01*
G01*
X116616004Y-65448431D01*
G75*
G02*
X116575446Y-65390509I8682J49240D01*
G01*
X116731729Y-64504182D01*
G75*
G02*
X116789651Y-64463624I49240J-8682D01*
G01*
G37*
G36*
G01*
X117362689Y-61213758D02*
X118544458Y-61422135D01*
G75*
G02*
X118585016Y-61480057I-8682J-49240D01*
G01*
X118428733Y-62366384D01*
G75*
G02*
X118370811Y-62406942I-49240J8682D01*
G01*
X117189042Y-62198565D01*
G75*
G02*
X117148484Y-62140643I8682J49240D01*
G01*
X117304767Y-61254316D01*
G75*
G02*
X117362689Y-61213758I49240J-8682D01*
G01*
G37*
G36*
G01*
X119741670Y-47721892D02*
X120923439Y-47930269D01*
G75*
G02*
X120963997Y-47988191I-8682J-49240D01*
G01*
X120807714Y-48874518D01*
G75*
G02*
X120749792Y-48915076I-49240J8682D01*
G01*
X119568023Y-48706699D01*
G75*
G02*
X119527465Y-48648777I8682J49240D01*
G01*
X119683748Y-47762450D01*
G75*
G02*
X119741670Y-47721892I49240J-8682D01*
G01*
G37*
G36*
G01*
X120314708Y-44472026D02*
X121496477Y-44680403D01*
G75*
G02*
X121537035Y-44738325I-8682J-49240D01*
G01*
X121380752Y-45624652D01*
G75*
G02*
X121322830Y-45665210I-49240J8682D01*
G01*
X120141061Y-45456833D01*
G75*
G02*
X120100503Y-45398911I8682J49240D01*
G01*
X120256786Y-44512584D01*
G75*
G02*
X120314708Y-44472026I49240J-8682D01*
G01*
G37*
G36*
G01*
X136428882Y-80135615D02*
X137587993Y-80446198D01*
G75*
G02*
X137623348Y-80507435I-12941J-48296D01*
G01*
X137390411Y-81376768D01*
G75*
G02*
X137329174Y-81412123I-48296J12941D01*
G01*
X136170063Y-81101540D01*
G75*
G02*
X136134708Y-81040303I12941J48296D01*
G01*
X136367645Y-80170970D01*
G75*
G02*
X136428882Y-80135615I48296J-12941D01*
G01*
G37*
G36*
G01*
X137282984Y-76948059D02*
X138442095Y-77258642D01*
G75*
G02*
X138477450Y-77319879I-12941J-48296D01*
G01*
X138244513Y-78189212D01*
G75*
G02*
X138183276Y-78224567I-48296J12941D01*
G01*
X137024165Y-77913984D01*
G75*
G02*
X136988810Y-77852747I12941J48296D01*
G01*
X137221747Y-76983414D01*
G75*
G02*
X137282984Y-76948059I48296J-12941D01*
G01*
G37*
G36*
G01*
X140828806Y-63714876D02*
X141987917Y-64025459D01*
G75*
G02*
X142023272Y-64086696I-12941J-48296D01*
G01*
X141790335Y-64956029D01*
G75*
G02*
X141729098Y-64991384I-48296J12941D01*
G01*
X140569987Y-64680801D01*
G75*
G02*
X140534632Y-64619564I12941J48296D01*
G01*
X140767569Y-63750231D01*
G75*
G02*
X140828806Y-63714876I48296J-12941D01*
G01*
G37*
G36*
G01*
X141682908Y-60527320D02*
X142842019Y-60837903D01*
G75*
G02*
X142877374Y-60899140I-12941J-48296D01*
G01*
X142644437Y-61768473D01*
G75*
G02*
X142583200Y-61803828I-48296J12941D01*
G01*
X141424089Y-61493245D01*
G75*
G02*
X141388734Y-61432008I12941J48296D01*
G01*
X141621671Y-60562675D01*
G75*
G02*
X141682908Y-60527320I48296J-12941D01*
G01*
G37*
G36*
G01*
X145228729Y-47294137D02*
X146387840Y-47604720D01*
G75*
G02*
X146423195Y-47665957I-12941J-48296D01*
G01*
X146190258Y-48535290D01*
G75*
G02*
X146129021Y-48570645I-48296J12941D01*
G01*
X144969910Y-48260062D01*
G75*
G02*
X144934555Y-48198825I12941J48296D01*
G01*
X145167492Y-47329492D01*
G75*
G02*
X145228729Y-47294137I48296J-12941D01*
G01*
G37*
G36*
G01*
X146082831Y-44106581D02*
X147241942Y-44417164D01*
G75*
G02*
X147277297Y-44478401I-12941J-48296D01*
G01*
X147044360Y-45347734D01*
G75*
G02*
X146983123Y-45383089I-48296J12941D01*
G01*
X145824012Y-45072506D01*
G75*
G02*
X145788657Y-45011269I12941J48296D01*
G01*
X146021594Y-44141936D01*
G75*
G02*
X146082831Y-44106581I48296J-12941D01*
G01*
G37*
G36*
G01*
X154934448Y-96798331D02*
X156022017Y-97305472D01*
G75*
G02*
X156046201Y-97371918I-21131J-45315D01*
G01*
X155665844Y-98187595D01*
G75*
G02*
X155599398Y-98211779I-45315J21131D01*
G01*
X154511829Y-97704638D01*
G75*
G02*
X154487645Y-97638192I21131J45315D01*
G01*
X154868002Y-96822515D01*
G75*
G02*
X154934448Y-96798331I45315J-21131D01*
G01*
G37*
G36*
G01*
X156329088Y-93807515D02*
X157416657Y-94314656D01*
G75*
G02*
X157440841Y-94381102I-21131J-45315D01*
G01*
X157060484Y-95196779D01*
G75*
G02*
X156994038Y-95220963I-45315J21131D01*
G01*
X155906469Y-94713822D01*
G75*
G02*
X155882285Y-94647376I21131J45315D01*
G01*
X156262642Y-93831699D01*
G75*
G02*
X156329088Y-93807515I45315J-21131D01*
G01*
G37*
G36*
G01*
X162118958Y-81391099D02*
X163206527Y-81898240D01*
G75*
G02*
X163230711Y-81964686I-21131J-45315D01*
G01*
X162850354Y-82780363D01*
G75*
G02*
X162783908Y-82804547I-45315J21131D01*
G01*
X161696339Y-82297406D01*
G75*
G02*
X161672155Y-82230960I21131J45315D01*
G01*
X162052512Y-81415283D01*
G75*
G02*
X162118958Y-81391099I45315J-21131D01*
G01*
G37*
G36*
G01*
X163513598Y-78400283D02*
X164601167Y-78907424D01*
G75*
G02*
X164625351Y-78973870I-21131J-45315D01*
G01*
X164244994Y-79789547D01*
G75*
G02*
X164178548Y-79813731I-45315J21131D01*
G01*
X163090979Y-79306590D01*
G75*
G02*
X163066795Y-79240144I21131J45315D01*
G01*
X163447152Y-78424467D01*
G75*
G02*
X163513598Y-78400283I45315J-21131D01*
G01*
G37*
G36*
G01*
X169303469Y-65983866D02*
X170391038Y-66491007D01*
G75*
G02*
X170415222Y-66557453I-21131J-45315D01*
G01*
X170034865Y-67373130D01*
G75*
G02*
X169968419Y-67397314I-45315J21131D01*
G01*
X168880850Y-66890173D01*
G75*
G02*
X168856666Y-66823727I21131J45315D01*
G01*
X169237023Y-66008050D01*
G75*
G02*
X169303469Y-65983866I45315J-21131D01*
G01*
G37*
G36*
G01*
X170698109Y-62993050D02*
X171785678Y-63500191D01*
G75*
G02*
X171809862Y-63566637I-21131J-45315D01*
G01*
X171429505Y-64382314D01*
G75*
G02*
X171363059Y-64406498I-45315J21131D01*
G01*
X170275490Y-63899357D01*
G75*
G02*
X170251306Y-63832911I21131J45315D01*
G01*
X170631663Y-63017234D01*
G75*
G02*
X170698109Y-62993050I45315J-21131D01*
G01*
G37*
G36*
G01*
X164579983Y-132549181D02*
X165351329Y-131629928D01*
G75*
G02*
X165421770Y-131623765I38302J-32139D01*
G01*
X166111210Y-132202274D01*
G75*
G02*
X166117373Y-132272715I-32139J-38302D01*
G01*
X165346027Y-133191968D01*
G75*
G02*
X165275586Y-133198131I-38302J32139D01*
G01*
X164586146Y-132619622D01*
G75*
G02*
X164579983Y-132549181I32139J38302D01*
G01*
G37*
G36*
G01*
X162052037Y-130427981D02*
X162823383Y-129508728D01*
G75*
G02*
X162893824Y-129502565I38302J-32139D01*
G01*
X163583264Y-130081074D01*
G75*
G02*
X163589427Y-130151515I-32139J-38302D01*
G01*
X162818081Y-131070768D01*
G75*
G02*
X162747640Y-131076931I-38302J32139D01*
G01*
X162058200Y-130498422D01*
G75*
G02*
X162052037Y-130427981I32139J38302D01*
G01*
G37*
G36*
G01*
X180980311Y-143050948D02*
X181963294Y-142362657D01*
G75*
G02*
X182032931Y-142374936I28679J-40958D01*
G01*
X182549150Y-143112173D01*
G75*
G02*
X182536871Y-143181810I-40958J-28679D01*
G01*
X181553888Y-143870101D01*
G75*
G02*
X181484251Y-143857822I-28679J40958D01*
G01*
X180968032Y-143120585D01*
G75*
G02*
X180980311Y-143050948I40958J28679D01*
G01*
G37*
G36*
G01*
X179087509Y-140347746D02*
X180070492Y-139659455D01*
G75*
G02*
X180140129Y-139671734I28679J-40958D01*
G01*
X180656348Y-140408971D01*
G75*
G02*
X180644069Y-140478608I-40958J-28679D01*
G01*
X179661086Y-141166899D01*
G75*
G02*
X179591449Y-141154620I-28679J40958D01*
G01*
X179075230Y-140417383D01*
G75*
G02*
X179087509Y-140347746I40958J28679D01*
G01*
G37*
D15*
X100000000Y-83000000D03*
D16*
X94920000Y-83000000D03*
X105080000Y-83000000D03*
D17*
X102540000Y-88080000D03*
X96190000Y-85540000D03*
D15*
X100000000Y-66000000D03*
D16*
X94920000Y-66000000D03*
X105080000Y-66000000D03*
D17*
X102540000Y-71080000D03*
X96190000Y-68540000D03*
D15*
X122000000Y-83000000D03*
D16*
X116997177Y-82117867D03*
X127002823Y-83882133D03*
D17*
X123619279Y-88443890D03*
X117806816Y-84839812D03*
D15*
X124952019Y-66258268D03*
D16*
X119949196Y-65376135D03*
X129954842Y-67140401D03*
D17*
X126571298Y-71702158D03*
X120758835Y-68098080D03*
D15*
X127904038Y-49516536D03*
D16*
X122901215Y-48634403D03*
X132906861Y-50398669D03*
D17*
X129523317Y-54960426D03*
X123710854Y-51356348D03*
D15*
X144403775Y-82634827D03*
D16*
X139496872Y-81320026D03*
X149310678Y-83949628D03*
D17*
X145542426Y-88199131D03*
X140066197Y-84102178D03*
D15*
X148803699Y-66214088D03*
D16*
X143896796Y-64899287D03*
X153710602Y-67528889D03*
D17*
X149942350Y-71778392D03*
X144466121Y-67681439D03*
D15*
X153203623Y-49793349D03*
D16*
X148296720Y-48478548D03*
X158110526Y-51108150D03*
D17*
X154342274Y-55357653D03*
X148866045Y-51260700D03*
D15*
X162354201Y-100644400D03*
D16*
X157750157Y-98497499D03*
X166958245Y-102791301D03*
D17*
X162509322Y-106321894D03*
X157827718Y-101336246D03*
D15*
X169538711Y-85237168D03*
D16*
X164934667Y-83090267D03*
X174142755Y-87384069D03*
D17*
X169693832Y-90914662D03*
X165012228Y-85929014D03*
D15*
X176723222Y-69829935D03*
D16*
X172119178Y-67683034D03*
X181327266Y-71976836D03*
D17*
X176878343Y-75507429D03*
X172196739Y-70521781D03*
D15*
X170215376Y-126377685D03*
D16*
X166950015Y-130269191D03*
X173480737Y-122486179D03*
D17*
X175739562Y-127697293D03*
X169712108Y-130928995D03*
D15*
X188020983Y-138548289D03*
D16*
X183859691Y-141462057D03*
X192182275Y-135634521D03*
D17*
X193015397Y-141252697D03*
X186356898Y-142814261D03*
D18*
X96300000Y-108620000D03*
X96300000Y-93380000D03*
D19*
X96300000Y-104400000D03*
X96300000Y-97600000D03*
G36*
G01*
X96900000Y-106830000D02*
X95700000Y-106830000D01*
G75*
G02*
X95650000Y-106780000I0J50000D01*
G01*
X95650000Y-106180000D01*
G75*
G02*
X95700000Y-106130000I50000J0D01*
G01*
X96900000Y-106130000D01*
G75*
G02*
X96950000Y-106180000I0J-50000D01*
G01*
X96950000Y-106780000D01*
G75*
G02*
X96900000Y-106830000I-50000J0D01*
G01*
G37*
G36*
G01*
X96900000Y-105930000D02*
X95700000Y-105930000D01*
G75*
G02*
X95650000Y-105880000I0J50000D01*
G01*
X95650000Y-105280000D01*
G75*
G02*
X95700000Y-105230000I50000J0D01*
G01*
X96900000Y-105230000D01*
G75*
G02*
X96950000Y-105280000I0J-50000D01*
G01*
X96950000Y-105880000D01*
G75*
G02*
X96900000Y-105930000I-50000J0D01*
G01*
G37*
G36*
G01*
X96900000Y-96770000D02*
X95700000Y-96770000D01*
G75*
G02*
X95650000Y-96720000I0J50000D01*
G01*
X95650000Y-96120000D01*
G75*
G02*
X95700000Y-96070000I50000J0D01*
G01*
X96900000Y-96070000D01*
G75*
G02*
X96950000Y-96120000I0J-50000D01*
G01*
X96950000Y-96720000D01*
G75*
G02*
X96900000Y-96770000I-50000J0D01*
G01*
G37*
G36*
G01*
X96900000Y-95870000D02*
X95700000Y-95870000D01*
G75*
G02*
X95650000Y-95820000I0J50000D01*
G01*
X95650000Y-95220000D01*
G75*
G02*
X95700000Y-95170000I50000J0D01*
G01*
X96900000Y-95170000D01*
G75*
G02*
X96950000Y-95220000I0J-50000D01*
G01*
X96950000Y-95820000D01*
G75*
G02*
X96900000Y-95870000I-50000J0D01*
G01*
G37*
D18*
X98840000Y-108620000D03*
X98840000Y-93380000D03*
D19*
X98840000Y-104400000D03*
X98840000Y-97600000D03*
G36*
G01*
X99440000Y-106830000D02*
X98240000Y-106830000D01*
G75*
G02*
X98190000Y-106780000I0J50000D01*
G01*
X98190000Y-106180000D01*
G75*
G02*
X98240000Y-106130000I50000J0D01*
G01*
X99440000Y-106130000D01*
G75*
G02*
X99490000Y-106180000I0J-50000D01*
G01*
X99490000Y-106780000D01*
G75*
G02*
X99440000Y-106830000I-50000J0D01*
G01*
G37*
G36*
G01*
X99440000Y-105930000D02*
X98240000Y-105930000D01*
G75*
G02*
X98190000Y-105880000I0J50000D01*
G01*
X98190000Y-105280000D01*
G75*
G02*
X98240000Y-105230000I50000J0D01*
G01*
X99440000Y-105230000D01*
G75*
G02*
X99490000Y-105280000I0J-50000D01*
G01*
X99490000Y-105880000D01*
G75*
G02*
X99440000Y-105930000I-50000J0D01*
G01*
G37*
G36*
G01*
X99440000Y-96770000D02*
X98240000Y-96770000D01*
G75*
G02*
X98190000Y-96720000I0J50000D01*
G01*
X98190000Y-96120000D01*
G75*
G02*
X98240000Y-96070000I50000J0D01*
G01*
X99440000Y-96070000D01*
G75*
G02*
X99490000Y-96120000I0J-50000D01*
G01*
X99490000Y-96720000D01*
G75*
G02*
X99440000Y-96770000I-50000J0D01*
G01*
G37*
G36*
G01*
X99440000Y-95870000D02*
X98240000Y-95870000D01*
G75*
G02*
X98190000Y-95820000I0J50000D01*
G01*
X98190000Y-95220000D01*
G75*
G02*
X98240000Y-95170000I50000J0D01*
G01*
X99440000Y-95170000D01*
G75*
G02*
X99490000Y-95220000I0J-50000D01*
G01*
X99490000Y-95820000D01*
G75*
G02*
X99440000Y-95870000I-50000J0D01*
G01*
G37*
D18*
X101380000Y-108620000D03*
X101380000Y-93380000D03*
D19*
X101380000Y-104400000D03*
X101380000Y-97600000D03*
G36*
G01*
X101980000Y-106830000D02*
X100780000Y-106830000D01*
G75*
G02*
X100730000Y-106780000I0J50000D01*
G01*
X100730000Y-106180000D01*
G75*
G02*
X100780000Y-106130000I50000J0D01*
G01*
X101980000Y-106130000D01*
G75*
G02*
X102030000Y-106180000I0J-50000D01*
G01*
X102030000Y-106780000D01*
G75*
G02*
X101980000Y-106830000I-50000J0D01*
G01*
G37*
G36*
G01*
X101980000Y-105930000D02*
X100780000Y-105930000D01*
G75*
G02*
X100730000Y-105880000I0J50000D01*
G01*
X100730000Y-105280000D01*
G75*
G02*
X100780000Y-105230000I50000J0D01*
G01*
X101980000Y-105230000D01*
G75*
G02*
X102030000Y-105280000I0J-50000D01*
G01*
X102030000Y-105880000D01*
G75*
G02*
X101980000Y-105930000I-50000J0D01*
G01*
G37*
G36*
G01*
X101980000Y-96770000D02*
X100780000Y-96770000D01*
G75*
G02*
X100730000Y-96720000I0J50000D01*
G01*
X100730000Y-96120000D01*
G75*
G02*
X100780000Y-96070000I50000J0D01*
G01*
X101980000Y-96070000D01*
G75*
G02*
X102030000Y-96120000I0J-50000D01*
G01*
X102030000Y-96720000D01*
G75*
G02*
X101980000Y-96770000I-50000J0D01*
G01*
G37*
G36*
G01*
X101980000Y-95870000D02*
X100780000Y-95870000D01*
G75*
G02*
X100730000Y-95820000I0J50000D01*
G01*
X100730000Y-95220000D01*
G75*
G02*
X100780000Y-95170000I50000J0D01*
G01*
X101980000Y-95170000D01*
G75*
G02*
X102030000Y-95220000I0J-50000D01*
G01*
X102030000Y-95820000D01*
G75*
G02*
X101980000Y-95870000I-50000J0D01*
G01*
G37*
D18*
X103920000Y-108620000D03*
X103920000Y-93380000D03*
D19*
X103920000Y-104400000D03*
X103920000Y-97600000D03*
G36*
G01*
X104520000Y-106830000D02*
X103320000Y-106830000D01*
G75*
G02*
X103270000Y-106780000I0J50000D01*
G01*
X103270000Y-106180000D01*
G75*
G02*
X103320000Y-106130000I50000J0D01*
G01*
X104520000Y-106130000D01*
G75*
G02*
X104570000Y-106180000I0J-50000D01*
G01*
X104570000Y-106780000D01*
G75*
G02*
X104520000Y-106830000I-50000J0D01*
G01*
G37*
G36*
G01*
X104520000Y-105930000D02*
X103320000Y-105930000D01*
G75*
G02*
X103270000Y-105880000I0J50000D01*
G01*
X103270000Y-105280000D01*
G75*
G02*
X103320000Y-105230000I50000J0D01*
G01*
X104520000Y-105230000D01*
G75*
G02*
X104570000Y-105280000I0J-50000D01*
G01*
X104570000Y-105880000D01*
G75*
G02*
X104520000Y-105930000I-50000J0D01*
G01*
G37*
G36*
G01*
X104520000Y-96770000D02*
X103320000Y-96770000D01*
G75*
G02*
X103270000Y-96720000I0J50000D01*
G01*
X103270000Y-96120000D01*
G75*
G02*
X103320000Y-96070000I50000J0D01*
G01*
X104520000Y-96070000D01*
G75*
G02*
X104570000Y-96120000I0J-50000D01*
G01*
X104570000Y-96720000D01*
G75*
G02*
X104520000Y-96770000I-50000J0D01*
G01*
G37*
G36*
G01*
X104520000Y-95870000D02*
X103320000Y-95870000D01*
G75*
G02*
X103270000Y-95820000I0J50000D01*
G01*
X103270000Y-95220000D01*
G75*
G02*
X103320000Y-95170000I50000J0D01*
G01*
X104520000Y-95170000D01*
G75*
G02*
X104570000Y-95220000I0J-50000D01*
G01*
X104570000Y-95820000D01*
G75*
G02*
X104520000Y-95870000I-50000J0D01*
G01*
G37*
D18*
X106460000Y-108620000D03*
X106460000Y-93380000D03*
D19*
X106460000Y-104400000D03*
X106460000Y-97600000D03*
G36*
G01*
X107060000Y-106830000D02*
X105860000Y-106830000D01*
G75*
G02*
X105810000Y-106780000I0J50000D01*
G01*
X105810000Y-106180000D01*
G75*
G02*
X105860000Y-106130000I50000J0D01*
G01*
X107060000Y-106130000D01*
G75*
G02*
X107110000Y-106180000I0J-50000D01*
G01*
X107110000Y-106780000D01*
G75*
G02*
X107060000Y-106830000I-50000J0D01*
G01*
G37*
G36*
G01*
X107060000Y-105930000D02*
X105860000Y-105930000D01*
G75*
G02*
X105810000Y-105880000I0J50000D01*
G01*
X105810000Y-105280000D01*
G75*
G02*
X105860000Y-105230000I50000J0D01*
G01*
X107060000Y-105230000D01*
G75*
G02*
X107110000Y-105280000I0J-50000D01*
G01*
X107110000Y-105880000D01*
G75*
G02*
X107060000Y-105930000I-50000J0D01*
G01*
G37*
G36*
G01*
X107060000Y-96770000D02*
X105860000Y-96770000D01*
G75*
G02*
X105810000Y-96720000I0J50000D01*
G01*
X105810000Y-96120000D01*
G75*
G02*
X105860000Y-96070000I50000J0D01*
G01*
X107060000Y-96070000D01*
G75*
G02*
X107110000Y-96120000I0J-50000D01*
G01*
X107110000Y-96720000D01*
G75*
G02*
X107060000Y-96770000I-50000J0D01*
G01*
G37*
G36*
G01*
X107060000Y-95870000D02*
X105860000Y-95870000D01*
G75*
G02*
X105810000Y-95820000I0J50000D01*
G01*
X105810000Y-95220000D01*
G75*
G02*
X105860000Y-95170000I50000J0D01*
G01*
X107060000Y-95170000D01*
G75*
G02*
X107110000Y-95220000I0J-50000D01*
G01*
X107110000Y-95820000D01*
G75*
G02*
X107060000Y-95870000I-50000J0D01*
G01*
G37*
D18*
X109000000Y-108620000D03*
X109000000Y-93380000D03*
D19*
X109000000Y-104400000D03*
X109000000Y-97600000D03*
G36*
G01*
X109600000Y-106830000D02*
X108400000Y-106830000D01*
G75*
G02*
X108350000Y-106780000I0J50000D01*
G01*
X108350000Y-106180000D01*
G75*
G02*
X108400000Y-106130000I50000J0D01*
G01*
X109600000Y-106130000D01*
G75*
G02*
X109650000Y-106180000I0J-50000D01*
G01*
X109650000Y-106780000D01*
G75*
G02*
X109600000Y-106830000I-50000J0D01*
G01*
G37*
G36*
G01*
X109600000Y-105930000D02*
X108400000Y-105930000D01*
G75*
G02*
X108350000Y-105880000I0J50000D01*
G01*
X108350000Y-105280000D01*
G75*
G02*
X108400000Y-105230000I50000J0D01*
G01*
X109600000Y-105230000D01*
G75*
G02*
X109650000Y-105280000I0J-50000D01*
G01*
X109650000Y-105880000D01*
G75*
G02*
X109600000Y-105930000I-50000J0D01*
G01*
G37*
G36*
G01*
X109600000Y-96770000D02*
X108400000Y-96770000D01*
G75*
G02*
X108350000Y-96720000I0J50000D01*
G01*
X108350000Y-96120000D01*
G75*
G02*
X108400000Y-96070000I50000J0D01*
G01*
X109600000Y-96070000D01*
G75*
G02*
X109650000Y-96120000I0J-50000D01*
G01*
X109650000Y-96720000D01*
G75*
G02*
X109600000Y-96770000I-50000J0D01*
G01*
G37*
G36*
G01*
X109600000Y-95870000D02*
X108400000Y-95870000D01*
G75*
G02*
X108350000Y-95820000I0J50000D01*
G01*
X108350000Y-95220000D01*
G75*
G02*
X108400000Y-95170000I50000J0D01*
G01*
X109600000Y-95170000D01*
G75*
G02*
X109650000Y-95220000I0J-50000D01*
G01*
X109650000Y-95820000D01*
G75*
G02*
X109600000Y-95870000I-50000J0D01*
G01*
G37*
D18*
X111540000Y-108620000D03*
X111540000Y-93380000D03*
D19*
X111540000Y-104400000D03*
X111540000Y-97600000D03*
G36*
G01*
X112140000Y-106830000D02*
X110940000Y-106830000D01*
G75*
G02*
X110890000Y-106780000I0J50000D01*
G01*
X110890000Y-106180000D01*
G75*
G02*
X110940000Y-106130000I50000J0D01*
G01*
X112140000Y-106130000D01*
G75*
G02*
X112190000Y-106180000I0J-50000D01*
G01*
X112190000Y-106780000D01*
G75*
G02*
X112140000Y-106830000I-50000J0D01*
G01*
G37*
G36*
G01*
X112140000Y-105930000D02*
X110940000Y-105930000D01*
G75*
G02*
X110890000Y-105880000I0J50000D01*
G01*
X110890000Y-105280000D01*
G75*
G02*
X110940000Y-105230000I50000J0D01*
G01*
X112140000Y-105230000D01*
G75*
G02*
X112190000Y-105280000I0J-50000D01*
G01*
X112190000Y-105880000D01*
G75*
G02*
X112140000Y-105930000I-50000J0D01*
G01*
G37*
G36*
G01*
X112140000Y-96770000D02*
X110940000Y-96770000D01*
G75*
G02*
X110890000Y-96720000I0J50000D01*
G01*
X110890000Y-96120000D01*
G75*
G02*
X110940000Y-96070000I50000J0D01*
G01*
X112140000Y-96070000D01*
G75*
G02*
X112190000Y-96120000I0J-50000D01*
G01*
X112190000Y-96720000D01*
G75*
G02*
X112140000Y-96770000I-50000J0D01*
G01*
G37*
G36*
G01*
X112140000Y-95870000D02*
X110940000Y-95870000D01*
G75*
G02*
X110890000Y-95820000I0J50000D01*
G01*
X110890000Y-95220000D01*
G75*
G02*
X110940000Y-95170000I50000J0D01*
G01*
X112140000Y-95170000D01*
G75*
G02*
X112190000Y-95220000I0J-50000D01*
G01*
X112190000Y-95820000D01*
G75*
G02*
X112140000Y-95870000I-50000J0D01*
G01*
G37*
D18*
X114080000Y-108620000D03*
X114080000Y-93380000D03*
D19*
X114080000Y-104400000D03*
X114080000Y-97600000D03*
G36*
G01*
X114680000Y-106830000D02*
X113480000Y-106830000D01*
G75*
G02*
X113430000Y-106780000I0J50000D01*
G01*
X113430000Y-106180000D01*
G75*
G02*
X113480000Y-106130000I50000J0D01*
G01*
X114680000Y-106130000D01*
G75*
G02*
X114730000Y-106180000I0J-50000D01*
G01*
X114730000Y-106780000D01*
G75*
G02*
X114680000Y-106830000I-50000J0D01*
G01*
G37*
G36*
G01*
X114680000Y-105930000D02*
X113480000Y-105930000D01*
G75*
G02*
X113430000Y-105880000I0J50000D01*
G01*
X113430000Y-105280000D01*
G75*
G02*
X113480000Y-105230000I50000J0D01*
G01*
X114680000Y-105230000D01*
G75*
G02*
X114730000Y-105280000I0J-50000D01*
G01*
X114730000Y-105880000D01*
G75*
G02*
X114680000Y-105930000I-50000J0D01*
G01*
G37*
G36*
G01*
X114680000Y-96770000D02*
X113480000Y-96770000D01*
G75*
G02*
X113430000Y-96720000I0J50000D01*
G01*
X113430000Y-96120000D01*
G75*
G02*
X113480000Y-96070000I50000J0D01*
G01*
X114680000Y-96070000D01*
G75*
G02*
X114730000Y-96120000I0J-50000D01*
G01*
X114730000Y-96720000D01*
G75*
G02*
X114680000Y-96770000I-50000J0D01*
G01*
G37*
G36*
G01*
X114680000Y-95870000D02*
X113480000Y-95870000D01*
G75*
G02*
X113430000Y-95820000I0J50000D01*
G01*
X113430000Y-95220000D01*
G75*
G02*
X113480000Y-95170000I50000J0D01*
G01*
X114680000Y-95170000D01*
G75*
G02*
X114730000Y-95220000I0J-50000D01*
G01*
X114730000Y-95820000D01*
G75*
G02*
X114680000Y-95870000I-50000J0D01*
G01*
G37*
D18*
X116620000Y-108620000D03*
X116620000Y-93380000D03*
D19*
X116620000Y-104400000D03*
X116620000Y-97600000D03*
G36*
G01*
X117220000Y-106830000D02*
X116020000Y-106830000D01*
G75*
G02*
X115970000Y-106780000I0J50000D01*
G01*
X115970000Y-106180000D01*
G75*
G02*
X116020000Y-106130000I50000J0D01*
G01*
X117220000Y-106130000D01*
G75*
G02*
X117270000Y-106180000I0J-50000D01*
G01*
X117270000Y-106780000D01*
G75*
G02*
X117220000Y-106830000I-50000J0D01*
G01*
G37*
G36*
G01*
X117220000Y-105930000D02*
X116020000Y-105930000D01*
G75*
G02*
X115970000Y-105880000I0J50000D01*
G01*
X115970000Y-105280000D01*
G75*
G02*
X116020000Y-105230000I50000J0D01*
G01*
X117220000Y-105230000D01*
G75*
G02*
X117270000Y-105280000I0J-50000D01*
G01*
X117270000Y-105880000D01*
G75*
G02*
X117220000Y-105930000I-50000J0D01*
G01*
G37*
G36*
G01*
X117220000Y-96770000D02*
X116020000Y-96770000D01*
G75*
G02*
X115970000Y-96720000I0J50000D01*
G01*
X115970000Y-96120000D01*
G75*
G02*
X116020000Y-96070000I50000J0D01*
G01*
X117220000Y-96070000D01*
G75*
G02*
X117270000Y-96120000I0J-50000D01*
G01*
X117270000Y-96720000D01*
G75*
G02*
X117220000Y-96770000I-50000J0D01*
G01*
G37*
G36*
G01*
X117220000Y-95870000D02*
X116020000Y-95870000D01*
G75*
G02*
X115970000Y-95820000I0J50000D01*
G01*
X115970000Y-95220000D01*
G75*
G02*
X116020000Y-95170000I50000J0D01*
G01*
X117220000Y-95170000D01*
G75*
G02*
X117270000Y-95220000I0J-50000D01*
G01*
X117270000Y-95820000D01*
G75*
G02*
X117220000Y-95870000I-50000J0D01*
G01*
G37*
D18*
X119160000Y-108620000D03*
X119160000Y-93380000D03*
D19*
X119160000Y-104400000D03*
X119160000Y-97600000D03*
G36*
G01*
X119760000Y-106830000D02*
X118560000Y-106830000D01*
G75*
G02*
X118510000Y-106780000I0J50000D01*
G01*
X118510000Y-106180000D01*
G75*
G02*
X118560000Y-106130000I50000J0D01*
G01*
X119760000Y-106130000D01*
G75*
G02*
X119810000Y-106180000I0J-50000D01*
G01*
X119810000Y-106780000D01*
G75*
G02*
X119760000Y-106830000I-50000J0D01*
G01*
G37*
G36*
G01*
X119760000Y-105930000D02*
X118560000Y-105930000D01*
G75*
G02*
X118510000Y-105880000I0J50000D01*
G01*
X118510000Y-105280000D01*
G75*
G02*
X118560000Y-105230000I50000J0D01*
G01*
X119760000Y-105230000D01*
G75*
G02*
X119810000Y-105280000I0J-50000D01*
G01*
X119810000Y-105880000D01*
G75*
G02*
X119760000Y-105930000I-50000J0D01*
G01*
G37*
G36*
G01*
X119760000Y-96770000D02*
X118560000Y-96770000D01*
G75*
G02*
X118510000Y-96720000I0J50000D01*
G01*
X118510000Y-96120000D01*
G75*
G02*
X118560000Y-96070000I50000J0D01*
G01*
X119760000Y-96070000D01*
G75*
G02*
X119810000Y-96120000I0J-50000D01*
G01*
X119810000Y-96720000D01*
G75*
G02*
X119760000Y-96770000I-50000J0D01*
G01*
G37*
G36*
G01*
X119760000Y-95870000D02*
X118560000Y-95870000D01*
G75*
G02*
X118510000Y-95820000I0J50000D01*
G01*
X118510000Y-95220000D01*
G75*
G02*
X118560000Y-95170000I50000J0D01*
G01*
X119760000Y-95170000D01*
G75*
G02*
X119810000Y-95220000I0J-50000D01*
G01*
X119810000Y-95820000D01*
G75*
G02*
X119760000Y-95870000I-50000J0D01*
G01*
G37*
D18*
X121700000Y-108620000D03*
X121700000Y-93380000D03*
D19*
X121700000Y-104400000D03*
X121700000Y-97600000D03*
G36*
G01*
X122300000Y-106830000D02*
X121100000Y-106830000D01*
G75*
G02*
X121050000Y-106780000I0J50000D01*
G01*
X121050000Y-106180000D01*
G75*
G02*
X121100000Y-106130000I50000J0D01*
G01*
X122300000Y-106130000D01*
G75*
G02*
X122350000Y-106180000I0J-50000D01*
G01*
X122350000Y-106780000D01*
G75*
G02*
X122300000Y-106830000I-50000J0D01*
G01*
G37*
G36*
G01*
X122300000Y-105930000D02*
X121100000Y-105930000D01*
G75*
G02*
X121050000Y-105880000I0J50000D01*
G01*
X121050000Y-105280000D01*
G75*
G02*
X121100000Y-105230000I50000J0D01*
G01*
X122300000Y-105230000D01*
G75*
G02*
X122350000Y-105280000I0J-50000D01*
G01*
X122350000Y-105880000D01*
G75*
G02*
X122300000Y-105930000I-50000J0D01*
G01*
G37*
G36*
G01*
X122300000Y-96770000D02*
X121100000Y-96770000D01*
G75*
G02*
X121050000Y-96720000I0J50000D01*
G01*
X121050000Y-96120000D01*
G75*
G02*
X121100000Y-96070000I50000J0D01*
G01*
X122300000Y-96070000D01*
G75*
G02*
X122350000Y-96120000I0J-50000D01*
G01*
X122350000Y-96720000D01*
G75*
G02*
X122300000Y-96770000I-50000J0D01*
G01*
G37*
G36*
G01*
X122300000Y-95870000D02*
X121100000Y-95870000D01*
G75*
G02*
X121050000Y-95820000I0J50000D01*
G01*
X121050000Y-95220000D01*
G75*
G02*
X121100000Y-95170000I50000J0D01*
G01*
X122300000Y-95170000D01*
G75*
G02*
X122350000Y-95220000I0J-50000D01*
G01*
X122350000Y-95820000D01*
G75*
G02*
X122300000Y-95870000I-50000J0D01*
G01*
G37*
D18*
X124240000Y-108620000D03*
X124240000Y-93380000D03*
D19*
X124240000Y-104400000D03*
X124240000Y-97600000D03*
G36*
G01*
X124840000Y-106830000D02*
X123640000Y-106830000D01*
G75*
G02*
X123590000Y-106780000I0J50000D01*
G01*
X123590000Y-106180000D01*
G75*
G02*
X123640000Y-106130000I50000J0D01*
G01*
X124840000Y-106130000D01*
G75*
G02*
X124890000Y-106180000I0J-50000D01*
G01*
X124890000Y-106780000D01*
G75*
G02*
X124840000Y-106830000I-50000J0D01*
G01*
G37*
G36*
G01*
X124840000Y-105930000D02*
X123640000Y-105930000D01*
G75*
G02*
X123590000Y-105880000I0J50000D01*
G01*
X123590000Y-105280000D01*
G75*
G02*
X123640000Y-105230000I50000J0D01*
G01*
X124840000Y-105230000D01*
G75*
G02*
X124890000Y-105280000I0J-50000D01*
G01*
X124890000Y-105880000D01*
G75*
G02*
X124840000Y-105930000I-50000J0D01*
G01*
G37*
G36*
G01*
X124840000Y-96770000D02*
X123640000Y-96770000D01*
G75*
G02*
X123590000Y-96720000I0J50000D01*
G01*
X123590000Y-96120000D01*
G75*
G02*
X123640000Y-96070000I50000J0D01*
G01*
X124840000Y-96070000D01*
G75*
G02*
X124890000Y-96120000I0J-50000D01*
G01*
X124890000Y-96720000D01*
G75*
G02*
X124840000Y-96770000I-50000J0D01*
G01*
G37*
G36*
G01*
X124840000Y-95870000D02*
X123640000Y-95870000D01*
G75*
G02*
X123590000Y-95820000I0J50000D01*
G01*
X123590000Y-95220000D01*
G75*
G02*
X123640000Y-95170000I50000J0D01*
G01*
X124840000Y-95170000D01*
G75*
G02*
X124890000Y-95220000I0J-50000D01*
G01*
X124890000Y-95820000D01*
G75*
G02*
X124840000Y-95870000I-50000J0D01*
G01*
G37*
G36*
G01*
X127100000Y-96520000D02*
X127100000Y-95320000D01*
G75*
G02*
X127150000Y-95270000I50000J0D01*
G01*
X127750000Y-95270000D01*
G75*
G02*
X127800000Y-95320000I0J-50000D01*
G01*
X127800000Y-96520000D01*
G75*
G02*
X127750000Y-96570000I-50000J0D01*
G01*
X127150000Y-96570000D01*
G75*
G02*
X127100000Y-96520000I0J50000D01*
G01*
G37*
G36*
G01*
X127100000Y-99060000D02*
X127100000Y-97860000D01*
G75*
G02*
X127150000Y-97810000I50000J0D01*
G01*
X127750000Y-97810000D01*
G75*
G02*
X127800000Y-97860000I0J-50000D01*
G01*
X127800000Y-99060000D01*
G75*
G02*
X127750000Y-99110000I-50000J0D01*
G01*
X127150000Y-99110000D01*
G75*
G02*
X127100000Y-99060000I0J50000D01*
G01*
G37*
G36*
G01*
X127100000Y-104140000D02*
X127100000Y-102940000D01*
G75*
G02*
X127150000Y-102890000I50000J0D01*
G01*
X127750000Y-102890000D01*
G75*
G02*
X127800000Y-102940000I0J-50000D01*
G01*
X127800000Y-104140000D01*
G75*
G02*
X127750000Y-104190000I-50000J0D01*
G01*
X127150000Y-104190000D01*
G75*
G02*
X127100000Y-104140000I0J50000D01*
G01*
G37*
G36*
G01*
X127100000Y-106680000D02*
X127100000Y-105480000D01*
G75*
G02*
X127150000Y-105430000I50000J0D01*
G01*
X127750000Y-105430000D01*
G75*
G02*
X127800000Y-105480000I0J-50000D01*
G01*
X127800000Y-106680000D01*
G75*
G02*
X127750000Y-106730000I-50000J0D01*
G01*
X127150000Y-106730000D01*
G75*
G02*
X127100000Y-106680000I0J50000D01*
G01*
G37*
G36*
G01*
X128000000Y-96520000D02*
X128000000Y-95320000D01*
G75*
G02*
X128050000Y-95270000I50000J0D01*
G01*
X128650000Y-95270000D01*
G75*
G02*
X128700000Y-95320000I0J-50000D01*
G01*
X128700000Y-96520000D01*
G75*
G02*
X128650000Y-96570000I-50000J0D01*
G01*
X128050000Y-96570000D01*
G75*
G02*
X128000000Y-96520000I0J50000D01*
G01*
G37*
G36*
G01*
X128000000Y-99060000D02*
X128000000Y-97860000D01*
G75*
G02*
X128050000Y-97810000I50000J0D01*
G01*
X128650000Y-97810000D01*
G75*
G02*
X128700000Y-97860000I0J-50000D01*
G01*
X128700000Y-99060000D01*
G75*
G02*
X128650000Y-99110000I-50000J0D01*
G01*
X128050000Y-99110000D01*
G75*
G02*
X128000000Y-99060000I0J50000D01*
G01*
G37*
G36*
G01*
X128000000Y-104140000D02*
X128000000Y-102940000D01*
G75*
G02*
X128050000Y-102890000I50000J0D01*
G01*
X128650000Y-102890000D01*
G75*
G02*
X128700000Y-102940000I0J-50000D01*
G01*
X128700000Y-104140000D01*
G75*
G02*
X128650000Y-104190000I-50000J0D01*
G01*
X128050000Y-104190000D01*
G75*
G02*
X128000000Y-104140000I0J50000D01*
G01*
G37*
G36*
G01*
X128000000Y-106680000D02*
X128000000Y-105480000D01*
G75*
G02*
X128050000Y-105430000I50000J0D01*
G01*
X128650000Y-105430000D01*
G75*
G02*
X128700000Y-105480000I0J-50000D01*
G01*
X128700000Y-106680000D01*
G75*
G02*
X128650000Y-106730000I-50000J0D01*
G01*
X128050000Y-106730000D01*
G75*
G02*
X128000000Y-106680000I0J50000D01*
G01*
G37*
D20*
X125700000Y-106080000D03*
X125700000Y-103540000D03*
X125700000Y-101000000D03*
X125700000Y-98460000D03*
D18*
X125700000Y-95920000D03*
G36*
G01*
X137686707Y-122998518D02*
X137413091Y-123750272D01*
G75*
G02*
X137349005Y-123780156I-46985J17101D01*
G01*
X136409313Y-123438136D01*
G75*
G02*
X136379429Y-123374050I17101J46985D01*
G01*
X136653045Y-122622296D01*
G75*
G02*
X136717131Y-122592412I46985J-17101D01*
G01*
X137656823Y-122934432D01*
G75*
G02*
X137686707Y-122998518I-17101J-46985D01*
G01*
G37*
G36*
G01*
X136930842Y-125075239D02*
X136657226Y-125826993D01*
G75*
G02*
X136593140Y-125856877I-46985J17101D01*
G01*
X135653448Y-125514857D01*
G75*
G02*
X135623564Y-125450771I17101J46985D01*
G01*
X135897180Y-124699017D01*
G75*
G02*
X135961266Y-124669133I46985J-17101D01*
G01*
X136900958Y-125011153D01*
G75*
G02*
X136930842Y-125075239I-17101J-46985D01*
G01*
G37*
G36*
G01*
X130826951Y-120501771D02*
X130553335Y-121253525D01*
G75*
G02*
X130489249Y-121283409I-46985J17101D01*
G01*
X129549557Y-120941389D01*
G75*
G02*
X129519673Y-120877303I17101J46985D01*
G01*
X129793289Y-120125549D01*
G75*
G02*
X129857375Y-120095665I46985J-17101D01*
G01*
X130797067Y-120437685D01*
G75*
G02*
X130826951Y-120501771I-17101J-46985D01*
G01*
G37*
G36*
G01*
X130071086Y-122578492D02*
X129797470Y-123330246D01*
G75*
G02*
X129733384Y-123360130I-46985J17101D01*
G01*
X128793692Y-123018110D01*
G75*
G02*
X128763808Y-122954024I17101J46985D01*
G01*
X129037424Y-122202270D01*
G75*
G02*
X129101510Y-122172386I46985J-17101D01*
G01*
X130041202Y-122514406D01*
G75*
G02*
X130071086Y-122578492I-17101J-46985D01*
G01*
G37*
G36*
G01*
X136572204Y-121528695D02*
X136059173Y-122938234D01*
G75*
G02*
X135995087Y-122968118I-46985J17101D01*
G01*
X135337302Y-122728703D01*
G75*
G02*
X135307418Y-122664617I17101J46985D01*
G01*
X135820449Y-121255078D01*
G75*
G02*
X135884535Y-121225194I46985J-17101D01*
G01*
X136542320Y-121464609D01*
G75*
G02*
X136572204Y-121528695I-17101J-46985D01*
G01*
G37*
G36*
G01*
X133753126Y-120502634D02*
X133240095Y-121912173D01*
G75*
G02*
X133176009Y-121942057I-46985J17101D01*
G01*
X132518224Y-121702642D01*
G75*
G02*
X132488340Y-121638556I17101J46985D01*
G01*
X133001371Y-120229017D01*
G75*
G02*
X133065457Y-120199133I46985J-17101D01*
G01*
X133723242Y-120438548D01*
G75*
G02*
X133753126Y-120502634I-17101J-46985D01*
G01*
G37*
G36*
G01*
X132343588Y-119989604D02*
X131830557Y-121399143D01*
G75*
G02*
X131766471Y-121429027I-46985J17101D01*
G01*
X131108686Y-121189612D01*
G75*
G02*
X131078802Y-121125526I17101J46985D01*
G01*
X131591833Y-119715987D01*
G75*
G02*
X131655919Y-119686103I46985J-17101D01*
G01*
X132313704Y-119925518D01*
G75*
G02*
X132343588Y-119989604I-17101J-46985D01*
G01*
G37*
D21*
X134633086Y-123494000D03*
X131814009Y-122467939D03*
D22*
X98013546Y-114685944D03*
X98725298Y-112029648D03*
G36*
G01*
X99758683Y-115127670D02*
X100017502Y-114161744D01*
G75*
G02*
X100078739Y-114126389I48296J-12941D01*
G01*
X101575924Y-114527559D01*
G75*
G02*
X101611279Y-114588796I-12941J-48296D01*
G01*
X101352460Y-115554722D01*
G75*
G02*
X101291223Y-115590077I-48296J12941D01*
G01*
X99794038Y-115188907D01*
G75*
G02*
X99758683Y-115127670I12941J48296D01*
G01*
G37*
G36*
G01*
X100198675Y-113485596D02*
X100457494Y-112519670D01*
G75*
G02*
X100518731Y-112484315I48296J-12941D01*
G01*
X102015916Y-112885485D01*
G75*
G02*
X102051271Y-112946722I-12941J-48296D01*
G01*
X101792452Y-113912648D01*
G75*
G02*
X101731215Y-113948003I-48296J12941D01*
G01*
X100234030Y-113546833D01*
G75*
G02*
X100198675Y-113485596I12941J48296D01*
G01*
G37*
G36*
G01*
X94687573Y-113768870D02*
X94946392Y-112802944D01*
G75*
G02*
X95007629Y-112767589I48296J-12941D01*
G01*
X96504814Y-113168759D01*
G75*
G02*
X96540169Y-113229996I-12941J-48296D01*
G01*
X96281350Y-114195922D01*
G75*
G02*
X96220113Y-114231277I-48296J12941D01*
G01*
X94722928Y-113830107D01*
G75*
G02*
X94687573Y-113768870I12941J48296D01*
G01*
G37*
G36*
G01*
X95127565Y-112126796D02*
X95386384Y-111160870D01*
G75*
G02*
X95447621Y-111125515I48296J-12941D01*
G01*
X96944806Y-111526685D01*
G75*
G02*
X96980161Y-111587922I-12941J-48296D01*
G01*
X96721342Y-112553848D01*
G75*
G02*
X96660105Y-112589203I-48296J12941D01*
G01*
X95162920Y-112188033D01*
G75*
G02*
X95127565Y-112126796I12941J48296D01*
G01*
G37*
G36*
G01*
X127895554Y-102977251D02*
X127353910Y-102881745D01*
G75*
G02*
X126826656Y-102128749I112871J640125D01*
G01*
X126826656Y-102128749D01*
G75*
G02*
X127579652Y-101601495I640125J-112871D01*
G01*
X128121296Y-101697001D01*
G75*
G02*
X128648550Y-102449997I-112871J-640125D01*
G01*
X128648550Y-102449997D01*
G75*
G02*
X127895554Y-102977251I-640125J112871D01*
G01*
G37*
G36*
G01*
X128242850Y-101007635D02*
X127701206Y-100912129D01*
G75*
G02*
X127173952Y-100159133I112871J640125D01*
G01*
X127173952Y-100159133D01*
G75*
G02*
X127926948Y-99631879I640125J-112871D01*
G01*
X128468592Y-99727385D01*
G75*
G02*
X128995846Y-100480381I-112871J-640125D01*
G01*
X128995846Y-100480381D01*
G75*
G02*
X128242850Y-101007635I-640125J112871D01*
G01*
G37*
G36*
X129932859Y-102712355D02*
G01*
X129237785Y-103199051D01*
X129200424Y-103207334D01*
X129003463Y-103172605D01*
X128971188Y-103152043D01*
X128962905Y-103114682D01*
X129171282Y-101932913D01*
X129191844Y-101900638D01*
X129229205Y-101892355D01*
X129426167Y-101927084D01*
X129458442Y-101947646D01*
X129945137Y-102642720D01*
X129953420Y-102680081D01*
X129932859Y-102712355D01*
G37*
G36*
X130280155Y-100742740D02*
G01*
X129585081Y-101229436D01*
X129547720Y-101237719D01*
X129350759Y-101202990D01*
X129318484Y-101182428D01*
X129310201Y-101145067D01*
X129518578Y-99963298D01*
X129539140Y-99931023D01*
X129576501Y-99922740D01*
X129773463Y-99957469D01*
X129805738Y-99978031D01*
X130292433Y-100673105D01*
X130300716Y-100710466D01*
X130280155Y-100742740D01*
G37*
G36*
X131028810Y-101484005D02*
G01*
X130991449Y-101492288D01*
X129760439Y-101275228D01*
X129728164Y-101254666D01*
X129719881Y-101217305D01*
X129740443Y-101185030D01*
X130394559Y-100727013D01*
X129936542Y-100072897D01*
X129928259Y-100035536D01*
X129948821Y-100003261D01*
X129986182Y-99994978D01*
X131217191Y-100212038D01*
X131249466Y-100232600D01*
X131257749Y-100269961D01*
X131049371Y-101451730D01*
X131028810Y-101484005D01*
G37*
G36*
X130681513Y-103453620D02*
G01*
X130644152Y-103461903D01*
X129413142Y-103244843D01*
X129380867Y-103224281D01*
X129372584Y-103186920D01*
X129393146Y-103154645D01*
X130047262Y-102696628D01*
X129589245Y-102042512D01*
X129580962Y-102005151D01*
X129601524Y-101972876D01*
X129638885Y-101964593D01*
X130869894Y-102181653D01*
X130902169Y-102202215D01*
X130910452Y-102239576D01*
X130702074Y-103421345D01*
X130681513Y-103453620D01*
G37*
%LPD*%
M02*
