G04 #@! TF.GenerationSoftware,KiCad,Pcbnew,8.0.8+1*
G04 #@! TF.CreationDate,2025-05-19T02:25:48+00:00*
G04 #@! TF.ProjectId,mearchlar_wireless,6d656172-6368-46c6-9172-5f776972656c,0.2*
G04 #@! TF.SameCoordinates,Original*
G04 #@! TF.FileFunction,Legend,Top*
G04 #@! TF.FilePolarity,Positive*
%FSLAX46Y46*%
G04 Gerber Fmt 4.6, Leading zero omitted, Abs format (unit mm)*
G04 Created by KiCad (PCBNEW 8.0.8+1) date 2025-05-19 02:25:48*
%MOMM*%
%LPD*%
G01*
G04 APERTURE LIST*
%ADD10C,0.150000*%
%ADD11C,0.100000*%
%ADD12C,0.120000*%
%ADD13C,2.300000*%
%ADD14C,4.400000*%
%ADD15C,4.200000*%
%ADD16C,2.000000*%
%ADD17C,3.100000*%
%ADD18C,1.800000*%
%ADD19C,0.900000*%
%ADD20O,1.800000X1.800000*%
%ADD21C,1.000000*%
%ADD22C,0.850000*%
G04 APERTURE END LIST*
D10*
X119021804Y-73290146D02*
X118897770Y-73993580D01*
X118897770Y-73993580D02*
X118826068Y-74125998D01*
X118826068Y-74125998D02*
X118715738Y-74203251D01*
X118715738Y-74203251D02*
X118566783Y-74225340D01*
X118566783Y-74225340D02*
X118472991Y-74208802D01*
X119786069Y-74440333D02*
X119317113Y-74357643D01*
X119317113Y-74357643D02*
X119490761Y-73372835D01*
X120693623Y-74503652D02*
X120638459Y-74542278D01*
X120638459Y-74542278D02*
X120489503Y-74564367D01*
X120489503Y-74564367D02*
X120395712Y-74547829D01*
X120395712Y-74547829D02*
X120263294Y-74476127D01*
X120263294Y-74476127D02*
X120186041Y-74365798D01*
X120186041Y-74365798D02*
X120155683Y-74263737D01*
X120155683Y-74263737D02*
X120141863Y-74067886D01*
X120141863Y-74067886D02*
X120166670Y-73927199D01*
X120166670Y-73927199D02*
X120246641Y-73747886D01*
X120246641Y-73747886D02*
X120310075Y-73662364D01*
X120310075Y-73662364D02*
X120420404Y-73585110D01*
X120420404Y-73585110D02*
X120569360Y-73563022D01*
X120569360Y-73563022D02*
X120663151Y-73579559D01*
X120663151Y-73579559D02*
X120795569Y-73651262D01*
X120795569Y-73651262D02*
X120834196Y-73706426D01*
X121554168Y-73736670D02*
X121430133Y-74440104D01*
X121430133Y-74440104D02*
X121358431Y-74572522D01*
X121358431Y-74572522D02*
X121248102Y-74649775D01*
X121248102Y-74649775D02*
X121099146Y-74671864D01*
X121099146Y-74671864D02*
X121005355Y-74655326D01*
X122318432Y-74886857D02*
X121849476Y-74804167D01*
X121849476Y-74804167D02*
X122023124Y-73819359D01*
X123225986Y-74950176D02*
X123170822Y-74988802D01*
X123170822Y-74988802D02*
X123021866Y-75010891D01*
X123021866Y-75010891D02*
X122928075Y-74994353D01*
X122928075Y-74994353D02*
X122795657Y-74922651D01*
X122795657Y-74922651D02*
X122718404Y-74812322D01*
X122718404Y-74812322D02*
X122688046Y-74710261D01*
X122688046Y-74710261D02*
X122674226Y-74514410D01*
X122674226Y-74514410D02*
X122699033Y-74373723D01*
X122699033Y-74373723D02*
X122779005Y-74194410D01*
X122779005Y-74194410D02*
X122842438Y-74108887D01*
X122842438Y-74108887D02*
X122952767Y-74031634D01*
X122952767Y-74031634D02*
X123101723Y-74009545D01*
X123101723Y-74009545D02*
X123195514Y-74026083D01*
X123195514Y-74026083D02*
X123327932Y-74097786D01*
X123327932Y-74097786D02*
X123366559Y-74152950D01*
X124086531Y-74183194D02*
X123962496Y-74886628D01*
X123962496Y-74886628D02*
X123890794Y-75019046D01*
X123890794Y-75019046D02*
X123780465Y-75096299D01*
X123780465Y-75096299D02*
X123631509Y-75118388D01*
X123631509Y-75118388D02*
X123537718Y-75101850D01*
X124850795Y-75333381D02*
X124381839Y-75250691D01*
X124381839Y-75250691D02*
X124555487Y-74265883D01*
X125758350Y-75396700D02*
X125703185Y-75435326D01*
X125703185Y-75435326D02*
X125554229Y-75457415D01*
X125554229Y-75457415D02*
X125460438Y-75440877D01*
X125460438Y-75440877D02*
X125328020Y-75369175D01*
X125328020Y-75369175D02*
X125250767Y-75258846D01*
X125250767Y-75258846D02*
X125220409Y-75156785D01*
X125220409Y-75156785D02*
X125206590Y-74960934D01*
X125206590Y-74960934D02*
X125231396Y-74820247D01*
X125231396Y-74820247D02*
X125311368Y-74640934D01*
X125311368Y-74640934D02*
X125374801Y-74555411D01*
X125374801Y-74555411D02*
X125485131Y-74478158D01*
X125485131Y-74478158D02*
X125634086Y-74456069D01*
X125634086Y-74456069D02*
X125727878Y-74472607D01*
X125727878Y-74472607D02*
X125860295Y-74544310D01*
X125860295Y-74544310D02*
X125898922Y-74599474D01*
X126618894Y-74629718D02*
X126494860Y-75333152D01*
X126494860Y-75333152D02*
X126423157Y-75465570D01*
X126423157Y-75465570D02*
X126312828Y-75542823D01*
X126312828Y-75542823D02*
X126163872Y-75564912D01*
X126163872Y-75564912D02*
X126070081Y-75548374D01*
X127383158Y-75779905D02*
X126914202Y-75697215D01*
X126914202Y-75697215D02*
X127087850Y-74712407D01*
X128290713Y-75843224D02*
X128235548Y-75881850D01*
X128235548Y-75881850D02*
X128086593Y-75903939D01*
X128086593Y-75903939D02*
X127992801Y-75887401D01*
X127992801Y-75887401D02*
X127860383Y-75815699D01*
X127860383Y-75815699D02*
X127783130Y-75705370D01*
X127783130Y-75705370D02*
X127752773Y-75603309D01*
X127752773Y-75603309D02*
X127738953Y-75407458D01*
X127738953Y-75407458D02*
X127763760Y-75266771D01*
X127763760Y-75266771D02*
X127843731Y-75087458D01*
X127843731Y-75087458D02*
X127907165Y-75001935D01*
X127907165Y-75001935D02*
X128017494Y-74924682D01*
X128017494Y-74924682D02*
X128166450Y-74902593D01*
X128166450Y-74902593D02*
X128260241Y-74919131D01*
X128260241Y-74919131D02*
X128392659Y-74990834D01*
X128392659Y-74990834D02*
X128431285Y-75045998D01*
X96754819Y-103140476D02*
X96278628Y-103473809D01*
X96754819Y-103711904D02*
X95754819Y-103711904D01*
X95754819Y-103711904D02*
X95754819Y-103330952D01*
X95754819Y-103330952D02*
X95802438Y-103235714D01*
X95802438Y-103235714D02*
X95850057Y-103188095D01*
X95850057Y-103188095D02*
X95945295Y-103140476D01*
X95945295Y-103140476D02*
X96088152Y-103140476D01*
X96088152Y-103140476D02*
X96183390Y-103188095D01*
X96183390Y-103188095D02*
X96231009Y-103235714D01*
X96231009Y-103235714D02*
X96278628Y-103330952D01*
X96278628Y-103330952D02*
X96278628Y-103711904D01*
X96469104Y-102759523D02*
X96469104Y-102283333D01*
X96754819Y-102854761D02*
X95754819Y-102521428D01*
X95754819Y-102521428D02*
X96754819Y-102188095D01*
X95754819Y-101949999D02*
X96754819Y-101711904D01*
X96754819Y-101711904D02*
X96040533Y-101521428D01*
X96040533Y-101521428D02*
X96754819Y-101330952D01*
X96754819Y-101330952D02*
X95754819Y-101092857D01*
X96754819Y-100192857D02*
X96754819Y-100669047D01*
X96754819Y-100669047D02*
X95754819Y-100669047D01*
X96231009Y-99859523D02*
X96231009Y-99526190D01*
X96754819Y-99383333D02*
X96754819Y-99859523D01*
X96754819Y-99859523D02*
X95754819Y-99859523D01*
X95754819Y-99859523D02*
X95754819Y-99383333D01*
X96754819Y-98954761D02*
X95754819Y-98954761D01*
X95754819Y-98954761D02*
X95754819Y-98716666D01*
X95754819Y-98716666D02*
X95802438Y-98573809D01*
X95802438Y-98573809D02*
X95897676Y-98478571D01*
X95897676Y-98478571D02*
X95992914Y-98430952D01*
X95992914Y-98430952D02*
X96183390Y-98383333D01*
X96183390Y-98383333D02*
X96326247Y-98383333D01*
X96326247Y-98383333D02*
X96516723Y-98430952D01*
X96516723Y-98430952D02*
X96611961Y-98478571D01*
X96611961Y-98478571D02*
X96707200Y-98573809D01*
X96707200Y-98573809D02*
X96754819Y-98716666D01*
X96754819Y-98716666D02*
X96754819Y-98954761D01*
X98342438Y-103211904D02*
X98294819Y-103307142D01*
X98294819Y-103307142D02*
X98294819Y-103449999D01*
X98294819Y-103449999D02*
X98342438Y-103592856D01*
X98342438Y-103592856D02*
X98437676Y-103688094D01*
X98437676Y-103688094D02*
X98532914Y-103735713D01*
X98532914Y-103735713D02*
X98723390Y-103783332D01*
X98723390Y-103783332D02*
X98866247Y-103783332D01*
X98866247Y-103783332D02*
X99056723Y-103735713D01*
X99056723Y-103735713D02*
X99151961Y-103688094D01*
X99151961Y-103688094D02*
X99247200Y-103592856D01*
X99247200Y-103592856D02*
X99294819Y-103449999D01*
X99294819Y-103449999D02*
X99294819Y-103354761D01*
X99294819Y-103354761D02*
X99247200Y-103211904D01*
X99247200Y-103211904D02*
X99199580Y-103164285D01*
X99199580Y-103164285D02*
X98866247Y-103164285D01*
X98866247Y-103164285D02*
X98866247Y-103354761D01*
X99294819Y-102735713D02*
X98294819Y-102735713D01*
X98294819Y-102735713D02*
X99294819Y-102164285D01*
X99294819Y-102164285D02*
X98294819Y-102164285D01*
X99294819Y-101688094D02*
X98294819Y-101688094D01*
X98294819Y-101688094D02*
X98294819Y-101449999D01*
X98294819Y-101449999D02*
X98342438Y-101307142D01*
X98342438Y-101307142D02*
X98437676Y-101211904D01*
X98437676Y-101211904D02*
X98532914Y-101164285D01*
X98532914Y-101164285D02*
X98723390Y-101116666D01*
X98723390Y-101116666D02*
X98866247Y-101116666D01*
X98866247Y-101116666D02*
X99056723Y-101164285D01*
X99056723Y-101164285D02*
X99151961Y-101211904D01*
X99151961Y-101211904D02*
X99247200Y-101307142D01*
X99247200Y-101307142D02*
X99294819Y-101449999D01*
X99294819Y-101449999D02*
X99294819Y-101688094D01*
X99294819Y-100621428D02*
X98294819Y-100621428D01*
X98294819Y-100621428D02*
X98294819Y-100383333D01*
X98294819Y-100383333D02*
X98342438Y-100240476D01*
X98342438Y-100240476D02*
X98437676Y-100145238D01*
X98437676Y-100145238D02*
X98532914Y-100097619D01*
X98532914Y-100097619D02*
X98723390Y-100050000D01*
X98723390Y-100050000D02*
X98866247Y-100050000D01*
X98866247Y-100050000D02*
X99056723Y-100097619D01*
X99056723Y-100097619D02*
X99151961Y-100145238D01*
X99151961Y-100145238D02*
X99247200Y-100240476D01*
X99247200Y-100240476D02*
X99294819Y-100383333D01*
X99294819Y-100383333D02*
X99294819Y-100621428D01*
X99009104Y-99669047D02*
X99009104Y-99192857D01*
X99294819Y-99764285D02*
X98294819Y-99430952D01*
X98294819Y-99430952D02*
X99294819Y-99097619D01*
X98294819Y-98907142D02*
X98294819Y-98335714D01*
X99294819Y-98621428D02*
X98294819Y-98621428D01*
X101834819Y-102997619D02*
X101358628Y-103330952D01*
X101834819Y-103569047D02*
X100834819Y-103569047D01*
X100834819Y-103569047D02*
X100834819Y-103188095D01*
X100834819Y-103188095D02*
X100882438Y-103092857D01*
X100882438Y-103092857D02*
X100930057Y-103045238D01*
X100930057Y-103045238D02*
X101025295Y-102997619D01*
X101025295Y-102997619D02*
X101168152Y-102997619D01*
X101168152Y-102997619D02*
X101263390Y-103045238D01*
X101263390Y-103045238D02*
X101311009Y-103092857D01*
X101311009Y-103092857D02*
X101358628Y-103188095D01*
X101358628Y-103188095D02*
X101358628Y-103569047D01*
X101787200Y-102616666D02*
X101834819Y-102473809D01*
X101834819Y-102473809D02*
X101834819Y-102235714D01*
X101834819Y-102235714D02*
X101787200Y-102140476D01*
X101787200Y-102140476D02*
X101739580Y-102092857D01*
X101739580Y-102092857D02*
X101644342Y-102045238D01*
X101644342Y-102045238D02*
X101549104Y-102045238D01*
X101549104Y-102045238D02*
X101453866Y-102092857D01*
X101453866Y-102092857D02*
X101406247Y-102140476D01*
X101406247Y-102140476D02*
X101358628Y-102235714D01*
X101358628Y-102235714D02*
X101311009Y-102426190D01*
X101311009Y-102426190D02*
X101263390Y-102521428D01*
X101263390Y-102521428D02*
X101215771Y-102569047D01*
X101215771Y-102569047D02*
X101120533Y-102616666D01*
X101120533Y-102616666D02*
X101025295Y-102616666D01*
X101025295Y-102616666D02*
X100930057Y-102569047D01*
X100930057Y-102569047D02*
X100882438Y-102521428D01*
X100882438Y-102521428D02*
X100834819Y-102426190D01*
X100834819Y-102426190D02*
X100834819Y-102188095D01*
X100834819Y-102188095D02*
X100882438Y-102045238D01*
X100834819Y-101759523D02*
X100834819Y-101188095D01*
X101834819Y-101473809D02*
X100834819Y-101473809D01*
X100882438Y-100311904D02*
X100834819Y-100407142D01*
X100834819Y-100407142D02*
X100834819Y-100549999D01*
X100834819Y-100549999D02*
X100882438Y-100692856D01*
X100882438Y-100692856D02*
X100977676Y-100788094D01*
X100977676Y-100788094D02*
X101072914Y-100835713D01*
X101072914Y-100835713D02*
X101263390Y-100883332D01*
X101263390Y-100883332D02*
X101406247Y-100883332D01*
X101406247Y-100883332D02*
X101596723Y-100835713D01*
X101596723Y-100835713D02*
X101691961Y-100788094D01*
X101691961Y-100788094D02*
X101787200Y-100692856D01*
X101787200Y-100692856D02*
X101834819Y-100549999D01*
X101834819Y-100549999D02*
X101834819Y-100454761D01*
X101834819Y-100454761D02*
X101787200Y-100311904D01*
X101787200Y-100311904D02*
X101739580Y-100264285D01*
X101739580Y-100264285D02*
X101406247Y-100264285D01*
X101406247Y-100264285D02*
X101406247Y-100454761D01*
X101834819Y-99835713D02*
X100834819Y-99835713D01*
X100834819Y-99835713D02*
X101834819Y-99264285D01*
X101834819Y-99264285D02*
X100834819Y-99264285D01*
X101834819Y-98788094D02*
X100834819Y-98788094D01*
X100834819Y-98788094D02*
X100834819Y-98549999D01*
X100834819Y-98549999D02*
X100882438Y-98407142D01*
X100882438Y-98407142D02*
X100977676Y-98311904D01*
X100977676Y-98311904D02*
X101072914Y-98264285D01*
X101072914Y-98264285D02*
X101263390Y-98216666D01*
X101263390Y-98216666D02*
X101406247Y-98216666D01*
X101406247Y-98216666D02*
X101596723Y-98264285D01*
X101596723Y-98264285D02*
X101691961Y-98311904D01*
X101691961Y-98311904D02*
X101787200Y-98407142D01*
X101787200Y-98407142D02*
X101834819Y-98549999D01*
X101834819Y-98549999D02*
X101834819Y-98788094D01*
X103374819Y-103783332D02*
X104374819Y-103449999D01*
X104374819Y-103449999D02*
X103374819Y-103116666D01*
X104279580Y-102211904D02*
X104327200Y-102259523D01*
X104327200Y-102259523D02*
X104374819Y-102402380D01*
X104374819Y-102402380D02*
X104374819Y-102497618D01*
X104374819Y-102497618D02*
X104327200Y-102640475D01*
X104327200Y-102640475D02*
X104231961Y-102735713D01*
X104231961Y-102735713D02*
X104136723Y-102783332D01*
X104136723Y-102783332D02*
X103946247Y-102830951D01*
X103946247Y-102830951D02*
X103803390Y-102830951D01*
X103803390Y-102830951D02*
X103612914Y-102783332D01*
X103612914Y-102783332D02*
X103517676Y-102735713D01*
X103517676Y-102735713D02*
X103422438Y-102640475D01*
X103422438Y-102640475D02*
X103374819Y-102497618D01*
X103374819Y-102497618D02*
X103374819Y-102402380D01*
X103374819Y-102402380D02*
X103422438Y-102259523D01*
X103422438Y-102259523D02*
X103470057Y-102211904D01*
X104279580Y-101211904D02*
X104327200Y-101259523D01*
X104327200Y-101259523D02*
X104374819Y-101402380D01*
X104374819Y-101402380D02*
X104374819Y-101497618D01*
X104374819Y-101497618D02*
X104327200Y-101640475D01*
X104327200Y-101640475D02*
X104231961Y-101735713D01*
X104231961Y-101735713D02*
X104136723Y-101783332D01*
X104136723Y-101783332D02*
X103946247Y-101830951D01*
X103946247Y-101830951D02*
X103803390Y-101830951D01*
X103803390Y-101830951D02*
X103612914Y-101783332D01*
X103612914Y-101783332D02*
X103517676Y-101735713D01*
X103517676Y-101735713D02*
X103422438Y-101640475D01*
X103422438Y-101640475D02*
X103374819Y-101497618D01*
X103374819Y-101497618D02*
X103374819Y-101402380D01*
X103374819Y-101402380D02*
X103422438Y-101259523D01*
X103422438Y-101259523D02*
X103470057Y-101211904D01*
X103422438Y-100311904D02*
X103374819Y-100407142D01*
X103374819Y-100407142D02*
X103374819Y-100549999D01*
X103374819Y-100549999D02*
X103422438Y-100692856D01*
X103422438Y-100692856D02*
X103517676Y-100788094D01*
X103517676Y-100788094D02*
X103612914Y-100835713D01*
X103612914Y-100835713D02*
X103803390Y-100883332D01*
X103803390Y-100883332D02*
X103946247Y-100883332D01*
X103946247Y-100883332D02*
X104136723Y-100835713D01*
X104136723Y-100835713D02*
X104231961Y-100788094D01*
X104231961Y-100788094D02*
X104327200Y-100692856D01*
X104327200Y-100692856D02*
X104374819Y-100549999D01*
X104374819Y-100549999D02*
X104374819Y-100454761D01*
X104374819Y-100454761D02*
X104327200Y-100311904D01*
X104327200Y-100311904D02*
X104279580Y-100264285D01*
X104279580Y-100264285D02*
X103946247Y-100264285D01*
X103946247Y-100264285D02*
X103946247Y-100454761D01*
X104374819Y-99835713D02*
X103374819Y-99835713D01*
X103374819Y-99835713D02*
X104374819Y-99264285D01*
X104374819Y-99264285D02*
X103374819Y-99264285D01*
X104374819Y-98788094D02*
X103374819Y-98788094D01*
X103374819Y-98788094D02*
X103374819Y-98549999D01*
X103374819Y-98549999D02*
X103422438Y-98407142D01*
X103422438Y-98407142D02*
X103517676Y-98311904D01*
X103517676Y-98311904D02*
X103612914Y-98264285D01*
X103612914Y-98264285D02*
X103803390Y-98216666D01*
X103803390Y-98216666D02*
X103946247Y-98216666D01*
X103946247Y-98216666D02*
X104136723Y-98264285D01*
X104136723Y-98264285D02*
X104231961Y-98311904D01*
X104231961Y-98311904D02*
X104327200Y-98407142D01*
X104327200Y-98407142D02*
X104374819Y-98549999D01*
X104374819Y-98549999D02*
X104374819Y-98788094D01*
X106819580Y-103206666D02*
X106867200Y-103254285D01*
X106867200Y-103254285D02*
X106914819Y-103397142D01*
X106914819Y-103397142D02*
X106914819Y-103492380D01*
X106914819Y-103492380D02*
X106867200Y-103635237D01*
X106867200Y-103635237D02*
X106771961Y-103730475D01*
X106771961Y-103730475D02*
X106676723Y-103778094D01*
X106676723Y-103778094D02*
X106486247Y-103825713D01*
X106486247Y-103825713D02*
X106343390Y-103825713D01*
X106343390Y-103825713D02*
X106152914Y-103778094D01*
X106152914Y-103778094D02*
X106057676Y-103730475D01*
X106057676Y-103730475D02*
X105962438Y-103635237D01*
X105962438Y-103635237D02*
X105914819Y-103492380D01*
X105914819Y-103492380D02*
X105914819Y-103397142D01*
X105914819Y-103397142D02*
X105962438Y-103254285D01*
X105962438Y-103254285D02*
X106010057Y-103206666D01*
X105914819Y-102587618D02*
X105914819Y-102492380D01*
X105914819Y-102492380D02*
X105962438Y-102397142D01*
X105962438Y-102397142D02*
X106010057Y-102349523D01*
X106010057Y-102349523D02*
X106105295Y-102301904D01*
X106105295Y-102301904D02*
X106295771Y-102254285D01*
X106295771Y-102254285D02*
X106533866Y-102254285D01*
X106533866Y-102254285D02*
X106724342Y-102301904D01*
X106724342Y-102301904D02*
X106819580Y-102349523D01*
X106819580Y-102349523D02*
X106867200Y-102397142D01*
X106867200Y-102397142D02*
X106914819Y-102492380D01*
X106914819Y-102492380D02*
X106914819Y-102587618D01*
X106914819Y-102587618D02*
X106867200Y-102682856D01*
X106867200Y-102682856D02*
X106819580Y-102730475D01*
X106819580Y-102730475D02*
X106724342Y-102778094D01*
X106724342Y-102778094D02*
X106533866Y-102825713D01*
X106533866Y-102825713D02*
X106295771Y-102825713D01*
X106295771Y-102825713D02*
X106105295Y-102778094D01*
X106105295Y-102778094D02*
X106010057Y-102730475D01*
X106010057Y-102730475D02*
X105962438Y-102682856D01*
X105962438Y-102682856D02*
X105914819Y-102587618D01*
X106867200Y-100764285D02*
X106914819Y-100621428D01*
X106914819Y-100621428D02*
X106914819Y-100383333D01*
X106914819Y-100383333D02*
X106867200Y-100288095D01*
X106867200Y-100288095D02*
X106819580Y-100240476D01*
X106819580Y-100240476D02*
X106724342Y-100192857D01*
X106724342Y-100192857D02*
X106629104Y-100192857D01*
X106629104Y-100192857D02*
X106533866Y-100240476D01*
X106533866Y-100240476D02*
X106486247Y-100288095D01*
X106486247Y-100288095D02*
X106438628Y-100383333D01*
X106438628Y-100383333D02*
X106391009Y-100573809D01*
X106391009Y-100573809D02*
X106343390Y-100669047D01*
X106343390Y-100669047D02*
X106295771Y-100716666D01*
X106295771Y-100716666D02*
X106200533Y-100764285D01*
X106200533Y-100764285D02*
X106105295Y-100764285D01*
X106105295Y-100764285D02*
X106010057Y-100716666D01*
X106010057Y-100716666D02*
X105962438Y-100669047D01*
X105962438Y-100669047D02*
X105914819Y-100573809D01*
X105914819Y-100573809D02*
X105914819Y-100335714D01*
X105914819Y-100335714D02*
X105962438Y-100192857D01*
X106914819Y-99764285D02*
X105914819Y-99764285D01*
X105914819Y-99764285D02*
X105914819Y-99526190D01*
X105914819Y-99526190D02*
X105962438Y-99383333D01*
X105962438Y-99383333D02*
X106057676Y-99288095D01*
X106057676Y-99288095D02*
X106152914Y-99240476D01*
X106152914Y-99240476D02*
X106343390Y-99192857D01*
X106343390Y-99192857D02*
X106486247Y-99192857D01*
X106486247Y-99192857D02*
X106676723Y-99240476D01*
X106676723Y-99240476D02*
X106771961Y-99288095D01*
X106771961Y-99288095D02*
X106867200Y-99383333D01*
X106867200Y-99383333D02*
X106914819Y-99526190D01*
X106914819Y-99526190D02*
X106914819Y-99764285D01*
X106629104Y-98811904D02*
X106629104Y-98335714D01*
X106914819Y-98907142D02*
X105914819Y-98573809D01*
X105914819Y-98573809D02*
X106914819Y-98240476D01*
X109359580Y-103206666D02*
X109407200Y-103254285D01*
X109407200Y-103254285D02*
X109454819Y-103397142D01*
X109454819Y-103397142D02*
X109454819Y-103492380D01*
X109454819Y-103492380D02*
X109407200Y-103635237D01*
X109407200Y-103635237D02*
X109311961Y-103730475D01*
X109311961Y-103730475D02*
X109216723Y-103778094D01*
X109216723Y-103778094D02*
X109026247Y-103825713D01*
X109026247Y-103825713D02*
X108883390Y-103825713D01*
X108883390Y-103825713D02*
X108692914Y-103778094D01*
X108692914Y-103778094D02*
X108597676Y-103730475D01*
X108597676Y-103730475D02*
X108502438Y-103635237D01*
X108502438Y-103635237D02*
X108454819Y-103492380D01*
X108454819Y-103492380D02*
X108454819Y-103397142D01*
X108454819Y-103397142D02*
X108502438Y-103254285D01*
X108502438Y-103254285D02*
X108550057Y-103206666D01*
X109454819Y-102254285D02*
X109454819Y-102825713D01*
X109454819Y-102539999D02*
X108454819Y-102539999D01*
X108454819Y-102539999D02*
X108597676Y-102635237D01*
X108597676Y-102635237D02*
X108692914Y-102730475D01*
X108692914Y-102730475D02*
X108740533Y-102825713D01*
X109407200Y-100740475D02*
X109454819Y-100597618D01*
X109454819Y-100597618D02*
X109454819Y-100359523D01*
X109454819Y-100359523D02*
X109407200Y-100264285D01*
X109407200Y-100264285D02*
X109359580Y-100216666D01*
X109359580Y-100216666D02*
X109264342Y-100169047D01*
X109264342Y-100169047D02*
X109169104Y-100169047D01*
X109169104Y-100169047D02*
X109073866Y-100216666D01*
X109073866Y-100216666D02*
X109026247Y-100264285D01*
X109026247Y-100264285D02*
X108978628Y-100359523D01*
X108978628Y-100359523D02*
X108931009Y-100549999D01*
X108931009Y-100549999D02*
X108883390Y-100645237D01*
X108883390Y-100645237D02*
X108835771Y-100692856D01*
X108835771Y-100692856D02*
X108740533Y-100740475D01*
X108740533Y-100740475D02*
X108645295Y-100740475D01*
X108645295Y-100740475D02*
X108550057Y-100692856D01*
X108550057Y-100692856D02*
X108502438Y-100645237D01*
X108502438Y-100645237D02*
X108454819Y-100549999D01*
X108454819Y-100549999D02*
X108454819Y-100311904D01*
X108454819Y-100311904D02*
X108502438Y-100169047D01*
X109359580Y-99169047D02*
X109407200Y-99216666D01*
X109407200Y-99216666D02*
X109454819Y-99359523D01*
X109454819Y-99359523D02*
X109454819Y-99454761D01*
X109454819Y-99454761D02*
X109407200Y-99597618D01*
X109407200Y-99597618D02*
X109311961Y-99692856D01*
X109311961Y-99692856D02*
X109216723Y-99740475D01*
X109216723Y-99740475D02*
X109026247Y-99788094D01*
X109026247Y-99788094D02*
X108883390Y-99788094D01*
X108883390Y-99788094D02*
X108692914Y-99740475D01*
X108692914Y-99740475D02*
X108597676Y-99692856D01*
X108597676Y-99692856D02*
X108502438Y-99597618D01*
X108502438Y-99597618D02*
X108454819Y-99454761D01*
X108454819Y-99454761D02*
X108454819Y-99359523D01*
X108454819Y-99359523D02*
X108502438Y-99216666D01*
X108502438Y-99216666D02*
X108550057Y-99169047D01*
X109454819Y-98264285D02*
X109454819Y-98740475D01*
X109454819Y-98740475D02*
X108454819Y-98740475D01*
X111899580Y-103206666D02*
X111947200Y-103254285D01*
X111947200Y-103254285D02*
X111994819Y-103397142D01*
X111994819Y-103397142D02*
X111994819Y-103492380D01*
X111994819Y-103492380D02*
X111947200Y-103635237D01*
X111947200Y-103635237D02*
X111851961Y-103730475D01*
X111851961Y-103730475D02*
X111756723Y-103778094D01*
X111756723Y-103778094D02*
X111566247Y-103825713D01*
X111566247Y-103825713D02*
X111423390Y-103825713D01*
X111423390Y-103825713D02*
X111232914Y-103778094D01*
X111232914Y-103778094D02*
X111137676Y-103730475D01*
X111137676Y-103730475D02*
X111042438Y-103635237D01*
X111042438Y-103635237D02*
X110994819Y-103492380D01*
X110994819Y-103492380D02*
X110994819Y-103397142D01*
X110994819Y-103397142D02*
X111042438Y-103254285D01*
X111042438Y-103254285D02*
X111090057Y-103206666D01*
X111090057Y-102825713D02*
X111042438Y-102778094D01*
X111042438Y-102778094D02*
X110994819Y-102682856D01*
X110994819Y-102682856D02*
X110994819Y-102444761D01*
X110994819Y-102444761D02*
X111042438Y-102349523D01*
X111042438Y-102349523D02*
X111090057Y-102301904D01*
X111090057Y-102301904D02*
X111185295Y-102254285D01*
X111185295Y-102254285D02*
X111280533Y-102254285D01*
X111280533Y-102254285D02*
X111423390Y-102301904D01*
X111423390Y-102301904D02*
X111994819Y-102873332D01*
X111994819Y-102873332D02*
X111994819Y-102254285D01*
X111899580Y-99126666D02*
X111947200Y-99174285D01*
X111947200Y-99174285D02*
X111994819Y-99317142D01*
X111994819Y-99317142D02*
X111994819Y-99412380D01*
X111994819Y-99412380D02*
X111947200Y-99555237D01*
X111947200Y-99555237D02*
X111851961Y-99650475D01*
X111851961Y-99650475D02*
X111756723Y-99698094D01*
X111756723Y-99698094D02*
X111566247Y-99745713D01*
X111566247Y-99745713D02*
X111423390Y-99745713D01*
X111423390Y-99745713D02*
X111232914Y-99698094D01*
X111232914Y-99698094D02*
X111137676Y-99650475D01*
X111137676Y-99650475D02*
X111042438Y-99555237D01*
X111042438Y-99555237D02*
X110994819Y-99412380D01*
X110994819Y-99412380D02*
X110994819Y-99317142D01*
X110994819Y-99317142D02*
X111042438Y-99174285D01*
X111042438Y-99174285D02*
X111090057Y-99126666D01*
X111947200Y-98745713D02*
X111994819Y-98602856D01*
X111994819Y-98602856D02*
X111994819Y-98364761D01*
X111994819Y-98364761D02*
X111947200Y-98269523D01*
X111947200Y-98269523D02*
X111899580Y-98221904D01*
X111899580Y-98221904D02*
X111804342Y-98174285D01*
X111804342Y-98174285D02*
X111709104Y-98174285D01*
X111709104Y-98174285D02*
X111613866Y-98221904D01*
X111613866Y-98221904D02*
X111566247Y-98269523D01*
X111566247Y-98269523D02*
X111518628Y-98364761D01*
X111518628Y-98364761D02*
X111471009Y-98555237D01*
X111471009Y-98555237D02*
X111423390Y-98650475D01*
X111423390Y-98650475D02*
X111375771Y-98698094D01*
X111375771Y-98698094D02*
X111280533Y-98745713D01*
X111280533Y-98745713D02*
X111185295Y-98745713D01*
X111185295Y-98745713D02*
X111090057Y-98698094D01*
X111090057Y-98698094D02*
X111042438Y-98650475D01*
X111042438Y-98650475D02*
X110994819Y-98555237D01*
X110994819Y-98555237D02*
X110994819Y-98317142D01*
X110994819Y-98317142D02*
X111042438Y-98174285D01*
X114439580Y-103206666D02*
X114487200Y-103254285D01*
X114487200Y-103254285D02*
X114534819Y-103397142D01*
X114534819Y-103397142D02*
X114534819Y-103492380D01*
X114534819Y-103492380D02*
X114487200Y-103635237D01*
X114487200Y-103635237D02*
X114391961Y-103730475D01*
X114391961Y-103730475D02*
X114296723Y-103778094D01*
X114296723Y-103778094D02*
X114106247Y-103825713D01*
X114106247Y-103825713D02*
X113963390Y-103825713D01*
X113963390Y-103825713D02*
X113772914Y-103778094D01*
X113772914Y-103778094D02*
X113677676Y-103730475D01*
X113677676Y-103730475D02*
X113582438Y-103635237D01*
X113582438Y-103635237D02*
X113534819Y-103492380D01*
X113534819Y-103492380D02*
X113534819Y-103397142D01*
X113534819Y-103397142D02*
X113582438Y-103254285D01*
X113582438Y-103254285D02*
X113630057Y-103206666D01*
X113534819Y-102873332D02*
X113534819Y-102254285D01*
X113534819Y-102254285D02*
X113915771Y-102587618D01*
X113915771Y-102587618D02*
X113915771Y-102444761D01*
X113915771Y-102444761D02*
X113963390Y-102349523D01*
X113963390Y-102349523D02*
X114011009Y-102301904D01*
X114011009Y-102301904D02*
X114106247Y-102254285D01*
X114106247Y-102254285D02*
X114344342Y-102254285D01*
X114344342Y-102254285D02*
X114439580Y-102301904D01*
X114439580Y-102301904D02*
X114487200Y-102349523D01*
X114487200Y-102349523D02*
X114534819Y-102444761D01*
X114534819Y-102444761D02*
X114534819Y-102730475D01*
X114534819Y-102730475D02*
X114487200Y-102825713D01*
X114487200Y-102825713D02*
X114439580Y-102873332D01*
X114534819Y-99126666D02*
X114058628Y-99459999D01*
X114534819Y-99698094D02*
X113534819Y-99698094D01*
X113534819Y-99698094D02*
X113534819Y-99317142D01*
X113534819Y-99317142D02*
X113582438Y-99221904D01*
X113582438Y-99221904D02*
X113630057Y-99174285D01*
X113630057Y-99174285D02*
X113725295Y-99126666D01*
X113725295Y-99126666D02*
X113868152Y-99126666D01*
X113868152Y-99126666D02*
X113963390Y-99174285D01*
X113963390Y-99174285D02*
X114011009Y-99221904D01*
X114011009Y-99221904D02*
X114058628Y-99317142D01*
X114058628Y-99317142D02*
X114058628Y-99698094D01*
X113534819Y-98793332D02*
X113534819Y-98174285D01*
X113534819Y-98174285D02*
X113915771Y-98507618D01*
X113915771Y-98507618D02*
X113915771Y-98364761D01*
X113915771Y-98364761D02*
X113963390Y-98269523D01*
X113963390Y-98269523D02*
X114011009Y-98221904D01*
X114011009Y-98221904D02*
X114106247Y-98174285D01*
X114106247Y-98174285D02*
X114344342Y-98174285D01*
X114344342Y-98174285D02*
X114439580Y-98221904D01*
X114439580Y-98221904D02*
X114487200Y-98269523D01*
X114487200Y-98269523D02*
X114534819Y-98364761D01*
X114534819Y-98364761D02*
X114534819Y-98650475D01*
X114534819Y-98650475D02*
X114487200Y-98745713D01*
X114487200Y-98745713D02*
X114439580Y-98793332D01*
X117074819Y-103664285D02*
X116074819Y-103664285D01*
X116074819Y-103664285D02*
X116074819Y-103283333D01*
X116074819Y-103283333D02*
X116122438Y-103188095D01*
X116122438Y-103188095D02*
X116170057Y-103140476D01*
X116170057Y-103140476D02*
X116265295Y-103092857D01*
X116265295Y-103092857D02*
X116408152Y-103092857D01*
X116408152Y-103092857D02*
X116503390Y-103140476D01*
X116503390Y-103140476D02*
X116551009Y-103188095D01*
X116551009Y-103188095D02*
X116598628Y-103283333D01*
X116598628Y-103283333D02*
X116598628Y-103664285D01*
X117074819Y-102140476D02*
X117074819Y-102711904D01*
X117074819Y-102426190D02*
X116074819Y-102426190D01*
X116074819Y-102426190D02*
X116217676Y-102521428D01*
X116217676Y-102521428D02*
X116312914Y-102616666D01*
X116312914Y-102616666D02*
X116360533Y-102711904D01*
X116074819Y-101235714D02*
X116074819Y-101711904D01*
X116074819Y-101711904D02*
X116551009Y-101759523D01*
X116551009Y-101759523D02*
X116503390Y-101711904D01*
X116503390Y-101711904D02*
X116455771Y-101616666D01*
X116455771Y-101616666D02*
X116455771Y-101378571D01*
X116455771Y-101378571D02*
X116503390Y-101283333D01*
X116503390Y-101283333D02*
X116551009Y-101235714D01*
X116551009Y-101235714D02*
X116646247Y-101188095D01*
X116646247Y-101188095D02*
X116884342Y-101188095D01*
X116884342Y-101188095D02*
X116979580Y-101235714D01*
X116979580Y-101235714D02*
X117027200Y-101283333D01*
X117027200Y-101283333D02*
X117074819Y-101378571D01*
X117074819Y-101378571D02*
X117074819Y-101616666D01*
X117074819Y-101616666D02*
X117027200Y-101711904D01*
X117027200Y-101711904D02*
X116979580Y-101759523D01*
X117074819Y-99126666D02*
X116598628Y-99459999D01*
X117074819Y-99698094D02*
X116074819Y-99698094D01*
X116074819Y-99698094D02*
X116074819Y-99317142D01*
X116074819Y-99317142D02*
X116122438Y-99221904D01*
X116122438Y-99221904D02*
X116170057Y-99174285D01*
X116170057Y-99174285D02*
X116265295Y-99126666D01*
X116265295Y-99126666D02*
X116408152Y-99126666D01*
X116408152Y-99126666D02*
X116503390Y-99174285D01*
X116503390Y-99174285D02*
X116551009Y-99221904D01*
X116551009Y-99221904D02*
X116598628Y-99317142D01*
X116598628Y-99317142D02*
X116598628Y-99698094D01*
X116170057Y-98745713D02*
X116122438Y-98698094D01*
X116122438Y-98698094D02*
X116074819Y-98602856D01*
X116074819Y-98602856D02*
X116074819Y-98364761D01*
X116074819Y-98364761D02*
X116122438Y-98269523D01*
X116122438Y-98269523D02*
X116170057Y-98221904D01*
X116170057Y-98221904D02*
X116265295Y-98174285D01*
X116265295Y-98174285D02*
X116360533Y-98174285D01*
X116360533Y-98174285D02*
X116503390Y-98221904D01*
X116503390Y-98221904D02*
X117074819Y-98793332D01*
X117074819Y-98793332D02*
X117074819Y-98174285D01*
X119614819Y-103664285D02*
X118614819Y-103664285D01*
X118614819Y-103664285D02*
X118614819Y-103283333D01*
X118614819Y-103283333D02*
X118662438Y-103188095D01*
X118662438Y-103188095D02*
X118710057Y-103140476D01*
X118710057Y-103140476D02*
X118805295Y-103092857D01*
X118805295Y-103092857D02*
X118948152Y-103092857D01*
X118948152Y-103092857D02*
X119043390Y-103140476D01*
X119043390Y-103140476D02*
X119091009Y-103188095D01*
X119091009Y-103188095D02*
X119138628Y-103283333D01*
X119138628Y-103283333D02*
X119138628Y-103664285D01*
X119614819Y-102140476D02*
X119614819Y-102711904D01*
X119614819Y-102426190D02*
X118614819Y-102426190D01*
X118614819Y-102426190D02*
X118757676Y-102521428D01*
X118757676Y-102521428D02*
X118852914Y-102616666D01*
X118852914Y-102616666D02*
X118900533Y-102711904D01*
X118948152Y-101283333D02*
X119614819Y-101283333D01*
X118567200Y-101521428D02*
X119281485Y-101759523D01*
X119281485Y-101759523D02*
X119281485Y-101140476D01*
X119614819Y-99126666D02*
X119138628Y-99459999D01*
X119614819Y-99698094D02*
X118614819Y-99698094D01*
X118614819Y-99698094D02*
X118614819Y-99317142D01*
X118614819Y-99317142D02*
X118662438Y-99221904D01*
X118662438Y-99221904D02*
X118710057Y-99174285D01*
X118710057Y-99174285D02*
X118805295Y-99126666D01*
X118805295Y-99126666D02*
X118948152Y-99126666D01*
X118948152Y-99126666D02*
X119043390Y-99174285D01*
X119043390Y-99174285D02*
X119091009Y-99221904D01*
X119091009Y-99221904D02*
X119138628Y-99317142D01*
X119138628Y-99317142D02*
X119138628Y-99698094D01*
X119614819Y-98174285D02*
X119614819Y-98745713D01*
X119614819Y-98459999D02*
X118614819Y-98459999D01*
X118614819Y-98459999D02*
X118757676Y-98555237D01*
X118757676Y-98555237D02*
X118852914Y-98650475D01*
X118852914Y-98650475D02*
X118900533Y-98745713D01*
X122154819Y-103664285D02*
X121154819Y-103664285D01*
X121154819Y-103664285D02*
X121154819Y-103283333D01*
X121154819Y-103283333D02*
X121202438Y-103188095D01*
X121202438Y-103188095D02*
X121250057Y-103140476D01*
X121250057Y-103140476D02*
X121345295Y-103092857D01*
X121345295Y-103092857D02*
X121488152Y-103092857D01*
X121488152Y-103092857D02*
X121583390Y-103140476D01*
X121583390Y-103140476D02*
X121631009Y-103188095D01*
X121631009Y-103188095D02*
X121678628Y-103283333D01*
X121678628Y-103283333D02*
X121678628Y-103664285D01*
X122154819Y-102140476D02*
X122154819Y-102711904D01*
X122154819Y-102426190D02*
X121154819Y-102426190D01*
X121154819Y-102426190D02*
X121297676Y-102521428D01*
X121297676Y-102521428D02*
X121392914Y-102616666D01*
X121392914Y-102616666D02*
X121440533Y-102711904D01*
X121154819Y-101283333D02*
X121154819Y-101473809D01*
X121154819Y-101473809D02*
X121202438Y-101569047D01*
X121202438Y-101569047D02*
X121250057Y-101616666D01*
X121250057Y-101616666D02*
X121392914Y-101711904D01*
X121392914Y-101711904D02*
X121583390Y-101759523D01*
X121583390Y-101759523D02*
X121964342Y-101759523D01*
X121964342Y-101759523D02*
X122059580Y-101711904D01*
X122059580Y-101711904D02*
X122107200Y-101664285D01*
X122107200Y-101664285D02*
X122154819Y-101569047D01*
X122154819Y-101569047D02*
X122154819Y-101378571D01*
X122154819Y-101378571D02*
X122107200Y-101283333D01*
X122107200Y-101283333D02*
X122059580Y-101235714D01*
X122059580Y-101235714D02*
X121964342Y-101188095D01*
X121964342Y-101188095D02*
X121726247Y-101188095D01*
X121726247Y-101188095D02*
X121631009Y-101235714D01*
X121631009Y-101235714D02*
X121583390Y-101283333D01*
X121583390Y-101283333D02*
X121535771Y-101378571D01*
X121535771Y-101378571D02*
X121535771Y-101569047D01*
X121535771Y-101569047D02*
X121583390Y-101664285D01*
X121583390Y-101664285D02*
X121631009Y-101711904D01*
X121631009Y-101711904D02*
X121726247Y-101759523D01*
X122154819Y-99126666D02*
X121678628Y-99459999D01*
X122154819Y-99698094D02*
X121154819Y-99698094D01*
X121154819Y-99698094D02*
X121154819Y-99317142D01*
X121154819Y-99317142D02*
X121202438Y-99221904D01*
X121202438Y-99221904D02*
X121250057Y-99174285D01*
X121250057Y-99174285D02*
X121345295Y-99126666D01*
X121345295Y-99126666D02*
X121488152Y-99126666D01*
X121488152Y-99126666D02*
X121583390Y-99174285D01*
X121583390Y-99174285D02*
X121631009Y-99221904D01*
X121631009Y-99221904D02*
X121678628Y-99317142D01*
X121678628Y-99317142D02*
X121678628Y-99698094D01*
X121154819Y-98507618D02*
X121154819Y-98412380D01*
X121154819Y-98412380D02*
X121202438Y-98317142D01*
X121202438Y-98317142D02*
X121250057Y-98269523D01*
X121250057Y-98269523D02*
X121345295Y-98221904D01*
X121345295Y-98221904D02*
X121535771Y-98174285D01*
X121535771Y-98174285D02*
X121773866Y-98174285D01*
X121773866Y-98174285D02*
X121964342Y-98221904D01*
X121964342Y-98221904D02*
X122059580Y-98269523D01*
X122059580Y-98269523D02*
X122107200Y-98317142D01*
X122107200Y-98317142D02*
X122154819Y-98412380D01*
X122154819Y-98412380D02*
X122154819Y-98507618D01*
X122154819Y-98507618D02*
X122107200Y-98602856D01*
X122107200Y-98602856D02*
X122059580Y-98650475D01*
X122059580Y-98650475D02*
X121964342Y-98698094D01*
X121964342Y-98698094D02*
X121773866Y-98745713D01*
X121773866Y-98745713D02*
X121535771Y-98745713D01*
X121535771Y-98745713D02*
X121345295Y-98698094D01*
X121345295Y-98698094D02*
X121250057Y-98650475D01*
X121250057Y-98650475D02*
X121202438Y-98602856D01*
X121202438Y-98602856D02*
X121154819Y-98507618D01*
X124694819Y-103664285D02*
X123694819Y-103664285D01*
X123694819Y-103664285D02*
X123694819Y-103283333D01*
X123694819Y-103283333D02*
X123742438Y-103188095D01*
X123742438Y-103188095D02*
X123790057Y-103140476D01*
X123790057Y-103140476D02*
X123885295Y-103092857D01*
X123885295Y-103092857D02*
X124028152Y-103092857D01*
X124028152Y-103092857D02*
X124123390Y-103140476D01*
X124123390Y-103140476D02*
X124171009Y-103188095D01*
X124171009Y-103188095D02*
X124218628Y-103283333D01*
X124218628Y-103283333D02*
X124218628Y-103664285D01*
X124694819Y-102140476D02*
X124694819Y-102711904D01*
X124694819Y-102426190D02*
X123694819Y-102426190D01*
X123694819Y-102426190D02*
X123837676Y-102521428D01*
X123837676Y-102521428D02*
X123932914Y-102616666D01*
X123932914Y-102616666D02*
X123980533Y-102711904D01*
X123694819Y-101521428D02*
X123694819Y-101426190D01*
X123694819Y-101426190D02*
X123742438Y-101330952D01*
X123742438Y-101330952D02*
X123790057Y-101283333D01*
X123790057Y-101283333D02*
X123885295Y-101235714D01*
X123885295Y-101235714D02*
X124075771Y-101188095D01*
X124075771Y-101188095D02*
X124313866Y-101188095D01*
X124313866Y-101188095D02*
X124504342Y-101235714D01*
X124504342Y-101235714D02*
X124599580Y-101283333D01*
X124599580Y-101283333D02*
X124647200Y-101330952D01*
X124647200Y-101330952D02*
X124694819Y-101426190D01*
X124694819Y-101426190D02*
X124694819Y-101521428D01*
X124694819Y-101521428D02*
X124647200Y-101616666D01*
X124647200Y-101616666D02*
X124599580Y-101664285D01*
X124599580Y-101664285D02*
X124504342Y-101711904D01*
X124504342Y-101711904D02*
X124313866Y-101759523D01*
X124313866Y-101759523D02*
X124075771Y-101759523D01*
X124075771Y-101759523D02*
X123885295Y-101711904D01*
X123885295Y-101711904D02*
X123790057Y-101664285D01*
X123790057Y-101664285D02*
X123742438Y-101616666D01*
X123742438Y-101616666D02*
X123694819Y-101521428D01*
X124694819Y-99698094D02*
X123694819Y-99698094D01*
X123694819Y-99698094D02*
X123694819Y-99317142D01*
X123694819Y-99317142D02*
X123742438Y-99221904D01*
X123742438Y-99221904D02*
X123790057Y-99174285D01*
X123790057Y-99174285D02*
X123885295Y-99126666D01*
X123885295Y-99126666D02*
X124028152Y-99126666D01*
X124028152Y-99126666D02*
X124123390Y-99174285D01*
X124123390Y-99174285D02*
X124171009Y-99221904D01*
X124171009Y-99221904D02*
X124218628Y-99317142D01*
X124218628Y-99317142D02*
X124218628Y-99698094D01*
X124694819Y-98650475D02*
X124694819Y-98459999D01*
X124694819Y-98459999D02*
X124647200Y-98364761D01*
X124647200Y-98364761D02*
X124599580Y-98317142D01*
X124599580Y-98317142D02*
X124456723Y-98221904D01*
X124456723Y-98221904D02*
X124266247Y-98174285D01*
X124266247Y-98174285D02*
X123885295Y-98174285D01*
X123885295Y-98174285D02*
X123790057Y-98221904D01*
X123790057Y-98221904D02*
X123742438Y-98269523D01*
X123742438Y-98269523D02*
X123694819Y-98364761D01*
X123694819Y-98364761D02*
X123694819Y-98555237D01*
X123694819Y-98555237D02*
X123742438Y-98650475D01*
X123742438Y-98650475D02*
X123790057Y-98698094D01*
X123790057Y-98698094D02*
X123885295Y-98745713D01*
X123885295Y-98745713D02*
X124123390Y-98745713D01*
X124123390Y-98745713D02*
X124218628Y-98698094D01*
X124218628Y-98698094D02*
X124266247Y-98650475D01*
X124266247Y-98650475D02*
X124313866Y-98555237D01*
X124313866Y-98555237D02*
X124313866Y-98364761D01*
X124313866Y-98364761D02*
X124266247Y-98269523D01*
X124266247Y-98269523D02*
X124218628Y-98221904D01*
X124218628Y-98221904D02*
X124123390Y-98174285D01*
X137206531Y-125062829D02*
X137271678Y-124883840D01*
X137271678Y-124883840D02*
X137348999Y-124810632D01*
X137348999Y-124810632D02*
X137471066Y-124753711D01*
X137471066Y-124753711D02*
X137666342Y-124774110D01*
X137666342Y-124774110D02*
X137979573Y-124888117D01*
X137979573Y-124888117D02*
X138142275Y-124998011D01*
X138142275Y-124998011D02*
X138199197Y-125120079D01*
X138199197Y-125120079D02*
X138211371Y-125225860D01*
X138211371Y-125225860D02*
X138146224Y-125404849D01*
X138146224Y-125404849D02*
X138068903Y-125478057D01*
X138068903Y-125478057D02*
X137946835Y-125534978D01*
X137946835Y-125534978D02*
X137751560Y-125514579D01*
X137751560Y-125514579D02*
X137438329Y-125400572D01*
X137438329Y-125400572D02*
X137275626Y-125290678D01*
X137275626Y-125290678D02*
X137218705Y-125168610D01*
X137218705Y-125168610D02*
X137206531Y-125062829D01*
X138439384Y-124599398D02*
X137499691Y-124257378D01*
X137499691Y-124257378D02*
X138634824Y-124062431D01*
X138634824Y-124062431D02*
X137695131Y-123720411D01*
X127695599Y-121955858D02*
X127760745Y-121776869D01*
X127760745Y-121776869D02*
X127838066Y-121703661D01*
X127838066Y-121703661D02*
X127960134Y-121646740D01*
X127960134Y-121646740D02*
X128155410Y-121667139D01*
X128155410Y-121667139D02*
X128468640Y-121781146D01*
X128468640Y-121781146D02*
X128631343Y-121891040D01*
X128631343Y-121891040D02*
X128688264Y-122013107D01*
X128688264Y-122013107D02*
X128700438Y-122118889D01*
X128700438Y-122118889D02*
X128635291Y-122297878D01*
X128635291Y-122297878D02*
X128557971Y-122371086D01*
X128557971Y-122371086D02*
X128435903Y-122428007D01*
X128435903Y-122428007D02*
X128240627Y-122407607D01*
X128240627Y-122407607D02*
X127927396Y-122293601D01*
X127927396Y-122293601D02*
X127764694Y-122183707D01*
X127764694Y-122183707D02*
X127707773Y-122061639D01*
X127707773Y-122061639D02*
X127695599Y-121955858D01*
X128550238Y-121000043D02*
X128436231Y-121313274D01*
X128928451Y-121492427D02*
X127988759Y-121150407D01*
X127988759Y-121150407D02*
X128151625Y-120702934D01*
X128843398Y-120194592D02*
X128729392Y-120507823D01*
X129221612Y-120686976D02*
X128281919Y-120344956D01*
X128281919Y-120344956D02*
X128444786Y-119897483D01*
D11*
X107750000Y-81750000D02*
X107750000Y-82250000D01*
X107350000Y-81750000D02*
X107750000Y-81150000D01*
X108150000Y-81750000D02*
X107350000Y-81750000D01*
X107750000Y-81150000D02*
X108150000Y-81750000D01*
X107750000Y-81150000D02*
X107200000Y-81150000D01*
X107750000Y-81150000D02*
X108300000Y-81150000D01*
X107750000Y-80750000D02*
X107750000Y-81150000D01*
X107750000Y-64750000D02*
X107750000Y-65250000D01*
X107350000Y-64750000D02*
X107750000Y-64150000D01*
X108150000Y-64750000D02*
X107350000Y-64750000D01*
X107750000Y-64150000D02*
X108150000Y-64750000D01*
X107750000Y-64150000D02*
X107200000Y-64150000D01*
X107750000Y-64150000D02*
X108300000Y-64150000D01*
X107750000Y-63750000D02*
X107750000Y-64150000D01*
X129849320Y-83114764D02*
X129762496Y-83607168D01*
X129455397Y-83045305D02*
X129953509Y-82523879D01*
X130243243Y-83184223D02*
X129455397Y-83045305D01*
X129953509Y-82523879D02*
X130243243Y-83184223D01*
X129953509Y-82523879D02*
X129411865Y-82428373D01*
X129953509Y-82523879D02*
X130495153Y-82619386D01*
X130022968Y-82129956D02*
X129953509Y-82523879D01*
X132801339Y-66373032D02*
X132714515Y-66865436D01*
X132407416Y-66303573D02*
X132905528Y-65782147D01*
X133195262Y-66442491D02*
X132407416Y-66303573D01*
X132905528Y-65782147D02*
X133195262Y-66442491D01*
X132905528Y-65782147D02*
X132363884Y-65686641D01*
X132905528Y-65782147D02*
X133447172Y-65877654D01*
X132974987Y-65388224D02*
X132905528Y-65782147D01*
X135753358Y-49631300D02*
X135666534Y-50123704D01*
X135359435Y-49561841D02*
X135857547Y-49040415D01*
X136147281Y-49700759D02*
X135359435Y-49561841D01*
X135857547Y-49040415D02*
X136147281Y-49700759D01*
X135857547Y-49040415D02*
X135315903Y-48944909D01*
X135857547Y-49040415D02*
X136399191Y-49135922D01*
X135927006Y-48646492D02*
X135857547Y-49040415D01*
X152213224Y-83433267D02*
X152083815Y-83916230D01*
X151826854Y-83329740D02*
X152368516Y-82853712D01*
X152599595Y-83536795D02*
X151826854Y-83329740D01*
X152368516Y-82853712D02*
X152599595Y-83536795D01*
X152368516Y-82853712D02*
X151837256Y-82711361D01*
X152368516Y-82853712D02*
X152899775Y-82996062D01*
X152472043Y-82467342D02*
X152368516Y-82853712D01*
X156613148Y-67012528D02*
X156483739Y-67495491D01*
X156226778Y-66909001D02*
X156768440Y-66432973D01*
X156999519Y-67116056D02*
X156226778Y-66909001D01*
X156768440Y-66432973D02*
X156999519Y-67116056D01*
X156768440Y-66432973D02*
X156237180Y-66290622D01*
X156768440Y-66432973D02*
X157299699Y-66575323D01*
X156871967Y-66046603D02*
X156768440Y-66432973D01*
X161013072Y-50591789D02*
X160883663Y-51074752D01*
X160626702Y-50488262D02*
X161168364Y-50012234D01*
X161399443Y-50695317D02*
X160626702Y-50488262D01*
X161168364Y-50012234D02*
X161399443Y-50695317D01*
X161168364Y-50012234D02*
X160637104Y-49869883D01*
X161168364Y-50012234D02*
X161699623Y-50154584D01*
X161271891Y-49625864D02*
X161168364Y-50012234D01*
X169906358Y-102786807D02*
X169695049Y-103239961D01*
X169543835Y-102617760D02*
X170159929Y-102243022D01*
X170268882Y-102955854D02*
X169543835Y-102617760D01*
X170159929Y-102243022D02*
X170268882Y-102955854D01*
X170159929Y-102243022D02*
X169661460Y-102010582D01*
X170159929Y-102243022D02*
X170658399Y-102475462D01*
X170328977Y-101880499D02*
X170159929Y-102243022D01*
X177090869Y-87379575D02*
X176879560Y-87832729D01*
X176728346Y-87210528D02*
X177344440Y-86835790D01*
X177453393Y-87548622D02*
X176728346Y-87210528D01*
X177344440Y-86835790D02*
X177453393Y-87548622D01*
X177344440Y-86835790D02*
X176845971Y-86603350D01*
X177344440Y-86835790D02*
X177842910Y-87068230D01*
X177513488Y-86473267D02*
X177344440Y-86835790D01*
X184275379Y-71972342D02*
X184064070Y-72425496D01*
X183912856Y-71803295D02*
X184528950Y-71428557D01*
X184637903Y-72141389D02*
X183912856Y-71803295D01*
X184528950Y-71428557D02*
X184637903Y-72141389D01*
X184528950Y-71428557D02*
X184030481Y-71196117D01*
X184528950Y-71428557D02*
X185027420Y-71660997D01*
X184697998Y-71066034D02*
X184528950Y-71428557D01*
X174239424Y-119637356D02*
X174622446Y-119958750D01*
X173982309Y-119943774D02*
X173779797Y-119251683D01*
X174496539Y-119330938D02*
X173982309Y-119943774D01*
X173779797Y-119251683D02*
X174496539Y-119330938D01*
X173779797Y-119251683D02*
X173426264Y-119673008D01*
X173779797Y-119251683D02*
X174133331Y-118830359D01*
X173473380Y-118994568D02*
X173779797Y-119251683D01*
X193652441Y-133079131D02*
X193939229Y-133488707D01*
X193324780Y-133308562D02*
X193308295Y-132587640D01*
X193980102Y-132849700D02*
X193324780Y-133308562D01*
X193308295Y-132587640D02*
X193980102Y-132849700D01*
X193308295Y-132587640D02*
X192857762Y-132903107D01*
X193308295Y-132587640D02*
X193758829Y-132272173D01*
X193078865Y-132259979D02*
X193308295Y-132587640D01*
D12*
X94970000Y-94710000D02*
X94970000Y-92050000D01*
X94970000Y-94710000D02*
X125570000Y-94710000D01*
X125570000Y-94710000D02*
X125570000Y-92050000D01*
X94970000Y-107290000D02*
X125570000Y-107290000D01*
X94970000Y-92050000D02*
X125570000Y-92050000D01*
X94970000Y-109950000D02*
X94970000Y-107290000D01*
X94970000Y-109950000D02*
X125570000Y-109950000D01*
X125570000Y-109950000D02*
X125570000Y-107290000D01*
X97570000Y-94710000D02*
X97570000Y-92050000D01*
X124370000Y-107410000D02*
X127030000Y-107410000D01*
X127030000Y-94590000D02*
X127030000Y-107410000D01*
X124370000Y-94590000D02*
X127030000Y-94590000D01*
X124370000Y-94590000D02*
X124370000Y-107410000D01*
X136332099Y-124527419D02*
X136602295Y-123785062D01*
X130118416Y-121425123D02*
X129848220Y-122167480D01*
X132215969Y-121071183D02*
X133813446Y-121652617D01*
X130066595Y-123321782D02*
X135422843Y-125271296D01*
X135035046Y-122097243D02*
X135222985Y-122165647D01*
D11*
X100251119Y-115414909D02*
X100186414Y-115656391D01*
X101027576Y-112517132D02*
X101092281Y-112275651D01*
X99944933Y-115591686D02*
X100186414Y-115656391D01*
X100850800Y-112210946D02*
X101092281Y-112275651D01*
X95888044Y-114504646D02*
X95646563Y-114439941D01*
X96793911Y-111123906D02*
X96552430Y-111059201D01*
X95711268Y-114198460D02*
X95646563Y-114439941D01*
X96487725Y-111300683D02*
X96552430Y-111059201D01*
X134938356Y-104066773D02*
X135112004Y-103081965D01*
X135459301Y-101112350D02*
X135285652Y-102097158D01*
X134880073Y-101517930D02*
X135864880Y-101691578D01*
D12*
X126115716Y-103079743D02*
X125942068Y-104064550D01*
X125942068Y-104064550D02*
X126926876Y-104238199D01*
X126845039Y-98943550D02*
X127004795Y-98037527D01*
X127004795Y-98037527D02*
X127989603Y-98211175D01*
X133803021Y-104516456D02*
X133643265Y-105422479D01*
X133643265Y-105422479D02*
X132658457Y-105248831D01*
X134546235Y-100301479D02*
X134705992Y-99395456D01*
X134705992Y-99395456D02*
X133721184Y-99221808D01*
%LPC*%
D13*
X172235175Y-108066691D03*
X181134590Y-121285220D03*
D14*
X117564759Y-56324569D03*
X114612740Y-73066301D03*
X165426557Y-72684179D03*
X173428752Y-140971233D03*
X181636504Y-129430307D03*
D15*
X100000000Y-83000000D03*
D16*
X94920000Y-83000000D03*
X105080000Y-83000000D03*
D17*
X97460000Y-88080000D03*
X103810000Y-85540000D03*
D15*
X100000000Y-66000000D03*
D16*
X94920000Y-66000000D03*
X105080000Y-66000000D03*
D17*
X97460000Y-71080000D03*
X103810000Y-68540000D03*
D15*
X122000000Y-83000000D03*
D16*
X116997177Y-82117867D03*
X127002823Y-83882133D03*
D17*
X118616456Y-87561757D03*
X125311051Y-86163011D03*
D15*
X124952019Y-66258268D03*
D16*
X119949196Y-65376135D03*
X129954842Y-67140401D03*
D17*
X121568475Y-70820025D03*
X128263070Y-69421279D03*
D15*
X127904038Y-49516536D03*
D16*
X122901215Y-48634403D03*
X132906861Y-50398669D03*
D17*
X124520494Y-54078293D03*
X131215089Y-52679547D03*
D15*
X144403775Y-82634827D03*
D16*
X139496872Y-81320026D03*
X149310678Y-83949628D03*
D17*
X140635523Y-86884330D03*
X147426552Y-86074379D03*
D15*
X148803699Y-66214088D03*
D16*
X143896796Y-64899287D03*
X153710602Y-67528889D03*
D17*
X145035447Y-70463591D03*
X151826476Y-69653640D03*
D15*
X153203623Y-49793349D03*
D16*
X148296720Y-48478548D03*
X158110526Y-51108150D03*
D17*
X149435371Y-54042852D03*
X156226400Y-53232901D03*
D15*
X162354201Y-100644400D03*
D16*
X157750157Y-98497499D03*
X166958245Y-102791301D03*
D17*
X157905278Y-104174993D03*
X164733783Y-104556597D03*
D15*
X169538711Y-85237168D03*
D16*
X164934667Y-83090267D03*
X174142755Y-87384069D03*
D17*
X165089788Y-88767761D03*
X171918293Y-89149365D03*
D15*
X176723222Y-69829935D03*
D16*
X172119178Y-67683034D03*
X181327266Y-71976836D03*
D17*
X172274299Y-73360528D03*
X179102804Y-73742132D03*
D15*
X170215376Y-126377685D03*
D16*
X166950015Y-130269191D03*
X173480737Y-122486179D03*
D17*
X172474201Y-131588799D03*
X174610150Y-125091736D03*
D15*
X188020983Y-138548289D03*
D16*
X183859691Y-141462057D03*
X192182275Y-135634521D03*
D17*
X188854105Y-144166466D03*
X192598836Y-138443609D03*
D15*
X100000000Y-83000000D03*
D16*
X94920000Y-83000000D03*
X105080000Y-83000000D03*
D17*
X102540000Y-88080000D03*
X96190000Y-85540000D03*
G36*
G01*
X94240000Y-84290000D02*
X94240000Y-86790000D01*
G75*
G02*
X94190000Y-86840000I-50000J0D01*
G01*
X91640000Y-86840000D01*
G75*
G02*
X91590000Y-86790000I0J50000D01*
G01*
X91590000Y-84290000D01*
G75*
G02*
X91640000Y-84240000I50000J0D01*
G01*
X94190000Y-84240000D01*
G75*
G02*
X94240000Y-84290000I0J-50000D01*
G01*
G37*
G36*
G01*
X107167000Y-86830000D02*
X107167000Y-89330000D01*
G75*
G02*
X107117000Y-89380000I-50000J0D01*
G01*
X104567000Y-89380000D01*
G75*
G02*
X104517000Y-89330000I0J50000D01*
G01*
X104517000Y-86830000D01*
G75*
G02*
X104567000Y-86780000I50000J0D01*
G01*
X107117000Y-86780000D01*
G75*
G02*
X107167000Y-86830000I0J-50000D01*
G01*
G37*
D15*
X100000000Y-66000000D03*
D16*
X94920000Y-66000000D03*
X105080000Y-66000000D03*
D17*
X102540000Y-71080000D03*
X96190000Y-68540000D03*
G36*
G01*
X94240000Y-67290000D02*
X94240000Y-69790000D01*
G75*
G02*
X94190000Y-69840000I-50000J0D01*
G01*
X91640000Y-69840000D01*
G75*
G02*
X91590000Y-69790000I0J50000D01*
G01*
X91590000Y-67290000D01*
G75*
G02*
X91640000Y-67240000I50000J0D01*
G01*
X94190000Y-67240000D01*
G75*
G02*
X94240000Y-67290000I0J-50000D01*
G01*
G37*
G36*
G01*
X107167000Y-69830000D02*
X107167000Y-72330000D01*
G75*
G02*
X107117000Y-72380000I-50000J0D01*
G01*
X104567000Y-72380000D01*
G75*
G02*
X104517000Y-72330000I0J50000D01*
G01*
X104517000Y-69830000D01*
G75*
G02*
X104567000Y-69780000I50000J0D01*
G01*
X107117000Y-69780000D01*
G75*
G02*
X107167000Y-69830000I0J-50000D01*
G01*
G37*
D15*
X122000000Y-83000000D03*
D16*
X116997177Y-82117867D03*
X127002823Y-83882133D03*
D17*
X123619279Y-88443890D03*
X117806816Y-84839812D03*
G36*
G01*
X116103501Y-83270188D02*
X115669381Y-85732207D01*
G75*
G02*
X115611459Y-85772765I-49240J8682D01*
G01*
X113100199Y-85329962D01*
G75*
G02*
X113059641Y-85272040I8682J49240D01*
G01*
X113493761Y-82810021D01*
G75*
G02*
X113551683Y-82769463I49240J-8682D01*
G01*
X116062943Y-83212266D01*
G75*
G02*
X116103501Y-83270188I-8682J-49240D01*
G01*
G37*
G36*
G01*
X128393044Y-88016350D02*
X127958924Y-90478369D01*
G75*
G02*
X127901002Y-90518927I-49240J8682D01*
G01*
X125389742Y-90076124D01*
G75*
G02*
X125349184Y-90018202I8682J49240D01*
G01*
X125783304Y-87556183D01*
G75*
G02*
X125841226Y-87515625I49240J-8682D01*
G01*
X128352486Y-87958428D01*
G75*
G02*
X128393044Y-88016350I-8682J-49240D01*
G01*
G37*
D15*
X124952019Y-66258268D03*
D16*
X119949196Y-65376135D03*
X129954842Y-67140401D03*
D17*
X126571298Y-71702158D03*
X120758835Y-68098080D03*
G36*
G01*
X119055520Y-66528456D02*
X118621400Y-68990475D01*
G75*
G02*
X118563478Y-69031033I-49240J8682D01*
G01*
X116052218Y-68588230D01*
G75*
G02*
X116011660Y-68530308I8682J49240D01*
G01*
X116445780Y-66068289D01*
G75*
G02*
X116503702Y-66027731I49240J-8682D01*
G01*
X119014962Y-66470534D01*
G75*
G02*
X119055520Y-66528456I-8682J-49240D01*
G01*
G37*
G36*
G01*
X131345063Y-71274618D02*
X130910943Y-73736637D01*
G75*
G02*
X130853021Y-73777195I-49240J8682D01*
G01*
X128341761Y-73334392D01*
G75*
G02*
X128301203Y-73276470I8682J49240D01*
G01*
X128735323Y-70814451D01*
G75*
G02*
X128793245Y-70773893I49240J-8682D01*
G01*
X131304505Y-71216696D01*
G75*
G02*
X131345063Y-71274618I-8682J-49240D01*
G01*
G37*
D15*
X127904038Y-49516536D03*
D16*
X122901215Y-48634403D03*
X132906861Y-50398669D03*
D17*
X129523317Y-54960426D03*
X123710854Y-51356348D03*
G36*
G01*
X122007539Y-49786724D02*
X121573419Y-52248743D01*
G75*
G02*
X121515497Y-52289301I-49240J8682D01*
G01*
X119004237Y-51846498D01*
G75*
G02*
X118963679Y-51788576I8682J49240D01*
G01*
X119397799Y-49326557D01*
G75*
G02*
X119455721Y-49285999I49240J-8682D01*
G01*
X121966981Y-49728802D01*
G75*
G02*
X122007539Y-49786724I-8682J-49240D01*
G01*
G37*
G36*
G01*
X134297082Y-54532886D02*
X133862962Y-56994905D01*
G75*
G02*
X133805040Y-57035463I-49240J8682D01*
G01*
X131293780Y-56592660D01*
G75*
G02*
X131253222Y-56534738I8682J49240D01*
G01*
X131687342Y-54072719D01*
G75*
G02*
X131745264Y-54032161I49240J-8682D01*
G01*
X134256524Y-54474964D01*
G75*
G02*
X134297082Y-54532886I-8682J-49240D01*
G01*
G37*
D15*
X144403775Y-82634827D03*
D16*
X139496872Y-81320026D03*
X149310678Y-83949628D03*
D17*
X145542426Y-88199131D03*
X140066197Y-84102178D03*
G36*
G01*
X138506165Y-82390074D02*
X137859118Y-84804889D01*
G75*
G02*
X137797881Y-84840244I-48296J12941D01*
G01*
X135334770Y-84180255D01*
G75*
G02*
X135299415Y-84119018I12941J48296D01*
G01*
X135946462Y-81704203D01*
G75*
G02*
X136007699Y-81668848I48296J-12941D01*
G01*
X138470810Y-82328837D01*
G75*
G02*
X138506165Y-82390074I-12941J-48296D01*
G01*
G37*
G36*
G01*
X150335288Y-88189279D02*
X149688241Y-90604094D01*
G75*
G02*
X149627004Y-90639449I-48296J12941D01*
G01*
X147163893Y-89979460D01*
G75*
G02*
X147128538Y-89918223I12941J48296D01*
G01*
X147775585Y-87503408D01*
G75*
G02*
X147836822Y-87468053I48296J-12941D01*
G01*
X150299933Y-88128042D01*
G75*
G02*
X150335288Y-88189279I-12941J-48296D01*
G01*
G37*
D15*
X148803699Y-66214088D03*
D16*
X143896796Y-64899287D03*
X153710602Y-67528889D03*
D17*
X149942350Y-71778392D03*
X144466121Y-67681439D03*
G36*
G01*
X142906089Y-65969335D02*
X142259042Y-68384150D01*
G75*
G02*
X142197805Y-68419505I-48296J12941D01*
G01*
X139734694Y-67759516D01*
G75*
G02*
X139699339Y-67698279I12941J48296D01*
G01*
X140346386Y-65283464D01*
G75*
G02*
X140407623Y-65248109I48296J-12941D01*
G01*
X142870734Y-65908098D01*
G75*
G02*
X142906089Y-65969335I-12941J-48296D01*
G01*
G37*
G36*
G01*
X154735212Y-71768540D02*
X154088165Y-74183355D01*
G75*
G02*
X154026928Y-74218710I-48296J12941D01*
G01*
X151563817Y-73558721D01*
G75*
G02*
X151528462Y-73497484I12941J48296D01*
G01*
X152175509Y-71082669D01*
G75*
G02*
X152236746Y-71047314I48296J-12941D01*
G01*
X154699857Y-71707303D01*
G75*
G02*
X154735212Y-71768540I-12941J-48296D01*
G01*
G37*
D15*
X153203623Y-49793349D03*
D16*
X148296720Y-48478548D03*
X158110526Y-51108150D03*
D17*
X154342274Y-55357653D03*
X148866045Y-51260700D03*
G36*
G01*
X147306013Y-49548596D02*
X146658966Y-51963411D01*
G75*
G02*
X146597729Y-51998766I-48296J12941D01*
G01*
X144134618Y-51338777D01*
G75*
G02*
X144099263Y-51277540I12941J48296D01*
G01*
X144746310Y-48862725D01*
G75*
G02*
X144807547Y-48827370I48296J-12941D01*
G01*
X147270658Y-49487359D01*
G75*
G02*
X147306013Y-49548596I-12941J-48296D01*
G01*
G37*
G36*
G01*
X159135136Y-55347801D02*
X158488089Y-57762616D01*
G75*
G02*
X158426852Y-57797971I-48296J12941D01*
G01*
X155963741Y-57137982D01*
G75*
G02*
X155928386Y-57076745I12941J48296D01*
G01*
X156575433Y-54661930D01*
G75*
G02*
X156636670Y-54626575I48296J-12941D01*
G01*
X159099781Y-55286564D01*
G75*
G02*
X159135136Y-55347801I-12941J-48296D01*
G01*
G37*
D15*
X162354201Y-100644400D03*
D16*
X157750157Y-98497499D03*
X166958245Y-102791301D03*
D17*
X162509322Y-106321894D03*
X157827718Y-101336246D03*
G36*
G01*
X156588690Y-99379256D02*
X155532145Y-101645025D01*
G75*
G02*
X155465699Y-101669209I-45315J21131D01*
G01*
X153154614Y-100591532D01*
G75*
G02*
X153130430Y-100525086I21131J45315D01*
G01*
X154186975Y-98259317D01*
G75*
G02*
X154253421Y-98235133I45315J-21131D01*
G01*
X156564506Y-99312810D01*
G75*
G02*
X156588690Y-99379256I-21131J-45315D01*
G01*
G37*
G36*
G01*
X167231080Y-107144464D02*
X166174535Y-109410233D01*
G75*
G02*
X166108089Y-109434417I-45315J21131D01*
G01*
X163797004Y-108356740D01*
G75*
G02*
X163772820Y-108290294I21131J45315D01*
G01*
X164829365Y-106024525D01*
G75*
G02*
X164895811Y-106000341I45315J-21131D01*
G01*
X167206896Y-107078018D01*
G75*
G02*
X167231080Y-107144464I-21131J-45315D01*
G01*
G37*
D15*
X169538711Y-85237168D03*
D16*
X164934667Y-83090267D03*
X174142755Y-87384069D03*
D17*
X169693832Y-90914662D03*
X165012228Y-85929014D03*
G36*
G01*
X163773200Y-83972024D02*
X162716655Y-86237793D01*
G75*
G02*
X162650209Y-86261977I-45315J21131D01*
G01*
X160339124Y-85184300D01*
G75*
G02*
X160314940Y-85117854I21131J45315D01*
G01*
X161371485Y-82852085D01*
G75*
G02*
X161437931Y-82827901I45315J-21131D01*
G01*
X163749016Y-83905578D01*
G75*
G02*
X163773200Y-83972024I-21131J-45315D01*
G01*
G37*
G36*
G01*
X174415590Y-91737232D02*
X173359045Y-94003001D01*
G75*
G02*
X173292599Y-94027185I-45315J21131D01*
G01*
X170981514Y-92949508D01*
G75*
G02*
X170957330Y-92883062I21131J45315D01*
G01*
X172013875Y-90617293D01*
G75*
G02*
X172080321Y-90593109I45315J-21131D01*
G01*
X174391406Y-91670786D01*
G75*
G02*
X174415590Y-91737232I-21131J-45315D01*
G01*
G37*
D15*
X176723222Y-69829935D03*
D16*
X172119178Y-67683034D03*
X181327266Y-71976836D03*
D17*
X176878343Y-75507429D03*
X172196739Y-70521781D03*
G36*
G01*
X170957711Y-68564791D02*
X169901166Y-70830560D01*
G75*
G02*
X169834720Y-70854744I-45315J21131D01*
G01*
X167523635Y-69777067D01*
G75*
G02*
X167499451Y-69710621I21131J45315D01*
G01*
X168555996Y-67444852D01*
G75*
G02*
X168622442Y-67420668I45315J-21131D01*
G01*
X170933527Y-68498345D01*
G75*
G02*
X170957711Y-68564791I-21131J-45315D01*
G01*
G37*
G36*
G01*
X181600101Y-76329999D02*
X180543556Y-78595768D01*
G75*
G02*
X180477110Y-78619952I-45315J21131D01*
G01*
X178166025Y-77542275D01*
G75*
G02*
X178141841Y-77475829I21131J45315D01*
G01*
X179198386Y-75210060D01*
G75*
G02*
X179264832Y-75185876I45315J-21131D01*
G01*
X181575917Y-76263553D01*
G75*
G02*
X181600101Y-76329999I-21131J-45315D01*
G01*
G37*
D15*
X170215376Y-126377685D03*
D16*
X166950015Y-130269191D03*
X173480737Y-122486179D03*
D17*
X175739562Y-127697293D03*
X169712108Y-130928995D03*
G36*
G01*
X167501117Y-131619297D02*
X169416228Y-133226266D01*
G75*
G02*
X169422391Y-133296707I-32139J-38302D01*
G01*
X167783282Y-135250120D01*
G75*
G02*
X167712841Y-135256283I-38302J32139D01*
G01*
X165797730Y-133649314D01*
G75*
G02*
X165791567Y-133578873I32139J38302D01*
G01*
X167430676Y-131625460D01*
G75*
G02*
X167501117Y-131619297I38302J-32139D01*
G01*
G37*
G36*
G01*
X177756185Y-123349321D02*
X179671296Y-124956290D01*
G75*
G02*
X179677459Y-125026731I-32139J-38302D01*
G01*
X178038350Y-126980144D01*
G75*
G02*
X177967909Y-126986307I-38302J32139D01*
G01*
X176052798Y-125379338D01*
G75*
G02*
X176046635Y-125308897I32139J38302D01*
G01*
X177685744Y-123355484D01*
G75*
G02*
X177756185Y-123349321I38302J-32139D01*
G01*
G37*
D15*
X188020983Y-138548289D03*
D16*
X183859691Y-141462057D03*
X192182275Y-135634521D03*
D17*
X193015397Y-141252697D03*
X186356898Y-142814261D03*
G36*
G01*
X184042581Y-142908795D02*
X185476522Y-144956675D01*
G75*
G02*
X185464243Y-145026312I-40958J-28679D01*
G01*
X183375406Y-146488932D01*
G75*
G02*
X183305769Y-146476653I-28679J40958D01*
G01*
X181871828Y-144428773D01*
G75*
G02*
X181884107Y-144359136I40958J28679D01*
G01*
X183972944Y-142896516D01*
G75*
G02*
X184042581Y-142908795I28679J-40958D01*
G01*
G37*
G36*
G01*
X196088644Y-137574819D02*
X197522585Y-139622699D01*
G75*
G02*
X197510306Y-139692336I-40958J-28679D01*
G01*
X195421469Y-141154956D01*
G75*
G02*
X195351832Y-141142677I-28679J40958D01*
G01*
X193917891Y-139094797D01*
G75*
G02*
X193930170Y-139025160I40958J28679D01*
G01*
X196019007Y-137562540D01*
G75*
G02*
X196088644Y-137574819I28679J-40958D01*
G01*
G37*
G36*
G01*
X107150000Y-79350000D02*
X108350000Y-79350000D01*
G75*
G02*
X108400000Y-79400000I0J-50000D01*
G01*
X108400000Y-80300000D01*
G75*
G02*
X108350000Y-80350000I-50000J0D01*
G01*
X107150000Y-80350000D01*
G75*
G02*
X107100000Y-80300000I0J50000D01*
G01*
X107100000Y-79400000D01*
G75*
G02*
X107150000Y-79350000I50000J0D01*
G01*
G37*
G36*
G01*
X107150000Y-82650000D02*
X108350000Y-82650000D01*
G75*
G02*
X108400000Y-82700000I0J-50000D01*
G01*
X108400000Y-83600000D01*
G75*
G02*
X108350000Y-83650000I-50000J0D01*
G01*
X107150000Y-83650000D01*
G75*
G02*
X107100000Y-83600000I0J50000D01*
G01*
X107100000Y-82700000D01*
G75*
G02*
X107150000Y-82650000I50000J0D01*
G01*
G37*
G36*
G01*
X107150000Y-62350000D02*
X108350000Y-62350000D01*
G75*
G02*
X108400000Y-62400000I0J-50000D01*
G01*
X108400000Y-63300000D01*
G75*
G02*
X108350000Y-63350000I-50000J0D01*
G01*
X107150000Y-63350000D01*
G75*
G02*
X107100000Y-63300000I0J50000D01*
G01*
X107100000Y-62400000D01*
G75*
G02*
X107150000Y-62350000I50000J0D01*
G01*
G37*
G36*
G01*
X107150000Y-65650000D02*
X108350000Y-65650000D01*
G75*
G02*
X108400000Y-65700000I0J-50000D01*
G01*
X108400000Y-66600000D01*
G75*
G02*
X108350000Y-66650000I-50000J0D01*
G01*
X107150000Y-66650000D01*
G75*
G02*
X107100000Y-66600000I0J50000D01*
G01*
X107100000Y-65700000D01*
G75*
G02*
X107150000Y-65650000I50000J0D01*
G01*
G37*
G36*
G01*
X129675190Y-80647037D02*
X130856959Y-80855414D01*
G75*
G02*
X130897517Y-80913336I-8682J-49240D01*
G01*
X130741234Y-81799663D01*
G75*
G02*
X130683312Y-81840221I-49240J8682D01*
G01*
X129501543Y-81631844D01*
G75*
G02*
X129460985Y-81573922I8682J49240D01*
G01*
X129617268Y-80687595D01*
G75*
G02*
X129675190Y-80647037I49240J-8682D01*
G01*
G37*
G36*
G01*
X129102152Y-83896903D02*
X130283921Y-84105280D01*
G75*
G02*
X130324479Y-84163202I-8682J-49240D01*
G01*
X130168196Y-85049529D01*
G75*
G02*
X130110274Y-85090087I-49240J8682D01*
G01*
X128928505Y-84881710D01*
G75*
G02*
X128887947Y-84823788I8682J49240D01*
G01*
X129044230Y-83937461D01*
G75*
G02*
X129102152Y-83896903I49240J-8682D01*
G01*
G37*
G36*
G01*
X132627209Y-63905305D02*
X133808978Y-64113682D01*
G75*
G02*
X133849536Y-64171604I-8682J-49240D01*
G01*
X133693253Y-65057931D01*
G75*
G02*
X133635331Y-65098489I-49240J8682D01*
G01*
X132453562Y-64890112D01*
G75*
G02*
X132413004Y-64832190I8682J49240D01*
G01*
X132569287Y-63945863D01*
G75*
G02*
X132627209Y-63905305I49240J-8682D01*
G01*
G37*
G36*
G01*
X132054171Y-67155171D02*
X133235940Y-67363548D01*
G75*
G02*
X133276498Y-67421470I-8682J-49240D01*
G01*
X133120215Y-68307797D01*
G75*
G02*
X133062293Y-68348355I-49240J8682D01*
G01*
X131880524Y-68139978D01*
G75*
G02*
X131839966Y-68082056I8682J49240D01*
G01*
X131996249Y-67195729D01*
G75*
G02*
X132054171Y-67155171I49240J-8682D01*
G01*
G37*
G36*
G01*
X135579228Y-47163573D02*
X136760997Y-47371950D01*
G75*
G02*
X136801555Y-47429872I-8682J-49240D01*
G01*
X136645272Y-48316199D01*
G75*
G02*
X136587350Y-48356757I-49240J8682D01*
G01*
X135405581Y-48148380D01*
G75*
G02*
X135365023Y-48090458I8682J49240D01*
G01*
X135521306Y-47204131D01*
G75*
G02*
X135579228Y-47163573I49240J-8682D01*
G01*
G37*
G36*
G01*
X135006190Y-50413439D02*
X136187959Y-50621816D01*
G75*
G02*
X136228517Y-50679738I-8682J-49240D01*
G01*
X136072234Y-51566065D01*
G75*
G02*
X136014312Y-51606623I-49240J8682D01*
G01*
X134832543Y-51398246D01*
G75*
G02*
X134791985Y-51340324I8682J49240D01*
G01*
X134948268Y-50453997D01*
G75*
G02*
X135006190Y-50413439I49240J-8682D01*
G01*
G37*
G36*
G01*
X152254834Y-80959754D02*
X153413945Y-81270337D01*
G75*
G02*
X153449300Y-81331574I-12941J-48296D01*
G01*
X153216363Y-82200907D01*
G75*
G02*
X153155126Y-82236262I-48296J12941D01*
G01*
X151996015Y-81925679D01*
G75*
G02*
X151960660Y-81864442I12941J48296D01*
G01*
X152193597Y-80995109D01*
G75*
G02*
X152254834Y-80959754I48296J-12941D01*
G01*
G37*
G36*
G01*
X151400732Y-84147310D02*
X152559843Y-84457893D01*
G75*
G02*
X152595198Y-84519130I-12941J-48296D01*
G01*
X152362261Y-85388463D01*
G75*
G02*
X152301024Y-85423818I-48296J12941D01*
G01*
X151141913Y-85113235D01*
G75*
G02*
X151106558Y-85051998I12941J48296D01*
G01*
X151339495Y-84182665D01*
G75*
G02*
X151400732Y-84147310I48296J-12941D01*
G01*
G37*
G36*
G01*
X156654758Y-64539015D02*
X157813869Y-64849598D01*
G75*
G02*
X157849224Y-64910835I-12941J-48296D01*
G01*
X157616287Y-65780168D01*
G75*
G02*
X157555050Y-65815523I-48296J12941D01*
G01*
X156395939Y-65504940D01*
G75*
G02*
X156360584Y-65443703I12941J48296D01*
G01*
X156593521Y-64574370D01*
G75*
G02*
X156654758Y-64539015I48296J-12941D01*
G01*
G37*
G36*
G01*
X155800656Y-67726571D02*
X156959767Y-68037154D01*
G75*
G02*
X156995122Y-68098391I-12941J-48296D01*
G01*
X156762185Y-68967724D01*
G75*
G02*
X156700948Y-69003079I-48296J12941D01*
G01*
X155541837Y-68692496D01*
G75*
G02*
X155506482Y-68631259I12941J48296D01*
G01*
X155739419Y-67761926D01*
G75*
G02*
X155800656Y-67726571I48296J-12941D01*
G01*
G37*
G36*
G01*
X161054682Y-48118276D02*
X162213793Y-48428859D01*
G75*
G02*
X162249148Y-48490096I-12941J-48296D01*
G01*
X162016211Y-49359429D01*
G75*
G02*
X161954974Y-49394784I-48296J12941D01*
G01*
X160795863Y-49084201D01*
G75*
G02*
X160760508Y-49022964I12941J48296D01*
G01*
X160993445Y-48153631D01*
G75*
G02*
X161054682Y-48118276I48296J-12941D01*
G01*
G37*
G36*
G01*
X160200580Y-51305832D02*
X161359691Y-51616415D01*
G75*
G02*
X161395046Y-51677652I-12941J-48296D01*
G01*
X161162109Y-52546985D01*
G75*
G02*
X161100872Y-52582340I-48296J12941D01*
G01*
X159941761Y-52271757D01*
G75*
G02*
X159906406Y-52210520I12941J48296D01*
G01*
X160139343Y-51341187D01*
G75*
G02*
X160200580Y-51305832I48296J-12941D01*
G01*
G37*
G36*
G01*
X170376858Y-100358098D02*
X171464427Y-100865239D01*
G75*
G02*
X171488611Y-100931685I-21131J-45315D01*
G01*
X171108254Y-101747362D01*
G75*
G02*
X171041808Y-101771546I-45315J21131D01*
G01*
X169954239Y-101264405D01*
G75*
G02*
X169930055Y-101197959I21131J45315D01*
G01*
X170310412Y-100382282D01*
G75*
G02*
X170376858Y-100358098I45315J-21131D01*
G01*
G37*
G36*
G01*
X168982218Y-103348914D02*
X170069787Y-103856055D01*
G75*
G02*
X170093971Y-103922501I-21131J-45315D01*
G01*
X169713614Y-104738178D01*
G75*
G02*
X169647168Y-104762362I-45315J21131D01*
G01*
X168559599Y-104255221D01*
G75*
G02*
X168535415Y-104188775I21131J45315D01*
G01*
X168915772Y-103373098D01*
G75*
G02*
X168982218Y-103348914I45315J-21131D01*
G01*
G37*
G36*
G01*
X177561369Y-84950866D02*
X178648938Y-85458007D01*
G75*
G02*
X178673122Y-85524453I-21131J-45315D01*
G01*
X178292765Y-86340130D01*
G75*
G02*
X178226319Y-86364314I-45315J21131D01*
G01*
X177138750Y-85857173D01*
G75*
G02*
X177114566Y-85790727I21131J45315D01*
G01*
X177494923Y-84975050D01*
G75*
G02*
X177561369Y-84950866I45315J-21131D01*
G01*
G37*
G36*
G01*
X176166729Y-87941682D02*
X177254298Y-88448823D01*
G75*
G02*
X177278482Y-88515269I-21131J-45315D01*
G01*
X176898125Y-89330946D01*
G75*
G02*
X176831679Y-89355130I-45315J21131D01*
G01*
X175744110Y-88847989D01*
G75*
G02*
X175719926Y-88781543I21131J45315D01*
G01*
X176100283Y-87965866D01*
G75*
G02*
X176166729Y-87941682I45315J-21131D01*
G01*
G37*
G36*
G01*
X184745879Y-69543633D02*
X185833448Y-70050774D01*
G75*
G02*
X185857632Y-70117220I-21131J-45315D01*
G01*
X185477275Y-70932897D01*
G75*
G02*
X185410829Y-70957081I-45315J21131D01*
G01*
X184323260Y-70449940D01*
G75*
G02*
X184299076Y-70383494I21131J45315D01*
G01*
X184679433Y-69567817D01*
G75*
G02*
X184745879Y-69543633I45315J-21131D01*
G01*
G37*
G36*
G01*
X183351239Y-72534449D02*
X184438808Y-73041590D01*
G75*
G02*
X184462992Y-73108036I-21131J-45315D01*
G01*
X184082635Y-73923713D01*
G75*
G02*
X184016189Y-73947897I-45315J21131D01*
G01*
X182928620Y-73440756D01*
G75*
G02*
X182904436Y-73374310I21131J45315D01*
G01*
X183284793Y-72558633D01*
G75*
G02*
X183351239Y-72534449I45315J-21131D01*
G01*
G37*
G36*
G01*
X172015245Y-118554292D02*
X172786591Y-117635039D01*
G75*
G02*
X172857032Y-117628876I38302J-32139D01*
G01*
X173546472Y-118207385D01*
G75*
G02*
X173552635Y-118277826I-32139J-38302D01*
G01*
X172781289Y-119197079D01*
G75*
G02*
X172710848Y-119203242I-38302J32139D01*
G01*
X172021408Y-118624733D01*
G75*
G02*
X172015245Y-118554292I32139J38302D01*
G01*
G37*
G36*
G01*
X174543191Y-120675492D02*
X175314537Y-119756239D01*
G75*
G02*
X175384978Y-119750076I38302J-32139D01*
G01*
X176074418Y-120328585D01*
G75*
G02*
X176080581Y-120399026I-32139J-38302D01*
G01*
X175309235Y-121318279D01*
G75*
G02*
X175238794Y-121324442I-38302J32139D01*
G01*
X174549354Y-120745933D01*
G75*
G02*
X174543191Y-120675492I32139J38302D01*
G01*
G37*
G36*
G01*
X191784366Y-131457311D02*
X192767349Y-130769020D01*
G75*
G02*
X192836986Y-130781299I28679J-40958D01*
G01*
X193353205Y-131518536D01*
G75*
G02*
X193340926Y-131588173I-40958J-28679D01*
G01*
X192357943Y-132276464D01*
G75*
G02*
X192288306Y-132264185I-28679J40958D01*
G01*
X191772087Y-131526948D01*
G75*
G02*
X191784366Y-131457311I40958J28679D01*
G01*
G37*
G36*
G01*
X193677168Y-134160513D02*
X194660151Y-133472222D01*
G75*
G02*
X194729788Y-133484501I28679J-40958D01*
G01*
X195246007Y-134221738D01*
G75*
G02*
X195233728Y-134291375I-40958J-28679D01*
G01*
X194250745Y-134979666D01*
G75*
G02*
X194181108Y-134967387I-28679J40958D01*
G01*
X193664889Y-134230150D01*
G75*
G02*
X193677168Y-134160513I40958J28679D01*
G01*
G37*
D18*
X96300000Y-108620000D03*
X96300000Y-93380000D03*
D19*
X96300000Y-104400000D03*
X96300000Y-97600000D03*
G36*
G01*
X96900000Y-106830000D02*
X95700000Y-106830000D01*
G75*
G02*
X95650000Y-106780000I0J50000D01*
G01*
X95650000Y-106180000D01*
G75*
G02*
X95700000Y-106130000I50000J0D01*
G01*
X96900000Y-106130000D01*
G75*
G02*
X96950000Y-106180000I0J-50000D01*
G01*
X96950000Y-106780000D01*
G75*
G02*
X96900000Y-106830000I-50000J0D01*
G01*
G37*
G36*
G01*
X96900000Y-105930000D02*
X95700000Y-105930000D01*
G75*
G02*
X95650000Y-105880000I0J50000D01*
G01*
X95650000Y-105280000D01*
G75*
G02*
X95700000Y-105230000I50000J0D01*
G01*
X96900000Y-105230000D01*
G75*
G02*
X96950000Y-105280000I0J-50000D01*
G01*
X96950000Y-105880000D01*
G75*
G02*
X96900000Y-105930000I-50000J0D01*
G01*
G37*
G36*
G01*
X96900000Y-96770000D02*
X95700000Y-96770000D01*
G75*
G02*
X95650000Y-96720000I0J50000D01*
G01*
X95650000Y-96120000D01*
G75*
G02*
X95700000Y-96070000I50000J0D01*
G01*
X96900000Y-96070000D01*
G75*
G02*
X96950000Y-96120000I0J-50000D01*
G01*
X96950000Y-96720000D01*
G75*
G02*
X96900000Y-96770000I-50000J0D01*
G01*
G37*
G36*
G01*
X96900000Y-95870000D02*
X95700000Y-95870000D01*
G75*
G02*
X95650000Y-95820000I0J50000D01*
G01*
X95650000Y-95220000D01*
G75*
G02*
X95700000Y-95170000I50000J0D01*
G01*
X96900000Y-95170000D01*
G75*
G02*
X96950000Y-95220000I0J-50000D01*
G01*
X96950000Y-95820000D01*
G75*
G02*
X96900000Y-95870000I-50000J0D01*
G01*
G37*
D18*
X98840000Y-108620000D03*
X98840000Y-93380000D03*
D19*
X98840000Y-104400000D03*
X98840000Y-97600000D03*
G36*
G01*
X99440000Y-106830000D02*
X98240000Y-106830000D01*
G75*
G02*
X98190000Y-106780000I0J50000D01*
G01*
X98190000Y-106180000D01*
G75*
G02*
X98240000Y-106130000I50000J0D01*
G01*
X99440000Y-106130000D01*
G75*
G02*
X99490000Y-106180000I0J-50000D01*
G01*
X99490000Y-106780000D01*
G75*
G02*
X99440000Y-106830000I-50000J0D01*
G01*
G37*
G36*
G01*
X99440000Y-105930000D02*
X98240000Y-105930000D01*
G75*
G02*
X98190000Y-105880000I0J50000D01*
G01*
X98190000Y-105280000D01*
G75*
G02*
X98240000Y-105230000I50000J0D01*
G01*
X99440000Y-105230000D01*
G75*
G02*
X99490000Y-105280000I0J-50000D01*
G01*
X99490000Y-105880000D01*
G75*
G02*
X99440000Y-105930000I-50000J0D01*
G01*
G37*
G36*
G01*
X99440000Y-96770000D02*
X98240000Y-96770000D01*
G75*
G02*
X98190000Y-96720000I0J50000D01*
G01*
X98190000Y-96120000D01*
G75*
G02*
X98240000Y-96070000I50000J0D01*
G01*
X99440000Y-96070000D01*
G75*
G02*
X99490000Y-96120000I0J-50000D01*
G01*
X99490000Y-96720000D01*
G75*
G02*
X99440000Y-96770000I-50000J0D01*
G01*
G37*
G36*
G01*
X99440000Y-95870000D02*
X98240000Y-95870000D01*
G75*
G02*
X98190000Y-95820000I0J50000D01*
G01*
X98190000Y-95220000D01*
G75*
G02*
X98240000Y-95170000I50000J0D01*
G01*
X99440000Y-95170000D01*
G75*
G02*
X99490000Y-95220000I0J-50000D01*
G01*
X99490000Y-95820000D01*
G75*
G02*
X99440000Y-95870000I-50000J0D01*
G01*
G37*
D18*
X101380000Y-108620000D03*
X101380000Y-93380000D03*
D19*
X101380000Y-104400000D03*
X101380000Y-97600000D03*
G36*
G01*
X101980000Y-106830000D02*
X100780000Y-106830000D01*
G75*
G02*
X100730000Y-106780000I0J50000D01*
G01*
X100730000Y-106180000D01*
G75*
G02*
X100780000Y-106130000I50000J0D01*
G01*
X101980000Y-106130000D01*
G75*
G02*
X102030000Y-106180000I0J-50000D01*
G01*
X102030000Y-106780000D01*
G75*
G02*
X101980000Y-106830000I-50000J0D01*
G01*
G37*
G36*
G01*
X101980000Y-105930000D02*
X100780000Y-105930000D01*
G75*
G02*
X100730000Y-105880000I0J50000D01*
G01*
X100730000Y-105280000D01*
G75*
G02*
X100780000Y-105230000I50000J0D01*
G01*
X101980000Y-105230000D01*
G75*
G02*
X102030000Y-105280000I0J-50000D01*
G01*
X102030000Y-105880000D01*
G75*
G02*
X101980000Y-105930000I-50000J0D01*
G01*
G37*
G36*
G01*
X101980000Y-96770000D02*
X100780000Y-96770000D01*
G75*
G02*
X100730000Y-96720000I0J50000D01*
G01*
X100730000Y-96120000D01*
G75*
G02*
X100780000Y-96070000I50000J0D01*
G01*
X101980000Y-96070000D01*
G75*
G02*
X102030000Y-96120000I0J-50000D01*
G01*
X102030000Y-96720000D01*
G75*
G02*
X101980000Y-96770000I-50000J0D01*
G01*
G37*
G36*
G01*
X101980000Y-95870000D02*
X100780000Y-95870000D01*
G75*
G02*
X100730000Y-95820000I0J50000D01*
G01*
X100730000Y-95220000D01*
G75*
G02*
X100780000Y-95170000I50000J0D01*
G01*
X101980000Y-95170000D01*
G75*
G02*
X102030000Y-95220000I0J-50000D01*
G01*
X102030000Y-95820000D01*
G75*
G02*
X101980000Y-95870000I-50000J0D01*
G01*
G37*
D18*
X103920000Y-108620000D03*
X103920000Y-93380000D03*
D19*
X103920000Y-104400000D03*
X103920000Y-97600000D03*
G36*
G01*
X104520000Y-106830000D02*
X103320000Y-106830000D01*
G75*
G02*
X103270000Y-106780000I0J50000D01*
G01*
X103270000Y-106180000D01*
G75*
G02*
X103320000Y-106130000I50000J0D01*
G01*
X104520000Y-106130000D01*
G75*
G02*
X104570000Y-106180000I0J-50000D01*
G01*
X104570000Y-106780000D01*
G75*
G02*
X104520000Y-106830000I-50000J0D01*
G01*
G37*
G36*
G01*
X104520000Y-105930000D02*
X103320000Y-105930000D01*
G75*
G02*
X103270000Y-105880000I0J50000D01*
G01*
X103270000Y-105280000D01*
G75*
G02*
X103320000Y-105230000I50000J0D01*
G01*
X104520000Y-105230000D01*
G75*
G02*
X104570000Y-105280000I0J-50000D01*
G01*
X104570000Y-105880000D01*
G75*
G02*
X104520000Y-105930000I-50000J0D01*
G01*
G37*
G36*
G01*
X104520000Y-96770000D02*
X103320000Y-96770000D01*
G75*
G02*
X103270000Y-96720000I0J50000D01*
G01*
X103270000Y-96120000D01*
G75*
G02*
X103320000Y-96070000I50000J0D01*
G01*
X104520000Y-96070000D01*
G75*
G02*
X104570000Y-96120000I0J-50000D01*
G01*
X104570000Y-96720000D01*
G75*
G02*
X104520000Y-96770000I-50000J0D01*
G01*
G37*
G36*
G01*
X104520000Y-95870000D02*
X103320000Y-95870000D01*
G75*
G02*
X103270000Y-95820000I0J50000D01*
G01*
X103270000Y-95220000D01*
G75*
G02*
X103320000Y-95170000I50000J0D01*
G01*
X104520000Y-95170000D01*
G75*
G02*
X104570000Y-95220000I0J-50000D01*
G01*
X104570000Y-95820000D01*
G75*
G02*
X104520000Y-95870000I-50000J0D01*
G01*
G37*
D18*
X106460000Y-108620000D03*
X106460000Y-93380000D03*
D19*
X106460000Y-104400000D03*
X106460000Y-97600000D03*
G36*
G01*
X107060000Y-106830000D02*
X105860000Y-106830000D01*
G75*
G02*
X105810000Y-106780000I0J50000D01*
G01*
X105810000Y-106180000D01*
G75*
G02*
X105860000Y-106130000I50000J0D01*
G01*
X107060000Y-106130000D01*
G75*
G02*
X107110000Y-106180000I0J-50000D01*
G01*
X107110000Y-106780000D01*
G75*
G02*
X107060000Y-106830000I-50000J0D01*
G01*
G37*
G36*
G01*
X107060000Y-105930000D02*
X105860000Y-105930000D01*
G75*
G02*
X105810000Y-105880000I0J50000D01*
G01*
X105810000Y-105280000D01*
G75*
G02*
X105860000Y-105230000I50000J0D01*
G01*
X107060000Y-105230000D01*
G75*
G02*
X107110000Y-105280000I0J-50000D01*
G01*
X107110000Y-105880000D01*
G75*
G02*
X107060000Y-105930000I-50000J0D01*
G01*
G37*
G36*
G01*
X107060000Y-96770000D02*
X105860000Y-96770000D01*
G75*
G02*
X105810000Y-96720000I0J50000D01*
G01*
X105810000Y-96120000D01*
G75*
G02*
X105860000Y-96070000I50000J0D01*
G01*
X107060000Y-96070000D01*
G75*
G02*
X107110000Y-96120000I0J-50000D01*
G01*
X107110000Y-96720000D01*
G75*
G02*
X107060000Y-96770000I-50000J0D01*
G01*
G37*
G36*
G01*
X107060000Y-95870000D02*
X105860000Y-95870000D01*
G75*
G02*
X105810000Y-95820000I0J50000D01*
G01*
X105810000Y-95220000D01*
G75*
G02*
X105860000Y-95170000I50000J0D01*
G01*
X107060000Y-95170000D01*
G75*
G02*
X107110000Y-95220000I0J-50000D01*
G01*
X107110000Y-95820000D01*
G75*
G02*
X107060000Y-95870000I-50000J0D01*
G01*
G37*
D18*
X109000000Y-108620000D03*
X109000000Y-93380000D03*
D19*
X109000000Y-104400000D03*
X109000000Y-97600000D03*
G36*
G01*
X109600000Y-106830000D02*
X108400000Y-106830000D01*
G75*
G02*
X108350000Y-106780000I0J50000D01*
G01*
X108350000Y-106180000D01*
G75*
G02*
X108400000Y-106130000I50000J0D01*
G01*
X109600000Y-106130000D01*
G75*
G02*
X109650000Y-106180000I0J-50000D01*
G01*
X109650000Y-106780000D01*
G75*
G02*
X109600000Y-106830000I-50000J0D01*
G01*
G37*
G36*
G01*
X109600000Y-105930000D02*
X108400000Y-105930000D01*
G75*
G02*
X108350000Y-105880000I0J50000D01*
G01*
X108350000Y-105280000D01*
G75*
G02*
X108400000Y-105230000I50000J0D01*
G01*
X109600000Y-105230000D01*
G75*
G02*
X109650000Y-105280000I0J-50000D01*
G01*
X109650000Y-105880000D01*
G75*
G02*
X109600000Y-105930000I-50000J0D01*
G01*
G37*
G36*
G01*
X109600000Y-96770000D02*
X108400000Y-96770000D01*
G75*
G02*
X108350000Y-96720000I0J50000D01*
G01*
X108350000Y-96120000D01*
G75*
G02*
X108400000Y-96070000I50000J0D01*
G01*
X109600000Y-96070000D01*
G75*
G02*
X109650000Y-96120000I0J-50000D01*
G01*
X109650000Y-96720000D01*
G75*
G02*
X109600000Y-96770000I-50000J0D01*
G01*
G37*
G36*
G01*
X109600000Y-95870000D02*
X108400000Y-95870000D01*
G75*
G02*
X108350000Y-95820000I0J50000D01*
G01*
X108350000Y-95220000D01*
G75*
G02*
X108400000Y-95170000I50000J0D01*
G01*
X109600000Y-95170000D01*
G75*
G02*
X109650000Y-95220000I0J-50000D01*
G01*
X109650000Y-95820000D01*
G75*
G02*
X109600000Y-95870000I-50000J0D01*
G01*
G37*
D18*
X111540000Y-108620000D03*
X111540000Y-93380000D03*
D19*
X111540000Y-104400000D03*
X111540000Y-97600000D03*
G36*
G01*
X112140000Y-106830000D02*
X110940000Y-106830000D01*
G75*
G02*
X110890000Y-106780000I0J50000D01*
G01*
X110890000Y-106180000D01*
G75*
G02*
X110940000Y-106130000I50000J0D01*
G01*
X112140000Y-106130000D01*
G75*
G02*
X112190000Y-106180000I0J-50000D01*
G01*
X112190000Y-106780000D01*
G75*
G02*
X112140000Y-106830000I-50000J0D01*
G01*
G37*
G36*
G01*
X112140000Y-105930000D02*
X110940000Y-105930000D01*
G75*
G02*
X110890000Y-105880000I0J50000D01*
G01*
X110890000Y-105280000D01*
G75*
G02*
X110940000Y-105230000I50000J0D01*
G01*
X112140000Y-105230000D01*
G75*
G02*
X112190000Y-105280000I0J-50000D01*
G01*
X112190000Y-105880000D01*
G75*
G02*
X112140000Y-105930000I-50000J0D01*
G01*
G37*
G36*
G01*
X112140000Y-96770000D02*
X110940000Y-96770000D01*
G75*
G02*
X110890000Y-96720000I0J50000D01*
G01*
X110890000Y-96120000D01*
G75*
G02*
X110940000Y-96070000I50000J0D01*
G01*
X112140000Y-96070000D01*
G75*
G02*
X112190000Y-96120000I0J-50000D01*
G01*
X112190000Y-96720000D01*
G75*
G02*
X112140000Y-96770000I-50000J0D01*
G01*
G37*
G36*
G01*
X112140000Y-95870000D02*
X110940000Y-95870000D01*
G75*
G02*
X110890000Y-95820000I0J50000D01*
G01*
X110890000Y-95220000D01*
G75*
G02*
X110940000Y-95170000I50000J0D01*
G01*
X112140000Y-95170000D01*
G75*
G02*
X112190000Y-95220000I0J-50000D01*
G01*
X112190000Y-95820000D01*
G75*
G02*
X112140000Y-95870000I-50000J0D01*
G01*
G37*
D18*
X114080000Y-108620000D03*
X114080000Y-93380000D03*
D19*
X114080000Y-104400000D03*
X114080000Y-97600000D03*
G36*
G01*
X114680000Y-106830000D02*
X113480000Y-106830000D01*
G75*
G02*
X113430000Y-106780000I0J50000D01*
G01*
X113430000Y-106180000D01*
G75*
G02*
X113480000Y-106130000I50000J0D01*
G01*
X114680000Y-106130000D01*
G75*
G02*
X114730000Y-106180000I0J-50000D01*
G01*
X114730000Y-106780000D01*
G75*
G02*
X114680000Y-106830000I-50000J0D01*
G01*
G37*
G36*
G01*
X114680000Y-105930000D02*
X113480000Y-105930000D01*
G75*
G02*
X113430000Y-105880000I0J50000D01*
G01*
X113430000Y-105280000D01*
G75*
G02*
X113480000Y-105230000I50000J0D01*
G01*
X114680000Y-105230000D01*
G75*
G02*
X114730000Y-105280000I0J-50000D01*
G01*
X114730000Y-105880000D01*
G75*
G02*
X114680000Y-105930000I-50000J0D01*
G01*
G37*
G36*
G01*
X114680000Y-96770000D02*
X113480000Y-96770000D01*
G75*
G02*
X113430000Y-96720000I0J50000D01*
G01*
X113430000Y-96120000D01*
G75*
G02*
X113480000Y-96070000I50000J0D01*
G01*
X114680000Y-96070000D01*
G75*
G02*
X114730000Y-96120000I0J-50000D01*
G01*
X114730000Y-96720000D01*
G75*
G02*
X114680000Y-96770000I-50000J0D01*
G01*
G37*
G36*
G01*
X114680000Y-95870000D02*
X113480000Y-95870000D01*
G75*
G02*
X113430000Y-95820000I0J50000D01*
G01*
X113430000Y-95220000D01*
G75*
G02*
X113480000Y-95170000I50000J0D01*
G01*
X114680000Y-95170000D01*
G75*
G02*
X114730000Y-95220000I0J-50000D01*
G01*
X114730000Y-95820000D01*
G75*
G02*
X114680000Y-95870000I-50000J0D01*
G01*
G37*
D18*
X116620000Y-108620000D03*
X116620000Y-93380000D03*
D19*
X116620000Y-104400000D03*
X116620000Y-97600000D03*
G36*
G01*
X117220000Y-106830000D02*
X116020000Y-106830000D01*
G75*
G02*
X115970000Y-106780000I0J50000D01*
G01*
X115970000Y-106180000D01*
G75*
G02*
X116020000Y-106130000I50000J0D01*
G01*
X117220000Y-106130000D01*
G75*
G02*
X117270000Y-106180000I0J-50000D01*
G01*
X117270000Y-106780000D01*
G75*
G02*
X117220000Y-106830000I-50000J0D01*
G01*
G37*
G36*
G01*
X117220000Y-105930000D02*
X116020000Y-105930000D01*
G75*
G02*
X115970000Y-105880000I0J50000D01*
G01*
X115970000Y-105280000D01*
G75*
G02*
X116020000Y-105230000I50000J0D01*
G01*
X117220000Y-105230000D01*
G75*
G02*
X117270000Y-105280000I0J-50000D01*
G01*
X117270000Y-105880000D01*
G75*
G02*
X117220000Y-105930000I-50000J0D01*
G01*
G37*
G36*
G01*
X117220000Y-96770000D02*
X116020000Y-96770000D01*
G75*
G02*
X115970000Y-96720000I0J50000D01*
G01*
X115970000Y-96120000D01*
G75*
G02*
X116020000Y-96070000I50000J0D01*
G01*
X117220000Y-96070000D01*
G75*
G02*
X117270000Y-96120000I0J-50000D01*
G01*
X117270000Y-96720000D01*
G75*
G02*
X117220000Y-96770000I-50000J0D01*
G01*
G37*
G36*
G01*
X117220000Y-95870000D02*
X116020000Y-95870000D01*
G75*
G02*
X115970000Y-95820000I0J50000D01*
G01*
X115970000Y-95220000D01*
G75*
G02*
X116020000Y-95170000I50000J0D01*
G01*
X117220000Y-95170000D01*
G75*
G02*
X117270000Y-95220000I0J-50000D01*
G01*
X117270000Y-95820000D01*
G75*
G02*
X117220000Y-95870000I-50000J0D01*
G01*
G37*
D18*
X119160000Y-108620000D03*
X119160000Y-93380000D03*
D19*
X119160000Y-104400000D03*
X119160000Y-97600000D03*
G36*
G01*
X119760000Y-106830000D02*
X118560000Y-106830000D01*
G75*
G02*
X118510000Y-106780000I0J50000D01*
G01*
X118510000Y-106180000D01*
G75*
G02*
X118560000Y-106130000I50000J0D01*
G01*
X119760000Y-106130000D01*
G75*
G02*
X119810000Y-106180000I0J-50000D01*
G01*
X119810000Y-106780000D01*
G75*
G02*
X119760000Y-106830000I-50000J0D01*
G01*
G37*
G36*
G01*
X119760000Y-105930000D02*
X118560000Y-105930000D01*
G75*
G02*
X118510000Y-105880000I0J50000D01*
G01*
X118510000Y-105280000D01*
G75*
G02*
X118560000Y-105230000I50000J0D01*
G01*
X119760000Y-105230000D01*
G75*
G02*
X119810000Y-105280000I0J-50000D01*
G01*
X119810000Y-105880000D01*
G75*
G02*
X119760000Y-105930000I-50000J0D01*
G01*
G37*
G36*
G01*
X119760000Y-96770000D02*
X118560000Y-96770000D01*
G75*
G02*
X118510000Y-96720000I0J50000D01*
G01*
X118510000Y-96120000D01*
G75*
G02*
X118560000Y-96070000I50000J0D01*
G01*
X119760000Y-96070000D01*
G75*
G02*
X119810000Y-96120000I0J-50000D01*
G01*
X119810000Y-96720000D01*
G75*
G02*
X119760000Y-96770000I-50000J0D01*
G01*
G37*
G36*
G01*
X119760000Y-95870000D02*
X118560000Y-95870000D01*
G75*
G02*
X118510000Y-95820000I0J50000D01*
G01*
X118510000Y-95220000D01*
G75*
G02*
X118560000Y-95170000I50000J0D01*
G01*
X119760000Y-95170000D01*
G75*
G02*
X119810000Y-95220000I0J-50000D01*
G01*
X119810000Y-95820000D01*
G75*
G02*
X119760000Y-95870000I-50000J0D01*
G01*
G37*
D18*
X121700000Y-108620000D03*
X121700000Y-93380000D03*
D19*
X121700000Y-104400000D03*
X121700000Y-97600000D03*
G36*
G01*
X122300000Y-106830000D02*
X121100000Y-106830000D01*
G75*
G02*
X121050000Y-106780000I0J50000D01*
G01*
X121050000Y-106180000D01*
G75*
G02*
X121100000Y-106130000I50000J0D01*
G01*
X122300000Y-106130000D01*
G75*
G02*
X122350000Y-106180000I0J-50000D01*
G01*
X122350000Y-106780000D01*
G75*
G02*
X122300000Y-106830000I-50000J0D01*
G01*
G37*
G36*
G01*
X122300000Y-105930000D02*
X121100000Y-105930000D01*
G75*
G02*
X121050000Y-105880000I0J50000D01*
G01*
X121050000Y-105280000D01*
G75*
G02*
X121100000Y-105230000I50000J0D01*
G01*
X122300000Y-105230000D01*
G75*
G02*
X122350000Y-105280000I0J-50000D01*
G01*
X122350000Y-105880000D01*
G75*
G02*
X122300000Y-105930000I-50000J0D01*
G01*
G37*
G36*
G01*
X122300000Y-96770000D02*
X121100000Y-96770000D01*
G75*
G02*
X121050000Y-96720000I0J50000D01*
G01*
X121050000Y-96120000D01*
G75*
G02*
X121100000Y-96070000I50000J0D01*
G01*
X122300000Y-96070000D01*
G75*
G02*
X122350000Y-96120000I0J-50000D01*
G01*
X122350000Y-96720000D01*
G75*
G02*
X122300000Y-96770000I-50000J0D01*
G01*
G37*
G36*
G01*
X122300000Y-95870000D02*
X121100000Y-95870000D01*
G75*
G02*
X121050000Y-95820000I0J50000D01*
G01*
X121050000Y-95220000D01*
G75*
G02*
X121100000Y-95170000I50000J0D01*
G01*
X122300000Y-95170000D01*
G75*
G02*
X122350000Y-95220000I0J-50000D01*
G01*
X122350000Y-95820000D01*
G75*
G02*
X122300000Y-95870000I-50000J0D01*
G01*
G37*
D18*
X124240000Y-108620000D03*
X124240000Y-93380000D03*
D19*
X124240000Y-104400000D03*
X124240000Y-97600000D03*
G36*
G01*
X124840000Y-106830000D02*
X123640000Y-106830000D01*
G75*
G02*
X123590000Y-106780000I0J50000D01*
G01*
X123590000Y-106180000D01*
G75*
G02*
X123640000Y-106130000I50000J0D01*
G01*
X124840000Y-106130000D01*
G75*
G02*
X124890000Y-106180000I0J-50000D01*
G01*
X124890000Y-106780000D01*
G75*
G02*
X124840000Y-106830000I-50000J0D01*
G01*
G37*
G36*
G01*
X124840000Y-105930000D02*
X123640000Y-105930000D01*
G75*
G02*
X123590000Y-105880000I0J50000D01*
G01*
X123590000Y-105280000D01*
G75*
G02*
X123640000Y-105230000I50000J0D01*
G01*
X124840000Y-105230000D01*
G75*
G02*
X124890000Y-105280000I0J-50000D01*
G01*
X124890000Y-105880000D01*
G75*
G02*
X124840000Y-105930000I-50000J0D01*
G01*
G37*
G36*
G01*
X124840000Y-96770000D02*
X123640000Y-96770000D01*
G75*
G02*
X123590000Y-96720000I0J50000D01*
G01*
X123590000Y-96120000D01*
G75*
G02*
X123640000Y-96070000I50000J0D01*
G01*
X124840000Y-96070000D01*
G75*
G02*
X124890000Y-96120000I0J-50000D01*
G01*
X124890000Y-96720000D01*
G75*
G02*
X124840000Y-96770000I-50000J0D01*
G01*
G37*
G36*
G01*
X124840000Y-95870000D02*
X123640000Y-95870000D01*
G75*
G02*
X123590000Y-95820000I0J50000D01*
G01*
X123590000Y-95220000D01*
G75*
G02*
X123640000Y-95170000I50000J0D01*
G01*
X124840000Y-95170000D01*
G75*
G02*
X124890000Y-95220000I0J-50000D01*
G01*
X124890000Y-95820000D01*
G75*
G02*
X124840000Y-95870000I-50000J0D01*
G01*
G37*
G36*
G01*
X127800000Y-105480000D02*
X127800000Y-106680000D01*
G75*
G02*
X127750000Y-106730000I-50000J0D01*
G01*
X127150000Y-106730000D01*
G75*
G02*
X127100000Y-106680000I0J50000D01*
G01*
X127100000Y-105480000D01*
G75*
G02*
X127150000Y-105430000I50000J0D01*
G01*
X127750000Y-105430000D01*
G75*
G02*
X127800000Y-105480000I0J-50000D01*
G01*
G37*
G36*
G01*
X127800000Y-102940000D02*
X127800000Y-104140000D01*
G75*
G02*
X127750000Y-104190000I-50000J0D01*
G01*
X127150000Y-104190000D01*
G75*
G02*
X127100000Y-104140000I0J50000D01*
G01*
X127100000Y-102940000D01*
G75*
G02*
X127150000Y-102890000I50000J0D01*
G01*
X127750000Y-102890000D01*
G75*
G02*
X127800000Y-102940000I0J-50000D01*
G01*
G37*
G36*
G01*
X127800000Y-97860000D02*
X127800000Y-99060000D01*
G75*
G02*
X127750000Y-99110000I-50000J0D01*
G01*
X127150000Y-99110000D01*
G75*
G02*
X127100000Y-99060000I0J50000D01*
G01*
X127100000Y-97860000D01*
G75*
G02*
X127150000Y-97810000I50000J0D01*
G01*
X127750000Y-97810000D01*
G75*
G02*
X127800000Y-97860000I0J-50000D01*
G01*
G37*
G36*
G01*
X127800000Y-95320000D02*
X127800000Y-96520000D01*
G75*
G02*
X127750000Y-96570000I-50000J0D01*
G01*
X127150000Y-96570000D01*
G75*
G02*
X127100000Y-96520000I0J50000D01*
G01*
X127100000Y-95320000D01*
G75*
G02*
X127150000Y-95270000I50000J0D01*
G01*
X127750000Y-95270000D01*
G75*
G02*
X127800000Y-95320000I0J-50000D01*
G01*
G37*
G36*
G01*
X128700000Y-105480000D02*
X128700000Y-106680000D01*
G75*
G02*
X128650000Y-106730000I-50000J0D01*
G01*
X128050000Y-106730000D01*
G75*
G02*
X128000000Y-106680000I0J50000D01*
G01*
X128000000Y-105480000D01*
G75*
G02*
X128050000Y-105430000I50000J0D01*
G01*
X128650000Y-105430000D01*
G75*
G02*
X128700000Y-105480000I0J-50000D01*
G01*
G37*
G36*
G01*
X128700000Y-102940000D02*
X128700000Y-104140000D01*
G75*
G02*
X128650000Y-104190000I-50000J0D01*
G01*
X128050000Y-104190000D01*
G75*
G02*
X128000000Y-104140000I0J50000D01*
G01*
X128000000Y-102940000D01*
G75*
G02*
X128050000Y-102890000I50000J0D01*
G01*
X128650000Y-102890000D01*
G75*
G02*
X128700000Y-102940000I0J-50000D01*
G01*
G37*
G36*
G01*
X128700000Y-97860000D02*
X128700000Y-99060000D01*
G75*
G02*
X128650000Y-99110000I-50000J0D01*
G01*
X128050000Y-99110000D01*
G75*
G02*
X128000000Y-99060000I0J50000D01*
G01*
X128000000Y-97860000D01*
G75*
G02*
X128050000Y-97810000I50000J0D01*
G01*
X128650000Y-97810000D01*
G75*
G02*
X128700000Y-97860000I0J-50000D01*
G01*
G37*
G36*
G01*
X128700000Y-95320000D02*
X128700000Y-96520000D01*
G75*
G02*
X128650000Y-96570000I-50000J0D01*
G01*
X128050000Y-96570000D01*
G75*
G02*
X128000000Y-96520000I0J50000D01*
G01*
X128000000Y-95320000D01*
G75*
G02*
X128050000Y-95270000I50000J0D01*
G01*
X128650000Y-95270000D01*
G75*
G02*
X128700000Y-95320000I0J-50000D01*
G01*
G37*
D20*
X125700000Y-106080000D03*
X125700000Y-103540000D03*
X125700000Y-101000000D03*
X125700000Y-98460000D03*
D18*
X125700000Y-95920000D03*
G36*
G01*
X135623564Y-125450771D02*
X135897180Y-124699017D01*
G75*
G02*
X135961266Y-124669133I46985J-17101D01*
G01*
X136900958Y-125011153D01*
G75*
G02*
X136930842Y-125075239I-17101J-46985D01*
G01*
X136657226Y-125826993D01*
G75*
G02*
X136593140Y-125856877I-46985J17101D01*
G01*
X135653448Y-125514857D01*
G75*
G02*
X135623564Y-125450771I17101J46985D01*
G01*
G37*
G36*
G01*
X136379429Y-123374050D02*
X136653045Y-122622296D01*
G75*
G02*
X136717131Y-122592412I46985J-17101D01*
G01*
X137656823Y-122934432D01*
G75*
G02*
X137686707Y-122998518I-17101J-46985D01*
G01*
X137413091Y-123750272D01*
G75*
G02*
X137349005Y-123780156I-46985J17101D01*
G01*
X136409313Y-123438136D01*
G75*
G02*
X136379429Y-123374050I17101J46985D01*
G01*
G37*
G36*
G01*
X129519673Y-120877303D02*
X129793289Y-120125549D01*
G75*
G02*
X129857375Y-120095665I46985J-17101D01*
G01*
X130797067Y-120437685D01*
G75*
G02*
X130826951Y-120501771I-17101J-46985D01*
G01*
X130553335Y-121253525D01*
G75*
G02*
X130489249Y-121283409I-46985J17101D01*
G01*
X129549557Y-120941389D01*
G75*
G02*
X129519673Y-120877303I17101J46985D01*
G01*
G37*
G36*
G01*
X128763808Y-122954024D02*
X129037424Y-122202270D01*
G75*
G02*
X129101510Y-122172386I46985J-17101D01*
G01*
X130041202Y-122514406D01*
G75*
G02*
X130071086Y-122578492I-17101J-46985D01*
G01*
X129797470Y-123330246D01*
G75*
G02*
X129733384Y-123360130I-46985J17101D01*
G01*
X128793692Y-123018110D01*
G75*
G02*
X128763808Y-122954024I17101J46985D01*
G01*
G37*
G36*
G01*
X131078802Y-121125526D02*
X131591833Y-119715987D01*
G75*
G02*
X131655919Y-119686103I46985J-17101D01*
G01*
X132313704Y-119925518D01*
G75*
G02*
X132343588Y-119989604I-17101J-46985D01*
G01*
X131830557Y-121399143D01*
G75*
G02*
X131766471Y-121429027I-46985J17101D01*
G01*
X131108686Y-121189612D01*
G75*
G02*
X131078802Y-121125526I17101J46985D01*
G01*
G37*
G36*
G01*
X133897879Y-122151586D02*
X134410910Y-120742047D01*
G75*
G02*
X134474996Y-120712163I46985J-17101D01*
G01*
X135132781Y-120951578D01*
G75*
G02*
X135162665Y-121015664I-17101J-46985D01*
G01*
X134649634Y-122425203D01*
G75*
G02*
X134585548Y-122455087I-46985J17101D01*
G01*
X133927763Y-122215672D01*
G75*
G02*
X133897879Y-122151586I17101J46985D01*
G01*
G37*
G36*
G01*
X135307418Y-122664617D02*
X135820449Y-121255078D01*
G75*
G02*
X135884535Y-121225194I46985J-17101D01*
G01*
X136542320Y-121464609D01*
G75*
G02*
X136572204Y-121528695I-17101J-46985D01*
G01*
X136059173Y-122938234D01*
G75*
G02*
X135995087Y-122968118I-46985J17101D01*
G01*
X135337302Y-122728703D01*
G75*
G02*
X135307418Y-122664617I17101J46985D01*
G01*
G37*
D21*
X134633086Y-123494000D03*
X131814009Y-122467939D03*
D22*
X98013546Y-114685944D03*
X98725298Y-112029648D03*
G36*
G01*
X94687573Y-113768870D02*
X94946392Y-112802944D01*
G75*
G02*
X95007629Y-112767589I48296J-12941D01*
G01*
X96504814Y-113168759D01*
G75*
G02*
X96540169Y-113229996I-12941J-48296D01*
G01*
X96281350Y-114195922D01*
G75*
G02*
X96220113Y-114231277I-48296J12941D01*
G01*
X94722928Y-113830107D01*
G75*
G02*
X94687573Y-113768870I12941J48296D01*
G01*
G37*
G36*
G01*
X95127565Y-112126796D02*
X95386384Y-111160870D01*
G75*
G02*
X95447621Y-111125515I48296J-12941D01*
G01*
X96944806Y-111526685D01*
G75*
G02*
X96980161Y-111587922I-12941J-48296D01*
G01*
X96721342Y-112553848D01*
G75*
G02*
X96660105Y-112589203I-48296J12941D01*
G01*
X95162920Y-112188033D01*
G75*
G02*
X95127565Y-112126796I12941J48296D01*
G01*
G37*
G36*
G01*
X99758683Y-115127670D02*
X100017502Y-114161744D01*
G75*
G02*
X100078739Y-114126389I48296J-12941D01*
G01*
X101575924Y-114527559D01*
G75*
G02*
X101611279Y-114588796I-12941J-48296D01*
G01*
X101352460Y-115554722D01*
G75*
G02*
X101291223Y-115590077I-48296J12941D01*
G01*
X99794038Y-115188907D01*
G75*
G02*
X99758683Y-115127670I12941J48296D01*
G01*
G37*
G36*
G01*
X100198675Y-113485596D02*
X100457494Y-112519670D01*
G75*
G02*
X100518731Y-112484315I48296J-12941D01*
G01*
X102015916Y-112885485D01*
G75*
G02*
X102051271Y-112946722I-12941J-48296D01*
G01*
X101792452Y-113912648D01*
G75*
G02*
X101731215Y-113948003I-48296J12941D01*
G01*
X100234030Y-113546833D01*
G75*
G02*
X100198675Y-113485596I12941J48296D01*
G01*
G37*
G36*
G01*
X127895554Y-102977251D02*
X127353910Y-102881745D01*
G75*
G02*
X126826656Y-102128749I112871J640125D01*
G01*
X126826656Y-102128749D01*
G75*
G02*
X127579652Y-101601495I640125J-112871D01*
G01*
X128121296Y-101697001D01*
G75*
G02*
X128648550Y-102449997I-112871J-640125D01*
G01*
X128648550Y-102449997D01*
G75*
G02*
X127895554Y-102977251I-640125J112871D01*
G01*
G37*
G36*
G01*
X128242850Y-101007635D02*
X127701206Y-100912129D01*
G75*
G02*
X127173952Y-100159133I112871J640125D01*
G01*
X127173952Y-100159133D01*
G75*
G02*
X127926948Y-99631879I640125J-112871D01*
G01*
X128468592Y-99727385D01*
G75*
G02*
X128995846Y-100480381I-112871J-640125D01*
G01*
X128995846Y-100480381D01*
G75*
G02*
X128242850Y-101007635I-640125J112871D01*
G01*
G37*
G36*
X129932859Y-102712355D02*
G01*
X129237785Y-103199051D01*
X129200424Y-103207334D01*
X129003463Y-103172605D01*
X128971188Y-103152043D01*
X128962905Y-103114682D01*
X129171282Y-101932913D01*
X129191844Y-101900638D01*
X129229205Y-101892355D01*
X129426167Y-101927084D01*
X129458442Y-101947646D01*
X129945137Y-102642720D01*
X129953420Y-102680081D01*
X129932859Y-102712355D01*
G37*
G36*
X130280155Y-100742740D02*
G01*
X129585081Y-101229436D01*
X129547720Y-101237719D01*
X129350759Y-101202990D01*
X129318484Y-101182428D01*
X129310201Y-101145067D01*
X129518578Y-99963298D01*
X129539140Y-99931023D01*
X129576501Y-99922740D01*
X129773463Y-99957469D01*
X129805738Y-99978031D01*
X130292433Y-100673105D01*
X130300716Y-100710466D01*
X130280155Y-100742740D01*
G37*
G36*
X130681513Y-103453620D02*
G01*
X130644152Y-103461903D01*
X129413142Y-103244843D01*
X129380867Y-103224281D01*
X129372584Y-103186920D01*
X129393146Y-103154645D01*
X130047262Y-102696628D01*
X129589245Y-102042512D01*
X129580962Y-102005151D01*
X129601524Y-101972876D01*
X129638885Y-101964593D01*
X130869894Y-102181653D01*
X130902169Y-102202215D01*
X130910452Y-102239576D01*
X130702074Y-103421345D01*
X130681513Y-103453620D01*
G37*
G36*
X131028810Y-101484005D02*
G01*
X130991449Y-101492288D01*
X129760439Y-101275228D01*
X129728164Y-101254666D01*
X129719881Y-101217305D01*
X129740443Y-101185030D01*
X130394559Y-100727013D01*
X129936542Y-100072897D01*
X129928259Y-100035536D01*
X129948821Y-100003261D01*
X129986182Y-99994978D01*
X131217191Y-100212038D01*
X131249466Y-100232600D01*
X131257749Y-100269961D01*
X131049371Y-101451730D01*
X131028810Y-101484005D01*
G37*
%LPD*%
M02*
