M48
; DRILL file {KiCad 8.0.8+1} date 2025-05-19T02:25:48+0000
; FORMAT={-:-/ absolute / metric / decimal}
; #@! TF.CreationDate,2025-05-19T02:25:48+00:00
; #@! TF.GenerationSoftware,Kicad,Pcbnew,8.0.8+1
; #@! TF.FileFunction,NonPlated,1,2,NPTH
FMAT,2
METRIC
; #@! TA.AperFunction,NonPlated,NPTH,ComponentDrill
T1C0.750
; #@! TA.AperFunction,NonPlated,NPTH,ComponentDrill
T2C0.900
; #@! TA.AperFunction,NonPlated,NPTH,ComponentDrill
T3C1.900
; #@! TA.AperFunction,NonPlated,NPTH,ComponentDrill
T4C2.200
; #@! TA.AperFunction,NonPlated,NPTH,ComponentDrill
T5C3.000
; #@! TA.AperFunction,NonPlated,NPTH,ComponentDrill
T6C4.100
; #@! TA.AperFunction,NonPlated,NPTH,ComponentDrill
T7C4.300
%
G90
G05
T1
X98.014Y-114.686
X98.725Y-112.03
T2
X131.814Y-122.468
X134.633Y-123.494
T3
X94.92Y-66.0
X94.92Y-66.0
X94.92Y-83.0
X94.92Y-83.0
X105.08Y-66.0
X105.08Y-66.0
X105.08Y-83.0
X105.08Y-83.0
X116.997Y-82.118
X116.997Y-82.118
X119.949Y-65.376
X119.949Y-65.376
X122.901Y-48.634
X122.901Y-48.634
X127.003Y-83.882
X127.003Y-83.882
X129.955Y-67.14
X129.955Y-67.14
X132.907Y-50.399
X132.907Y-50.399
X139.497Y-81.32
X139.497Y-81.32
X143.897Y-64.899
X143.897Y-64.899
X148.297Y-48.479
X148.297Y-48.479
X149.311Y-83.95
X149.311Y-83.95
X153.711Y-67.529
X153.711Y-67.529
X157.75Y-98.497
X157.75Y-98.497
X158.111Y-51.108
X158.111Y-51.108
X164.935Y-83.09
X164.935Y-83.09
X166.95Y-130.269
X166.95Y-130.269
X166.958Y-102.791
X166.958Y-102.791
X172.119Y-67.683
X172.119Y-67.683
X173.481Y-122.486
X173.481Y-122.486
X174.143Y-87.384
X174.143Y-87.384
X181.327Y-71.977
X181.327Y-71.977
X183.86Y-141.462
X183.86Y-141.462
X192.182Y-135.635
X192.182Y-135.635
T4
X172.235Y-108.067
X181.135Y-121.285
T5
X96.19Y-68.54
X96.19Y-85.54
X97.46Y-71.08
X97.46Y-88.08
X102.54Y-71.08
X102.54Y-88.08
X103.81Y-68.54
X103.81Y-85.54
X117.807Y-84.84
X118.616Y-87.562
X120.759Y-68.098
X121.568Y-70.82
X123.619Y-88.444
X123.711Y-51.356
X124.52Y-54.078
X125.311Y-86.163
X126.571Y-71.702
X128.263Y-69.421
X129.523Y-54.96
X131.215Y-52.68
X140.066Y-84.102
X140.636Y-86.884
X144.466Y-67.681
X145.035Y-70.464
X145.542Y-88.199
X147.427Y-86.074
X148.866Y-51.261
X149.435Y-54.043
X149.942Y-71.778
X151.826Y-69.654
X154.342Y-55.358
X156.226Y-53.233
X157.828Y-101.336
X157.905Y-104.175
X162.509Y-106.322
X164.734Y-104.557
X165.012Y-85.929
X165.09Y-88.768
X169.694Y-90.915
X169.712Y-130.929
X171.918Y-89.149
X172.197Y-70.522
X172.274Y-73.361
X172.474Y-131.589
X174.61Y-125.092
X175.74Y-127.697
X176.878Y-75.507
X179.103Y-73.742
X186.357Y-142.814
X188.854Y-144.166
X192.599Y-138.444
X193.015Y-141.253
T6
X100.0Y-66.0
X100.0Y-66.0
X100.0Y-83.0
X100.0Y-83.0
X122.0Y-83.0
X122.0Y-83.0
X124.952Y-66.258
X124.952Y-66.258
X127.904Y-49.517
X127.904Y-49.517
X144.404Y-82.635
X144.404Y-82.635
X148.804Y-66.214
X148.804Y-66.214
X153.204Y-49.793
X153.204Y-49.793
X162.354Y-100.644
X162.354Y-100.644
X169.539Y-85.237
X169.539Y-85.237
X170.215Y-126.378
X170.215Y-126.378
X176.723Y-69.83
X176.723Y-69.83
X188.021Y-138.548
X188.021Y-138.548
T7
X114.613Y-73.066
X117.565Y-56.325
X165.427Y-72.684
X173.429Y-140.971
X181.637Y-129.43
M30
