M48
; DRILL file {KiCad 8.0.8+1} date 2025-05-19T02:25:48+0000
; FORMAT={-:-/ absolute / metric / decimal}
; #@! TF.CreationDate,2025-05-19T02:25:48+00:00
; #@! TF.GenerationSoftware,Kicad,Pcbnew,8.0.8+1
; #@! TF.FileFunction,Plated,1,2,PTH
FMAT,2
METRIC
; #@! TA.AperFunction,Plated,PTH,ComponentDrill
T1C0.400
; #@! TA.AperFunction,Plated,PTH,ComponentDrill
T2C0.750
; #@! TA.AperFunction,Plated,PTH,ComponentDrill
T3C1.000
%
G90
G05
T1
X96.3Y-97.6
X96.3Y-104.4
X98.84Y-97.6
X98.84Y-104.4
X101.38Y-97.6
X101.38Y-104.4
X103.92Y-97.6
X103.92Y-104.4
X106.46Y-97.6
X106.46Y-104.4
X109.0Y-97.6
X109.0Y-104.4
X111.54Y-97.6
X111.54Y-104.4
X114.08Y-97.6
X114.08Y-104.4
X116.62Y-97.6
X116.62Y-104.4
X119.16Y-97.6
X119.16Y-104.4
X121.7Y-97.6
X121.7Y-104.4
X124.24Y-97.6
X124.24Y-104.4
T2
X127.738Y-102.289
X128.085Y-100.32
T3
X96.3Y-93.38
X96.3Y-108.62
X98.84Y-93.38
X98.84Y-108.62
X101.38Y-93.38
X101.38Y-108.62
X103.92Y-93.38
X103.92Y-108.62
X106.46Y-93.38
X106.46Y-108.62
X109.0Y-93.38
X109.0Y-108.62
X111.54Y-93.38
X111.54Y-108.62
X114.08Y-93.38
X114.08Y-108.62
X116.62Y-93.38
X116.62Y-108.62
X119.16Y-93.38
X119.16Y-108.62
X121.7Y-93.38
X121.7Y-108.62
X124.24Y-93.38
X124.24Y-108.62
X125.7Y-95.92
X125.7Y-98.46
X125.7Y-101.0
X125.7Y-103.54
X125.7Y-106.08
M30
