%TF.GenerationSoftware,KiCad,Pcbnew,8.0.8+1*%
%TF.CreationDate,2025-05-19T02:25:48+00:00*%
%TF.ProjectId,mearchlar_wireless,6d656172-6368-46c6-9172-5f776972656c,0.2*%
%TF.SameCoordinates,Original*%
%TF.FileFunction,Drillmap*%
%TF.FilePolarity,Positive*%
%FSLAX45Y45*%
G04 Gerber Fmt 4.5, Leading zero omitted, Abs format (unit mm)*
G04 Created by KiCad (PCBNEW 8.0.8+1) date 2025-05-19 02:25:48*
%MOMM*%
%LPD*%
G01*
G04 APERTURE LIST*
%ADD10C,0.150000*%
%ADD11C,0.200000*%
%ADD12C,0.100000*%
G04 APERTURE END LIST*
D10*
X9100007Y-9126587D02*
X9154488Y-5825011D01*
X9183010Y-5780681D02*
X12001128Y-4440685D01*
X12028897Y-4404213D02*
X12090392Y-4055454D01*
X12143067Y-4014254D02*
X14616690Y-4184528D01*
X14668420Y-4147587D02*
X14697001Y-4040921D01*
X14758238Y-4005566D02*
X16308936Y-4421074D01*
X16344291Y-4482312D02*
X16313519Y-4597154D01*
X16330607Y-4649160D02*
X18762011Y-6591581D01*
X18724064Y-6763405D02*
X18776118Y-6651776D01*
X20080569Y-13476294D02*
X20299724Y-13732601D01*
X20290401Y-13806052D02*
X18238488Y-15242817D01*
X18168852Y-15230539D02*
X17272259Y-13950072D01*
X17262597Y-13939756D02*
X17106773Y-13814703D01*
X17090630Y-13806050D02*
X9134848Y-11276082D01*
X9100000Y-11228433D02*
X9100000Y-9127412D01*
X18748249Y-6829851D02*
X22371577Y-8519437D01*
X22395761Y-8585883D02*
X20137837Y-13428016D01*
X20121201Y-13447843D02*
X20080569Y-13476294D01*
X9154488Y-5825011D02*
G75*
G02*
X9183012Y-5780685I49992J-829D01*
G01*
X12028897Y-4404213D02*
G75*
G02*
X12001127Y-4440684I-49237J8683D01*
G01*
X12090392Y-4055454D02*
G75*
G02*
X12143066Y-4014260I49238J-8686D01*
G01*
X14668420Y-4147587D02*
G75*
G02*
X14616690Y-4184535I-48300J12937D01*
G01*
X14697001Y-4040921D02*
G75*
G02*
X14758240Y-4005561I48299J-12939D01*
G01*
X16308936Y-4421074D02*
G75*
G02*
X16344287Y-4482311I-12946J-48296D01*
G01*
X16330607Y-4649160D02*
G75*
G02*
X16313525Y-4597156I31213J39060D01*
G01*
X18762010Y-6591581D02*
G75*
G02*
X18776122Y-6651778I-31210J-39069D01*
G01*
X18748249Y-6829851D02*
G75*
G02*
X18724069Y-6763407I21131J45312D01*
G01*
X22371577Y-8519437D02*
G75*
G02*
X22395760Y-8585883I-21127J-45313D01*
G01*
X20137837Y-13428016D02*
G75*
G02*
X20121202Y-13447845I-45317J21126D01*
G01*
X20299724Y-13732601D02*
G75*
G02*
X20290397Y-13806047I-38004J-32489D01*
G01*
X18238488Y-15242817D02*
G75*
G02*
X18168853Y-15230538I-28678J40957D01*
G01*
X17262597Y-13939756D02*
G75*
G02*
X17272259Y-13950073I-31297J-38994D01*
G01*
X17090630Y-13806050D02*
G75*
G02*
X17106773Y-13814703I-15150J-47650D01*
G01*
X9134848Y-11276082D02*
G75*
G02*
X9099997Y-11228433I15153J47652D01*
G01*
X9100000Y-9127412D02*
G75*
G02*
X9100007Y-9126587I50050J2D01*
G01*
D11*
D12*
X9610000Y-9740000D02*
X9650000Y-9780000D01*
X9650000Y-9740000D02*
X9610000Y-9780000D01*
X9610000Y-10420000D02*
X9650000Y-10460000D01*
X9650000Y-10420000D02*
X9610000Y-10460000D01*
X9864000Y-9740000D02*
X9904000Y-9780000D01*
X9904000Y-9740000D02*
X9864000Y-9780000D01*
X9864000Y-10420000D02*
X9904000Y-10460000D01*
X9904000Y-10420000D02*
X9864000Y-10460000D01*
X10118000Y-9740000D02*
X10158000Y-9780000D01*
X10158000Y-9740000D02*
X10118000Y-9780000D01*
X10118000Y-10420000D02*
X10158000Y-10460000D01*
X10158000Y-10420000D02*
X10118000Y-10460000D01*
X10372000Y-9740000D02*
X10412000Y-9780000D01*
X10412000Y-9740000D02*
X10372000Y-9780000D01*
X10372000Y-10420000D02*
X10412000Y-10460000D01*
X10412000Y-10420000D02*
X10372000Y-10460000D01*
X10626000Y-9740000D02*
X10666000Y-9780000D01*
X10666000Y-9740000D02*
X10626000Y-9780000D01*
X10626000Y-10420000D02*
X10666000Y-10460000D01*
X10666000Y-10420000D02*
X10626000Y-10460000D01*
X10880000Y-9740000D02*
X10920000Y-9780000D01*
X10920000Y-9740000D02*
X10880000Y-9780000D01*
X10880000Y-10420000D02*
X10920000Y-10460000D01*
X10920000Y-10420000D02*
X10880000Y-10460000D01*
X11134000Y-9740000D02*
X11174000Y-9780000D01*
X11174000Y-9740000D02*
X11134000Y-9780000D01*
X11134000Y-10420000D02*
X11174000Y-10460000D01*
X11174000Y-10420000D02*
X11134000Y-10460000D01*
X11388000Y-9740000D02*
X11428000Y-9780000D01*
X11428000Y-9740000D02*
X11388000Y-9780000D01*
X11388000Y-10420000D02*
X11428000Y-10460000D01*
X11428000Y-10420000D02*
X11388000Y-10460000D01*
X11642000Y-9740000D02*
X11682000Y-9780000D01*
X11682000Y-9740000D02*
X11642000Y-9780000D01*
X11642000Y-10420000D02*
X11682000Y-10460000D01*
X11682000Y-10420000D02*
X11642000Y-10460000D01*
X11896000Y-9740000D02*
X11936000Y-9780000D01*
X11936000Y-9740000D02*
X11896000Y-9780000D01*
X11896000Y-10420000D02*
X11936000Y-10460000D01*
X11936000Y-10420000D02*
X11896000Y-10460000D01*
X12150000Y-9740000D02*
X12190000Y-9780000D01*
X12190000Y-9740000D02*
X12150000Y-9780000D01*
X12150000Y-10420000D02*
X12190000Y-10460000D01*
X12190000Y-10420000D02*
X12150000Y-10460000D01*
X12404000Y-9740000D02*
X12444000Y-9780000D01*
X12444000Y-9740000D02*
X12404000Y-9780000D01*
X12404000Y-10420000D02*
X12444000Y-10460000D01*
X12444000Y-10420000D02*
X12404000Y-10460000D01*
X12811260Y-10228937D02*
G75*
G02*
X12736260Y-10228937I-37500J0D01*
G01*
X12736260Y-10228937D02*
G75*
G02*
X12811260Y-10228937I37500J0D01*
G01*
X12845990Y-10031976D02*
G75*
G02*
X12770990Y-10031976I-37500J0D01*
G01*
X12770990Y-10031976D02*
G75*
G02*
X12845990Y-10031976I37500J0D01*
G01*
X9630000Y-9288000D02*
X9630000Y-9388000D01*
X9580000Y-9338000D02*
X9680000Y-9338000D01*
X9630000Y-10812000D02*
X9630000Y-10912000D01*
X9580000Y-10862000D02*
X9680000Y-10862000D01*
X9884000Y-9288000D02*
X9884000Y-9388000D01*
X9834000Y-9338000D02*
X9934000Y-9338000D01*
X9884000Y-10812000D02*
X9884000Y-10912000D01*
X9834000Y-10862000D02*
X9934000Y-10862000D01*
X10138000Y-9288000D02*
X10138000Y-9388000D01*
X10088000Y-9338000D02*
X10188000Y-9338000D01*
X10138000Y-10812000D02*
X10138000Y-10912000D01*
X10088000Y-10862000D02*
X10188000Y-10862000D01*
X10392000Y-9288000D02*
X10392000Y-9388000D01*
X10342000Y-9338000D02*
X10442000Y-9338000D01*
X10392000Y-10812000D02*
X10392000Y-10912000D01*
X10342000Y-10862000D02*
X10442000Y-10862000D01*
X10646000Y-9288000D02*
X10646000Y-9388000D01*
X10596000Y-9338000D02*
X10696000Y-9338000D01*
X10646000Y-10812000D02*
X10646000Y-10912000D01*
X10596000Y-10862000D02*
X10696000Y-10862000D01*
X10900000Y-9288000D02*
X10900000Y-9388000D01*
X10850000Y-9338000D02*
X10950000Y-9338000D01*
X10900000Y-10812000D02*
X10900000Y-10912000D01*
X10850000Y-10862000D02*
X10950000Y-10862000D01*
X11154000Y-9288000D02*
X11154000Y-9388000D01*
X11104000Y-9338000D02*
X11204000Y-9338000D01*
X11154000Y-10812000D02*
X11154000Y-10912000D01*
X11104000Y-10862000D02*
X11204000Y-10862000D01*
X11408000Y-9288000D02*
X11408000Y-9388000D01*
X11358000Y-9338000D02*
X11458000Y-9338000D01*
X11408000Y-10812000D02*
X11408000Y-10912000D01*
X11358000Y-10862000D02*
X11458000Y-10862000D01*
X11662000Y-9288000D02*
X11662000Y-9388000D01*
X11612000Y-9338000D02*
X11712000Y-9338000D01*
X11662000Y-10812000D02*
X11662000Y-10912000D01*
X11612000Y-10862000D02*
X11712000Y-10862000D01*
X11916000Y-9288000D02*
X11916000Y-9388000D01*
X11866000Y-9338000D02*
X11966000Y-9338000D01*
X11916000Y-10812000D02*
X11916000Y-10912000D01*
X11866000Y-10862000D02*
X11966000Y-10862000D01*
X12170000Y-9288000D02*
X12170000Y-9388000D01*
X12120000Y-9338000D02*
X12220000Y-9338000D01*
X12170000Y-10812000D02*
X12170000Y-10912000D01*
X12120000Y-10862000D02*
X12220000Y-10862000D01*
X12424000Y-9288000D02*
X12424000Y-9388000D01*
X12374000Y-9338000D02*
X12474000Y-9338000D01*
X12424000Y-10812000D02*
X12424000Y-10912000D01*
X12374000Y-10862000D02*
X12474000Y-10862000D01*
X12570000Y-9542000D02*
X12570000Y-9642000D01*
X12520000Y-9592000D02*
X12620000Y-9592000D01*
X12570000Y-9796000D02*
X12570000Y-9896000D01*
X12520000Y-9846000D02*
X12620000Y-9846000D01*
X12570000Y-10050000D02*
X12570000Y-10150000D01*
X12520000Y-10100000D02*
X12620000Y-10100000D01*
X12570000Y-10304000D02*
X12570000Y-10404000D01*
X12520000Y-10354000D02*
X12620000Y-10354000D01*
X12570000Y-10558000D02*
X12570000Y-10658000D01*
X12520000Y-10608000D02*
X12620000Y-10608000D01*
D11*
X9353277Y-15570843D02*
X9353277Y-15370843D01*
X9353277Y-15370843D02*
X9400896Y-15370843D01*
X9400896Y-15370843D02*
X9429467Y-15380367D01*
X9429467Y-15380367D02*
X9448515Y-15399414D01*
X9448515Y-15399414D02*
X9458039Y-15418462D01*
X9458039Y-15418462D02*
X9467563Y-15456557D01*
X9467563Y-15456557D02*
X9467563Y-15485129D01*
X9467563Y-15485129D02*
X9458039Y-15523224D01*
X9458039Y-15523224D02*
X9448515Y-15542272D01*
X9448515Y-15542272D02*
X9429467Y-15561319D01*
X9429467Y-15561319D02*
X9400896Y-15570843D01*
X9400896Y-15570843D02*
X9353277Y-15570843D01*
X9553277Y-15570843D02*
X9553277Y-15437510D01*
X9553277Y-15475605D02*
X9562801Y-15456557D01*
X9562801Y-15456557D02*
X9572324Y-15447033D01*
X9572324Y-15447033D02*
X9591372Y-15437510D01*
X9591372Y-15437510D02*
X9610420Y-15437510D01*
X9677086Y-15570843D02*
X9677086Y-15437510D01*
X9677086Y-15370843D02*
X9667563Y-15380367D01*
X9667563Y-15380367D02*
X9677086Y-15389891D01*
X9677086Y-15389891D02*
X9686610Y-15380367D01*
X9686610Y-15380367D02*
X9677086Y-15370843D01*
X9677086Y-15370843D02*
X9677086Y-15389891D01*
X9800896Y-15570843D02*
X9781848Y-15561319D01*
X9781848Y-15561319D02*
X9772324Y-15542272D01*
X9772324Y-15542272D02*
X9772324Y-15370843D01*
X9905658Y-15570843D02*
X9886610Y-15561319D01*
X9886610Y-15561319D02*
X9877086Y-15542272D01*
X9877086Y-15542272D02*
X9877086Y-15370843D01*
X10134229Y-15570843D02*
X10134229Y-15370843D01*
X10134229Y-15370843D02*
X10200896Y-15513700D01*
X10200896Y-15513700D02*
X10267563Y-15370843D01*
X10267563Y-15370843D02*
X10267563Y-15570843D01*
X10448515Y-15570843D02*
X10448515Y-15466081D01*
X10448515Y-15466081D02*
X10438991Y-15447033D01*
X10438991Y-15447033D02*
X10419944Y-15437510D01*
X10419944Y-15437510D02*
X10381848Y-15437510D01*
X10381848Y-15437510D02*
X10362801Y-15447033D01*
X10448515Y-15561319D02*
X10429467Y-15570843D01*
X10429467Y-15570843D02*
X10381848Y-15570843D01*
X10381848Y-15570843D02*
X10362801Y-15561319D01*
X10362801Y-15561319D02*
X10353277Y-15542272D01*
X10353277Y-15542272D02*
X10353277Y-15523224D01*
X10353277Y-15523224D02*
X10362801Y-15504176D01*
X10362801Y-15504176D02*
X10381848Y-15494653D01*
X10381848Y-15494653D02*
X10429467Y-15494653D01*
X10429467Y-15494653D02*
X10448515Y-15485129D01*
X10543753Y-15437510D02*
X10543753Y-15637510D01*
X10543753Y-15447033D02*
X10562801Y-15437510D01*
X10562801Y-15437510D02*
X10600896Y-15437510D01*
X10600896Y-15437510D02*
X10619944Y-15447033D01*
X10619944Y-15447033D02*
X10629467Y-15456557D01*
X10629467Y-15456557D02*
X10638991Y-15475605D01*
X10638991Y-15475605D02*
X10638991Y-15532748D01*
X10638991Y-15532748D02*
X10629467Y-15551795D01*
X10629467Y-15551795D02*
X10619944Y-15561319D01*
X10619944Y-15561319D02*
X10600896Y-15570843D01*
X10600896Y-15570843D02*
X10562801Y-15570843D01*
X10562801Y-15570843D02*
X10543753Y-15561319D01*
X10724705Y-15551795D02*
X10734229Y-15561319D01*
X10734229Y-15561319D02*
X10724705Y-15570843D01*
X10724705Y-15570843D02*
X10715182Y-15561319D01*
X10715182Y-15561319D02*
X10724705Y-15551795D01*
X10724705Y-15551795D02*
X10724705Y-15570843D01*
X10724705Y-15447033D02*
X10734229Y-15456557D01*
X10734229Y-15456557D02*
X10724705Y-15466081D01*
X10724705Y-15466081D02*
X10715182Y-15456557D01*
X10715182Y-15456557D02*
X10724705Y-15447033D01*
X10724705Y-15447033D02*
X10724705Y-15466081D01*
D12*
X9052500Y-15879359D02*
X9092500Y-15919359D01*
X9092500Y-15879359D02*
X9052500Y-15919359D01*
D11*
X9391372Y-15790843D02*
X9410420Y-15790843D01*
X9410420Y-15790843D02*
X9429467Y-15800367D01*
X9429467Y-15800367D02*
X9438991Y-15809891D01*
X9438991Y-15809891D02*
X9448515Y-15828938D01*
X9448515Y-15828938D02*
X9458039Y-15867033D01*
X9458039Y-15867033D02*
X9458039Y-15914653D01*
X9458039Y-15914653D02*
X9448515Y-15952748D01*
X9448515Y-15952748D02*
X9438991Y-15971795D01*
X9438991Y-15971795D02*
X9429467Y-15981319D01*
X9429467Y-15981319D02*
X9410420Y-15990843D01*
X9410420Y-15990843D02*
X9391372Y-15990843D01*
X9391372Y-15990843D02*
X9372324Y-15981319D01*
X9372324Y-15981319D02*
X9362801Y-15971795D01*
X9362801Y-15971795D02*
X9353277Y-15952748D01*
X9353277Y-15952748D02*
X9343753Y-15914653D01*
X9343753Y-15914653D02*
X9343753Y-15867033D01*
X9343753Y-15867033D02*
X9353277Y-15828938D01*
X9353277Y-15828938D02*
X9362801Y-15809891D01*
X9362801Y-15809891D02*
X9372324Y-15800367D01*
X9372324Y-15800367D02*
X9391372Y-15790843D01*
X9543753Y-15971795D02*
X9553277Y-15981319D01*
X9553277Y-15981319D02*
X9543753Y-15990843D01*
X9543753Y-15990843D02*
X9534229Y-15981319D01*
X9534229Y-15981319D02*
X9543753Y-15971795D01*
X9543753Y-15971795D02*
X9543753Y-15990843D01*
X9724705Y-15857510D02*
X9724705Y-15990843D01*
X9677086Y-15781319D02*
X9629467Y-15924176D01*
X9629467Y-15924176D02*
X9753277Y-15924176D01*
X9867563Y-15790843D02*
X9886610Y-15790843D01*
X9886610Y-15790843D02*
X9905658Y-15800367D01*
X9905658Y-15800367D02*
X9915182Y-15809891D01*
X9915182Y-15809891D02*
X9924705Y-15828938D01*
X9924705Y-15828938D02*
X9934229Y-15867033D01*
X9934229Y-15867033D02*
X9934229Y-15914653D01*
X9934229Y-15914653D02*
X9924705Y-15952748D01*
X9924705Y-15952748D02*
X9915182Y-15971795D01*
X9915182Y-15971795D02*
X9905658Y-15981319D01*
X9905658Y-15981319D02*
X9886610Y-15990843D01*
X9886610Y-15990843D02*
X9867563Y-15990843D01*
X9867563Y-15990843D02*
X9848515Y-15981319D01*
X9848515Y-15981319D02*
X9838991Y-15971795D01*
X9838991Y-15971795D02*
X9829467Y-15952748D01*
X9829467Y-15952748D02*
X9819944Y-15914653D01*
X9819944Y-15914653D02*
X9819944Y-15867033D01*
X9819944Y-15867033D02*
X9829467Y-15828938D01*
X9829467Y-15828938D02*
X9838991Y-15809891D01*
X9838991Y-15809891D02*
X9848515Y-15800367D01*
X9848515Y-15800367D02*
X9867563Y-15790843D01*
X10058039Y-15790843D02*
X10077086Y-15790843D01*
X10077086Y-15790843D02*
X10096134Y-15800367D01*
X10096134Y-15800367D02*
X10105658Y-15809891D01*
X10105658Y-15809891D02*
X10115182Y-15828938D01*
X10115182Y-15828938D02*
X10124705Y-15867033D01*
X10124705Y-15867033D02*
X10124705Y-15914653D01*
X10124705Y-15914653D02*
X10115182Y-15952748D01*
X10115182Y-15952748D02*
X10105658Y-15971795D01*
X10105658Y-15971795D02*
X10096134Y-15981319D01*
X10096134Y-15981319D02*
X10077086Y-15990843D01*
X10077086Y-15990843D02*
X10058039Y-15990843D01*
X10058039Y-15990843D02*
X10038991Y-15981319D01*
X10038991Y-15981319D02*
X10029467Y-15971795D01*
X10029467Y-15971795D02*
X10019944Y-15952748D01*
X10019944Y-15952748D02*
X10010420Y-15914653D01*
X10010420Y-15914653D02*
X10010420Y-15867033D01*
X10010420Y-15867033D02*
X10019944Y-15828938D01*
X10019944Y-15828938D02*
X10029467Y-15809891D01*
X10029467Y-15809891D02*
X10038991Y-15800367D01*
X10038991Y-15800367D02*
X10058039Y-15790843D01*
X10210420Y-15990843D02*
X10210420Y-15857510D01*
X10210420Y-15876557D02*
X10219944Y-15867033D01*
X10219944Y-15867033D02*
X10238991Y-15857510D01*
X10238991Y-15857510D02*
X10267563Y-15857510D01*
X10267563Y-15857510D02*
X10286610Y-15867033D01*
X10286610Y-15867033D02*
X10296134Y-15886081D01*
X10296134Y-15886081D02*
X10296134Y-15990843D01*
X10296134Y-15886081D02*
X10305658Y-15867033D01*
X10305658Y-15867033D02*
X10324705Y-15857510D01*
X10324705Y-15857510D02*
X10353277Y-15857510D01*
X10353277Y-15857510D02*
X10372325Y-15867033D01*
X10372325Y-15867033D02*
X10381848Y-15886081D01*
X10381848Y-15886081D02*
X10381848Y-15990843D01*
X10477086Y-15990843D02*
X10477086Y-15857510D01*
X10477086Y-15876557D02*
X10486610Y-15867033D01*
X10486610Y-15867033D02*
X10505658Y-15857510D01*
X10505658Y-15857510D02*
X10534229Y-15857510D01*
X10534229Y-15857510D02*
X10553277Y-15867033D01*
X10553277Y-15867033D02*
X10562801Y-15886081D01*
X10562801Y-15886081D02*
X10562801Y-15990843D01*
X10562801Y-15886081D02*
X10572325Y-15867033D01*
X10572325Y-15867033D02*
X10591372Y-15857510D01*
X10591372Y-15857510D02*
X10619944Y-15857510D01*
X10619944Y-15857510D02*
X10638991Y-15867033D01*
X10638991Y-15867033D02*
X10648515Y-15886081D01*
X10648515Y-15886081D02*
X10648515Y-15990843D01*
X11038991Y-15781319D02*
X10867563Y-16038462D01*
X11296134Y-15790843D02*
X11315182Y-15790843D01*
X11315182Y-15790843D02*
X11334229Y-15800367D01*
X11334229Y-15800367D02*
X11343753Y-15809891D01*
X11343753Y-15809891D02*
X11353277Y-15828938D01*
X11353277Y-15828938D02*
X11362801Y-15867033D01*
X11362801Y-15867033D02*
X11362801Y-15914653D01*
X11362801Y-15914653D02*
X11353277Y-15952748D01*
X11353277Y-15952748D02*
X11343753Y-15971795D01*
X11343753Y-15971795D02*
X11334229Y-15981319D01*
X11334229Y-15981319D02*
X11315182Y-15990843D01*
X11315182Y-15990843D02*
X11296134Y-15990843D01*
X11296134Y-15990843D02*
X11277086Y-15981319D01*
X11277086Y-15981319D02*
X11267563Y-15971795D01*
X11267563Y-15971795D02*
X11258039Y-15952748D01*
X11258039Y-15952748D02*
X11248515Y-15914653D01*
X11248515Y-15914653D02*
X11248515Y-15867033D01*
X11248515Y-15867033D02*
X11258039Y-15828938D01*
X11258039Y-15828938D02*
X11267563Y-15809891D01*
X11267563Y-15809891D02*
X11277086Y-15800367D01*
X11277086Y-15800367D02*
X11296134Y-15790843D01*
X11448515Y-15971795D02*
X11458039Y-15981319D01*
X11458039Y-15981319D02*
X11448515Y-15990843D01*
X11448515Y-15990843D02*
X11438991Y-15981319D01*
X11438991Y-15981319D02*
X11448515Y-15971795D01*
X11448515Y-15971795D02*
X11448515Y-15990843D01*
X11581848Y-15790843D02*
X11600896Y-15790843D01*
X11600896Y-15790843D02*
X11619944Y-15800367D01*
X11619944Y-15800367D02*
X11629467Y-15809891D01*
X11629467Y-15809891D02*
X11638991Y-15828938D01*
X11638991Y-15828938D02*
X11648515Y-15867033D01*
X11648515Y-15867033D02*
X11648515Y-15914653D01*
X11648515Y-15914653D02*
X11638991Y-15952748D01*
X11638991Y-15952748D02*
X11629467Y-15971795D01*
X11629467Y-15971795D02*
X11619944Y-15981319D01*
X11619944Y-15981319D02*
X11600896Y-15990843D01*
X11600896Y-15990843D02*
X11581848Y-15990843D01*
X11581848Y-15990843D02*
X11562801Y-15981319D01*
X11562801Y-15981319D02*
X11553277Y-15971795D01*
X11553277Y-15971795D02*
X11543753Y-15952748D01*
X11543753Y-15952748D02*
X11534229Y-15914653D01*
X11534229Y-15914653D02*
X11534229Y-15867033D01*
X11534229Y-15867033D02*
X11543753Y-15828938D01*
X11543753Y-15828938D02*
X11553277Y-15809891D01*
X11553277Y-15809891D02*
X11562801Y-15800367D01*
X11562801Y-15800367D02*
X11581848Y-15790843D01*
X11838991Y-15990843D02*
X11724706Y-15990843D01*
X11781848Y-15990843D02*
X11781848Y-15790843D01*
X11781848Y-15790843D02*
X11762801Y-15819414D01*
X11762801Y-15819414D02*
X11743753Y-15838462D01*
X11743753Y-15838462D02*
X11724706Y-15847986D01*
X12019944Y-15790843D02*
X11924706Y-15790843D01*
X11924706Y-15790843D02*
X11915182Y-15886081D01*
X11915182Y-15886081D02*
X11924706Y-15876557D01*
X11924706Y-15876557D02*
X11943753Y-15867033D01*
X11943753Y-15867033D02*
X11991372Y-15867033D01*
X11991372Y-15867033D02*
X12010420Y-15876557D01*
X12010420Y-15876557D02*
X12019944Y-15886081D01*
X12019944Y-15886081D02*
X12029467Y-15905129D01*
X12029467Y-15905129D02*
X12029467Y-15952748D01*
X12029467Y-15952748D02*
X12019944Y-15971795D01*
X12019944Y-15971795D02*
X12010420Y-15981319D01*
X12010420Y-15981319D02*
X11991372Y-15990843D01*
X11991372Y-15990843D02*
X11943753Y-15990843D01*
X11943753Y-15990843D02*
X11924706Y-15981319D01*
X11924706Y-15981319D02*
X11915182Y-15971795D01*
X12096134Y-15790843D02*
X12229467Y-15790843D01*
X12229467Y-15790843D02*
X12143753Y-15990843D01*
X12296134Y-15790843D02*
X12296134Y-15828938D01*
X12372325Y-15790843D02*
X12372325Y-15828938D01*
X12667563Y-16067033D02*
X12658039Y-16057510D01*
X12658039Y-16057510D02*
X12638991Y-16028938D01*
X12638991Y-16028938D02*
X12629468Y-16009891D01*
X12629468Y-16009891D02*
X12619944Y-15981319D01*
X12619944Y-15981319D02*
X12610420Y-15933700D01*
X12610420Y-15933700D02*
X12610420Y-15895605D01*
X12610420Y-15895605D02*
X12619944Y-15847986D01*
X12619944Y-15847986D02*
X12629468Y-15819414D01*
X12629468Y-15819414D02*
X12638991Y-15800367D01*
X12638991Y-15800367D02*
X12658039Y-15771795D01*
X12658039Y-15771795D02*
X12667563Y-15762272D01*
X12734229Y-15809891D02*
X12743753Y-15800367D01*
X12743753Y-15800367D02*
X12762801Y-15790843D01*
X12762801Y-15790843D02*
X12810420Y-15790843D01*
X12810420Y-15790843D02*
X12829468Y-15800367D01*
X12829468Y-15800367D02*
X12838991Y-15809891D01*
X12838991Y-15809891D02*
X12848515Y-15828938D01*
X12848515Y-15828938D02*
X12848515Y-15847986D01*
X12848515Y-15847986D02*
X12838991Y-15876557D01*
X12838991Y-15876557D02*
X12724706Y-15990843D01*
X12724706Y-15990843D02*
X12848515Y-15990843D01*
X13019944Y-15857510D02*
X13019944Y-15990843D01*
X12972325Y-15781319D02*
X12924706Y-15924176D01*
X12924706Y-15924176D02*
X13048515Y-15924176D01*
X13277087Y-15990843D02*
X13277087Y-15790843D01*
X13362801Y-15990843D02*
X13362801Y-15886081D01*
X13362801Y-15886081D02*
X13353277Y-15867033D01*
X13353277Y-15867033D02*
X13334230Y-15857510D01*
X13334230Y-15857510D02*
X13305658Y-15857510D01*
X13305658Y-15857510D02*
X13286610Y-15867033D01*
X13286610Y-15867033D02*
X13277087Y-15876557D01*
X13486610Y-15990843D02*
X13467563Y-15981319D01*
X13467563Y-15981319D02*
X13458039Y-15971795D01*
X13458039Y-15971795D02*
X13448515Y-15952748D01*
X13448515Y-15952748D02*
X13448515Y-15895605D01*
X13448515Y-15895605D02*
X13458039Y-15876557D01*
X13458039Y-15876557D02*
X13467563Y-15867033D01*
X13467563Y-15867033D02*
X13486610Y-15857510D01*
X13486610Y-15857510D02*
X13515182Y-15857510D01*
X13515182Y-15857510D02*
X13534230Y-15867033D01*
X13534230Y-15867033D02*
X13543753Y-15876557D01*
X13543753Y-15876557D02*
X13553277Y-15895605D01*
X13553277Y-15895605D02*
X13553277Y-15952748D01*
X13553277Y-15952748D02*
X13543753Y-15971795D01*
X13543753Y-15971795D02*
X13534230Y-15981319D01*
X13534230Y-15981319D02*
X13515182Y-15990843D01*
X13515182Y-15990843D02*
X13486610Y-15990843D01*
X13667563Y-15990843D02*
X13648515Y-15981319D01*
X13648515Y-15981319D02*
X13638991Y-15962272D01*
X13638991Y-15962272D02*
X13638991Y-15790843D01*
X13819944Y-15981319D02*
X13800896Y-15990843D01*
X13800896Y-15990843D02*
X13762801Y-15990843D01*
X13762801Y-15990843D02*
X13743753Y-15981319D01*
X13743753Y-15981319D02*
X13734230Y-15962272D01*
X13734230Y-15962272D02*
X13734230Y-15886081D01*
X13734230Y-15886081D02*
X13743753Y-15867033D01*
X13743753Y-15867033D02*
X13762801Y-15857510D01*
X13762801Y-15857510D02*
X13800896Y-15857510D01*
X13800896Y-15857510D02*
X13819944Y-15867033D01*
X13819944Y-15867033D02*
X13829468Y-15886081D01*
X13829468Y-15886081D02*
X13829468Y-15905129D01*
X13829468Y-15905129D02*
X13734230Y-15924176D01*
X13905658Y-15981319D02*
X13924706Y-15990843D01*
X13924706Y-15990843D02*
X13962801Y-15990843D01*
X13962801Y-15990843D02*
X13981849Y-15981319D01*
X13981849Y-15981319D02*
X13991372Y-15962272D01*
X13991372Y-15962272D02*
X13991372Y-15952748D01*
X13991372Y-15952748D02*
X13981849Y-15933700D01*
X13981849Y-15933700D02*
X13962801Y-15924176D01*
X13962801Y-15924176D02*
X13934230Y-15924176D01*
X13934230Y-15924176D02*
X13915182Y-15914653D01*
X13915182Y-15914653D02*
X13905658Y-15895605D01*
X13905658Y-15895605D02*
X13905658Y-15886081D01*
X13905658Y-15886081D02*
X13915182Y-15867033D01*
X13915182Y-15867033D02*
X13934230Y-15857510D01*
X13934230Y-15857510D02*
X13962801Y-15857510D01*
X13962801Y-15857510D02*
X13981849Y-15867033D01*
X14058039Y-16067033D02*
X14067563Y-16057510D01*
X14067563Y-16057510D02*
X14086611Y-16028938D01*
X14086611Y-16028938D02*
X14096134Y-16009891D01*
X14096134Y-16009891D02*
X14105658Y-15981319D01*
X14105658Y-15981319D02*
X14115182Y-15933700D01*
X14115182Y-15933700D02*
X14115182Y-15895605D01*
X14115182Y-15895605D02*
X14105658Y-15847986D01*
X14105658Y-15847986D02*
X14096134Y-15819414D01*
X14096134Y-15819414D02*
X14086611Y-15800367D01*
X14086611Y-15800367D02*
X14067563Y-15771795D01*
X14067563Y-15771795D02*
X14058039Y-15762272D01*
D12*
X9092500Y-16163359D02*
G75*
G02*
X9017500Y-16163359I-37500J0D01*
G01*
X9017500Y-16163359D02*
G75*
G02*
X9092500Y-16163359I37500J0D01*
G01*
D11*
X9391372Y-16054843D02*
X9410420Y-16054843D01*
X9410420Y-16054843D02*
X9429467Y-16064367D01*
X9429467Y-16064367D02*
X9438991Y-16073891D01*
X9438991Y-16073891D02*
X9448515Y-16092938D01*
X9448515Y-16092938D02*
X9458039Y-16131033D01*
X9458039Y-16131033D02*
X9458039Y-16178653D01*
X9458039Y-16178653D02*
X9448515Y-16216748D01*
X9448515Y-16216748D02*
X9438991Y-16235795D01*
X9438991Y-16235795D02*
X9429467Y-16245319D01*
X9429467Y-16245319D02*
X9410420Y-16254843D01*
X9410420Y-16254843D02*
X9391372Y-16254843D01*
X9391372Y-16254843D02*
X9372324Y-16245319D01*
X9372324Y-16245319D02*
X9362801Y-16235795D01*
X9362801Y-16235795D02*
X9353277Y-16216748D01*
X9353277Y-16216748D02*
X9343753Y-16178653D01*
X9343753Y-16178653D02*
X9343753Y-16131033D01*
X9343753Y-16131033D02*
X9353277Y-16092938D01*
X9353277Y-16092938D02*
X9362801Y-16073891D01*
X9362801Y-16073891D02*
X9372324Y-16064367D01*
X9372324Y-16064367D02*
X9391372Y-16054843D01*
X9543753Y-16235795D02*
X9553277Y-16245319D01*
X9553277Y-16245319D02*
X9543753Y-16254843D01*
X9543753Y-16254843D02*
X9534229Y-16245319D01*
X9534229Y-16245319D02*
X9543753Y-16235795D01*
X9543753Y-16235795D02*
X9543753Y-16254843D01*
X9619944Y-16054843D02*
X9753277Y-16054843D01*
X9753277Y-16054843D02*
X9667563Y-16254843D01*
X9924705Y-16054843D02*
X9829467Y-16054843D01*
X9829467Y-16054843D02*
X9819944Y-16150081D01*
X9819944Y-16150081D02*
X9829467Y-16140557D01*
X9829467Y-16140557D02*
X9848515Y-16131033D01*
X9848515Y-16131033D02*
X9896134Y-16131033D01*
X9896134Y-16131033D02*
X9915182Y-16140557D01*
X9915182Y-16140557D02*
X9924705Y-16150081D01*
X9924705Y-16150081D02*
X9934229Y-16169129D01*
X9934229Y-16169129D02*
X9934229Y-16216748D01*
X9934229Y-16216748D02*
X9924705Y-16235795D01*
X9924705Y-16235795D02*
X9915182Y-16245319D01*
X9915182Y-16245319D02*
X9896134Y-16254843D01*
X9896134Y-16254843D02*
X9848515Y-16254843D01*
X9848515Y-16254843D02*
X9829467Y-16245319D01*
X9829467Y-16245319D02*
X9819944Y-16235795D01*
X10058039Y-16054843D02*
X10077086Y-16054843D01*
X10077086Y-16054843D02*
X10096134Y-16064367D01*
X10096134Y-16064367D02*
X10105658Y-16073891D01*
X10105658Y-16073891D02*
X10115182Y-16092938D01*
X10115182Y-16092938D02*
X10124705Y-16131033D01*
X10124705Y-16131033D02*
X10124705Y-16178653D01*
X10124705Y-16178653D02*
X10115182Y-16216748D01*
X10115182Y-16216748D02*
X10105658Y-16235795D01*
X10105658Y-16235795D02*
X10096134Y-16245319D01*
X10096134Y-16245319D02*
X10077086Y-16254843D01*
X10077086Y-16254843D02*
X10058039Y-16254843D01*
X10058039Y-16254843D02*
X10038991Y-16245319D01*
X10038991Y-16245319D02*
X10029467Y-16235795D01*
X10029467Y-16235795D02*
X10019944Y-16216748D01*
X10019944Y-16216748D02*
X10010420Y-16178653D01*
X10010420Y-16178653D02*
X10010420Y-16131033D01*
X10010420Y-16131033D02*
X10019944Y-16092938D01*
X10019944Y-16092938D02*
X10029467Y-16073891D01*
X10029467Y-16073891D02*
X10038991Y-16064367D01*
X10038991Y-16064367D02*
X10058039Y-16054843D01*
X10210420Y-16254843D02*
X10210420Y-16121510D01*
X10210420Y-16140557D02*
X10219944Y-16131033D01*
X10219944Y-16131033D02*
X10238991Y-16121510D01*
X10238991Y-16121510D02*
X10267563Y-16121510D01*
X10267563Y-16121510D02*
X10286610Y-16131033D01*
X10286610Y-16131033D02*
X10296134Y-16150081D01*
X10296134Y-16150081D02*
X10296134Y-16254843D01*
X10296134Y-16150081D02*
X10305658Y-16131033D01*
X10305658Y-16131033D02*
X10324705Y-16121510D01*
X10324705Y-16121510D02*
X10353277Y-16121510D01*
X10353277Y-16121510D02*
X10372325Y-16131033D01*
X10372325Y-16131033D02*
X10381848Y-16150081D01*
X10381848Y-16150081D02*
X10381848Y-16254843D01*
X10477086Y-16254843D02*
X10477086Y-16121510D01*
X10477086Y-16140557D02*
X10486610Y-16131033D01*
X10486610Y-16131033D02*
X10505658Y-16121510D01*
X10505658Y-16121510D02*
X10534229Y-16121510D01*
X10534229Y-16121510D02*
X10553277Y-16131033D01*
X10553277Y-16131033D02*
X10562801Y-16150081D01*
X10562801Y-16150081D02*
X10562801Y-16254843D01*
X10562801Y-16150081D02*
X10572325Y-16131033D01*
X10572325Y-16131033D02*
X10591372Y-16121510D01*
X10591372Y-16121510D02*
X10619944Y-16121510D01*
X10619944Y-16121510D02*
X10638991Y-16131033D01*
X10638991Y-16131033D02*
X10648515Y-16150081D01*
X10648515Y-16150081D02*
X10648515Y-16254843D01*
X11038991Y-16045319D02*
X10867563Y-16302462D01*
X11296134Y-16054843D02*
X11315182Y-16054843D01*
X11315182Y-16054843D02*
X11334229Y-16064367D01*
X11334229Y-16064367D02*
X11343753Y-16073891D01*
X11343753Y-16073891D02*
X11353277Y-16092938D01*
X11353277Y-16092938D02*
X11362801Y-16131033D01*
X11362801Y-16131033D02*
X11362801Y-16178653D01*
X11362801Y-16178653D02*
X11353277Y-16216748D01*
X11353277Y-16216748D02*
X11343753Y-16235795D01*
X11343753Y-16235795D02*
X11334229Y-16245319D01*
X11334229Y-16245319D02*
X11315182Y-16254843D01*
X11315182Y-16254843D02*
X11296134Y-16254843D01*
X11296134Y-16254843D02*
X11277086Y-16245319D01*
X11277086Y-16245319D02*
X11267563Y-16235795D01*
X11267563Y-16235795D02*
X11258039Y-16216748D01*
X11258039Y-16216748D02*
X11248515Y-16178653D01*
X11248515Y-16178653D02*
X11248515Y-16131033D01*
X11248515Y-16131033D02*
X11258039Y-16092938D01*
X11258039Y-16092938D02*
X11267563Y-16073891D01*
X11267563Y-16073891D02*
X11277086Y-16064367D01*
X11277086Y-16064367D02*
X11296134Y-16054843D01*
X11448515Y-16235795D02*
X11458039Y-16245319D01*
X11458039Y-16245319D02*
X11448515Y-16254843D01*
X11448515Y-16254843D02*
X11438991Y-16245319D01*
X11438991Y-16245319D02*
X11448515Y-16235795D01*
X11448515Y-16235795D02*
X11448515Y-16254843D01*
X11581848Y-16054843D02*
X11600896Y-16054843D01*
X11600896Y-16054843D02*
X11619944Y-16064367D01*
X11619944Y-16064367D02*
X11629467Y-16073891D01*
X11629467Y-16073891D02*
X11638991Y-16092938D01*
X11638991Y-16092938D02*
X11648515Y-16131033D01*
X11648515Y-16131033D02*
X11648515Y-16178653D01*
X11648515Y-16178653D02*
X11638991Y-16216748D01*
X11638991Y-16216748D02*
X11629467Y-16235795D01*
X11629467Y-16235795D02*
X11619944Y-16245319D01*
X11619944Y-16245319D02*
X11600896Y-16254843D01*
X11600896Y-16254843D02*
X11581848Y-16254843D01*
X11581848Y-16254843D02*
X11562801Y-16245319D01*
X11562801Y-16245319D02*
X11553277Y-16235795D01*
X11553277Y-16235795D02*
X11543753Y-16216748D01*
X11543753Y-16216748D02*
X11534229Y-16178653D01*
X11534229Y-16178653D02*
X11534229Y-16131033D01*
X11534229Y-16131033D02*
X11543753Y-16092938D01*
X11543753Y-16092938D02*
X11553277Y-16073891D01*
X11553277Y-16073891D02*
X11562801Y-16064367D01*
X11562801Y-16064367D02*
X11581848Y-16054843D01*
X11724706Y-16073891D02*
X11734229Y-16064367D01*
X11734229Y-16064367D02*
X11753277Y-16054843D01*
X11753277Y-16054843D02*
X11800896Y-16054843D01*
X11800896Y-16054843D02*
X11819944Y-16064367D01*
X11819944Y-16064367D02*
X11829467Y-16073891D01*
X11829467Y-16073891D02*
X11838991Y-16092938D01*
X11838991Y-16092938D02*
X11838991Y-16111986D01*
X11838991Y-16111986D02*
X11829467Y-16140557D01*
X11829467Y-16140557D02*
X11715182Y-16254843D01*
X11715182Y-16254843D02*
X11838991Y-16254843D01*
X11934229Y-16254843D02*
X11972325Y-16254843D01*
X11972325Y-16254843D02*
X11991372Y-16245319D01*
X11991372Y-16245319D02*
X12000896Y-16235795D01*
X12000896Y-16235795D02*
X12019944Y-16207224D01*
X12019944Y-16207224D02*
X12029467Y-16169129D01*
X12029467Y-16169129D02*
X12029467Y-16092938D01*
X12029467Y-16092938D02*
X12019944Y-16073891D01*
X12019944Y-16073891D02*
X12010420Y-16064367D01*
X12010420Y-16064367D02*
X11991372Y-16054843D01*
X11991372Y-16054843D02*
X11953277Y-16054843D01*
X11953277Y-16054843D02*
X11934229Y-16064367D01*
X11934229Y-16064367D02*
X11924706Y-16073891D01*
X11924706Y-16073891D02*
X11915182Y-16092938D01*
X11915182Y-16092938D02*
X11915182Y-16140557D01*
X11915182Y-16140557D02*
X11924706Y-16159605D01*
X11924706Y-16159605D02*
X11934229Y-16169129D01*
X11934229Y-16169129D02*
X11953277Y-16178653D01*
X11953277Y-16178653D02*
X11991372Y-16178653D01*
X11991372Y-16178653D02*
X12010420Y-16169129D01*
X12010420Y-16169129D02*
X12019944Y-16159605D01*
X12019944Y-16159605D02*
X12029467Y-16140557D01*
X12210420Y-16054843D02*
X12115182Y-16054843D01*
X12115182Y-16054843D02*
X12105658Y-16150081D01*
X12105658Y-16150081D02*
X12115182Y-16140557D01*
X12115182Y-16140557D02*
X12134229Y-16131033D01*
X12134229Y-16131033D02*
X12181848Y-16131033D01*
X12181848Y-16131033D02*
X12200896Y-16140557D01*
X12200896Y-16140557D02*
X12210420Y-16150081D01*
X12210420Y-16150081D02*
X12219944Y-16169129D01*
X12219944Y-16169129D02*
X12219944Y-16216748D01*
X12219944Y-16216748D02*
X12210420Y-16235795D01*
X12210420Y-16235795D02*
X12200896Y-16245319D01*
X12200896Y-16245319D02*
X12181848Y-16254843D01*
X12181848Y-16254843D02*
X12134229Y-16254843D01*
X12134229Y-16254843D02*
X12115182Y-16245319D01*
X12115182Y-16245319D02*
X12105658Y-16235795D01*
X12296134Y-16054843D02*
X12296134Y-16092938D01*
X12372325Y-16054843D02*
X12372325Y-16092938D01*
X12667563Y-16331033D02*
X12658039Y-16321510D01*
X12658039Y-16321510D02*
X12638991Y-16292938D01*
X12638991Y-16292938D02*
X12629468Y-16273891D01*
X12629468Y-16273891D02*
X12619944Y-16245319D01*
X12619944Y-16245319D02*
X12610420Y-16197700D01*
X12610420Y-16197700D02*
X12610420Y-16159605D01*
X12610420Y-16159605D02*
X12619944Y-16111986D01*
X12619944Y-16111986D02*
X12629468Y-16083414D01*
X12629468Y-16083414D02*
X12638991Y-16064367D01*
X12638991Y-16064367D02*
X12658039Y-16035795D01*
X12658039Y-16035795D02*
X12667563Y-16026272D01*
X12734229Y-16073891D02*
X12743753Y-16064367D01*
X12743753Y-16064367D02*
X12762801Y-16054843D01*
X12762801Y-16054843D02*
X12810420Y-16054843D01*
X12810420Y-16054843D02*
X12829468Y-16064367D01*
X12829468Y-16064367D02*
X12838991Y-16073891D01*
X12838991Y-16073891D02*
X12848515Y-16092938D01*
X12848515Y-16092938D02*
X12848515Y-16111986D01*
X12848515Y-16111986D02*
X12838991Y-16140557D01*
X12838991Y-16140557D02*
X12724706Y-16254843D01*
X12724706Y-16254843D02*
X12848515Y-16254843D01*
X13086610Y-16254843D02*
X13086610Y-16054843D01*
X13172325Y-16254843D02*
X13172325Y-16150081D01*
X13172325Y-16150081D02*
X13162801Y-16131033D01*
X13162801Y-16131033D02*
X13143753Y-16121510D01*
X13143753Y-16121510D02*
X13115182Y-16121510D01*
X13115182Y-16121510D02*
X13096134Y-16131033D01*
X13096134Y-16131033D02*
X13086610Y-16140557D01*
X13296134Y-16254843D02*
X13277087Y-16245319D01*
X13277087Y-16245319D02*
X13267563Y-16235795D01*
X13267563Y-16235795D02*
X13258039Y-16216748D01*
X13258039Y-16216748D02*
X13258039Y-16159605D01*
X13258039Y-16159605D02*
X13267563Y-16140557D01*
X13267563Y-16140557D02*
X13277087Y-16131033D01*
X13277087Y-16131033D02*
X13296134Y-16121510D01*
X13296134Y-16121510D02*
X13324706Y-16121510D01*
X13324706Y-16121510D02*
X13343753Y-16131033D01*
X13343753Y-16131033D02*
X13353277Y-16140557D01*
X13353277Y-16140557D02*
X13362801Y-16159605D01*
X13362801Y-16159605D02*
X13362801Y-16216748D01*
X13362801Y-16216748D02*
X13353277Y-16235795D01*
X13353277Y-16235795D02*
X13343753Y-16245319D01*
X13343753Y-16245319D02*
X13324706Y-16254843D01*
X13324706Y-16254843D02*
X13296134Y-16254843D01*
X13477087Y-16254843D02*
X13458039Y-16245319D01*
X13458039Y-16245319D02*
X13448515Y-16226272D01*
X13448515Y-16226272D02*
X13448515Y-16054843D01*
X13629468Y-16245319D02*
X13610420Y-16254843D01*
X13610420Y-16254843D02*
X13572325Y-16254843D01*
X13572325Y-16254843D02*
X13553277Y-16245319D01*
X13553277Y-16245319D02*
X13543753Y-16226272D01*
X13543753Y-16226272D02*
X13543753Y-16150081D01*
X13543753Y-16150081D02*
X13553277Y-16131033D01*
X13553277Y-16131033D02*
X13572325Y-16121510D01*
X13572325Y-16121510D02*
X13610420Y-16121510D01*
X13610420Y-16121510D02*
X13629468Y-16131033D01*
X13629468Y-16131033D02*
X13638991Y-16150081D01*
X13638991Y-16150081D02*
X13638991Y-16169129D01*
X13638991Y-16169129D02*
X13543753Y-16188176D01*
X13715182Y-16245319D02*
X13734230Y-16254843D01*
X13734230Y-16254843D02*
X13772325Y-16254843D01*
X13772325Y-16254843D02*
X13791372Y-16245319D01*
X13791372Y-16245319D02*
X13800896Y-16226272D01*
X13800896Y-16226272D02*
X13800896Y-16216748D01*
X13800896Y-16216748D02*
X13791372Y-16197700D01*
X13791372Y-16197700D02*
X13772325Y-16188176D01*
X13772325Y-16188176D02*
X13743753Y-16188176D01*
X13743753Y-16188176D02*
X13724706Y-16178653D01*
X13724706Y-16178653D02*
X13715182Y-16159605D01*
X13715182Y-16159605D02*
X13715182Y-16150081D01*
X13715182Y-16150081D02*
X13724706Y-16131033D01*
X13724706Y-16131033D02*
X13743753Y-16121510D01*
X13743753Y-16121510D02*
X13772325Y-16121510D01*
X13772325Y-16121510D02*
X13791372Y-16131033D01*
X13867563Y-16331033D02*
X13877087Y-16321510D01*
X13877087Y-16321510D02*
X13896134Y-16292938D01*
X13896134Y-16292938D02*
X13905658Y-16273891D01*
X13905658Y-16273891D02*
X13915182Y-16245319D01*
X13915182Y-16245319D02*
X13924706Y-16197700D01*
X13924706Y-16197700D02*
X13924706Y-16159605D01*
X13924706Y-16159605D02*
X13915182Y-16111986D01*
X13915182Y-16111986D02*
X13905658Y-16083414D01*
X13905658Y-16083414D02*
X13896134Y-16064367D01*
X13896134Y-16064367D02*
X13877087Y-16035795D01*
X13877087Y-16035795D02*
X13867563Y-16026272D01*
D12*
X9042500Y-16377359D02*
X9042500Y-16477359D01*
X8992500Y-16427359D02*
X9092500Y-16427359D01*
D11*
X9458039Y-16518843D02*
X9343753Y-16518843D01*
X9400896Y-16518843D02*
X9400896Y-16318843D01*
X9400896Y-16318843D02*
X9381848Y-16347414D01*
X9381848Y-16347414D02*
X9362801Y-16366462D01*
X9362801Y-16366462D02*
X9343753Y-16375986D01*
X9543753Y-16499795D02*
X9553277Y-16509319D01*
X9553277Y-16509319D02*
X9543753Y-16518843D01*
X9543753Y-16518843D02*
X9534229Y-16509319D01*
X9534229Y-16509319D02*
X9543753Y-16499795D01*
X9543753Y-16499795D02*
X9543753Y-16518843D01*
X9677086Y-16318843D02*
X9696134Y-16318843D01*
X9696134Y-16318843D02*
X9715182Y-16328367D01*
X9715182Y-16328367D02*
X9724705Y-16337891D01*
X9724705Y-16337891D02*
X9734229Y-16356938D01*
X9734229Y-16356938D02*
X9743753Y-16395033D01*
X9743753Y-16395033D02*
X9743753Y-16442653D01*
X9743753Y-16442653D02*
X9734229Y-16480748D01*
X9734229Y-16480748D02*
X9724705Y-16499795D01*
X9724705Y-16499795D02*
X9715182Y-16509319D01*
X9715182Y-16509319D02*
X9696134Y-16518843D01*
X9696134Y-16518843D02*
X9677086Y-16518843D01*
X9677086Y-16518843D02*
X9658039Y-16509319D01*
X9658039Y-16509319D02*
X9648515Y-16499795D01*
X9648515Y-16499795D02*
X9638991Y-16480748D01*
X9638991Y-16480748D02*
X9629467Y-16442653D01*
X9629467Y-16442653D02*
X9629467Y-16395033D01*
X9629467Y-16395033D02*
X9638991Y-16356938D01*
X9638991Y-16356938D02*
X9648515Y-16337891D01*
X9648515Y-16337891D02*
X9658039Y-16328367D01*
X9658039Y-16328367D02*
X9677086Y-16318843D01*
X9867563Y-16318843D02*
X9886610Y-16318843D01*
X9886610Y-16318843D02*
X9905658Y-16328367D01*
X9905658Y-16328367D02*
X9915182Y-16337891D01*
X9915182Y-16337891D02*
X9924705Y-16356938D01*
X9924705Y-16356938D02*
X9934229Y-16395033D01*
X9934229Y-16395033D02*
X9934229Y-16442653D01*
X9934229Y-16442653D02*
X9924705Y-16480748D01*
X9924705Y-16480748D02*
X9915182Y-16499795D01*
X9915182Y-16499795D02*
X9905658Y-16509319D01*
X9905658Y-16509319D02*
X9886610Y-16518843D01*
X9886610Y-16518843D02*
X9867563Y-16518843D01*
X9867563Y-16518843D02*
X9848515Y-16509319D01*
X9848515Y-16509319D02*
X9838991Y-16499795D01*
X9838991Y-16499795D02*
X9829467Y-16480748D01*
X9829467Y-16480748D02*
X9819944Y-16442653D01*
X9819944Y-16442653D02*
X9819944Y-16395033D01*
X9819944Y-16395033D02*
X9829467Y-16356938D01*
X9829467Y-16356938D02*
X9838991Y-16337891D01*
X9838991Y-16337891D02*
X9848515Y-16328367D01*
X9848515Y-16328367D02*
X9867563Y-16318843D01*
X10058039Y-16318843D02*
X10077086Y-16318843D01*
X10077086Y-16318843D02*
X10096134Y-16328367D01*
X10096134Y-16328367D02*
X10105658Y-16337891D01*
X10105658Y-16337891D02*
X10115182Y-16356938D01*
X10115182Y-16356938D02*
X10124705Y-16395033D01*
X10124705Y-16395033D02*
X10124705Y-16442653D01*
X10124705Y-16442653D02*
X10115182Y-16480748D01*
X10115182Y-16480748D02*
X10105658Y-16499795D01*
X10105658Y-16499795D02*
X10096134Y-16509319D01*
X10096134Y-16509319D02*
X10077086Y-16518843D01*
X10077086Y-16518843D02*
X10058039Y-16518843D01*
X10058039Y-16518843D02*
X10038991Y-16509319D01*
X10038991Y-16509319D02*
X10029467Y-16499795D01*
X10029467Y-16499795D02*
X10019944Y-16480748D01*
X10019944Y-16480748D02*
X10010420Y-16442653D01*
X10010420Y-16442653D02*
X10010420Y-16395033D01*
X10010420Y-16395033D02*
X10019944Y-16356938D01*
X10019944Y-16356938D02*
X10029467Y-16337891D01*
X10029467Y-16337891D02*
X10038991Y-16328367D01*
X10038991Y-16328367D02*
X10058039Y-16318843D01*
X10210420Y-16518843D02*
X10210420Y-16385510D01*
X10210420Y-16404557D02*
X10219944Y-16395033D01*
X10219944Y-16395033D02*
X10238991Y-16385510D01*
X10238991Y-16385510D02*
X10267563Y-16385510D01*
X10267563Y-16385510D02*
X10286610Y-16395033D01*
X10286610Y-16395033D02*
X10296134Y-16414081D01*
X10296134Y-16414081D02*
X10296134Y-16518843D01*
X10296134Y-16414081D02*
X10305658Y-16395033D01*
X10305658Y-16395033D02*
X10324705Y-16385510D01*
X10324705Y-16385510D02*
X10353277Y-16385510D01*
X10353277Y-16385510D02*
X10372325Y-16395033D01*
X10372325Y-16395033D02*
X10381848Y-16414081D01*
X10381848Y-16414081D02*
X10381848Y-16518843D01*
X10477086Y-16518843D02*
X10477086Y-16385510D01*
X10477086Y-16404557D02*
X10486610Y-16395033D01*
X10486610Y-16395033D02*
X10505658Y-16385510D01*
X10505658Y-16385510D02*
X10534229Y-16385510D01*
X10534229Y-16385510D02*
X10553277Y-16395033D01*
X10553277Y-16395033D02*
X10562801Y-16414081D01*
X10562801Y-16414081D02*
X10562801Y-16518843D01*
X10562801Y-16414081D02*
X10572325Y-16395033D01*
X10572325Y-16395033D02*
X10591372Y-16385510D01*
X10591372Y-16385510D02*
X10619944Y-16385510D01*
X10619944Y-16385510D02*
X10638991Y-16395033D01*
X10638991Y-16395033D02*
X10648515Y-16414081D01*
X10648515Y-16414081D02*
X10648515Y-16518843D01*
X11038991Y-16309319D02*
X10867563Y-16566462D01*
X11296134Y-16318843D02*
X11315182Y-16318843D01*
X11315182Y-16318843D02*
X11334229Y-16328367D01*
X11334229Y-16328367D02*
X11343753Y-16337891D01*
X11343753Y-16337891D02*
X11353277Y-16356938D01*
X11353277Y-16356938D02*
X11362801Y-16395033D01*
X11362801Y-16395033D02*
X11362801Y-16442653D01*
X11362801Y-16442653D02*
X11353277Y-16480748D01*
X11353277Y-16480748D02*
X11343753Y-16499795D01*
X11343753Y-16499795D02*
X11334229Y-16509319D01*
X11334229Y-16509319D02*
X11315182Y-16518843D01*
X11315182Y-16518843D02*
X11296134Y-16518843D01*
X11296134Y-16518843D02*
X11277086Y-16509319D01*
X11277086Y-16509319D02*
X11267563Y-16499795D01*
X11267563Y-16499795D02*
X11258039Y-16480748D01*
X11258039Y-16480748D02*
X11248515Y-16442653D01*
X11248515Y-16442653D02*
X11248515Y-16395033D01*
X11248515Y-16395033D02*
X11258039Y-16356938D01*
X11258039Y-16356938D02*
X11267563Y-16337891D01*
X11267563Y-16337891D02*
X11277086Y-16328367D01*
X11277086Y-16328367D02*
X11296134Y-16318843D01*
X11448515Y-16499795D02*
X11458039Y-16509319D01*
X11458039Y-16509319D02*
X11448515Y-16518843D01*
X11448515Y-16518843D02*
X11438991Y-16509319D01*
X11438991Y-16509319D02*
X11448515Y-16499795D01*
X11448515Y-16499795D02*
X11448515Y-16518843D01*
X11581848Y-16318843D02*
X11600896Y-16318843D01*
X11600896Y-16318843D02*
X11619944Y-16328367D01*
X11619944Y-16328367D02*
X11629467Y-16337891D01*
X11629467Y-16337891D02*
X11638991Y-16356938D01*
X11638991Y-16356938D02*
X11648515Y-16395033D01*
X11648515Y-16395033D02*
X11648515Y-16442653D01*
X11648515Y-16442653D02*
X11638991Y-16480748D01*
X11638991Y-16480748D02*
X11629467Y-16499795D01*
X11629467Y-16499795D02*
X11619944Y-16509319D01*
X11619944Y-16509319D02*
X11600896Y-16518843D01*
X11600896Y-16518843D02*
X11581848Y-16518843D01*
X11581848Y-16518843D02*
X11562801Y-16509319D01*
X11562801Y-16509319D02*
X11553277Y-16499795D01*
X11553277Y-16499795D02*
X11543753Y-16480748D01*
X11543753Y-16480748D02*
X11534229Y-16442653D01*
X11534229Y-16442653D02*
X11534229Y-16395033D01*
X11534229Y-16395033D02*
X11543753Y-16356938D01*
X11543753Y-16356938D02*
X11553277Y-16337891D01*
X11553277Y-16337891D02*
X11562801Y-16328367D01*
X11562801Y-16328367D02*
X11581848Y-16318843D01*
X11715182Y-16318843D02*
X11838991Y-16318843D01*
X11838991Y-16318843D02*
X11772325Y-16395033D01*
X11772325Y-16395033D02*
X11800896Y-16395033D01*
X11800896Y-16395033D02*
X11819944Y-16404557D01*
X11819944Y-16404557D02*
X11829467Y-16414081D01*
X11829467Y-16414081D02*
X11838991Y-16433129D01*
X11838991Y-16433129D02*
X11838991Y-16480748D01*
X11838991Y-16480748D02*
X11829467Y-16499795D01*
X11829467Y-16499795D02*
X11819944Y-16509319D01*
X11819944Y-16509319D02*
X11800896Y-16518843D01*
X11800896Y-16518843D02*
X11743753Y-16518843D01*
X11743753Y-16518843D02*
X11724706Y-16509319D01*
X11724706Y-16509319D02*
X11715182Y-16499795D01*
X11934229Y-16518843D02*
X11972325Y-16518843D01*
X11972325Y-16518843D02*
X11991372Y-16509319D01*
X11991372Y-16509319D02*
X12000896Y-16499795D01*
X12000896Y-16499795D02*
X12019944Y-16471224D01*
X12019944Y-16471224D02*
X12029467Y-16433129D01*
X12029467Y-16433129D02*
X12029467Y-16356938D01*
X12029467Y-16356938D02*
X12019944Y-16337891D01*
X12019944Y-16337891D02*
X12010420Y-16328367D01*
X12010420Y-16328367D02*
X11991372Y-16318843D01*
X11991372Y-16318843D02*
X11953277Y-16318843D01*
X11953277Y-16318843D02*
X11934229Y-16328367D01*
X11934229Y-16328367D02*
X11924706Y-16337891D01*
X11924706Y-16337891D02*
X11915182Y-16356938D01*
X11915182Y-16356938D02*
X11915182Y-16404557D01*
X11915182Y-16404557D02*
X11924706Y-16423605D01*
X11924706Y-16423605D02*
X11934229Y-16433129D01*
X11934229Y-16433129D02*
X11953277Y-16442653D01*
X11953277Y-16442653D02*
X11991372Y-16442653D01*
X11991372Y-16442653D02*
X12010420Y-16433129D01*
X12010420Y-16433129D02*
X12019944Y-16423605D01*
X12019944Y-16423605D02*
X12029467Y-16404557D01*
X12200896Y-16385510D02*
X12200896Y-16518843D01*
X12153277Y-16309319D02*
X12105658Y-16452176D01*
X12105658Y-16452176D02*
X12229467Y-16452176D01*
X12296134Y-16318843D02*
X12296134Y-16356938D01*
X12372325Y-16318843D02*
X12372325Y-16356938D01*
X12667563Y-16595033D02*
X12658039Y-16585510D01*
X12658039Y-16585510D02*
X12638991Y-16556938D01*
X12638991Y-16556938D02*
X12629468Y-16537891D01*
X12629468Y-16537891D02*
X12619944Y-16509319D01*
X12619944Y-16509319D02*
X12610420Y-16461700D01*
X12610420Y-16461700D02*
X12610420Y-16423605D01*
X12610420Y-16423605D02*
X12619944Y-16375986D01*
X12619944Y-16375986D02*
X12629468Y-16347414D01*
X12629468Y-16347414D02*
X12638991Y-16328367D01*
X12638991Y-16328367D02*
X12658039Y-16299795D01*
X12658039Y-16299795D02*
X12667563Y-16290272D01*
X12734229Y-16337891D02*
X12743753Y-16328367D01*
X12743753Y-16328367D02*
X12762801Y-16318843D01*
X12762801Y-16318843D02*
X12810420Y-16318843D01*
X12810420Y-16318843D02*
X12829468Y-16328367D01*
X12829468Y-16328367D02*
X12838991Y-16337891D01*
X12838991Y-16337891D02*
X12848515Y-16356938D01*
X12848515Y-16356938D02*
X12848515Y-16375986D01*
X12848515Y-16375986D02*
X12838991Y-16404557D01*
X12838991Y-16404557D02*
X12724706Y-16518843D01*
X12724706Y-16518843D02*
X12848515Y-16518843D01*
X12943753Y-16518843D02*
X12981848Y-16518843D01*
X12981848Y-16518843D02*
X13000896Y-16509319D01*
X13000896Y-16509319D02*
X13010420Y-16499795D01*
X13010420Y-16499795D02*
X13029468Y-16471224D01*
X13029468Y-16471224D02*
X13038991Y-16433129D01*
X13038991Y-16433129D02*
X13038991Y-16356938D01*
X13038991Y-16356938D02*
X13029468Y-16337891D01*
X13029468Y-16337891D02*
X13019944Y-16328367D01*
X13019944Y-16328367D02*
X13000896Y-16318843D01*
X13000896Y-16318843D02*
X12962801Y-16318843D01*
X12962801Y-16318843D02*
X12943753Y-16328367D01*
X12943753Y-16328367D02*
X12934229Y-16337891D01*
X12934229Y-16337891D02*
X12924706Y-16356938D01*
X12924706Y-16356938D02*
X12924706Y-16404557D01*
X12924706Y-16404557D02*
X12934229Y-16423605D01*
X12934229Y-16423605D02*
X12943753Y-16433129D01*
X12943753Y-16433129D02*
X12962801Y-16442653D01*
X12962801Y-16442653D02*
X13000896Y-16442653D01*
X13000896Y-16442653D02*
X13019944Y-16433129D01*
X13019944Y-16433129D02*
X13029468Y-16423605D01*
X13029468Y-16423605D02*
X13038991Y-16404557D01*
X13277087Y-16518843D02*
X13277087Y-16318843D01*
X13362801Y-16518843D02*
X13362801Y-16414081D01*
X13362801Y-16414081D02*
X13353277Y-16395033D01*
X13353277Y-16395033D02*
X13334230Y-16385510D01*
X13334230Y-16385510D02*
X13305658Y-16385510D01*
X13305658Y-16385510D02*
X13286610Y-16395033D01*
X13286610Y-16395033D02*
X13277087Y-16404557D01*
X13486610Y-16518843D02*
X13467563Y-16509319D01*
X13467563Y-16509319D02*
X13458039Y-16499795D01*
X13458039Y-16499795D02*
X13448515Y-16480748D01*
X13448515Y-16480748D02*
X13448515Y-16423605D01*
X13448515Y-16423605D02*
X13458039Y-16404557D01*
X13458039Y-16404557D02*
X13467563Y-16395033D01*
X13467563Y-16395033D02*
X13486610Y-16385510D01*
X13486610Y-16385510D02*
X13515182Y-16385510D01*
X13515182Y-16385510D02*
X13534230Y-16395033D01*
X13534230Y-16395033D02*
X13543753Y-16404557D01*
X13543753Y-16404557D02*
X13553277Y-16423605D01*
X13553277Y-16423605D02*
X13553277Y-16480748D01*
X13553277Y-16480748D02*
X13543753Y-16499795D01*
X13543753Y-16499795D02*
X13534230Y-16509319D01*
X13534230Y-16509319D02*
X13515182Y-16518843D01*
X13515182Y-16518843D02*
X13486610Y-16518843D01*
X13667563Y-16518843D02*
X13648515Y-16509319D01*
X13648515Y-16509319D02*
X13638991Y-16490272D01*
X13638991Y-16490272D02*
X13638991Y-16318843D01*
X13819944Y-16509319D02*
X13800896Y-16518843D01*
X13800896Y-16518843D02*
X13762801Y-16518843D01*
X13762801Y-16518843D02*
X13743753Y-16509319D01*
X13743753Y-16509319D02*
X13734230Y-16490272D01*
X13734230Y-16490272D02*
X13734230Y-16414081D01*
X13734230Y-16414081D02*
X13743753Y-16395033D01*
X13743753Y-16395033D02*
X13762801Y-16385510D01*
X13762801Y-16385510D02*
X13800896Y-16385510D01*
X13800896Y-16385510D02*
X13819944Y-16395033D01*
X13819944Y-16395033D02*
X13829468Y-16414081D01*
X13829468Y-16414081D02*
X13829468Y-16433129D01*
X13829468Y-16433129D02*
X13734230Y-16452176D01*
X13905658Y-16509319D02*
X13924706Y-16518843D01*
X13924706Y-16518843D02*
X13962801Y-16518843D01*
X13962801Y-16518843D02*
X13981849Y-16509319D01*
X13981849Y-16509319D02*
X13991372Y-16490272D01*
X13991372Y-16490272D02*
X13991372Y-16480748D01*
X13991372Y-16480748D02*
X13981849Y-16461700D01*
X13981849Y-16461700D02*
X13962801Y-16452176D01*
X13962801Y-16452176D02*
X13934230Y-16452176D01*
X13934230Y-16452176D02*
X13915182Y-16442653D01*
X13915182Y-16442653D02*
X13905658Y-16423605D01*
X13905658Y-16423605D02*
X13905658Y-16414081D01*
X13905658Y-16414081D02*
X13915182Y-16395033D01*
X13915182Y-16395033D02*
X13934230Y-16385510D01*
X13934230Y-16385510D02*
X13962801Y-16385510D01*
X13962801Y-16385510D02*
X13981849Y-16395033D01*
X14058039Y-16595033D02*
X14067563Y-16585510D01*
X14067563Y-16585510D02*
X14086611Y-16556938D01*
X14086611Y-16556938D02*
X14096134Y-16537891D01*
X14096134Y-16537891D02*
X14105658Y-16509319D01*
X14105658Y-16509319D02*
X14115182Y-16461700D01*
X14115182Y-16461700D02*
X14115182Y-16423605D01*
X14115182Y-16423605D02*
X14105658Y-16375986D01*
X14105658Y-16375986D02*
X14096134Y-16347414D01*
X14096134Y-16347414D02*
X14086611Y-16328367D01*
X14086611Y-16328367D02*
X14067563Y-16299795D01*
X14067563Y-16299795D02*
X14058039Y-16290272D01*
M02*
