%TF.GenerationSoftware,KiCad,Pcbnew,8.0.8+1*%
%TF.CreationDate,2025-05-19T02:25:45+00:00*%
%TF.ProjectId,frontplate,66726f6e-7470-46c6-9174-652e6b696361,0.2*%
%TF.SameCoordinates,Original*%
%TF.FileFunction,Drillmap*%
%TF.FilePolarity,Positive*%
%FSLAX45Y45*%
G04 Gerber Fmt 4.5, Leading zero omitted, Abs format (unit mm)*
G04 Created by KiCad (PCBNEW 8.0.8+1) date 2025-05-19 02:25:45*
%MOMM*%
%LPD*%
G01*
G04 APERTURE LIST*
%ADD10C,0.150000*%
%ADD11C,0.200000*%
G04 APERTURE END LIST*
D10*
X9310000Y-8990000D02*
X10690000Y-8990000D01*
X10690000Y-8990000D02*
X10690000Y-7610000D01*
X10690000Y-7610000D02*
X9310000Y-7610000D01*
X9310000Y-7610000D02*
X9310000Y-8990000D01*
X9310000Y-7290000D02*
X10690000Y-7290000D01*
X10690000Y-7290000D02*
X10690000Y-5910000D01*
X10690000Y-5910000D02*
X9310000Y-5910000D01*
X9310000Y-5910000D02*
X9310000Y-7290000D01*
X11400665Y-8859700D02*
X12759700Y-9099335D01*
X12759700Y-9099335D02*
X12999335Y-7740300D01*
X12999335Y-7740300D02*
X11640300Y-7500665D01*
X11640300Y-7500665D02*
X11400665Y-8859700D01*
X11695867Y-7185527D02*
X13054902Y-7425161D01*
X13054902Y-7425161D02*
X13294536Y-6066127D01*
X13294536Y-6066127D02*
X11935502Y-5826492D01*
X11935502Y-5826492D02*
X11695867Y-7185527D01*
X11991069Y-5511354D02*
X13350104Y-5750988D01*
X13350104Y-5750988D02*
X13589738Y-4391954D01*
X13589738Y-4391954D02*
X12230704Y-4152319D01*
X12230704Y-4152319D02*
X11991069Y-5511354D01*
X13595304Y-8751386D02*
X14928281Y-9108557D01*
X14928281Y-9108557D02*
X15285451Y-7775579D01*
X15285451Y-7775579D02*
X13952474Y-7418409D01*
X13952474Y-7418409D02*
X13595304Y-8751386D01*
X14035296Y-7109312D02*
X15368274Y-7466483D01*
X15368274Y-7466483D02*
X15725444Y-6133505D01*
X15725444Y-6133505D02*
X14392466Y-5776335D01*
X14392466Y-5776335D02*
X14035296Y-7109312D01*
X14475288Y-5467239D02*
X15808266Y-5824409D01*
X15808266Y-5824409D02*
X16165436Y-4491431D01*
X16165436Y-4491431D02*
X14832459Y-4134261D01*
X14832459Y-4134261D02*
X14475288Y-5467239D01*
X15318461Y-10398186D02*
X16569166Y-10981399D01*
X16569166Y-10981399D02*
X17152379Y-9730694D01*
X17152379Y-9730694D02*
X15901674Y-9147481D01*
X15901674Y-9147481D02*
X15318461Y-10398186D01*
X16036912Y-8857463D02*
X17287617Y-9440676D01*
X17287617Y-9440676D02*
X17870830Y-8189971D01*
X17870830Y-8189971D02*
X16620125Y-7606758D01*
X16620125Y-7606758D02*
X16036912Y-8857463D01*
X16755363Y-7316739D02*
X18006068Y-7899952D01*
X18006068Y-7899952D02*
X18589281Y-6649248D01*
X18589281Y-6649248D02*
X17338576Y-6066035D01*
X17338576Y-6066035D02*
X16755363Y-7316739D01*
X17106585Y-13609863D02*
X17993632Y-12552721D01*
X17993632Y-12552721D02*
X16936490Y-11665674D01*
X16936490Y-11665674D02*
X16049443Y-12722816D01*
X16049443Y-12722816D02*
X17106585Y-13609863D01*
X18632651Y-14815811D02*
X19763081Y-14024276D01*
X19763081Y-14024276D02*
X18971546Y-12893846D01*
X18971546Y-12893846D02*
X17841116Y-13685382D01*
X17841116Y-13685382D02*
X18632651Y-14815811D01*
D11*
X9563277Y-15134795D02*
X9563277Y-14934795D01*
X9563277Y-14934795D02*
X9610896Y-14934795D01*
X9610896Y-14934795D02*
X9639467Y-14944319D01*
X9639467Y-14944319D02*
X9658515Y-14963367D01*
X9658515Y-14963367D02*
X9668039Y-14982414D01*
X9668039Y-14982414D02*
X9677563Y-15020509D01*
X9677563Y-15020509D02*
X9677563Y-15049081D01*
X9677563Y-15049081D02*
X9668039Y-15087176D01*
X9668039Y-15087176D02*
X9658515Y-15106224D01*
X9658515Y-15106224D02*
X9639467Y-15125271D01*
X9639467Y-15125271D02*
X9610896Y-15134795D01*
X9610896Y-15134795D02*
X9563277Y-15134795D01*
X9763277Y-15134795D02*
X9763277Y-15001462D01*
X9763277Y-15039557D02*
X9772801Y-15020509D01*
X9772801Y-15020509D02*
X9782324Y-15010986D01*
X9782324Y-15010986D02*
X9801372Y-15001462D01*
X9801372Y-15001462D02*
X9820420Y-15001462D01*
X9887086Y-15134795D02*
X9887086Y-15001462D01*
X9887086Y-14934795D02*
X9877563Y-14944319D01*
X9877563Y-14944319D02*
X9887086Y-14953843D01*
X9887086Y-14953843D02*
X9896610Y-14944319D01*
X9896610Y-14944319D02*
X9887086Y-14934795D01*
X9887086Y-14934795D02*
X9887086Y-14953843D01*
X10010896Y-15134795D02*
X9991848Y-15125271D01*
X9991848Y-15125271D02*
X9982324Y-15106224D01*
X9982324Y-15106224D02*
X9982324Y-14934795D01*
X10115658Y-15134795D02*
X10096610Y-15125271D01*
X10096610Y-15125271D02*
X10087086Y-15106224D01*
X10087086Y-15106224D02*
X10087086Y-14934795D01*
X10344229Y-15134795D02*
X10344229Y-14934795D01*
X10344229Y-14934795D02*
X10410896Y-15077652D01*
X10410896Y-15077652D02*
X10477563Y-14934795D01*
X10477563Y-14934795D02*
X10477563Y-15134795D01*
X10658515Y-15134795D02*
X10658515Y-15030033D01*
X10658515Y-15030033D02*
X10648991Y-15010986D01*
X10648991Y-15010986D02*
X10629944Y-15001462D01*
X10629944Y-15001462D02*
X10591848Y-15001462D01*
X10591848Y-15001462D02*
X10572801Y-15010986D01*
X10658515Y-15125271D02*
X10639467Y-15134795D01*
X10639467Y-15134795D02*
X10591848Y-15134795D01*
X10591848Y-15134795D02*
X10572801Y-15125271D01*
X10572801Y-15125271D02*
X10563277Y-15106224D01*
X10563277Y-15106224D02*
X10563277Y-15087176D01*
X10563277Y-15087176D02*
X10572801Y-15068129D01*
X10572801Y-15068129D02*
X10591848Y-15058605D01*
X10591848Y-15058605D02*
X10639467Y-15058605D01*
X10639467Y-15058605D02*
X10658515Y-15049081D01*
X10753753Y-15001462D02*
X10753753Y-15201462D01*
X10753753Y-15010986D02*
X10772801Y-15001462D01*
X10772801Y-15001462D02*
X10810896Y-15001462D01*
X10810896Y-15001462D02*
X10829944Y-15010986D01*
X10829944Y-15010986D02*
X10839467Y-15020509D01*
X10839467Y-15020509D02*
X10848991Y-15039557D01*
X10848991Y-15039557D02*
X10848991Y-15096700D01*
X10848991Y-15096700D02*
X10839467Y-15115748D01*
X10839467Y-15115748D02*
X10829944Y-15125271D01*
X10829944Y-15125271D02*
X10810896Y-15134795D01*
X10810896Y-15134795D02*
X10772801Y-15134795D01*
X10772801Y-15134795D02*
X10753753Y-15125271D01*
X10934705Y-15115748D02*
X10944229Y-15125271D01*
X10944229Y-15125271D02*
X10934705Y-15134795D01*
X10934705Y-15134795D02*
X10925182Y-15125271D01*
X10925182Y-15125271D02*
X10934705Y-15115748D01*
X10934705Y-15115748D02*
X10934705Y-15134795D01*
X10934705Y-15010986D02*
X10944229Y-15020509D01*
X10944229Y-15020509D02*
X10934705Y-15030033D01*
X10934705Y-15030033D02*
X10925182Y-15020509D01*
X10925182Y-15020509D02*
X10934705Y-15010986D01*
X10934705Y-15010986D02*
X10934705Y-15030033D01*
M02*
