0
SECTION
2
HEADER
9
$INSUNITS
70
4
0
ENDSEC
0
SECTION
2
TABLES
0
TABLE
2
LTYPE
0
LTYPE
72
65
70
64
2
CONTINUOUS
3
______
73
0
40
0
0
ENDTAB
0
TABLE
2
LAYER
0
ENDTAB
0
ENDSEC
0
SECTION
2
ENTITIES
0
LINE
8
0
10
93.25
20
-91.25
11
106.75
21
-91.25
0
LINE
8
0
10
108.75
20
-89.25
11
108.75
21
-76.75
0
LINE
8
0
10
106.75
20
-74.75
11
93.25
21
-74.75
0
LINE
8
0
10
91.25
20
-76.75
11
91.25
21
-89.25
0
LINE
8
0
10
93.25
20
-74.25
11
106.75
21
-74.25
0
LINE
8
0
10
108.75
20
-72.25
11
108.75
21
-59.75
0
LINE
8
0
10
106.75
20
-57.75
11
93.25
21
-57.75
0
LINE
8
0
10
91.25
20
-59.75
11
91.25
21
-72.25
0
LINE
8
0
10
113.9199502
20
-89.9525387
11
127.2148549
21
-92.2967891
0
LINE
8
0
10
129.5317667
20
-90.67447
11
131.7023689
21
-78.3643731
0
LINE
8
0
10
130.0800498
20
-76.0474613
11
116.7851451
21
-73.7032109
0
LINE
8
0
10
114.4682333
20
-75.32553
11
112.2976311
21
-87.6356269
0
LINE
8
0
10
116.8719692
20
-73.2108069
11
130.1668739
21
-75.5550573
0
LINE
8
0
10
132.4837857
20
-73.9327382
11
134.6543879
21
-61.6226413
0
LINE
8
0
10
133.0320688
20
-59.3057295
11
119.7371641
21
-56.9614791
0
LINE
8
0
10
117.4202523
20
-58.5837982
11
115.2496501
21
-70.8938951
0
LINE
8
0
10
119.8239882
20
-56.4690751
11
133.1188929
21
-58.8133255
0
LINE
8
0
10
135.4358047
20
-57.1910064
11
137.6064069
21
-44.8809095
0
LINE
8
0
10
135.9840878
20
-42.5639977
11
122.6891831
21
-40.2197473
0
LINE
8
0
10
120.3722713
20
-41.8420664
11
118.2016691
21
-54.1521633
0
LINE
8
0
10
135.748519
20
-88.8566865
11
148.7885176
21
-92.3507436
0
LINE
8
0
10
151.2380073
20
-90.9365299
11
154.4732453
21
-78.8624572
0
LINE
8
0
10
153.0590316
20
-76.4129675
11
140.019033
21
-72.9189104
0
LINE
8
0
10
137.5695433
20
-74.3331241
11
134.3343053
21
-86.4071968
0
LINE
8
0
10
140.1484428
20
-72.4359475
11
153.1884414
21
-75.9300046
0
LINE
8
0
10
155.6379311
20
-74.5157909
11
158.8731691
21
-62.4417182
0
LINE
8
0
10
157.4589554
20
-59.9922285
11
144.4189568
21
-56.4981714
0
LINE
8
0
10
141.9694671
20
-57.9123851
11
138.7342291
21
-69.9864578
0
LINE
8
0
10
144.5483666
20
-56.0152085
11
157.5883652
21
-59.5092656
0
LINE
8
0
10
160.0378549
20
-58.0950519
11
163.2730929
21
-46.0209792
0
LINE
8
0
10
161.8588792
20
-43.5714895
11
148.8188806
21
-40.0774324
0
LINE
8
0
10
146.3693909
20
-41.4916461
11
143.1341529
21
-53.5657188
0
LINE
8
0
10
152.7500224
20
-105.2687662
11
164.9851776
21
-110.9741127
0
LINE
8
0
10
167.6430297
20
-110.0067337
11
172.9257579
21
-98.6778863
0
LINE
8
0
10
171.958379
20
-96.0200342
11
159.7232238
21
-90.3146877
0
LINE
8
0
10
157.0653717
20
-91.2820667
11
151.7826435
21
-102.6109141
0
LINE
8
0
10
159.9345328
20
-89.8615338
11
172.169688
21
-95.5668803
0
LINE
8
0
10
174.8275401
20
-94.5995013
11
180.1102683
21
-83.2706539
0
LINE
8
0
10
179.1428894
20
-80.6128018
11
166.9077342
21
-74.9074553
0
LINE
8
0
10
164.2498821
20
-75.8748343
11
158.9671539
21
-87.2036817
0
LINE
8
0
10
167.1190432
20
-74.4543014
11
179.3541984
21
-80.1596479
0
LINE
8
0
10
182.0120505
20
-79.1922689
11
187.2947787
21
-67.8634215
0
LINE
8
0
10
186.3273998
20
-65.2055694
11
174.0922446
21
-59.5002229
0
LINE
8
0
10
171.4343925
20
-60.4676019
11
166.1516643
21
-71.7964493
0
LINE
8
0
10
169.3842301
20
-140.2029269
11
183.6862544
21
-123.1584381
0
LINE
8
0
10
156.7444968
20
-129.5969313
11
171.0465211
21
-112.5524425
0
LINE
8
0
10
183.6399219
20
-151.687331
11
201.8660549
21
-138.9252553
0
LINE
8
0
10
174.1759107
20
-138.1713223
11
192.4020437
21
-125.4092466
0
ARC
8
0
10
106.75
20
-89.25
40
2
50
270
51
0
0
ARC
8
0
10
106.75
20
-76.75
40
2
50
0
51
90
0
ARC
8
0
10
93.25
20
-76.75
40
2
50
90
51
180
0
ARC
8
0
10
93.25
20
-89.25
40
2
50
180
51
270
0
ARC
8
0
10
106.75
20
-72.25
40
2
50
270
51
0
0
ARC
8
0
10
106.75
20
-59.75
40
2
50
0
51
90
0
ARC
8
0
10
93.25
20
-59.75
40
2
50
90
51
180
0
ARC
8
0
10
93.25
20
-72.25
40
2
50
180
51
270
0
ARC
8
0
10
153.7060794
20
-73.9981529
40
2
50
255.0000021
51
345.0000021
0
ARC
8
0
10
156.9413174
20
-61.9240802
40
2
50
345.0000021
51
75.0000021
0
ARC
8
0
10
143.9013188
20
-58.4300231
40
2
50
75.0000021
51
165.0000021
0
ARC
8
0
10
140.6660808
20
-70.5040958
40
2
50
165.0000021
51
255.0000021
0
ARC
8
0
10
158.1060032
20
-57.5774139
40
2
50
255.0000021
51
345.0000021
0
ARC
8
0
10
161.3412412
20
-45.5033412
40
2
50
345.0000021
51
75.0000021
0
ARC
8
0
10
148.3012426
20
-42.0092841
40
2
50
75.0000021
51
165.0000021
0
ARC
8
0
10
145.0660046
20
-54.0833568
40
2
50
165.0000021
51
255.0000021
0
ARC
8
0
10
149.3061556
20
-90.4188919
40
2
50
255.0000021
51
345.0000021
0
ARC
8
0
10
152.5413936
20
-78.3448192
40
2
50
345.0000021
51
75.0000021
0
ARC
8
0
10
139.501395
20
-74.8507621
40
2
50
75.0000021
51
165.0000021
0
ARC
8
0
10
136.266157
20
-86.9248348
40
2
50
165.0000021
51
255.0000021
0
ARC
8
0
10
165.8304141
20
-109.1614971
40
2
50
244.9999983
51
334.9999983
0
ARC
8
0
10
171.1131424
20
-97.8326498
40
2
50
334.9999983
51
64.9999983
0
ARC
8
0
10
158.8779873
20
-92.1273033
40
2
50
64.9999983
51
154.9999983
0
ARC
8
0
10
153.595259
20
-103.4561506
40
2
50
154.9999983
51
244.9999983
0
ARC
8
0
10
173.0149245
20
-93.7542647
40
2
50
244.9999983
51
334.9999983
0
ARC
8
0
10
178.2976528
20
-82.4254174
40
2
50
334.9999983
51
64.9999983
0
ARC
8
0
10
166.0624977
20
-76.7200709
40
2
50
64.9999983
51
154.9999983
0
ARC
8
0
10
160.7797694
20
-88.0489182
40
2
50
154.9999983
51
244.9999983
0
ARC
8
0
10
180.1994349
20
-78.3470323
40
2
50
244.9999983
51
334.9999983
0
ARC
8
0
10
185.4821632
20
-67.018185
40
2
50
334.9999983
51
64.9999983
0
ARC
8
0
10
173.2470081
20
-61.3128385
40
2
50
64.9999983
51
154.9999983
0
ARC
8
0
10
167.9642798
20
-72.6416858
40
2
50
154.9999983
51
244.9999983
0
ARC
8
0
10
127.5621512
20
-90.3271736
40
2
50
259.9999992
51
349.9999992
0
ARC
8
0
10
129.7327534
20
-78.0170768
40
2
50
349.9999992
51
79.9999992
0
ARC
8
0
10
116.4378488
20
-75.6728264
40
2
50
79.9999992
51
169.9999992
0
ARC
8
0
10
114.2672466
20
-87.9829232
40
2
50
169.9999992
51
259.9999992
0
ARC
8
0
10
130.5141702
20
-73.5854418
40
2
50
259.9999992
51
349.9999992
0
ARC
8
0
10
132.6847724
20
-61.275345
40
2
50
349.9999992
51
79.9999992
0
ARC
8
0
10
119.3898678
20
-58.9310946
40
2
50
79.9999992
51
169.9999992
0
ARC
8
0
10
117.2192656
20
-71.2411914
40
2
50
169.9999992
51
259.9999992
0
ARC
8
0
10
133.4661892
20
-56.84371
40
2
50
259.9999992
51
349.9999992
0
ARC
8
0
10
135.6367914
20
-44.5336132
40
2
50
349.9999992
51
79.9999992
0
ARC
8
0
10
122.3418868
20
-42.1893628
40
2
50
79.9999992
51
169.9999992
0
ARC
8
0
10
120.1712846
20
-54.4994596
40
2
50
169.9999992
51
259.9999992
0
LINE
8
0
10
183.4397407
20
-120.340774
11
173.8641852
21
-112.3059288
0
LINE
8
0
10
156.9910105
20
-132.4145954
11
166.566566
21
-140.4494406
0
LINE
8
0
10
202.3572061
20
-136.1397983
11
195.1875007
21
-125.9003978
0
LINE
8
0
10
173.6847595
20
-140.9567793
11
180.8544649
21
-151.1961798
0
ARC
8
0
10
200.718902
20
-137.2869512
40
2
50
304.9999997
51
34.9999997
0
ARC
8
0
10
193.5491966
20
-127.0475507
40
2
50
34.9999997
51
124.9999997
0
ARC
8
0
10
175.3230636
20
-139.8096264
40
2
50
124.9999997
51
214.9999997
0
ARC
8
0
10
182.492769
20
-150.0490269
40
2
50
214.9999997
51
304.9999997
0
ARC
8
0
10
182.1541655
20
-121.8728629
40
2
50
319.9999988
51
49.9999988
0
ARC
8
0
10
172.57861
20
-113.8380177
40
2
50
49.9999988
51
139.9999988
0
ARC
8
0
10
158.2765857
20
-130.8825065
40
2
50
139.9999988
51
229.9999988
0
ARC
8
0
10
167.8521412
20
-138.9173517
40
2
50
229.9999988
51
319.9999988
0
LINE
8
0
10
91.0000681
20
-91.2658731
11
91.5448826
21
-58.2501149
0
LINE
8
0
10
91.8301044
20
-57.8068123
11
120.0112757
21
-44.4068542
0
LINE
8
0
10
120.2889694
20
-44.0421259
11
120.9039253
21
-40.5545375
0
LINE
8
0
10
121.430666
20
-40.142542
11
146.1669001
21
-41.8452846
0
LINE
8
0
10
146.6841998
20
-41.4758745
11
146.9700104
21
-40.4092147
0
LINE
8
0
10
147.5823828
20
-40.0556613
11
163.089356
21
-44.2107423
0
LINE
8
0
10
163.4429094
20
-44.8231147
11
163.1351891
21
-45.9715424
0
LINE
8
0
10
163.3060692
20
-46.491598
11
187.6201045
21
-65.9158097
0
LINE
8
0
10
187.2406422
20
-67.6340523
11
187.7611756
21
-66.517765
0
LINE
8
0
10
200.8056883
20
-134.7629385
11
202.9972431
21
-137.3260106
0
LINE
8
0
10
202.9040103
20
-138.0605236
11
182.3848798
21
-152.4281734
0
LINE
8
0
10
181.6885156
20
-152.3053856
11
172.7225941
21
-139.5007226
0
LINE
8
0
10
172.6259651
20
-139.3975568
11
171.067726
21
-138.1470341
0
LINE
8
0
10
170.9063036
20
-138.0605007
11
91.3484752
21
-112.7608164
0
LINE
8
0
10
91
20
-112.284329
11
91
21
-91.2741228
0
LINE
8
0
10
187.482487
20
-68.2985153
11
223.715766
21
-85.1943709
0
LINE
8
0
10
223.9576108
20
-85.8588339
11
201.3783742
21
-134.2801631
0
LINE
8
0
10
201.2120085
20
-134.47843
11
200.8056883
21
-134.7629385
0
ARC
8
0
10
92.0448145
20
-58.2583646
40
0.5
50
115.4307755
51
179.0546111
0
ARC
8
0
10
119.7965655
20
-43.9553018
40
0.5
50
295.4307755
51
349.9999992
0
ARC
8
0
10
121.3963292
20
-40.6413616
40
0.5
50
86.062199
51
169.9999992
0
ARC
8
0
10
146.2012369
20
-41.346465
40
0.5
50
266.062199
51
345.0000021
0
ARC
8
0
10
147.4529733
20
-40.5386242
40
0.5
50
75.0000021
51
165.0000021
0
ARC
8
0
10
162.9599465
20
-44.6937052
40
0.5
50
345.0000021
51
75.0000021
0
ARC
8
0
10
163.618152
20
-46.1009519
40
0.5
50
165.0000021
51
231.3790301
0
ARC
8
0
10
187.3080217
20
-66.3064558
40
0.5
50
334.9999983
51
51.3790301
0
ARC
8
0
10
187.6937961
20
-67.8453615
40
0.5
50
154.9999983
51
244.9999983
0
ARC
8
0
10
223.5044569
20
-85.6475248
40
0.5
50
334.9999983
51
64.9999983
0
ARC
8
0
10
200.9252203
20
-134.068854
40
0.5
50
305.0000044
51
334.9999983
0
ARC
8
0
10
202.6172221
20
-137.6509476
40
0.5
50
304.9999997
51
40.5320969
0
ARC
8
0
10
182.0980916
20
-152.0185974
40
0.5
50
214.9999997
51
304.9999997
0
ARC
8
0
10
172.3130181
20
-139.7875108
40
0.5
50
34.9999997
51
51.2521559
0
ARC
8
0
10
170.7547789
20
-138.5369881
40
0.5
50
51.2521559
51
72.3591441
0
ARC
8
0
10
91.5
20
-112.284329
40
0.5
50
180
51
252.3591441
0
ARC
8
0
10
91.5
20
-91.2741228
40
0.5
50
179.0546111
51
180
0
ENDSEC
0
EOF