<svg width="133.004mm" height="112.509mm" viewBox="0 0 133.004 112.509" xmlns="http://www.w3.org/2000/svg"><g id="svgGroup" stroke-linecap="round" fill-rule="evenodd" font-size="9pt" stroke="#000" stroke-width="0.25mm" fill="none" style="stroke:#000;stroke-width:0.25mm;fill:none"><path d="M 0 51.257 L 0.545 18.241 A 0.5 0.5 0 0 1 0.83 17.798 L 29.011 4.398 A 0.5 0.5 0 0 0 29.289 4.033 L 29.904 0.545 A 0.5 0.5 0 0 1 30.431 0.133 L 55.167 1.836 A 0.5 0.5 0 0 0 55.684 1.467 L 55.97 0.4 A 0.5 0.5 0 0 1 56.582 0.046 L 72.089 4.201 A 0.5 0.5 0 0 1 72.443 4.814 L 72.135 5.962 A 0.5 0.5 0 0 0 72.306 6.482 L 96.62 25.907 A 0.5 0.5 0 0 1 96.761 26.508 L 96.241 27.625 A 0.5 0.5 0 0 0 96.482 28.289 L 132.716 45.185 A 0.5 0.5 0 0 1 132.958 45.85 L 110.378 94.271 A 0.5 0.5 0 0 1 110.212 94.469 L 109.806 94.754 L 111.997 97.317 A 0.5 0.5 0 0 1 111.904 98.051 L 91.385 112.419 A 0.5 0.5 0 0 1 90.689 112.296 L 81.723 99.491 A 0.5 0.5 0 0 0 81.626 99.388 L 80.068 98.138 A 0.5 0.5 0 0 0 79.906 98.051 L 0.348 72.752 A 0.5 0.5 0 0 1 0 72.275 L 0 51.265 A 0.5 0.5 0 0 1 0 51.257 Z M 78.384 100.194 L 92.686 83.149 A 2 2 0 0 0 92.44 80.331 L 82.864 72.297 A 2 2 0 0 0 80.047 72.543 L 65.744 89.588 A 2 2 0 0 0 65.991 92.405 L 75.567 100.44 A 2 2 0 0 0 78.384 100.194 Z M 92.64 111.678 L 110.866 98.916 A 2 2 0 0 0 111.357 96.131 L 104.188 85.891 A 2 2 0 0 0 101.402 85.4 L 83.176 98.162 A 2 2 0 0 0 82.685 100.947 L 89.854 111.187 A 2 2 0 0 0 92.64 111.678 Z M 2.25 51.241 L 15.75 51.241 A 2 2 0 0 0 17.75 49.241 L 17.75 36.741 A 2 2 0 0 0 15.75 34.741 L 2.25 34.741 A 2 2 0 0 0 0.25 36.741 L 0.25 49.241 A 2 2 0 0 0 2.25 51.241 Z M 2.25 34.241 L 15.75 34.241 A 2 2 0 0 0 17.75 32.241 L 17.75 19.741 A 2 2 0 0 0 15.75 17.741 L 2.25 17.741 A 2 2 0 0 0 0.25 19.741 L 0.25 32.241 A 2 2 0 0 0 2.25 34.241 Z M 28.824 16.46 L 42.119 18.804 A 2 2 0 0 0 44.436 17.182 L 46.606 4.872 A 2 2 0 0 0 44.984 2.555 L 31.689 0.21 A 2 2 0 0 0 29.372 1.833 L 27.202 14.143 A 2 2 0 0 0 28.824 16.46 Z M 25.872 33.202 L 39.167 35.546 A 2 2 0 0 0 41.484 33.923 L 43.654 21.613 A 2 2 0 0 0 42.032 19.296 L 28.737 16.952 A 2 2 0 0 0 26.42 18.575 L 24.25 30.885 A 2 2 0 0 0 25.872 33.202 Z M 22.92 49.943 L 36.215 52.288 A 2 2 0 0 0 38.532 50.665 L 40.702 38.355 A 2 2 0 0 0 39.08 36.038 L 25.785 33.694 A 2 2 0 0 0 23.468 35.316 L 21.298 47.626 A 2 2 0 0 0 22.92 49.943 Z M 61.75 65.259 L 73.985 70.965 A 2 2 0 0 0 76.643 69.997 L 81.926 58.669 A 2 2 0 0 0 80.958 56.011 L 68.723 50.305 A 2 2 0 0 0 66.065 51.273 L 60.783 62.602 A 2 2 0 0 0 61.75 65.259 Z M 68.935 49.852 L 81.17 55.558 A 2 2 0 0 0 83.828 54.59 L 89.11 43.261 A 2 2 0 0 0 88.143 40.604 L 75.908 34.898 A 2 2 0 0 0 73.25 35.866 L 67.967 47.194 A 2 2 0 0 0 68.935 49.852 Z M 76.119 34.445 L 88.354 40.15 A 2 2 0 0 0 91.012 39.183 L 96.295 27.854 A 2 2 0 0 0 95.327 25.196 L 83.092 19.491 A 2 2 0 0 0 80.434 20.458 L 75.152 31.787 A 2 2 0 0 0 76.119 34.445 Z M 49.148 32.427 L 62.188 35.921 A 2 2 0 0 0 64.638 34.507 L 67.873 22.432 A 2 2 0 0 0 66.459 19.983 L 53.419 16.489 A 2 2 0 0 0 50.969 17.903 L 47.734 29.977 A 2 2 0 0 0 49.148 32.427 Z M 53.548 16.006 L 66.588 19.5 A 2 2 0 0 0 69.038 18.086 L 72.273 6.012 A 2 2 0 0 0 70.859 3.562 L 57.819 0.068 A 2 2 0 0 0 55.369 1.482 L 52.134 13.556 A 2 2 0 0 0 53.548 16.006 Z M 44.749 48.847 L 57.789 52.341 A 2 2 0 0 0 60.238 50.927 L 63.473 38.853 A 2 2 0 0 0 62.059 36.404 L 49.019 32.91 A 2 2 0 0 0 46.57 34.324 L 43.334 46.398 A 2 2 0 0 0 44.749 48.847 Z" vector-effect="non-scaling-stroke"/></g></svg>