<svg width="104.531mm" height="106.816mm" viewBox="0 0 104.531 106.816" xmlns="http://www.w3.org/2000/svg"><g id="svgGroup" stroke-linecap="round" fill-rule="evenodd" font-size="9pt" stroke="#000" stroke-width="0.25mm" fill="none" style="stroke:#000;stroke-width:0.25mm;fill:none"><path d="M 77.966 94.756 L 86.836 84.185 L 76.265 75.314 L 67.394 85.886 L 77.966 94.756 Z M 0 48.557 L 13.8 48.557 L 13.8 34.757 L 0 34.757 L 0 48.557 Z M 0 31.557 L 13.8 31.557 L 13.8 17.757 L 0 17.757 L 0 31.557 Z M 20.907 47.254 L 34.497 49.651 L 36.893 36.06 L 23.303 33.664 L 20.907 47.254 Z M 23.859 30.513 L 37.449 32.909 L 39.845 19.319 L 26.255 16.922 L 23.859 30.513 Z M 26.811 13.771 L 40.401 16.167 L 42.797 2.577 L 29.207 0.181 L 26.811 13.771 Z M 42.853 46.171 L 56.183 49.743 L 59.755 36.413 L 46.425 32.841 L 42.853 46.171 Z M 47.253 29.751 L 60.583 33.322 L 64.154 19.992 L 50.825 16.421 L 47.253 29.751 Z M 51.653 13.33 L 64.983 16.901 L 68.554 3.572 L 55.225 0 L 51.653 13.33 Z M 93.227 106.816 L 104.531 98.9 L 96.615 87.596 L 85.311 95.511 L 93.227 106.816 Z M 74.454 31.825 L 86.961 37.657 L 92.793 25.15 L 80.286 19.318 L 74.454 31.825 Z M 60.085 62.639 L 72.592 68.471 L 78.424 55.964 L 65.917 50.132 L 60.085 62.639 Z M 67.269 47.232 L 79.776 53.064 L 85.608 40.557 L 73.101 34.725 L 67.269 47.232 Z" vector-effect="non-scaling-stroke"/></g></svg>