0
SECTION
2
HEADER
9
$INSUNITS
70
4
0
ENDSEC
0
SECTION
2
TABLES
0
TABLE
2
LTYPE
0
LTYPE
72
65
70
64
2
CONTINUOUS
3
______
73
0
40
0
0
ENDTAB
0
TABLE
2
LAYER
0
ENDTAB
0
ENDSEC
0
SECTION
2
ENTITIES
0
LINE
8
0
10
93.1
20
-89.9
11
106.9
21
-89.9
0
LINE
8
0
10
106.9
20
-89.9
11
106.9
21
-76.1
0
LINE
8
0
10
106.9
20
-76.1
11
93.1
21
-76.1
0
LINE
8
0
10
93.1
20
-76.1
11
93.1
21
-89.9
0
LINE
8
0
10
93.1
20
-72.9
11
106.9
21
-72.9
0
LINE
8
0
10
106.9
20
-72.9
11
106.9
21
-59.1
0
LINE
8
0
10
106.9
20
-59.1
11
93.1
21
-59.1
0
LINE
8
0
10
93.1
20
-59.1
11
93.1
21
-72.9
0
LINE
8
0
10
114.0066541
20
-88.5970011
11
127.5970011
21
-90.9933459
0
LINE
8
0
10
127.5970011
20
-90.9933459
11
129.9933459
21
-77.4029989
0
LINE
8
0
10
129.9933459
20
-77.4029989
11
116.4029989
21
-75.0066541
0
LINE
8
0
10
116.4029989
20
-75.0066541
11
114.0066541
21
-88.5970011
0
LINE
8
0
10
116.9586731
20
-71.8552693
11
130.5490201
21
-74.2516141
0
LINE
8
0
10
130.5490201
20
-74.2516141
11
132.9453649
21
-60.6612671
0
LINE
8
0
10
132.9453649
20
-60.6612671
11
119.3550179
21
-58.2649223
0
LINE
8
0
10
119.3550179
20
-58.2649223
11
116.9586731
21
-71.8552693
0
LINE
8
0
10
119.9106921
20
-55.1135375
11
133.5010391
21
-57.5098823
0
LINE
8
0
10
133.5010391
20
-57.5098823
11
135.8973839
21
-43.9195353
0
LINE
8
0
10
135.8973839
20
-43.9195353
11
122.3070369
21
-41.5231905
0
LINE
8
0
10
122.3070369
20
-41.5231905
11
119.9106921
21
-55.1135375
0
LINE
8
0
10
135.9530357
20
-87.5138638
11
149.2828121
21
-91.0855666
0
LINE
8
0
10
149.2828121
20
-91.0855666
11
152.8545149
21
-77.7557902
0
LINE
8
0
10
152.8545149
20
-77.7557902
11
139.5247385
21
-74.1840874
0
LINE
8
0
10
139.5247385
20
-74.1840874
11
135.9530357
21
-87.5138638
0
LINE
8
0
10
140.3529595
20
-71.0931248
11
153.6827359
21
-74.6648276
0
LINE
8
0
10
153.6827359
20
-74.6648276
11
157.2544387
21
-61.3350512
0
LINE
8
0
10
157.2544387
20
-61.3350512
11
143.9246623
21
-57.7633484
0
LINE
8
0
10
143.9246623
20
-57.7633484
11
140.3529595
21
-71.0931248
0
LINE
8
0
10
144.7528833
20
-54.6723858
11
158.0826597
21
-58.2440886
0
LINE
8
0
10
158.0826597
20
-58.2440886
11
161.6543625
21
-44.9143122
0
LINE
8
0
10
161.6543625
20
-44.9143122
11
148.3245861
21
-41.3426094
0
LINE
8
0
10
148.3245861
20
-41.3426094
11
144.7528833
21
-54.6723858
0
LINE
8
0
10
153.184611
20
-103.9818579
11
165.6916584
21
-109.8139899
0
LINE
8
0
10
165.6916584
20
-109.8139899
11
171.5237904
21
-97.3069425
0
LINE
8
0
10
171.5237904
20
-97.3069425
11
159.016743
21
-91.4748105
0
LINE
8
0
10
159.016743
20
-91.4748105
11
153.184611
21
-103.9818579
0
LINE
8
0
10
160.3691214
20
-88.5746255
11
172.8761688
21
-94.4067575
0
LINE
8
0
10
172.8761688
20
-94.4067575
11
178.7083008
21
-81.8997101
0
LINE
8
0
10
178.7083008
20
-81.8997101
11
166.2012534
21
-76.0675781
0
LINE
8
0
10
166.2012534
20
-76.0675781
11
160.3691214
21
-88.5746255
0
LINE
8
0
10
167.5536318
20
-73.1673931
11
180.0606792
21
-78.9995251
0
LINE
8
0
10
180.0606792
20
-78.9995251
11
185.8928112
21
-66.4924777
0
LINE
8
0
10
185.8928112
20
-66.4924777
11
173.3857638
21
-60.6603457
0
LINE
8
0
10
173.3857638
20
-60.6603457
11
167.5536318
21
-73.1673931
0
LINE
8
0
10
171.0658478
20
-136.0986259
11
179.9363168
21
-125.5272125
0
LINE
8
0
10
179.9363168
20
-125.5272125
11
169.3649034
21
-116.6567435
0
LINE
8
0
10
169.3649034
20
-116.6567435
11
160.4944344
21
-127.2281569
0
LINE
8
0
10
160.4944344
20
-127.2281569
11
171.0658478
21
-136.0986259
0
LINE
8
0
10
186.3265111
20
-148.1581153
11
197.6308093
21
-140.2427605
0
LINE
8
0
10
197.6308093
20
-140.2427605
11
189.7154545
21
-128.9384623
0
LINE
8
0
10
189.7154545
20
-128.9384623
11
178.4111563
21
-136.8538171
0
LINE
8
0
10
178.4111563
20
-136.8538171
11
186.3265111
21
-148.1581153
0
ENDSEC
0
EOF