0
SECTION
2
HEADER
9
$INSUNITS
70
4
0
ENDSEC
0
SECTION
2
TABLES
0
TABLE
2
LTYPE
0
LTYPE
72
65
70
64
2
CONTINUOUS
3
______
73
0
40
0
0
ENDTAB
0
TABLE
2
LAYER
0
ENDTAB
0
ENDSEC
0
SECTION
2
ENTITIES
0
LINE
8
0
10
91.0000681
20
-91.2658731
11
91.5448826
21
-58.2501149
0
LINE
8
0
10
91.8301044
20
-57.8068123
11
120.0112757
21
-44.4068542
0
LINE
8
0
10
120.2889694
20
-44.0421259
11
120.9039253
21
-40.5545375
0
LINE
8
0
10
121.430666
20
-40.142542
11
146.1669001
21
-41.8452846
0
LINE
8
0
10
146.6841998
20
-41.4758745
11
146.9700104
21
-40.4092147
0
LINE
8
0
10
147.5823828
20
-40.0556613
11
163.089356
21
-44.2107423
0
LINE
8
0
10
163.4429094
20
-44.8231147
11
163.1351891
21
-45.9715424
0
LINE
8
0
10
163.3060692
20
-46.491598
11
187.6201045
21
-65.9158097
0
LINE
8
0
10
187.2406422
20
-67.6340523
11
187.7611756
21
-66.517765
0
LINE
8
0
10
200.8056883
20
-134.7629385
11
202.9972431
21
-137.3260106
0
LINE
8
0
10
202.9040103
20
-138.0605236
11
182.3848798
21
-152.4281734
0
LINE
8
0
10
181.6885156
20
-152.3053856
11
174.869613
21
-142.5669834
0
LINE
8
0
10
172.3038099
20
-139.1390198
11
171.067726
21
-138.1470341
0
LINE
8
0
10
170.9063036
20
-138.0605007
11
91.3484752
21
-112.7608164
0
LINE
8
0
10
91
20
-112.284329
11
91
21
-91.2741228
0
LINE
8
0
10
187.482487
20
-68.2985153
11
223.715766
21
-85.1943709
0
LINE
8
0
10
223.9576108
20
-85.8588339
11
201.3783742
21
-134.2801631
0
LINE
8
0
10
201.2120085
20
-134.47843
11
200.8056883
21
-134.7629385
0
ARC
8
0
10
92.0448145
20
-58.2583646
40
0.5
50
115.4307755
51
179.0546111
0
ARC
8
0
10
119.7965655
20
-43.9553018
40
0.5
50
295.4307755
51
349.9999992
0
ARC
8
0
10
121.3963292
20
-40.6413616
40
0.5
50
86.062199
51
169.9999992
0
ARC
8
0
10
146.2012369
20
-41.346465
40
0.5
50
266.062199
51
345.0000021
0
ARC
8
0
10
147.4529733
20
-40.5386242
40
0.5
50
75.0000021
51
165.0000021
0
ARC
8
0
10
162.9599465
20
-44.6937052
40
0.5
50
345.0000021
51
75.0000021
0
ARC
8
0
10
163.618152
20
-46.1009519
40
0.5
50
165.0000021
51
231.3790301
0
ARC
8
0
10
187.3080217
20
-66.3064558
40
0.5
50
334.9999983
51
51.3790301
0
ARC
8
0
10
187.6937961
20
-67.8453615
40
0.5
50
154.9999983
51
244.9999983
0
ARC
8
0
10
223.5044569
20
-85.6475248
40
0.5
50
334.9999983
51
64.9999983
0
ARC
8
0
10
200.9252203
20
-134.068854
40
0.5
50
305.0000044
51
334.9999983
0
ARC
8
0
10
202.6172221
20
-137.6509476
40
0.5
50
304.9999997
51
40.5320969
0
ARC
8
0
10
182.0980916
20
-152.0185974
40
0.5
50
214.9999997
51
304.9999997
0
ARC
8
0
10
170.7547789
20
-138.5369881
40
0.5
50
51.2521559
51
72.3591441
0
ARC
8
0
10
91.5
20
-112.284329
40
0.5
50
180
51
252.3591441
0
ARC
8
0
10
91.5
20
-91.2741228
40
0.5
50
179.0546111
51
180
0
CIRCLE
8
0
10
117.5647587
20
-56.3245687
40
2.15
0
CIRCLE
8
0
10
114.6127397
20
-73.0663005
40
2.15
0
CIRCLE
8
0
10
165.4265565
20
-72.6841789
40
2.15
0
ARC
8
0
10
173.4287515
20
-140.9712334
40
2.15
50
312.0800436
51
481.5490722
0
CIRCLE
8
0
10
181.6365035
20
-129.4303074
40
2.15
0
CIRCLE
8
0
10
172.2351753
20
-108.0666914
40
1.1
0
CIRCLE
8
0
10
181.1345897
20
-121.2852196
40
1.1
0
ENDSEC
0
EOF