<svg width="133.004mm" height="112.48mm" viewBox="0 0 133.004 112.48" xmlns="http://www.w3.org/2000/svg"><g id="svgGroup" stroke-linecap="round" fill-rule="evenodd" font-size="9pt" stroke="#000" stroke-width="0.25mm" fill="none" style="stroke:#000;stroke-width:0.25mm;fill:none"><path d="M 0 51.227 L 0.545 18.211 A 0.5 0.5 0 0 1 0.83 17.768 L 29.011 4.368 A 0.5 0.5 0 0 0 29.289 4.004 L 29.904 0.516 A 0.5 0.5 0 0 1 30.431 0.104 L 55.167 1.807 A 0.5 0.5 0 0 0 55.684 1.437 L 55.97 0.371 A 0.5 0.5 0 0 1 56.582 0.017 L 72.089 4.172 A 0.5 0.5 0 0 1 72.443 4.784 L 72.135 5.933 A 0.5 0.5 0 0 0 72.306 6.453 L 96.62 25.877 A 0.5 0.5 0 0 1 96.761 26.479 L 96.241 27.595 A 0.5 0.5 0 0 0 96.482 28.26 L 132.716 45.156 A 0.5 0.5 0 0 1 132.958 45.82 L 110.378 94.242 A 0.5 0.5 0 0 1 110.212 94.44 L 109.806 94.724 L 111.997 97.287 A 0.5 0.5 0 0 1 111.904 98.022 L 91.385 112.39 A 0.5 0.5 0 0 1 90.689 112.267 L 83.87 102.528 A 2.15 2.15 0 0 0 81.304 99.1 L 80.068 98.108 A 0.5 0.5 0 0 0 79.906 98.022 L 0.348 72.722 A 0.5 0.5 0 0 1 0 72.246 L 0 51.235 A 0.5 0.5 0 0 1 0 51.227 Z M 26.565 16.286 m -2.15 0 a 2.15 2.15 0 0 1 4.3 0 a 2.15 2.15 0 0 1 -4.3 0 z M 23.613 33.028 m -2.15 0 a 2.15 2.15 0 0 1 4.3 0 a 2.15 2.15 0 0 1 -4.3 0 z M 74.427 32.646 m -2.15 0 a 2.15 2.15 0 0 1 4.3 0 a 2.15 2.15 0 0 1 -4.3 0 z M 90.637 89.392 m -2.15 0 a 2.15 2.15 0 0 1 4.3 0 a 2.15 2.15 0 0 1 -4.3 0 z M 81.235 68.028 m -1.1 0 a 1.1 1.1 0 0 1 2.2 0 a 1.1 1.1 0 0 1 -2.2 0 z M 90.135 81.247 m -1.1 0 a 1.1 1.1 0 0 1 2.2 0 a 1.1 1.1 0 0 1 -2.2 0 z" vector-effect="non-scaling-stroke"/></g></svg>