<svg width="136.381mm" height="116.275mm" viewBox="0 0 136.381 116.275" xmlns="http://www.w3.org/2000/svg"><g id="svgGroup" stroke-linecap="round" fill-rule="evenodd" font-size="9pt" stroke="#000" stroke-width="0.25mm" fill="none" style="stroke:#000;stroke-width:0.25mm;fill:none"><path d="M 1.2 53.003 L 1.75 19.673 L 1.753 19.518 L 30.237 5.974 A 0.5 0.5 0 0 0 30.515 5.609 L 31.186 1.806 L 31.225 1.584 L 56.429 3.319 A 0.5 0.5 0 0 0 56.946 2.95 L 57.373 1.357 L 57.614 1.422 L 74.087 5.836 L 74.329 5.901 L 73.869 7.616 A 0.5 0.5 0 0 0 74.04 8.136 L 98.687 27.826 L 98.023 29.25 A 0.5 0.5 0 0 0 98.265 29.915 L 134.725 46.916 L 134.951 47.022 L 111.97 96.305 L 111.625 96.547 L 114.174 99.529 L 92.364 114.8 L 82.988 101.411 A 0.5 0.5 0 0 0 82.892 101.308 L 81.398 100.109 A 0.5 0.5 0 0 0 81.236 100.022 L 1.2 74.57 L 1.2 53.005 L 1.2 53.003 Z M 3.85 53.023 L 4.37 21.516 A 0.5 0.5 0 0 1 4.655 21.072 L 32.61 7.78 A 0.5 0.5 0 0 0 32.888 7.415 L 33.343 4.834 A 0.5 0.5 0 0 1 33.869 4.422 L 58.183 6.096 A 0.5 0.5 0 0 0 58.674 5.802 L 59.042 4.983 A 0.5 0.5 0 0 1 59.628 4.705 L 70.702 7.672 A 0.5 0.5 0 0 1 71.07 8.206 L 71.008 8.813 A 0.5 0.5 0 0 0 71.194 9.254 L 95.404 28.595 L 94.501 30.532 A 0.5 0.5 0 0 0 94.743 31.197 L 130.976 48.093 A 0.5 0.5 0 0 1 131.218 48.757 L 109.924 94.422 A 0.5 0.5 0 0 1 109.76 94.618 L 108.169 95.745 A 0.5 0.5 0 0 0 108.079 96.478 L 109.432 98.061 L 109.905 98.614 A 0.5 0.5 0 0 1 109.812 99.348 L 93.424 110.823 A 0.5 0.5 0 0 1 92.728 110.7 L 84.901 99.522 L 82.947 97.954 L 82.598 97.674 L 4.198 72.743 A 0.5 0.5 0 0 1 3.85 72.266 L 3.85 53.031 A 0.5 0.5 0 0 1 3.85 53.023 Z M 111.828 96.018 L 134.408 47.596 A 0.5 0.5 0 0 0 134.166 46.932 L 97.932 30.036 M 79.834 101.94 L 94.136 84.896 A 2 2 0 0 0 93.89 82.078 L 84.314 74.043 A 2 2 0 0 0 81.497 74.29 L 67.194 91.334 A 2 2 0 0 0 67.441 94.152 L 77.017 102.187 A 2 2 0 0 0 79.834 101.94 Z M 94.09 113.425 L 112.316 100.663 A 2 2 0 0 0 112.807 97.877 L 105.638 87.638 A 2 2 0 0 0 102.852 87.147 L 84.626 99.909 A 2 2 0 0 0 84.135 102.694 L 91.304 112.934 A 2 2 0 0 0 94.09 113.425 Z M 98.82 30.45 A 0.5 0.5 0 0 0 98.155 30.691 L 85.401 58.042 A 0.5 0.5 0 0 0 85.445 58.54 L 111.275 95.43 A 0.5 0.5 0 0 0 112.138 95.354 M 3.7 52.987 L 17.2 52.987 A 2 2 0 0 0 19.2 50.987 L 19.2 38.487 A 2 2 0 0 0 17.2 36.487 L 3.7 36.487 A 2 2 0 0 0 1.7 38.487 L 1.7 50.987 A 2 2 0 0 0 3.7 52.987 Z M 3.7 35.987 L 17.2 35.987 A 2 2 0 0 0 19.2 33.987 L 19.2 21.487 A 2 2 0 0 0 17.2 19.487 L 3.7 19.487 A 2 2 0 0 0 1.7 21.487 L 1.7 33.987 A 2 2 0 0 0 3.7 35.987 Z M 30.274 18.206 L 43.569 20.551 A 2 2 0 0 0 45.886 18.928 L 48.056 6.618 A 2 2 0 0 0 46.434 4.301 L 33.139 1.957 A 2 2 0 0 0 30.822 3.579 L 28.652 15.89 A 2 2 0 0 0 30.274 18.206 Z M 27.322 34.948 L 40.617 37.292 A 2 2 0 0 0 42.934 35.67 L 45.104 23.36 A 2 2 0 0 0 43.482 21.043 L 30.187 18.699 A 2 2 0 0 0 27.87 20.321 L 25.7 32.631 A 2 2 0 0 0 27.322 34.948 Z M 24.37 51.69 L 37.665 54.034 A 2 2 0 0 0 39.982 52.412 L 42.152 40.102 A 2 2 0 0 0 40.53 37.785 L 27.235 35.441 A 2 2 0 0 0 24.918 37.063 L 22.748 49.373 A 2 2 0 0 0 24.37 51.69 Z M 63.2 67.006 L 75.435 72.711 A 2 2 0 0 0 78.093 71.744 L 83.376 60.415 A 2 2 0 0 0 82.408 57.757 L 70.173 52.052 A 2 2 0 0 0 67.515 53.019 L 62.233 64.348 A 2 2 0 0 0 63.2 67.006 Z M 70.385 51.599 L 82.62 57.304 A 2 2 0 0 0 85.278 56.337 L 90.56 45.008 A 2 2 0 0 0 89.593 42.35 L 77.358 36.645 A 2 2 0 0 0 74.7 37.612 L 69.417 48.941 A 2 2 0 0 0 70.385 51.599 Z M 77.569 36.192 L 89.804 41.897 A 2 2 0 0 0 92.462 40.93 L 97.745 29.601 A 2 2 0 0 0 96.777 26.943 L 84.542 21.238 A 2 2 0 0 0 81.884 22.205 L 76.602 33.534 A 2 2 0 0 0 77.569 36.192 Z M 50.598 34.173 L 63.638 37.667 A 2 2 0 0 0 66.088 36.253 L 69.323 24.179 A 2 2 0 0 0 67.909 21.73 L 54.869 18.236 A 2 2 0 0 0 52.419 19.65 L 49.184 31.724 A 2 2 0 0 0 50.598 34.173 Z M 54.998 17.753 L 68.038 21.247 A 2 2 0 0 0 70.488 19.832 L 73.723 7.758 A 2 2 0 0 0 72.309 5.309 L 59.269 1.815 A 2 2 0 0 0 56.819 3.229 L 53.584 15.303 A 2 2 0 0 0 54.998 17.753 Z M 46.199 50.594 L 59.239 54.088 A 2 2 0 0 0 61.688 52.674 L 64.923 40.6 A 2 2 0 0 0 63.509 38.15 L 50.469 34.656 A 2 2 0 0 0 48.02 36.07 L 44.784 48.145 A 2 2 0 0 0 46.199 50.594 Z M 0.56 19.064 L 0.55 19.653 L 0 52.983 L 0 52.995 L 0 75.082 M 81.516 97.836 L 90.386 87.265 L 79.815 78.394 L 70.944 88.966 L 81.516 97.836 Z M 3.55 51.637 L 17.35 51.637 L 17.35 37.837 L 3.55 37.837 L 3.55 51.637 Z M 3.55 34.637 L 17.35 34.637 L 17.35 20.837 L 3.55 20.837 L 3.55 34.637 Z M 24.457 50.334 L 38.047 52.731 L 40.443 39.14 L 26.853 36.744 L 24.457 50.334 Z M 27.409 33.593 L 40.999 35.989 L 43.395 22.399 L 29.805 20.002 L 27.409 33.593 Z M 30.361 16.851 L 43.951 19.247 L 46.347 5.657 L 32.757 3.261 L 30.361 16.851 Z M 46.403 49.251 L 59.733 52.823 L 63.305 39.493 L 49.975 35.921 L 46.403 49.251 Z M 50.803 32.83 L 64.133 36.402 L 67.704 23.072 L 54.375 19.501 L 50.803 32.83 Z M 55.203 16.41 L 68.533 19.981 L 72.104 6.652 L 58.775 3.08 L 55.203 16.41 Z M 96.777 109.895 L 108.081 101.98 L 100.165 90.676 L 88.861 98.591 L 96.777 109.895 Z M 78.004 34.905 L 90.511 40.737 L 96.343 28.23 L 83.836 22.398 L 78.004 34.905 Z M 63.635 65.719 L 76.142 71.551 L 81.974 59.044 L 69.467 53.212 L 63.635 65.719 Z M 70.819 50.312 L 83.326 56.144 L 89.158 43.637 L 76.651 37.805 L 70.819 50.312 Z M 92.835 114.166 L 113.354 99.798 A 0.5 0.5 0 0 0 113.447 99.063 L 111.256 96.5 L 111.662 96.216 M 75.315 4.923 L 74.398 4.677 L 57.925 0.263 L 57.007 0.017 M 92.139 114.043 L 84.708 103.431 A 1.1 1.1 0 0 0 83.483 101.682 L 83.173 101.238 A 0.5 0.5 0 0 0 83.076 101.135 L 81.518 99.884 M 28.015 18.062 m -2.15 0 a 2.15 2.15 0 0 1 4.3 0 a 2.15 2.15 0 0 1 -4.3 0 z M 25.063 34.804 m -2.15 0 a 2.15 2.15 0 0 1 4.3 0 a 2.15 2.15 0 0 1 -4.3 0 z M 75.877 34.422 m -2.15 0 a 2.15 2.15 0 0 1 4.3 0 a 2.15 2.15 0 0 1 -4.3 0 z M 92.087 91.168 m -2.15 0 a 2.15 2.15 0 0 1 4.3 0 a 2.15 2.15 0 0 1 -4.3 0 z M 28.015 18.062 m -1.1 0 a 1.1 1.1 0 0 1 2.2 0 a 1.1 1.1 0 0 1 -2.2 0 z M 25.063 34.804 m -1.1 0 a 1.1 1.1 0 0 1 2.2 0 a 1.1 1.1 0 0 1 -2.2 0 z M 75.877 34.422 m -1.1 0 a 1.1 1.1 0 0 1 2.2 0 a 1.1 1.1 0 0 1 -2.2 0 z M 92.087 91.168 m -1.1 0 a 1.1 1.1 0 0 1 2.2 0 a 1.1 1.1 0 0 1 -2.2 0 z M 82.685 69.804 m -1.1 0 a 1.1 1.1 0 0 1 2.2 0 a 1.1 1.1 0 0 1 -2.2 0 z M 91.585 83.023 m -1.1 0 a 1.1 1.1 0 0 1 2.2 0 a 1.1 1.1 0 0 1 -2.2 0 z M 73.41 6.431 m -0.5 0 a 0.5 0.5 0 0 0 1 0 a 0.5 0.5 0 0 0 -1 0 z M 99.554 27.623 m -0.5 0 a 0.5 0.5 0 0 0 1 0 a 0.5 0.5 0 0 0 -1 0 z M 92.192 115.775 m -0.5 0 a 0.5 0.5 0 0 0 1 0 a 0.5 0.5 0 0 0 -1 0 z M 2.495 19.996 m -0.5 0 a 0.5 0.5 0 0 0 1 0 a 0.5 0.5 0 0 0 -1 0 z M 30.247 5.693 m -0.5 0 a 0.5 0.5 0 0 0 1 0 a 0.5 0.5 0 0 0 -1 0 z M 31.846 2.379 m -0.5 0 a 0.5 0.5 0 0 0 1 0 a 0.5 0.5 0 0 0 -1 0 z M 56.651 3.084 m -0.5 0 a 0.5 0.5 0 0 0 1 0 a 0.5 0.5 0 0 0 -1 0 z M 57.903 2.276 m -0.5 0 a 0.5 0.5 0 0 0 1 0 a 0.5 0.5 0 0 0 -1 0 z M 74.068 7.838 m -0.5 0 a 0.5 0.5 0 0 0 1 0 a 0.5 0.5 0 0 0 -1 0 z M 97.758 28.044 m -0.5 0 a 0.5 0.5 0 0 0 1 0 a 0.5 0.5 0 0 0 -1 0 z M 98.144 29.583 m -0.5 0 a 0.5 0.5 0 0 0 1 0 a 0.5 0.5 0 0 0 -1 0 z M 111.375 95.806 m -0.5 0 a 0.5 0.5 0 0 0 1 0 a 0.5 0.5 0 0 0 -1 0 z M 92.548 113.756 m -0.5 0 a 0.5 0.5 0 0 0 1 0 a 0.5 0.5 0 0 0 -1 0 z M 81.205 100.274 m -0.5 0 a 0.5 0.5 0 0 0 1 0 a 0.5 0.5 0 0 0 -1 0 z M 1.95 74.022 m -0.5 0 a 0.5 0.5 0 0 0 1 0 a 0.5 0.5 0 0 0 -1 0 z M 1.06 19.072 m -0.5 0 a 0.5 0.5 0 0 0 1 0 a 0.5 0.5 0 0 0 -1 0 z M 28.948 4.704 m -0.5 0 a 0.5 0.5 0 0 0 1 0 a 0.5 0.5 0 0 0 -1 0 z M 30.645 0.843 m -0.5 0 a 0.5 0.5 0 0 0 1 0 a 0.5 0.5 0 0 0 -1 0 z M 56.877 0.5 m -0.5 0 a 0.5 0.5 0 0 0 1 0 a 0.5 0.5 0 0 0 -1 0 z M 75.714 7.297 m -0.5 0 a 0.5 0.5 0 0 0 1 0 a 0.5 0.5 0 0 0 -1 0 z M 100.071 28.881 m -0.5 0 a 0.5 0.5 0 0 0 1 0 a 0.5 0.5 0 0 0 -1 0 z M 135.881 46.684 m -0.5 0 a 0.5 0.5 0 0 0 1 0 a 0.5 0.5 0 0 0 -1 0 z M 113.778 96.45 m -0.5 0 a 0.5 0.5 0 0 0 1 0 a 0.5 0.5 0 0 0 -1 0 z M 115.207 99.66 m -0.5 0 a 0.5 0.5 0 0 0 1 0 a 0.5 0.5 0 0 0 -1 0 z M 81.694 102.526 m -0.5 0 a 0.5 0.5 0 0 0 1 0 a 0.5 0.5 0 0 0 -1 0 z M 80.508 101.574 m -0.5 0 a 0.5 0.5 0 0 0 1 0 a 0.5 0.5 0 0 0 -1 0 z M 0.5 75.082 m -0.5 0 a 0.5 0.5 0 0 0 1 0 a 0.5 0.5 0 0 0 -1 0 z M 1.95 53.011 m -0.5 0 a 0.5 0.5 0 0 0 1 0 a 0.5 0.5 0 0 0 -1 0 z M 55.56 1.555 m -0.5 0 a 0.5 0.5 0 0 0 1 0 a 0.5 0.5 0 0 0 -1 0 z M 75.186 5.406 m -0.5 0 a 0.5 0.5 0 0 0 1 0 a 0.5 0.5 0 0 0 -1 0 z M 75.669 5.535 L 75.423 6.452 L 75.231 7.168 M 56.394 0.371 L 56.149 1.289 L 56.043 1.685 M 1.45 53.003 1.995 19.987 M 2.28 19.544 30.461 6.144 M 30.739 5.779 31.354 2.292 M 31.881 1.88 56.617 3.583 M 57.134 3.213 57.42 2.147 M 58.032 1.793 73.539 5.948 M 73.585 7.709 73.893 6.56 M 73.756 8.229 98.07 27.653 M 97.691 29.371 98.211 28.255 M 1.798 74.498 81.356 99.798 M 1.45 74.022 1.45 53.011 M 82.754 100.876 A 2.15 2.15 0 0 1 85.32 104.304 M 0.845 18.621 29.163 5.156 M 29.441 4.791 30.152 0.756 M 30.679 0.344 55.525 2.054 M 75.402 7.688 99.866 27.232 M 99.618 28.67 100.007 27.834 M 99.859 29.335 136.093 46.23 M 113.325 96.239 136.335 46.895 M 113.398 96.775 115.587 99.335 M 92.479 116.185 115.494 100.07 M 82.104 102.239 91.782 116.062 M 80.821 101.184 82.007 102.136 M 0.348 75.559 80.659 101.098" vector-effect="non-scaling-stroke"/></g></svg>