0
SECTION
2
HEADER
9
$INSUNITS
70
4
0
ENDSEC
0
SECTION
2
TABLES
0
TABLE
2
LTYPE
0
LTYPE
72
65
70
64
2
CONTINUOUS
3
______
73
0
40
0
0
ENDTAB
0
TABLE
2
LAYER
0
ENDTAB
0
ENDSEC
0
SECTION
2
ENTITIES
0
LINE
8
0
10
91.0000681
20
-91.2658731
11
91.5448826
21
-58.2501149
0
LINE
8
0
10
91.8301044
20
-57.8068123
11
120.0112757
21
-44.4068542
0
LINE
8
0
10
120.2889694
20
-44.0421259
11
120.9039253
21
-40.5545375
0
LINE
8
0
10
121.430666
20
-40.142542
11
146.1669001
21
-41.8452846
0
LINE
8
0
10
146.6841998
20
-41.4758745
11
146.9700104
21
-40.4092147
0
LINE
8
0
10
147.5823828
20
-40.0556613
11
163.089356
21
-44.2107423
0
LINE
8
0
10
163.1351891
20
-45.9715424
11
163.4429094
21
-44.8231147
0
LINE
8
0
10
163.3060692
20
-46.491598
11
187.6201045
21
-65.9158097
0
LINE
8
0
10
187.2406422
20
-67.6340523
11
187.7611756
21
-66.517765
0
LINE
8
0
10
200.8056883
20
-134.7629385
11
202.9972431
21
-137.3260106
0
LINE
8
0
10
182.3848798
20
-152.4281734
11
202.9040103
21
-138.0605236
0
LINE
8
0
10
174.2581784
20
-141.6937644
11
181.6885156
21
-152.3053856
0
LINE
8
0
10
173.0334752
20
-139.9447069
11
172.7225941
21
-139.5007226
0
LINE
8
0
10
171.067726
20
-138.1470341
11
172.6259651
21
-139.3975568
0
LINE
8
0
10
91.3484752
20
-112.7608164
11
170.9063036
21
-138.0605007
0
LINE
8
0
10
91
20
-112.284329
11
91
21
-91.2741228
0
LINE
8
0
10
187.482487
20
-68.2985153
11
223.715766
21
-85.1943709
0
LINE
8
0
10
201.3783742
20
-134.2801631
11
223.9576108
21
-85.8588339
0
LINE
8
0
10
200.8056883
20
-134.7629385
11
201.2120085
21
-134.47843
0
ARC
8
0
10
92.0448145
20
-58.2583646
40
0.5
50
115.4307755
51
475.4307755
0
ARC
8
0
10
119.7965655
20
-43.9553018
40
0.5
50
295.4307755
51
655.4307755
0
ARC
8
0
10
121.3963292
20
-40.6413616
40
0.5
50
86.062199
51
446.062199
0
ARC
8
0
10
146.2012369
20
-41.346465
40
0.5
50
266.062199
51
626.062199
0
ARC
8
0
10
147.4529733
20
-40.5386242
40
0.5
50
75.0000021
51
435.0000021
0
ARC
8
0
10
162.9599465
20
-44.6937052
40
0.5
50
345.0000021
51
705.0000021
0
ARC
8
0
10
163.618152
20
-46.1009519
40
0.5
50
165.0000021
51
525.0000021
0
ARC
8
0
10
187.3080217
20
-66.3064558
40
0.5
50
334.9999983
51
694.9999983
0
ARC
8
0
10
187.6937961
20
-67.8453615
40
0.5
50
154.9999983
51
514.9999983
0
ARC
8
0
10
223.5044569
20
-85.6475248
40
0.5
50
334.9999983
51
64.9999983
0
ARC
8
0
10
200.9252203
20
-134.068854
40
0.5
50
305.0000044
51
665.0000044
0
ARC
8
0
10
202.6172221
20
-137.6509476
40
0.5
50
304.9999997
51
40.5320969
0
ARC
8
0
10
182.0980916
20
-152.0185974
40
0.5
50
214.9999997
51
574.9999997
0
ARC
8
0
10
172.3130181
20
-139.7875108
40
0.5
50
34.9999997
51
51.2521559
0
ARC
8
0
10
170.7547789
20
-138.5369881
40
0.5
50
51.2521559
51
411.2521559
0
ARC
8
0
10
91.5
20
-112.284329
40
0.5
50
180
51
540
0
ARC
8
0
10
91.5
20
-91.2741228
40
0.5
50
179.0546111
51
539.0546111
0
CIRCLE
8
0
10
117.5647587
20
-56.3245687
40
1.1
0
CIRCLE
8
0
10
114.6127397
20
-73.0663005
40
1.1
0
CIRCLE
8
0
10
165.4265565
20
-72.6841789
40
1.1
0
ARC
8
0
10
173.4287515
20
-140.9712334
40
1.1
50
318.9402008
51
471.059797
0
CIRCLE
8
0
10
181.6365035
20
-129.4303074
40
1.1
0
CIRCLE
8
0
10
117.5647587
20
-56.3245687
40
2.15
0
CIRCLE
8
0
10
114.6127397
20
-73.0663005
40
2.15
0
CIRCLE
8
0
10
165.4265565
20
-72.6841789
40
2.15
0
ARC
8
0
10
173.4287515
20
-140.9712334
40
2.15
50
312.0800436
51
481.5490722
0
CIRCLE
8
0
10
181.6365035
20
-129.4303074
40
2.15
0
CIRCLE
8
0
10
172.2351753
20
-108.0666914
40
1.1
0
CIRCLE
8
0
10
181.1345897
20
-121.2852196
40
1.1
0
LINE
8
0
10
93.1
20
-89.9
11
106.9
21
-89.9
0
LINE
8
0
10
106.9
20
-89.9
11
106.9
21
-76.1
0
LINE
8
0
10
106.9
20
-76.1
11
93.1
21
-76.1
0
LINE
8
0
10
93.1
20
-76.1
11
93.1
21
-89.9
0
LINE
8
0
10
93.1
20
-72.9
11
106.9
21
-72.9
0
LINE
8
0
10
106.9
20
-72.9
11
106.9
21
-59.1
0
LINE
8
0
10
106.9
20
-59.1
11
93.1
21
-59.1
0
LINE
8
0
10
93.1
20
-59.1
11
93.1
21
-72.9
0
LINE
8
0
10
114.0066541
20
-88.5970011
11
127.5970011
21
-90.9933459
0
LINE
8
0
10
127.5970011
20
-90.9933459
11
129.9933459
21
-77.4029989
0
LINE
8
0
10
129.9933459
20
-77.4029989
11
116.4029989
21
-75.0066541
0
LINE
8
0
10
116.4029989
20
-75.0066541
11
114.0066541
21
-88.5970011
0
LINE
8
0
10
116.9586731
20
-71.8552693
11
130.5490201
21
-74.2516141
0
LINE
8
0
10
130.5490201
20
-74.2516141
11
132.9453649
21
-60.6612671
0
LINE
8
0
10
132.9453649
20
-60.6612671
11
119.3550179
21
-58.2649223
0
LINE
8
0
10
119.3550179
20
-58.2649223
11
116.9586731
21
-71.8552693
0
LINE
8
0
10
119.9106921
20
-55.1135375
11
133.5010391
21
-57.5098823
0
LINE
8
0
10
133.5010391
20
-57.5098823
11
135.8973839
21
-43.9195353
0
LINE
8
0
10
135.8973839
20
-43.9195353
11
122.3070369
21
-41.5231905
0
LINE
8
0
10
122.3070369
20
-41.5231905
11
119.9106921
21
-55.1135375
0
LINE
8
0
10
135.9530357
20
-87.5138638
11
149.2828121
21
-91.0855666
0
LINE
8
0
10
149.2828121
20
-91.0855666
11
152.8545149
21
-77.7557902
0
LINE
8
0
10
152.8545149
20
-77.7557902
11
139.5247385
21
-74.1840874
0
LINE
8
0
10
139.5247385
20
-74.1840874
11
135.9530357
21
-87.5138638
0
LINE
8
0
10
140.3529595
20
-71.0931248
11
153.6827359
21
-74.6648276
0
LINE
8
0
10
153.6827359
20
-74.6648276
11
157.2544387
21
-61.3350512
0
LINE
8
0
10
157.2544387
20
-61.3350512
11
143.9246623
21
-57.7633484
0
LINE
8
0
10
143.9246623
20
-57.7633484
11
140.3529595
21
-71.0931248
0
LINE
8
0
10
144.7528833
20
-54.6723858
11
158.0826597
21
-58.2440886
0
LINE
8
0
10
158.0826597
20
-58.2440886
11
161.6543625
21
-44.9143122
0
LINE
8
0
10
161.6543625
20
-44.9143122
11
148.3245861
21
-41.3426094
0
LINE
8
0
10
148.3245861
20
-41.3426094
11
144.7528833
21
-54.6723858
0
LINE
8
0
10
153.184611
20
-103.9818579
11
165.6916584
21
-109.8139899
0
LINE
8
0
10
165.6916584
20
-109.8139899
11
171.5237904
21
-97.3069425
0
LINE
8
0
10
171.5237904
20
-97.3069425
11
159.016743
21
-91.4748105
0
LINE
8
0
10
159.016743
20
-91.4748105
11
153.184611
21
-103.9818579
0
LINE
8
0
10
160.3691214
20
-88.5746255
11
172.8761688
21
-94.4067575
0
LINE
8
0
10
172.8761688
20
-94.4067575
11
178.7083008
21
-81.8997101
0
LINE
8
0
10
178.7083008
20
-81.8997101
11
166.2012534
21
-76.0675781
0
LINE
8
0
10
166.2012534
20
-76.0675781
11
160.3691214
21
-88.5746255
0
LINE
8
0
10
167.5536318
20
-73.1673931
11
180.0606792
21
-78.9995251
0
LINE
8
0
10
180.0606792
20
-78.9995251
11
185.8928112
21
-66.4924777
0
LINE
8
0
10
185.8928112
20
-66.4924777
11
173.3857638
21
-60.6603457
0
LINE
8
0
10
173.3857638
20
-60.6603457
11
167.5536318
21
-73.1673931
0
LINE
8
0
10
171.0658478
20
-136.0986259
11
179.9363168
21
-125.5272125
0
LINE
8
0
10
179.9363168
20
-125.5272125
11
169.3649034
21
-116.6567435
0
LINE
8
0
10
169.3649034
20
-116.6567435
11
160.4944344
21
-127.2281569
0
LINE
8
0
10
160.4944344
20
-127.2281569
11
171.0658478
21
-136.0986259
0
LINE
8
0
10
186.3265111
20
-148.1581153
11
197.6308093
21
-140.2427605
0
LINE
8
0
10
197.6308093
20
-140.2427605
11
189.7154545
21
-128.9384623
0
LINE
8
0
10
189.7154545
20
-128.9384623
11
178.4111563
21
-136.8538171
0
LINE
8
0
10
178.4111563
20
-136.8538171
11
186.3265111
21
-148.1581153
0
LINE
8
0
10
174.9513926
20
-96.3049445
11
187.7052993
21
-68.9541034
0
LINE
8
0
10
200.8250223
20
-133.6921788
11
174.9949705
21
-96.8030418
0
ARC
8
0
10
188.1584532
20
-69.1654125
40
0.5
50
64.9999983
51
154.9999983
0
ARC
8
0
10
201.2345983
20
-133.4053906
40
0.5
50
214.9999997
51
334.9999983
0
ARC
8
0
10
175.4045465
20
-96.5162536
40
0.5
50
154.9999983
51
214.9999997
0
LINE
8
0
10
93.25
20
-91.25
11
106.75
21
-91.25
0
LINE
8
0
10
108.75
20
-89.25
11
108.75
21
-76.75
0
LINE
8
0
10
106.75
20
-74.75
11
93.25
21
-74.75
0
LINE
8
0
10
91.25
20
-76.75
11
91.25
21
-89.25
0
LINE
8
0
10
93.25
20
-74.25
11
106.75
21
-74.25
0
LINE
8
0
10
108.75
20
-72.25
11
108.75
21
-59.75
0
LINE
8
0
10
106.75
20
-57.75
11
93.25
21
-57.75
0
LINE
8
0
10
91.25
20
-59.75
11
91.25
21
-72.25
0
LINE
8
0
10
113.9199502
20
-89.9525387
11
127.2148549
21
-92.2967891
0
LINE
8
0
10
129.5317667
20
-90.67447
11
131.7023689
21
-78.3643731
0
LINE
8
0
10
130.0800498
20
-76.0474613
11
116.7851451
21
-73.7032109
0
LINE
8
0
10
114.4682333
20
-75.32553
11
112.2976311
21
-87.6356269
0
LINE
8
0
10
116.8719692
20
-73.2108069
11
130.1668739
21
-75.5550573
0
LINE
8
0
10
132.4837857
20
-73.9327382
11
134.6543879
21
-61.6226413
0
LINE
8
0
10
133.0320688
20
-59.3057295
11
119.7371641
21
-56.9614791
0
LINE
8
0
10
117.4202523
20
-58.5837982
11
115.2496501
21
-70.8938951
0
LINE
8
0
10
119.8239882
20
-56.4690751
11
133.1188929
21
-58.8133255
0
LINE
8
0
10
135.4358047
20
-57.1910064
11
137.6064069
21
-44.8809095
0
LINE
8
0
10
135.9840878
20
-42.5639977
11
122.6891831
21
-40.2197473
0
LINE
8
0
10
120.3722713
20
-41.8420664
11
118.2016691
21
-54.1521633
0
LINE
8
0
10
135.748519
20
-88.8566865
11
148.7885176
21
-92.3507436
0
LINE
8
0
10
151.2380073
20
-90.9365299
11
154.4732453
21
-78.8624572
0
LINE
8
0
10
153.0590316
20
-76.4129675
11
140.019033
21
-72.9189104
0
LINE
8
0
10
137.5695433
20
-74.3331241
11
134.3343053
21
-86.4071968
0
LINE
8
0
10
140.1484428
20
-72.4359475
11
153.1884414
21
-75.9300046
0
LINE
8
0
10
155.6379311
20
-74.5157909
11
158.8731691
21
-62.4417182
0
LINE
8
0
10
157.4589554
20
-59.9922285
11
144.4189568
21
-56.4981714
0
LINE
8
0
10
141.9694671
20
-57.9123851
11
138.7342291
21
-69.9864578
0
LINE
8
0
10
144.5483666
20
-56.0152085
11
157.5883652
21
-59.5092656
0
LINE
8
0
10
160.0378549
20
-58.0950519
11
163.2730929
21
-46.0209792
0
LINE
8
0
10
161.8588792
20
-43.5714895
11
148.8188806
21
-40.0774324
0
LINE
8
0
10
146.3693909
20
-41.4916461
11
143.1341529
21
-53.5657188
0
LINE
8
0
10
152.7500224
20
-105.2687662
11
164.9851776
21
-110.9741127
0
LINE
8
0
10
167.6430297
20
-110.0067337
11
172.9257579
21
-98.6778863
0
LINE
8
0
10
171.958379
20
-96.0200342
11
159.7232238
21
-90.3146877
0
LINE
8
0
10
157.0653717
20
-91.2820667
11
151.7826435
21
-102.6109141
0
LINE
8
0
10
159.9345328
20
-89.8615338
11
172.169688
21
-95.5668803
0
LINE
8
0
10
174.8275401
20
-94.5995013
11
180.1102683
21
-83.2706539
0
LINE
8
0
10
179.1428894
20
-80.6128018
11
166.9077342
21
-74.9074553
0
LINE
8
0
10
164.2498821
20
-75.8748343
11
158.9671539
21
-87.2036817
0
LINE
8
0
10
167.1190432
20
-74.4543014
11
179.3541984
21
-80.1596479
0
LINE
8
0
10
182.0120505
20
-79.1922689
11
187.2947787
21
-67.8634215
0
LINE
8
0
10
186.3273998
20
-65.2055694
11
174.0922446
21
-59.5002229
0
LINE
8
0
10
171.4343925
20
-60.4676019
11
166.1516643
21
-71.7964493
0
LINE
8
0
10
169.3842301
20
-140.2029269
11
183.6862544
21
-123.1584381
0
LINE
8
0
10
156.7444968
20
-129.5969313
11
171.0465211
21
-112.5524425
0
LINE
8
0
10
183.6399219
20
-151.687331
11
201.8660549
21
-138.9252553
0
LINE
8
0
10
174.1759107
20
-138.1713223
11
192.4020437
21
-125.4092466
0
ARC
8
0
10
106.75
20
-89.25
40
2
50
270
51
0
0
ARC
8
0
10
106.75
20
-76.75
40
2
50
0
51
90
0
ARC
8
0
10
93.25
20
-76.75
40
2
50
90
51
180
0
ARC
8
0
10
93.25
20
-89.25
40
2
50
180
51
270
0
ARC
8
0
10
106.75
20
-72.25
40
2
50
270
51
0
0
ARC
8
0
10
106.75
20
-59.75
40
2
50
0
51
90
0
ARC
8
0
10
93.25
20
-59.75
40
2
50
90
51
180
0
ARC
8
0
10
93.25
20
-72.25
40
2
50
180
51
270
0
ARC
8
0
10
153.7060794
20
-73.9981529
40
2
50
255.0000021
51
345.0000021
0
ARC
8
0
10
156.9413174
20
-61.9240802
40
2
50
345.0000021
51
75.0000021
0
ARC
8
0
10
143.9013188
20
-58.4300231
40
2
50
75.0000021
51
165.0000021
0
ARC
8
0
10
140.6660808
20
-70.5040958
40
2
50
165.0000021
51
255.0000021
0
ARC
8
0
10
158.1060032
20
-57.5774139
40
2
50
255.0000021
51
345.0000021
0
ARC
8
0
10
161.3412412
20
-45.5033412
40
2
50
345.0000021
51
75.0000021
0
ARC
8
0
10
148.3012426
20
-42.0092841
40
2
50
75.0000021
51
165.0000021
0
ARC
8
0
10
145.0660046
20
-54.0833568
40
2
50
165.0000021
51
255.0000021
0
ARC
8
0
10
149.3061556
20
-90.4188919
40
2
50
255.0000021
51
345.0000021
0
ARC
8
0
10
152.5413936
20
-78.3448192
40
2
50
345.0000021
51
75.0000021
0
ARC
8
0
10
139.501395
20
-74.8507621
40
2
50
75.0000021
51
165.0000021
0
ARC
8
0
10
136.266157
20
-86.9248348
40
2
50
165.0000021
51
255.0000021
0
ARC
8
0
10
165.8304141
20
-109.1614971
40
2
50
244.9999983
51
334.9999983
0
ARC
8
0
10
171.1131424
20
-97.8326498
40
2
50
334.9999983
51
64.9999983
0
ARC
8
0
10
158.8779873
20
-92.1273033
40
2
50
64.9999983
51
154.9999983
0
ARC
8
0
10
153.595259
20
-103.4561506
40
2
50
154.9999983
51
244.9999983
0
ARC
8
0
10
173.0149245
20
-93.7542647
40
2
50
244.9999983
51
334.9999983
0
ARC
8
0
10
178.2976528
20
-82.4254174
40
2
50
334.9999983
51
64.9999983
0
ARC
8
0
10
166.0624977
20
-76.7200709
40
2
50
64.9999983
51
154.9999983
0
ARC
8
0
10
160.7797694
20
-88.0489182
40
2
50
154.9999983
51
244.9999983
0
ARC
8
0
10
180.1994349
20
-78.3470323
40
2
50
244.9999983
51
334.9999983
0
ARC
8
0
10
185.4821632
20
-67.018185
40
2
50
334.9999983
51
64.9999983
0
ARC
8
0
10
173.2470081
20
-61.3128385
40
2
50
64.9999983
51
154.9999983
0
ARC
8
0
10
167.9642798
20
-72.6416858
40
2
50
154.9999983
51
244.9999983
0
ARC
8
0
10
127.5621512
20
-90.3271736
40
2
50
259.9999992
51
349.9999992
0
ARC
8
0
10
129.7327534
20
-78.0170768
40
2
50
349.9999992
51
79.9999992
0
ARC
8
0
10
116.4378488
20
-75.6728264
40
2
50
79.9999992
51
169.9999992
0
ARC
8
0
10
114.2672466
20
-87.9829232
40
2
50
169.9999992
51
259.9999992
0
ARC
8
0
10
130.5141702
20
-73.5854418
40
2
50
259.9999992
51
349.9999992
0
ARC
8
0
10
132.6847724
20
-61.275345
40
2
50
349.9999992
51
79.9999992
0
ARC
8
0
10
119.3898678
20
-58.9310946
40
2
50
79.9999992
51
169.9999992
0
ARC
8
0
10
117.2192656
20
-71.2411914
40
2
50
169.9999992
51
259.9999992
0
ARC
8
0
10
133.4661892
20
-56.84371
40
2
50
259.9999992
51
349.9999992
0
ARC
8
0
10
135.6367914
20
-44.5336132
40
2
50
349.9999992
51
79.9999992
0
ARC
8
0
10
122.3418868
20
-42.1893628
40
2
50
79.9999992
51
169.9999992
0
ARC
8
0
10
120.1712846
20
-54.4994596
40
2
50
169.9999992
51
259.9999992
0
LINE
8
0
10
183.4397407
20
-120.340774
11
173.8641852
21
-112.3059288
0
LINE
8
0
10
156.9910105
20
-132.4145954
11
166.566566
21
-140.4494406
0
LINE
8
0
10
202.3572061
20
-136.1397983
11
195.1875007
21
-125.9003978
0
LINE
8
0
10
173.6847595
20
-140.9567793
11
180.8544649
21
-151.1961798
0
ARC
8
0
10
200.718902
20
-137.2869512
40
2
50
304.9999997
51
34.9999997
0
ARC
8
0
10
193.5491966
20
-127.0475507
40
2
50
34.9999997
51
124.9999997
0
ARC
8
0
10
175.3230636
20
-139.8096264
40
2
50
124.9999997
51
214.9999997
0
ARC
8
0
10
182.492769
20
-150.0490269
40
2
50
214.9999997
51
304.9999997
0
ARC
8
0
10
182.1541655
20
-121.8728629
40
2
50
319.9999988
51
49.9999988
0
ARC
8
0
10
172.57861
20
-113.8380177
40
2
50
49.9999988
51
139.9999988
0
ARC
8
0
10
158.2765857
20
-130.8825065
40
2
50
139.9999988
51
229.9999988
0
ARC
8
0
10
167.8521412
20
-138.9173517
40
2
50
229.9999988
51
319.9999988
0
LINE
8
0
10
89.5501974
20
-91.2460759
11
90.1001974
21
-57.9160759
0
LINE
8
0
10
90.1001974
20
-57.9160759
11
90.1099205
21
-57.3268575
0
LINE
8
0
10
90.3951422
20
-56.8835549
11
118.7131773
21
-43.418519
0
LINE
8
0
10
118.990871
20
-43.0537907
11
119.7024193
21
-39.0183995
0
LINE
8
0
10
120.22916
20
-38.6064039
11
145.075329
21
-40.316714
0
LINE
8
0
10
145.5926286
20
-39.9473039
11
145.6986882
21
-39.5514844
0
LINE
8
0
10
145.6986882
20
-39.5514844
11
145.9443167
21
-38.6334227
0
LINE
8
0
10
146.5567371
20
-38.2796899
11
147.4741874
21
-38.5255201
0
LINE
8
0
10
147.4752277
20
-38.5257988
11
163.9470863
21
-42.9394201
0
LINE
8
0
10
163.9481266
20
-42.9396988
11
164.865236
21
-43.1854375
0
LINE
8
0
10
164.9730506
20
-44.7149193
11
165.2187894
21
-43.7978099
0
LINE
8
0
10
164.7812648
20
-45.4306738
11
164.9727719
21
-44.7159596
0
LINE
8
0
10
164.9521449
20
-45.9507294
11
189.4162926
21
-65.4948644
0
LINE
8
0
10
189.167585
20
-66.9327025
11
189.5573637
21
-66.0968195
0
LINE
8
0
10
189.4094298
20
-67.5971655
11
225.6427088
21
-84.4930211
0
LINE
8
0
10
202.8751521
20
-134.5013049
11
225.8845535
21
-85.1574841
0
LINE
8
0
10
202.948285
20
-135.037551
11
205.1372984
21
-137.5976509
0
LINE
8
0
10
182.0287951
20
-154.4476297
11
205.0440656
21
-138.3321639
0
LINE
8
0
10
171.6535763
20
-140.5020049
11
181.3324309
21
-154.3248419
0
LINE
8
0
10
170.3708654
20
-139.4469811
11
171.5569474
21
-140.3988391
0
LINE
8
0
10
89.8984752
20
-113.8212623
11
170.2094431
21
-139.3604477
0
LINE
8
0
10
89.55
20
-113.3447749
11
89.55
21
-91.2580371
0
LINE
8
0
10
89.55
20
-91.2580371
11
89.5501974
21
-91.2460759
0
ARC
8
0
10
90.6098524
20
-57.3351072
40
0.5
50
115.4307755
51
475.4307755
0
ARC
8
0
10
118.4984671
20
-42.9669666
40
0.5
50
295.4307755
51
655.4307755
0
ARC
8
0
10
120.1948232
20
-39.1052235
40
0.5
50
86.062199
51
446.062199
0
ARC
8
0
10
145.1096657
20
-39.8178944
40
0.5
50
266.062199
51
626.062199
0
ARC
8
0
10
146.4273275
20
-38.7626529
40
0.5
50
74.9999966
51
434.9999966
0
ARC
8
0
10
164.7358265
20
-43.6684004
40
0.5
50
344.9999966
51
704.9999966
0
ARC
8
0
10
165.2642277
20
-45.5600833
40
0.5
50
165.0000021
51
525.0000021
0
ARC
8
0
10
189.1042098
20
-65.8855104
40
0.5
50
334.9999983
51
694.9999983
0
ARC
8
0
10
189.6207389
20
-67.1440116
40
0.5
50
154.9999983
51
514.9999983
0
ARC
8
0
10
225.4313997
20
-84.946175
40
0.5
50
334.9999983
51
694.9999983
0
ARC
8
0
10
203.328306
20
-134.712614
40
0.5
50
154.9999983
51
514.9999983
0
ARC
8
0
10
204.7572774
20
-137.9225879
40
0.5
50
304.9999997
51
664.9999997
0
ARC
8
0
10
181.7420069
20
-154.0380537
40
0.5
50
214.9999965
51
574.9999965
0
ARC
8
0
10
171.2440003
20
-140.7887931
40
0.5
50
34.9999997
51
394.9999997
0
ARC
8
0
10
170.0579184
20
-139.8369351
40
0.5
50
51.2521559
51
411.2521559
0
ARC
8
0
10
90.05
20
-113.3447749
40
0.5
50
180
51
540
0
LINE
8
0
10
90.750034
20
-91.2658751
11
91.300034
21
-57.9358751
0
LINE
8
0
10
91.3025927
20
-57.7808177
11
91.300034
21
-57.9358751
0
LINE
8
0
10
91.3025927
20
-57.7808177
11
119.7874656
21
-44.2364515
0
LINE
8
0
10
120.0651594
20
-43.8717232
11
120.7358149
21
-40.0682468
0
LINE
8
0
10
120.7748606
20
-39.8468074
11
120.7358149
21
-40.0682468
0
LINE
8
0
10
120.7748606
20
-39.8468074
11
145.9786981
21
-41.5817379
0
LINE
8
0
10
146.4959978
20
-41.2123278
11
146.9226432
21
-39.6200656
0
LINE
8
0
10
147.1641247
20
-39.6847704
11
146.9226432
21
-39.6200656
0
LINE
8
0
10
147.1641247
20
-39.6847703
11
163.6370237
21
-44.0986703
0
LINE
8
0
10
163.8785051
20
-44.1633751
11
163.6370237
21
-44.0986703
0
LINE
8
0
10
163.4189953
20
-45.8782893
11
163.8785051
21
-44.1633751
0
LINE
8
0
10
163.5898754
20
-46.3983448
11
188.2370845
21
-66.0887254
0
LINE
8
0
10
187.5728737
20
-67.51313
11
188.2370845
21
-66.0887254
0
LINE
8
0
10
187.8147184
20
-68.177593
11
224.2745745
21
-85.179103
0
LINE
8
0
10
224.5011514
20
-85.2847576
11
224.2745745
21
-85.1791031
0
LINE
8
0
10
201.520021
20
-134.567951
11
224.5011514
21
-85.2847576
0
LINE
8
0
10
201.1746633
20
-134.809773
11
201.520021
21
-134.567951
0
LINE
8
0
10
201.1746633
20
-134.809773
11
203.7241473
21
-137.7914511
0
LINE
8
0
10
181.9139099
20
-153.0631437
11
203.7241473
21
-137.7914511
0
LINE
8
0
10
172.5382806
20
-139.6733574
11
181.9139099
21
-153.0631437
0
LINE
8
0
10
172.4416517
20
-139.5701916
11
170.9475777
21
-138.3711629
0
LINE
8
0
10
90.75
20
-112.8328355
11
170.7861554
21
-138.2846295
0
LINE
8
0
10
90.75
20
-112.8328355
11
90.75
21
-91.2679374
0
LINE
8
0
10
90.750034
20
-91.2658751
11
90.75
21
-91.2679374
0
ARC
8
0
10
119.5727555
20
-43.7848991
40
0.5
50
295.4307755
51
349.9999992
0
ARC
8
0
10
146.0130349
20
-41.0829183
40
0.5
50
266.062199
51
345.0000021
0
ARC
8
0
10
163.9019582
20
-46.0076988
40
0.5
50
165.0000021
51
231.3790301
0
ARC
8
0
10
188.0260276
20
-67.7244391
40
0.5
50
154.9999983
51
244.9999983
0
ARC
8
0
10
172.1287046
20
-139.9601456
40
0.5
50
34.9999997
51
51.2521559
0
ARC
8
0
10
170.6346306
20
-138.7611169
40
0.5
50
51.2521559
51
72.3591441
0
LINE
8
0
10
93.4000681
20
-91.2856737
11
93.9199923
21
-59.7782652
0
LINE
8
0
10
94.2052141
20
-59.3349625
11
122.1598524
21
-46.0427193
0
LINE
8
0
10
122.4375461
20
-45.6779909
11
122.8926249
21
-43.0971109
0
LINE
8
0
10
123.4193656
20
-42.6851154
11
147.7334551
21
-44.3587992
0
LINE
8
0
10
148.2238272
20
-44.064996
11
148.5921491
21
-43.2457063
0
LINE
8
0
10
149.177594
20
-42.9677598
11
160.2518133
21
-45.9350879
0
LINE
8
0
10
160.6198502
20
-46.468519
11
160.5582958
21
-47.0752374
0
LINE
8
0
10
160.7436594
20
-47.5163518
11
184.954396
21
-66.8580393
0
LINE
8
0
10
184.0512196
20
-68.7949072
11
184.954396
21
-66.8580393
0
LINE
8
0
10
184.2930644
20
-69.4593702
11
220.5263435
21
-86.3552258
0
LINE
8
0
10
220.7681882
20
-87.0196888
11
199.4743621
21
-132.6844465
0
LINE
8
0
10
199.3102346
20
-132.881137
11
197.7194184
21
-134.0080691
0
LINE
8
0
10
197.6285176
20
-134.7411155
11
198.9820361
21
-136.3231605
0
LINE
8
0
10
198.9821299
20
-136.3232702
11
199.4550827
21
-136.876399
0
LINE
8
0
10
199.3618499
20
-137.610912
11
182.9742613
21
-149.0856251
0
LINE
8
0
10
174.4510536
20
-137.7849463
11
182.2778971
21
-148.9628373
0
LINE
8
0
10
172.4972215
20
-136.2169512
11
174.4510536
21
-137.7849463
0
LINE
8
0
10
172.4972215
20
-136.2169512
11
172.1484998
21
-135.9370941
0
LINE
8
0
10
93.7484752
20
-111.0055957
11
172.1484998
21
-135.9370941
0
LINE
8
0
10
93.4
20
-110.5291083
11
93.4
21
-91.2939234
0
ARC
8
0
10
94.4199242
20
-59.7865149
40
0.5
50
115.4307755
51
179.0546111
0
ARC
8
0
10
121.9451422
20
-45.5911668
40
0.5
50
295.4307755
51
349.9999992
0
ARC
8
0
10
123.3850288
20
-43.183935
40
0.5
50
86.062199
51
169.9999992
0
ARC
8
0
10
147.7677918
20
-43.8599796
40
0.5
50
266.0622048
51
335.7931053
0
ARC
8
0
10
149.0481845
20
-43.4507227
40
0.5
50
75.0000021
51
155.7931053
0
ARC
8
0
10
160.1224038
20
-46.4180508
40
0.5
50
354.2068993
51
75.0000021
0
ARC
8
0
10
161.0557422
20
-47.1257057
40
0.5
50
174.2068993
51
231.3790301
0
ARC
8
0
10
184.5043735
20
-69.0062163
40
0.5
50
154.9999983
51
245.0000035
0
ARC
8
0
10
220.3150344
20
-86.8083796
40
0.5
50
334.9999983
51
64.9999983
0
ARC
8
0
10
199.0212082
20
-132.4731374
40
0.5
50
305.3137053
51
334.9999983
0
ARC
8
0
10
198.0084448
20
-134.4160688
40
0.5
50
125.3137053
51
220.5486365
0
ARC
8
0
10
198.6021089
20
-136.6482072
40
0.5
50
40.5320969
51
40.5486365
0
ARC
8
0
10
199.0750617
20
-137.201336
40
0.5
50
304.9999997
51
40.5320969
0
ARC
8
0
10
182.6874731
20
-148.6760491
40
0.5
50
214.9999997
51
304.9999997
0
ARC
8
0
10
93.9
20
-110.5291083
40
0.5
50
180
51
252.3591441
0
ARC
8
0
10
93.9
20
-91.2939234
40
0.5
50
179.0546111
51
180
0
ENDSEC
0
EOF