%TF.GenerationSoftware,KiCad,Pcbnew,8.0.8+1*%
%TF.CreationDate,2025-05-19T02:25:46+00:00*%
%TF.ProjectId,controller_overlay,636f6e74-726f-46c6-9c65-725f6f766572,0.2*%
%TF.SameCoordinates,Original*%
%TF.FileFunction,Drillmap*%
%TF.FilePolarity,Positive*%
%FSLAX45Y45*%
G04 Gerber Fmt 4.5, Leading zero omitted, Abs format (unit mm)*
G04 Created by KiCad (PCBNEW 8.0.8+1) date 2025-05-19 02:25:46*
%MOMM*%
%LPD*%
G01*
G04 APERTURE LIST*
%ADD10C,0.150000*%
%ADD11C,0.200000*%
%ADD12C,0.220000*%
G04 APERTURE END LIST*
D10*
X17495139Y-9630494D02*
X18770530Y-6895410D01*
X18836976Y-6871226D02*
X22371577Y-8519437D01*
X22395761Y-8585883D02*
X20168775Y-13361670D01*
X20082502Y-13369218D02*
X17499497Y-9680304D01*
X18770530Y-6895410D02*
G75*
G02*
X18836979Y-6871220I45320J-21130D01*
G01*
X22371577Y-8519437D02*
G75*
G02*
X22395760Y-8585883I-21127J-45313D01*
G01*
X20168775Y-13361670D02*
G75*
G02*
X20082502Y-13369218I-45315J21130D01*
G01*
X17499497Y-9680304D02*
G75*
G02*
X17495143Y-9630496I40953J28674D01*
G01*
D11*
D12*
X17113518Y-10696669D02*
X17333518Y-10916669D01*
X17333518Y-10696669D02*
X17113518Y-10916669D01*
X18003459Y-12018522D02*
X18223459Y-12238522D01*
X18223459Y-12018522D02*
X18003459Y-12238522D01*
D11*
X17743733Y-13709523D02*
X17743733Y-13509523D01*
X17743733Y-13509523D02*
X17791352Y-13509523D01*
X17791352Y-13509523D02*
X17819924Y-13519047D01*
X17819924Y-13519047D02*
X17838971Y-13538095D01*
X17838971Y-13538095D02*
X17848495Y-13557142D01*
X17848495Y-13557142D02*
X17858019Y-13595237D01*
X17858019Y-13595237D02*
X17858019Y-13623809D01*
X17858019Y-13623809D02*
X17848495Y-13661904D01*
X17848495Y-13661904D02*
X17838971Y-13680952D01*
X17838971Y-13680952D02*
X17819924Y-13699999D01*
X17819924Y-13699999D02*
X17791352Y-13709523D01*
X17791352Y-13709523D02*
X17743733Y-13709523D01*
X17943733Y-13709523D02*
X17943733Y-13576190D01*
X17943733Y-13614285D02*
X17953257Y-13595237D01*
X17953257Y-13595237D02*
X17962781Y-13585714D01*
X17962781Y-13585714D02*
X17981829Y-13576190D01*
X17981829Y-13576190D02*
X18000876Y-13576190D01*
X18067543Y-13709523D02*
X18067543Y-13576190D01*
X18067543Y-13509523D02*
X18058019Y-13519047D01*
X18058019Y-13519047D02*
X18067543Y-13528571D01*
X18067543Y-13528571D02*
X18077067Y-13519047D01*
X18077067Y-13519047D02*
X18067543Y-13509523D01*
X18067543Y-13509523D02*
X18067543Y-13528571D01*
X18191352Y-13709523D02*
X18172305Y-13699999D01*
X18172305Y-13699999D02*
X18162781Y-13680952D01*
X18162781Y-13680952D02*
X18162781Y-13509523D01*
X18296114Y-13709523D02*
X18277067Y-13699999D01*
X18277067Y-13699999D02*
X18267543Y-13680952D01*
X18267543Y-13680952D02*
X18267543Y-13509523D01*
X18524686Y-13709523D02*
X18524686Y-13509523D01*
X18524686Y-13509523D02*
X18591352Y-13652380D01*
X18591352Y-13652380D02*
X18658019Y-13509523D01*
X18658019Y-13509523D02*
X18658019Y-13709523D01*
X18838971Y-13709523D02*
X18838971Y-13604761D01*
X18838971Y-13604761D02*
X18829448Y-13585714D01*
X18829448Y-13585714D02*
X18810400Y-13576190D01*
X18810400Y-13576190D02*
X18772305Y-13576190D01*
X18772305Y-13576190D02*
X18753257Y-13585714D01*
X18838971Y-13699999D02*
X18819924Y-13709523D01*
X18819924Y-13709523D02*
X18772305Y-13709523D01*
X18772305Y-13709523D02*
X18753257Y-13699999D01*
X18753257Y-13699999D02*
X18743733Y-13680952D01*
X18743733Y-13680952D02*
X18743733Y-13661904D01*
X18743733Y-13661904D02*
X18753257Y-13642856D01*
X18753257Y-13642856D02*
X18772305Y-13633333D01*
X18772305Y-13633333D02*
X18819924Y-13633333D01*
X18819924Y-13633333D02*
X18838971Y-13623809D01*
X18934210Y-13576190D02*
X18934210Y-13776190D01*
X18934210Y-13585714D02*
X18953257Y-13576190D01*
X18953257Y-13576190D02*
X18991352Y-13576190D01*
X18991352Y-13576190D02*
X19010400Y-13585714D01*
X19010400Y-13585714D02*
X19019924Y-13595237D01*
X19019924Y-13595237D02*
X19029448Y-13614285D01*
X19029448Y-13614285D02*
X19029448Y-13671428D01*
X19029448Y-13671428D02*
X19019924Y-13690475D01*
X19019924Y-13690475D02*
X19010400Y-13699999D01*
X19010400Y-13699999D02*
X18991352Y-13709523D01*
X18991352Y-13709523D02*
X18953257Y-13709523D01*
X18953257Y-13709523D02*
X18934210Y-13699999D01*
X19115162Y-13690475D02*
X19124686Y-13699999D01*
X19124686Y-13699999D02*
X19115162Y-13709523D01*
X19115162Y-13709523D02*
X19105638Y-13699999D01*
X19105638Y-13699999D02*
X19115162Y-13690475D01*
X19115162Y-13690475D02*
X19115162Y-13709523D01*
X19115162Y-13585714D02*
X19124686Y-13595237D01*
X19124686Y-13595237D02*
X19115162Y-13604761D01*
X19115162Y-13604761D02*
X19105638Y-13595237D01*
X19105638Y-13595237D02*
X19115162Y-13585714D01*
X19115162Y-13585714D02*
X19115162Y-13604761D01*
X17282957Y-13938039D02*
X17482957Y-14138039D01*
X17482957Y-13938039D02*
X17282957Y-14138039D01*
X17734210Y-13948571D02*
X17743733Y-13939047D01*
X17743733Y-13939047D02*
X17762781Y-13929523D01*
X17762781Y-13929523D02*
X17810400Y-13929523D01*
X17810400Y-13929523D02*
X17829448Y-13939047D01*
X17829448Y-13939047D02*
X17838971Y-13948571D01*
X17838971Y-13948571D02*
X17848495Y-13967618D01*
X17848495Y-13967618D02*
X17848495Y-13986666D01*
X17848495Y-13986666D02*
X17838971Y-14015237D01*
X17838971Y-14015237D02*
X17724686Y-14129523D01*
X17724686Y-14129523D02*
X17848495Y-14129523D01*
X17934210Y-14110475D02*
X17943733Y-14119999D01*
X17943733Y-14119999D02*
X17934210Y-14129523D01*
X17934210Y-14129523D02*
X17924686Y-14119999D01*
X17924686Y-14119999D02*
X17934210Y-14110475D01*
X17934210Y-14110475D02*
X17934210Y-14129523D01*
X18019924Y-13948571D02*
X18029448Y-13939047D01*
X18029448Y-13939047D02*
X18048495Y-13929523D01*
X18048495Y-13929523D02*
X18096114Y-13929523D01*
X18096114Y-13929523D02*
X18115162Y-13939047D01*
X18115162Y-13939047D02*
X18124686Y-13948571D01*
X18124686Y-13948571D02*
X18134210Y-13967618D01*
X18134210Y-13967618D02*
X18134210Y-13986666D01*
X18134210Y-13986666D02*
X18124686Y-14015237D01*
X18124686Y-14015237D02*
X18010400Y-14129523D01*
X18010400Y-14129523D02*
X18134210Y-14129523D01*
X18258019Y-13929523D02*
X18277067Y-13929523D01*
X18277067Y-13929523D02*
X18296114Y-13939047D01*
X18296114Y-13939047D02*
X18305638Y-13948571D01*
X18305638Y-13948571D02*
X18315162Y-13967618D01*
X18315162Y-13967618D02*
X18324686Y-14005714D01*
X18324686Y-14005714D02*
X18324686Y-14053333D01*
X18324686Y-14053333D02*
X18315162Y-14091428D01*
X18315162Y-14091428D02*
X18305638Y-14110475D01*
X18305638Y-14110475D02*
X18296114Y-14119999D01*
X18296114Y-14119999D02*
X18277067Y-14129523D01*
X18277067Y-14129523D02*
X18258019Y-14129523D01*
X18258019Y-14129523D02*
X18238971Y-14119999D01*
X18238971Y-14119999D02*
X18229448Y-14110475D01*
X18229448Y-14110475D02*
X18219924Y-14091428D01*
X18219924Y-14091428D02*
X18210400Y-14053333D01*
X18210400Y-14053333D02*
X18210400Y-14005714D01*
X18210400Y-14005714D02*
X18219924Y-13967618D01*
X18219924Y-13967618D02*
X18229448Y-13948571D01*
X18229448Y-13948571D02*
X18238971Y-13939047D01*
X18238971Y-13939047D02*
X18258019Y-13929523D01*
X18448495Y-13929523D02*
X18467543Y-13929523D01*
X18467543Y-13929523D02*
X18486591Y-13939047D01*
X18486591Y-13939047D02*
X18496114Y-13948571D01*
X18496114Y-13948571D02*
X18505638Y-13967618D01*
X18505638Y-13967618D02*
X18515162Y-14005714D01*
X18515162Y-14005714D02*
X18515162Y-14053333D01*
X18515162Y-14053333D02*
X18505638Y-14091428D01*
X18505638Y-14091428D02*
X18496114Y-14110475D01*
X18496114Y-14110475D02*
X18486591Y-14119999D01*
X18486591Y-14119999D02*
X18467543Y-14129523D01*
X18467543Y-14129523D02*
X18448495Y-14129523D01*
X18448495Y-14129523D02*
X18429448Y-14119999D01*
X18429448Y-14119999D02*
X18419924Y-14110475D01*
X18419924Y-14110475D02*
X18410400Y-14091428D01*
X18410400Y-14091428D02*
X18400876Y-14053333D01*
X18400876Y-14053333D02*
X18400876Y-14005714D01*
X18400876Y-14005714D02*
X18410400Y-13967618D01*
X18410400Y-13967618D02*
X18419924Y-13948571D01*
X18419924Y-13948571D02*
X18429448Y-13939047D01*
X18429448Y-13939047D02*
X18448495Y-13929523D01*
X18600876Y-14129523D02*
X18600876Y-13996190D01*
X18600876Y-14015237D02*
X18610400Y-14005714D01*
X18610400Y-14005714D02*
X18629448Y-13996190D01*
X18629448Y-13996190D02*
X18658019Y-13996190D01*
X18658019Y-13996190D02*
X18677067Y-14005714D01*
X18677067Y-14005714D02*
X18686591Y-14024761D01*
X18686591Y-14024761D02*
X18686591Y-14129523D01*
X18686591Y-14024761D02*
X18696114Y-14005714D01*
X18696114Y-14005714D02*
X18715162Y-13996190D01*
X18715162Y-13996190D02*
X18743733Y-13996190D01*
X18743733Y-13996190D02*
X18762781Y-14005714D01*
X18762781Y-14005714D02*
X18772305Y-14024761D01*
X18772305Y-14024761D02*
X18772305Y-14129523D01*
X18867543Y-14129523D02*
X18867543Y-13996190D01*
X18867543Y-14015237D02*
X18877067Y-14005714D01*
X18877067Y-14005714D02*
X18896114Y-13996190D01*
X18896114Y-13996190D02*
X18924686Y-13996190D01*
X18924686Y-13996190D02*
X18943733Y-14005714D01*
X18943733Y-14005714D02*
X18953257Y-14024761D01*
X18953257Y-14024761D02*
X18953257Y-14129523D01*
X18953257Y-14024761D02*
X18962781Y-14005714D01*
X18962781Y-14005714D02*
X18981829Y-13996190D01*
X18981829Y-13996190D02*
X19010400Y-13996190D01*
X19010400Y-13996190D02*
X19029448Y-14005714D01*
X19029448Y-14005714D02*
X19038972Y-14024761D01*
X19038972Y-14024761D02*
X19038972Y-14129523D01*
X19429448Y-13919999D02*
X19258019Y-14177142D01*
X19686591Y-13929523D02*
X19705638Y-13929523D01*
X19705638Y-13929523D02*
X19724686Y-13939047D01*
X19724686Y-13939047D02*
X19734210Y-13948571D01*
X19734210Y-13948571D02*
X19743734Y-13967618D01*
X19743734Y-13967618D02*
X19753257Y-14005714D01*
X19753257Y-14005714D02*
X19753257Y-14053333D01*
X19753257Y-14053333D02*
X19743734Y-14091428D01*
X19743734Y-14091428D02*
X19734210Y-14110475D01*
X19734210Y-14110475D02*
X19724686Y-14119999D01*
X19724686Y-14119999D02*
X19705638Y-14129523D01*
X19705638Y-14129523D02*
X19686591Y-14129523D01*
X19686591Y-14129523D02*
X19667543Y-14119999D01*
X19667543Y-14119999D02*
X19658019Y-14110475D01*
X19658019Y-14110475D02*
X19648495Y-14091428D01*
X19648495Y-14091428D02*
X19638972Y-14053333D01*
X19638972Y-14053333D02*
X19638972Y-14005714D01*
X19638972Y-14005714D02*
X19648495Y-13967618D01*
X19648495Y-13967618D02*
X19658019Y-13948571D01*
X19658019Y-13948571D02*
X19667543Y-13939047D01*
X19667543Y-13939047D02*
X19686591Y-13929523D01*
X19838972Y-14110475D02*
X19848495Y-14119999D01*
X19848495Y-14119999D02*
X19838972Y-14129523D01*
X19838972Y-14129523D02*
X19829448Y-14119999D01*
X19829448Y-14119999D02*
X19838972Y-14110475D01*
X19838972Y-14110475D02*
X19838972Y-14129523D01*
X19972305Y-13929523D02*
X19991353Y-13929523D01*
X19991353Y-13929523D02*
X20010400Y-13939047D01*
X20010400Y-13939047D02*
X20019924Y-13948571D01*
X20019924Y-13948571D02*
X20029448Y-13967618D01*
X20029448Y-13967618D02*
X20038972Y-14005714D01*
X20038972Y-14005714D02*
X20038972Y-14053333D01*
X20038972Y-14053333D02*
X20029448Y-14091428D01*
X20029448Y-14091428D02*
X20019924Y-14110475D01*
X20019924Y-14110475D02*
X20010400Y-14119999D01*
X20010400Y-14119999D02*
X19991353Y-14129523D01*
X19991353Y-14129523D02*
X19972305Y-14129523D01*
X19972305Y-14129523D02*
X19953257Y-14119999D01*
X19953257Y-14119999D02*
X19943734Y-14110475D01*
X19943734Y-14110475D02*
X19934210Y-14091428D01*
X19934210Y-14091428D02*
X19924686Y-14053333D01*
X19924686Y-14053333D02*
X19924686Y-14005714D01*
X19924686Y-14005714D02*
X19934210Y-13967618D01*
X19934210Y-13967618D02*
X19943734Y-13948571D01*
X19943734Y-13948571D02*
X19953257Y-13939047D01*
X19953257Y-13939047D02*
X19972305Y-13929523D01*
X20153257Y-14015237D02*
X20134210Y-14005714D01*
X20134210Y-14005714D02*
X20124686Y-13996190D01*
X20124686Y-13996190D02*
X20115162Y-13977142D01*
X20115162Y-13977142D02*
X20115162Y-13967618D01*
X20115162Y-13967618D02*
X20124686Y-13948571D01*
X20124686Y-13948571D02*
X20134210Y-13939047D01*
X20134210Y-13939047D02*
X20153257Y-13929523D01*
X20153257Y-13929523D02*
X20191353Y-13929523D01*
X20191353Y-13929523D02*
X20210400Y-13939047D01*
X20210400Y-13939047D02*
X20219924Y-13948571D01*
X20219924Y-13948571D02*
X20229448Y-13967618D01*
X20229448Y-13967618D02*
X20229448Y-13977142D01*
X20229448Y-13977142D02*
X20219924Y-13996190D01*
X20219924Y-13996190D02*
X20210400Y-14005714D01*
X20210400Y-14005714D02*
X20191353Y-14015237D01*
X20191353Y-14015237D02*
X20153257Y-14015237D01*
X20153257Y-14015237D02*
X20134210Y-14024761D01*
X20134210Y-14024761D02*
X20124686Y-14034285D01*
X20124686Y-14034285D02*
X20115162Y-14053333D01*
X20115162Y-14053333D02*
X20115162Y-14091428D01*
X20115162Y-14091428D02*
X20124686Y-14110475D01*
X20124686Y-14110475D02*
X20134210Y-14119999D01*
X20134210Y-14119999D02*
X20153257Y-14129523D01*
X20153257Y-14129523D02*
X20191353Y-14129523D01*
X20191353Y-14129523D02*
X20210400Y-14119999D01*
X20210400Y-14119999D02*
X20219924Y-14110475D01*
X20219924Y-14110475D02*
X20229448Y-14091428D01*
X20229448Y-14091428D02*
X20229448Y-14053333D01*
X20229448Y-14053333D02*
X20219924Y-14034285D01*
X20219924Y-14034285D02*
X20210400Y-14024761D01*
X20210400Y-14024761D02*
X20191353Y-14015237D01*
X20400876Y-13929523D02*
X20362781Y-13929523D01*
X20362781Y-13929523D02*
X20343734Y-13939047D01*
X20343734Y-13939047D02*
X20334210Y-13948571D01*
X20334210Y-13948571D02*
X20315162Y-13977142D01*
X20315162Y-13977142D02*
X20305638Y-14015237D01*
X20305638Y-14015237D02*
X20305638Y-14091428D01*
X20305638Y-14091428D02*
X20315162Y-14110475D01*
X20315162Y-14110475D02*
X20324686Y-14119999D01*
X20324686Y-14119999D02*
X20343734Y-14129523D01*
X20343734Y-14129523D02*
X20381829Y-14129523D01*
X20381829Y-14129523D02*
X20400876Y-14119999D01*
X20400876Y-14119999D02*
X20410400Y-14110475D01*
X20410400Y-14110475D02*
X20419924Y-14091428D01*
X20419924Y-14091428D02*
X20419924Y-14043809D01*
X20419924Y-14043809D02*
X20410400Y-14024761D01*
X20410400Y-14024761D02*
X20400876Y-14015237D01*
X20400876Y-14015237D02*
X20381829Y-14005714D01*
X20381829Y-14005714D02*
X20343734Y-14005714D01*
X20343734Y-14005714D02*
X20324686Y-14015237D01*
X20324686Y-14015237D02*
X20315162Y-14024761D01*
X20315162Y-14024761D02*
X20305638Y-14043809D01*
X20591353Y-13929523D02*
X20553257Y-13929523D01*
X20553257Y-13929523D02*
X20534210Y-13939047D01*
X20534210Y-13939047D02*
X20524686Y-13948571D01*
X20524686Y-13948571D02*
X20505638Y-13977142D01*
X20505638Y-13977142D02*
X20496115Y-14015237D01*
X20496115Y-14015237D02*
X20496115Y-14091428D01*
X20496115Y-14091428D02*
X20505638Y-14110475D01*
X20505638Y-14110475D02*
X20515162Y-14119999D01*
X20515162Y-14119999D02*
X20534210Y-14129523D01*
X20534210Y-14129523D02*
X20572305Y-14129523D01*
X20572305Y-14129523D02*
X20591353Y-14119999D01*
X20591353Y-14119999D02*
X20600876Y-14110475D01*
X20600876Y-14110475D02*
X20610400Y-14091428D01*
X20610400Y-14091428D02*
X20610400Y-14043809D01*
X20610400Y-14043809D02*
X20600876Y-14024761D01*
X20600876Y-14024761D02*
X20591353Y-14015237D01*
X20591353Y-14015237D02*
X20572305Y-14005714D01*
X20572305Y-14005714D02*
X20534210Y-14005714D01*
X20534210Y-14005714D02*
X20515162Y-14015237D01*
X20515162Y-14015237D02*
X20505638Y-14024761D01*
X20505638Y-14024761D02*
X20496115Y-14043809D01*
X20686591Y-13929523D02*
X20686591Y-13967618D01*
X20762781Y-13929523D02*
X20762781Y-13967618D01*
X21058019Y-14205714D02*
X21048496Y-14196190D01*
X21048496Y-14196190D02*
X21029448Y-14167618D01*
X21029448Y-14167618D02*
X21019924Y-14148571D01*
X21019924Y-14148571D02*
X21010400Y-14119999D01*
X21010400Y-14119999D02*
X21000877Y-14072380D01*
X21000877Y-14072380D02*
X21000877Y-14034285D01*
X21000877Y-14034285D02*
X21010400Y-13986666D01*
X21010400Y-13986666D02*
X21019924Y-13958095D01*
X21019924Y-13958095D02*
X21029448Y-13939047D01*
X21029448Y-13939047D02*
X21048496Y-13910475D01*
X21048496Y-13910475D02*
X21058019Y-13900952D01*
X21124686Y-13948571D02*
X21134210Y-13939047D01*
X21134210Y-13939047D02*
X21153257Y-13929523D01*
X21153257Y-13929523D02*
X21200877Y-13929523D01*
X21200877Y-13929523D02*
X21219924Y-13939047D01*
X21219924Y-13939047D02*
X21229448Y-13948571D01*
X21229448Y-13948571D02*
X21238972Y-13967618D01*
X21238972Y-13967618D02*
X21238972Y-13986666D01*
X21238972Y-13986666D02*
X21229448Y-14015237D01*
X21229448Y-14015237D02*
X21115162Y-14129523D01*
X21115162Y-14129523D02*
X21238972Y-14129523D01*
X21477067Y-14129523D02*
X21477067Y-13929523D01*
X21562781Y-14129523D02*
X21562781Y-14024761D01*
X21562781Y-14024761D02*
X21553258Y-14005714D01*
X21553258Y-14005714D02*
X21534210Y-13996190D01*
X21534210Y-13996190D02*
X21505638Y-13996190D01*
X21505638Y-13996190D02*
X21486591Y-14005714D01*
X21486591Y-14005714D02*
X21477067Y-14015237D01*
X21686591Y-14129523D02*
X21667543Y-14119999D01*
X21667543Y-14119999D02*
X21658019Y-14110475D01*
X21658019Y-14110475D02*
X21648496Y-14091428D01*
X21648496Y-14091428D02*
X21648496Y-14034285D01*
X21648496Y-14034285D02*
X21658019Y-14015237D01*
X21658019Y-14015237D02*
X21667543Y-14005714D01*
X21667543Y-14005714D02*
X21686591Y-13996190D01*
X21686591Y-13996190D02*
X21715162Y-13996190D01*
X21715162Y-13996190D02*
X21734210Y-14005714D01*
X21734210Y-14005714D02*
X21743734Y-14015237D01*
X21743734Y-14015237D02*
X21753258Y-14034285D01*
X21753258Y-14034285D02*
X21753258Y-14091428D01*
X21753258Y-14091428D02*
X21743734Y-14110475D01*
X21743734Y-14110475D02*
X21734210Y-14119999D01*
X21734210Y-14119999D02*
X21715162Y-14129523D01*
X21715162Y-14129523D02*
X21686591Y-14129523D01*
X21867543Y-14129523D02*
X21848496Y-14119999D01*
X21848496Y-14119999D02*
X21838972Y-14100952D01*
X21838972Y-14100952D02*
X21838972Y-13929523D01*
X22019924Y-14119999D02*
X22000877Y-14129523D01*
X22000877Y-14129523D02*
X21962781Y-14129523D01*
X21962781Y-14129523D02*
X21943734Y-14119999D01*
X21943734Y-14119999D02*
X21934210Y-14100952D01*
X21934210Y-14100952D02*
X21934210Y-14024761D01*
X21934210Y-14024761D02*
X21943734Y-14005714D01*
X21943734Y-14005714D02*
X21962781Y-13996190D01*
X21962781Y-13996190D02*
X22000877Y-13996190D01*
X22000877Y-13996190D02*
X22019924Y-14005714D01*
X22019924Y-14005714D02*
X22029448Y-14024761D01*
X22029448Y-14024761D02*
X22029448Y-14043809D01*
X22029448Y-14043809D02*
X21934210Y-14062856D01*
X22105639Y-14119999D02*
X22124686Y-14129523D01*
X22124686Y-14129523D02*
X22162781Y-14129523D01*
X22162781Y-14129523D02*
X22181829Y-14119999D01*
X22181829Y-14119999D02*
X22191353Y-14100952D01*
X22191353Y-14100952D02*
X22191353Y-14091428D01*
X22191353Y-14091428D02*
X22181829Y-14072380D01*
X22181829Y-14072380D02*
X22162781Y-14062856D01*
X22162781Y-14062856D02*
X22134210Y-14062856D01*
X22134210Y-14062856D02*
X22115162Y-14053333D01*
X22115162Y-14053333D02*
X22105639Y-14034285D01*
X22105639Y-14034285D02*
X22105639Y-14024761D01*
X22105639Y-14024761D02*
X22115162Y-14005714D01*
X22115162Y-14005714D02*
X22134210Y-13996190D01*
X22134210Y-13996190D02*
X22162781Y-13996190D01*
X22162781Y-13996190D02*
X22181829Y-14005714D01*
X22258020Y-14205714D02*
X22267543Y-14196190D01*
X22267543Y-14196190D02*
X22286591Y-14167618D01*
X22286591Y-14167618D02*
X22296115Y-14148571D01*
X22296115Y-14148571D02*
X22305639Y-14119999D01*
X22305639Y-14119999D02*
X22315162Y-14072380D01*
X22315162Y-14072380D02*
X22315162Y-14034285D01*
X22315162Y-14034285D02*
X22305639Y-13986666D01*
X22305639Y-13986666D02*
X22296115Y-13958095D01*
X22296115Y-13958095D02*
X22286591Y-13939047D01*
X22286591Y-13939047D02*
X22267543Y-13910475D01*
X22267543Y-13910475D02*
X22258020Y-13900952D01*
X22619924Y-14205714D02*
X22610400Y-14196190D01*
X22610400Y-14196190D02*
X22591353Y-14167618D01*
X22591353Y-14167618D02*
X22581829Y-14148571D01*
X22581829Y-14148571D02*
X22572305Y-14119999D01*
X22572305Y-14119999D02*
X22562781Y-14072380D01*
X22562781Y-14072380D02*
X22562781Y-14034285D01*
X22562781Y-14034285D02*
X22572305Y-13986666D01*
X22572305Y-13986666D02*
X22581829Y-13958095D01*
X22581829Y-13958095D02*
X22591353Y-13939047D01*
X22591353Y-13939047D02*
X22610400Y-13910475D01*
X22610400Y-13910475D02*
X22619924Y-13900952D01*
X22696115Y-13996190D02*
X22696115Y-14129523D01*
X22696115Y-14015237D02*
X22705638Y-14005714D01*
X22705638Y-14005714D02*
X22724686Y-13996190D01*
X22724686Y-13996190D02*
X22753258Y-13996190D01*
X22753258Y-13996190D02*
X22772305Y-14005714D01*
X22772305Y-14005714D02*
X22781829Y-14024761D01*
X22781829Y-14024761D02*
X22781829Y-14129523D01*
X22905638Y-14129523D02*
X22886591Y-14119999D01*
X22886591Y-14119999D02*
X22877067Y-14110475D01*
X22877067Y-14110475D02*
X22867543Y-14091428D01*
X22867543Y-14091428D02*
X22867543Y-14034285D01*
X22867543Y-14034285D02*
X22877067Y-14015237D01*
X22877067Y-14015237D02*
X22886591Y-14005714D01*
X22886591Y-14005714D02*
X22905638Y-13996190D01*
X22905638Y-13996190D02*
X22934210Y-13996190D01*
X22934210Y-13996190D02*
X22953258Y-14005714D01*
X22953258Y-14005714D02*
X22962781Y-14015237D01*
X22962781Y-14015237D02*
X22972305Y-14034285D01*
X22972305Y-14034285D02*
X22972305Y-14091428D01*
X22972305Y-14091428D02*
X22962781Y-14110475D01*
X22962781Y-14110475D02*
X22953258Y-14119999D01*
X22953258Y-14119999D02*
X22934210Y-14129523D01*
X22934210Y-14129523D02*
X22905638Y-14129523D01*
X23029448Y-13996190D02*
X23105638Y-13996190D01*
X23058019Y-13929523D02*
X23058019Y-14100952D01*
X23058019Y-14100952D02*
X23067543Y-14119999D01*
X23067543Y-14119999D02*
X23086591Y-14129523D01*
X23086591Y-14129523D02*
X23105638Y-14129523D01*
X23324686Y-13996190D02*
X23324686Y-14196190D01*
X23324686Y-14005714D02*
X23343734Y-13996190D01*
X23343734Y-13996190D02*
X23381829Y-13996190D01*
X23381829Y-13996190D02*
X23400877Y-14005714D01*
X23400877Y-14005714D02*
X23410400Y-14015237D01*
X23410400Y-14015237D02*
X23419924Y-14034285D01*
X23419924Y-14034285D02*
X23419924Y-14091428D01*
X23419924Y-14091428D02*
X23410400Y-14110475D01*
X23410400Y-14110475D02*
X23400877Y-14119999D01*
X23400877Y-14119999D02*
X23381829Y-14129523D01*
X23381829Y-14129523D02*
X23343734Y-14129523D01*
X23343734Y-14129523D02*
X23324686Y-14119999D01*
X23534210Y-14129523D02*
X23515162Y-14119999D01*
X23515162Y-14119999D02*
X23505639Y-14100952D01*
X23505639Y-14100952D02*
X23505639Y-13929523D01*
X23696115Y-14129523D02*
X23696115Y-14024761D01*
X23696115Y-14024761D02*
X23686591Y-14005714D01*
X23686591Y-14005714D02*
X23667543Y-13996190D01*
X23667543Y-13996190D02*
X23629448Y-13996190D01*
X23629448Y-13996190D02*
X23610400Y-14005714D01*
X23696115Y-14119999D02*
X23677067Y-14129523D01*
X23677067Y-14129523D02*
X23629448Y-14129523D01*
X23629448Y-14129523D02*
X23610400Y-14119999D01*
X23610400Y-14119999D02*
X23600877Y-14100952D01*
X23600877Y-14100952D02*
X23600877Y-14081904D01*
X23600877Y-14081904D02*
X23610400Y-14062856D01*
X23610400Y-14062856D02*
X23629448Y-14053333D01*
X23629448Y-14053333D02*
X23677067Y-14053333D01*
X23677067Y-14053333D02*
X23696115Y-14043809D01*
X23762781Y-13996190D02*
X23838972Y-13996190D01*
X23791353Y-13929523D02*
X23791353Y-14100952D01*
X23791353Y-14100952D02*
X23800877Y-14119999D01*
X23800877Y-14119999D02*
X23819924Y-14129523D01*
X23819924Y-14129523D02*
X23838972Y-14129523D01*
X23981829Y-14119999D02*
X23962781Y-14129523D01*
X23962781Y-14129523D02*
X23924686Y-14129523D01*
X23924686Y-14129523D02*
X23905639Y-14119999D01*
X23905639Y-14119999D02*
X23896115Y-14100952D01*
X23896115Y-14100952D02*
X23896115Y-14024761D01*
X23896115Y-14024761D02*
X23905639Y-14005714D01*
X23905639Y-14005714D02*
X23924686Y-13996190D01*
X23924686Y-13996190D02*
X23962781Y-13996190D01*
X23962781Y-13996190D02*
X23981829Y-14005714D01*
X23981829Y-14005714D02*
X23991353Y-14024761D01*
X23991353Y-14024761D02*
X23991353Y-14043809D01*
X23991353Y-14043809D02*
X23896115Y-14062856D01*
X24162781Y-14129523D02*
X24162781Y-13929523D01*
X24162781Y-14119999D02*
X24143734Y-14129523D01*
X24143734Y-14129523D02*
X24105639Y-14129523D01*
X24105639Y-14129523D02*
X24086591Y-14119999D01*
X24086591Y-14119999D02*
X24077067Y-14110475D01*
X24077067Y-14110475D02*
X24067543Y-14091428D01*
X24067543Y-14091428D02*
X24067543Y-14034285D01*
X24067543Y-14034285D02*
X24077067Y-14015237D01*
X24077067Y-14015237D02*
X24086591Y-14005714D01*
X24086591Y-14005714D02*
X24105639Y-13996190D01*
X24105639Y-13996190D02*
X24143734Y-13996190D01*
X24143734Y-13996190D02*
X24162781Y-14005714D01*
X24238972Y-14205714D02*
X24248496Y-14196190D01*
X24248496Y-14196190D02*
X24267543Y-14167618D01*
X24267543Y-14167618D02*
X24277067Y-14148571D01*
X24277067Y-14148571D02*
X24286591Y-14119999D01*
X24286591Y-14119999D02*
X24296115Y-14072380D01*
X24296115Y-14072380D02*
X24296115Y-14034285D01*
X24296115Y-14034285D02*
X24286591Y-13986666D01*
X24286591Y-13986666D02*
X24277067Y-13958095D01*
X24277067Y-13958095D02*
X24267543Y-13939047D01*
X24267543Y-13939047D02*
X24248496Y-13910475D01*
X24248496Y-13910475D02*
X24238972Y-13900952D01*
M02*
