%TF.GenerationSoftware,KiCad,Pcbnew,8.0.8+1*%
%TF.CreationDate,2025-05-19T02:25:44+00:00*%
%TF.ProjectId,backplate,6261636b-706c-4617-9465-2e6b69636164,0.2*%
%TF.SameCoordinates,Original*%
%TF.FileFunction,Drillmap*%
%TF.FilePolarity,Positive*%
%FSLAX45Y45*%
G04 Gerber Fmt 4.5, Leading zero omitted, Abs format (unit mm)*
G04 Created by KiCad (PCBNEW 8.0.8+1) date 2025-05-19 02:25:44*
%MOMM*%
%LPD*%
G01*
G04 APERTURE LIST*
%ADD10C,0.150000*%
%ADD11C,0.200000*%
G04 APERTURE END LIST*
D10*
X9100007Y-9126587D02*
X9154488Y-5825011D01*
X9183010Y-5780681D02*
X12001128Y-4440685D01*
X12028897Y-4404213D02*
X12090392Y-4055454D01*
X12143067Y-4014254D02*
X14616690Y-4184528D01*
X14668420Y-4147587D02*
X14697001Y-4040921D01*
X14758238Y-4005566D02*
X16308936Y-4421074D01*
X16344291Y-4482312D02*
X16313519Y-4597154D01*
X16330607Y-4649160D02*
X18762011Y-6591581D01*
X18724064Y-6763405D02*
X18776118Y-6651776D01*
X20080569Y-13476294D02*
X20299724Y-13732601D01*
X20290401Y-13806052D02*
X18238488Y-15242817D01*
X18168852Y-15230539D02*
X17425818Y-14169376D01*
X17303348Y-13994471D02*
X17272259Y-13950072D01*
X17262597Y-13939756D02*
X17106773Y-13814703D01*
X17090630Y-13806050D02*
X9134848Y-11276082D01*
X9100000Y-11228433D02*
X9100000Y-9127412D01*
X18748249Y-6829851D02*
X22371577Y-8519437D01*
X22395761Y-8585883D02*
X20137837Y-13428016D01*
X20121201Y-13447843D02*
X20080569Y-13476294D01*
X9154488Y-5825011D02*
G75*
G02*
X9183012Y-5780685I49992J-829D01*
G01*
X12028897Y-4404213D02*
G75*
G02*
X12001127Y-4440684I-49237J8683D01*
G01*
X12090392Y-4055454D02*
G75*
G02*
X12143066Y-4014260I49238J-8686D01*
G01*
X14668420Y-4147587D02*
G75*
G02*
X14616690Y-4184535I-48300J12937D01*
G01*
X14697001Y-4040921D02*
G75*
G02*
X14758240Y-4005561I48299J-12939D01*
G01*
X16308936Y-4421074D02*
G75*
G02*
X16344287Y-4482311I-12946J-48296D01*
G01*
X16330607Y-4649160D02*
G75*
G02*
X16313525Y-4597156I31213J39060D01*
G01*
X18762010Y-6591581D02*
G75*
G02*
X18776122Y-6651778I-31210J-39069D01*
G01*
X18748249Y-6829851D02*
G75*
G02*
X18724069Y-6763407I21131J45312D01*
G01*
X22371577Y-8519437D02*
G75*
G02*
X22395760Y-8585883I-21127J-45313D01*
G01*
X20137837Y-13428016D02*
G75*
G02*
X20121202Y-13447845I-45317J21126D01*
G01*
X20299724Y-13732601D02*
G75*
G02*
X20290397Y-13806047I-38004J-32489D01*
G01*
X18238488Y-15242817D02*
G75*
G02*
X18168853Y-15230538I-28678J40957D01*
G01*
X17262597Y-13939756D02*
G75*
G02*
X17272259Y-13950073I-31297J-38994D01*
G01*
X17090630Y-13806050D02*
G75*
G02*
X17106773Y-13814703I-15150J-47650D01*
G01*
X9134848Y-11276082D02*
G75*
G02*
X9099997Y-11228433I15153J47652D01*
G01*
X9100000Y-9127412D02*
G75*
G02*
X9100007Y-9126587I50050J2D01*
G01*
X11866476Y-5632457D02*
G75*
G02*
X11646476Y-5632457I-110000J0D01*
G01*
X11646476Y-5632457D02*
G75*
G02*
X11866476Y-5632457I110000J0D01*
G01*
X11571274Y-7306630D02*
G75*
G02*
X11351274Y-7306630I-110000J0D01*
G01*
X11351274Y-7306630D02*
G75*
G02*
X11571274Y-7306630I110000J0D01*
G01*
X16652656Y-7268418D02*
G75*
G02*
X16432656Y-7268418I-110000J0D01*
G01*
X16432656Y-7268418D02*
G75*
G02*
X16652656Y-7268418I110000J0D01*
G01*
X17303348Y-13994471D02*
G75*
G02*
X17425818Y-14169376I39533J-102649D01*
G01*
X18273650Y-12943031D02*
G75*
G02*
X18053650Y-12943031I-110000J0D01*
G01*
X18053650Y-12943031D02*
G75*
G02*
X18273650Y-12943031I110000J0D01*
G01*
D11*
X9353277Y-15570843D02*
X9353277Y-15370843D01*
X9353277Y-15370843D02*
X9400896Y-15370843D01*
X9400896Y-15370843D02*
X9429467Y-15380367D01*
X9429467Y-15380367D02*
X9448515Y-15399414D01*
X9448515Y-15399414D02*
X9458039Y-15418462D01*
X9458039Y-15418462D02*
X9467563Y-15456557D01*
X9467563Y-15456557D02*
X9467563Y-15485129D01*
X9467563Y-15485129D02*
X9458039Y-15523224D01*
X9458039Y-15523224D02*
X9448515Y-15542272D01*
X9448515Y-15542272D02*
X9429467Y-15561319D01*
X9429467Y-15561319D02*
X9400896Y-15570843D01*
X9400896Y-15570843D02*
X9353277Y-15570843D01*
X9553277Y-15570843D02*
X9553277Y-15437510D01*
X9553277Y-15475605D02*
X9562801Y-15456557D01*
X9562801Y-15456557D02*
X9572324Y-15447033D01*
X9572324Y-15447033D02*
X9591372Y-15437510D01*
X9591372Y-15437510D02*
X9610420Y-15437510D01*
X9677086Y-15570843D02*
X9677086Y-15437510D01*
X9677086Y-15370843D02*
X9667563Y-15380367D01*
X9667563Y-15380367D02*
X9677086Y-15389891D01*
X9677086Y-15389891D02*
X9686610Y-15380367D01*
X9686610Y-15380367D02*
X9677086Y-15370843D01*
X9677086Y-15370843D02*
X9677086Y-15389891D01*
X9800896Y-15570843D02*
X9781848Y-15561319D01*
X9781848Y-15561319D02*
X9772324Y-15542272D01*
X9772324Y-15542272D02*
X9772324Y-15370843D01*
X9905658Y-15570843D02*
X9886610Y-15561319D01*
X9886610Y-15561319D02*
X9877086Y-15542272D01*
X9877086Y-15542272D02*
X9877086Y-15370843D01*
X10134229Y-15570843D02*
X10134229Y-15370843D01*
X10134229Y-15370843D02*
X10200896Y-15513700D01*
X10200896Y-15513700D02*
X10267563Y-15370843D01*
X10267563Y-15370843D02*
X10267563Y-15570843D01*
X10448515Y-15570843D02*
X10448515Y-15466081D01*
X10448515Y-15466081D02*
X10438991Y-15447033D01*
X10438991Y-15447033D02*
X10419944Y-15437510D01*
X10419944Y-15437510D02*
X10381848Y-15437510D01*
X10381848Y-15437510D02*
X10362801Y-15447033D01*
X10448515Y-15561319D02*
X10429467Y-15570843D01*
X10429467Y-15570843D02*
X10381848Y-15570843D01*
X10381848Y-15570843D02*
X10362801Y-15561319D01*
X10362801Y-15561319D02*
X10353277Y-15542272D01*
X10353277Y-15542272D02*
X10353277Y-15523224D01*
X10353277Y-15523224D02*
X10362801Y-15504176D01*
X10362801Y-15504176D02*
X10381848Y-15494653D01*
X10381848Y-15494653D02*
X10429467Y-15494653D01*
X10429467Y-15494653D02*
X10448515Y-15485129D01*
X10543753Y-15437510D02*
X10543753Y-15637510D01*
X10543753Y-15447033D02*
X10562801Y-15437510D01*
X10562801Y-15437510D02*
X10600896Y-15437510D01*
X10600896Y-15437510D02*
X10619944Y-15447033D01*
X10619944Y-15447033D02*
X10629467Y-15456557D01*
X10629467Y-15456557D02*
X10638991Y-15475605D01*
X10638991Y-15475605D02*
X10638991Y-15532748D01*
X10638991Y-15532748D02*
X10629467Y-15551795D01*
X10629467Y-15551795D02*
X10619944Y-15561319D01*
X10619944Y-15561319D02*
X10600896Y-15570843D01*
X10600896Y-15570843D02*
X10562801Y-15570843D01*
X10562801Y-15570843D02*
X10543753Y-15561319D01*
X10724705Y-15551795D02*
X10734229Y-15561319D01*
X10734229Y-15561319D02*
X10724705Y-15570843D01*
X10724705Y-15570843D02*
X10715182Y-15561319D01*
X10715182Y-15561319D02*
X10724705Y-15551795D01*
X10724705Y-15551795D02*
X10724705Y-15570843D01*
X10724705Y-15447033D02*
X10734229Y-15456557D01*
X10734229Y-15456557D02*
X10724705Y-15466081D01*
X10724705Y-15466081D02*
X10715182Y-15456557D01*
X10715182Y-15456557D02*
X10724705Y-15447033D01*
X10724705Y-15447033D02*
X10724705Y-15466081D01*
M02*
